<svg width="32" height="24" viewBox="0 0 32 24" fill="none" xmlns="http://www.w3.org/2000/svg">
<g clip-path="url(#clip0_513_66)">
<path d="M6.602 6.13799C6.4481 5.85152 6.09218 5.74557 5.8113 5.90188L2.44136 7.78351C2.16048 7.94047 2.05659 8.30345 2.20986 8.58992L2.67158 9.45061L4.43703 8.465C4.71792 8.30803 5.07383 8.41398 5.22773 8.7011L10.1925 17.9503C10.3465 18.2367 10.2426 18.5997 9.96104 18.7567L8.19559 19.7423L8.65988 20.6076C8.81379 20.894 9.1697 21 9.45058 20.8437L12.8205 18.9621C13.1014 18.8051 13.2053 18.4421 13.052 18.1556L6.602 6.13799Z" fill="#00A9EC"/>
<path d="M9.0299 4.87379C8.96385 4.73514 8.79904 4.67693 8.66309 4.74429L7.39527 5.37215C7.25932 5.43952 7.20224 5.6076 7.2683 5.74625L13.5689 17.4088C13.6221 17.5075 13.7446 17.5429 13.8408 17.4866L13.9633 17.4153C14.0499 17.365 14.0864 17.2564 14.0479 17.1622L9.0299 4.87379Z" fill="#00A9EC"/>
<path d="M11.8368 3.85088C11.7938 3.70307 11.6399 3.6187 11.4956 3.66252L10.1451 4.07259C10.0002 4.11641 9.91744 4.27338 9.9604 4.42053L14.3243 16.9706C14.3615 17.0772 14.4763 17.1321 14.5802 17.0922L14.7123 17.0419C14.8059 17.0065 14.8592 16.9052 14.8361 16.8058L11.8368 3.85088Z" fill="#00A9EC"/>
<path d="M14.7739 3.08634L13.3733 3.24658C13.2232 3.26358 13.1142 3.40289 13.1309 3.55593L15.2484 16.6952C15.2664 16.8064 15.3703 16.8816 15.4793 16.8614L15.6178 16.8359C15.7159 16.8175 15.7858 16.7279 15.7807 16.6259L15.0772 3.33356C15.0605 3.18052 14.9239 3.06934 14.7739 3.08634Z" fill="#00A9EC"/>
<path d="M24.54 5.43819L23.2721 4.81033C23.1362 4.74297 22.9714 4.80118 22.9053 4.93983L17.8873 17.2283C17.8488 17.3224 17.8854 17.431 17.9719 17.4814L18.0944 17.5526C18.1906 17.6089 18.3131 17.5736 18.3663 17.4748L24.6669 5.81229C24.733 5.67364 24.6759 5.50556 24.54 5.43819Z" fill="#00A9EC"/>
<path d="M21.7914 4.13866L20.4409 3.72859C20.296 3.68477 20.1427 3.76914 20.0997 3.91695L17.1011 16.8725C17.078 16.9719 17.1312 17.0726 17.2248 17.1086L17.357 17.1589C17.4608 17.1982 17.5756 17.1432 17.6128 17.0373L21.9768 4.48726C22.0197 4.33945 21.937 4.18314 21.7921 4.13932L21.7914 4.13866Z" fill="#00A9EC"/>
<path d="M18.5626 3.31198L17.162 3.15174C17.0119 3.13474 16.8754 3.24592 16.8587 3.39896L16.1552 16.6913C16.1501 16.7933 16.2193 16.8829 16.3181 16.9013L16.4566 16.9268C16.5656 16.947 16.6695 16.8718 16.6875 16.7606L18.805 3.62133C18.8216 3.46829 18.7126 3.32898 18.5626 3.31198V3.31198Z" fill="#00A9EC"/>
<path d="M29.5586 7.7181L26.1887 5.83648C25.9078 5.67951 25.5519 5.78547 25.398 6.07258L18.948 18.0896C18.7941 18.376 18.898 18.739 19.1795 18.896L22.5494 20.7776C22.8303 20.9346 23.1862 20.8286 23.3401 20.5415L29.7901 8.52451C29.944 8.23805 29.8402 7.87507 29.5586 7.7181V7.7181ZM26.3958 8.85806C26.6613 8.85806 26.8768 9.07781 26.8768 9.34858C26.8768 9.61934 26.6613 9.8391 26.3958 9.8391C26.1303 9.8391 25.9149 9.61934 25.9149 9.34858C25.9149 9.07781 26.1303 8.85806 26.3958 8.85806ZM25.5622 10.4277C25.8277 10.4277 26.0431 10.6475 26.0431 10.9182C26.0431 11.189 25.8277 11.4087 25.5622 11.4087C25.2967 11.4087 25.0812 11.189 25.0812 10.9182C25.0812 10.6475 25.2967 10.4277 25.5622 10.4277ZM24.6644 11.9974C24.9299 11.9974 25.1453 12.2171 25.1453 12.4879C25.1453 12.7587 24.9299 12.9784 24.6644 12.9784C24.3989 12.9784 24.1834 12.7587 24.1834 12.4879C24.1834 12.2171 24.3989 11.9974 24.6644 11.9974ZM23.8307 13.567C24.0962 13.567 24.3117 13.7868 24.3117 14.0575C24.3117 14.3283 24.0962 14.5481 23.8307 14.5481C23.5652 14.5481 23.3497 14.3283 23.3497 14.0575C23.3497 13.7868 23.5652 13.567 23.8307 13.567ZM22.0992 17.6874C21.8337 17.6874 21.6183 17.4676 21.6183 17.1968C21.6183 16.9261 21.8337 16.7063 22.0992 16.7063C22.3647 16.7063 22.5802 16.9261 22.5802 17.1968C22.5802 17.4676 22.3647 17.6874 22.0992 17.6874ZM22.4519 15.6272C22.4519 15.3564 22.6674 15.1367 22.9329 15.1367C23.1984 15.1367 23.4139 15.3564 23.4139 15.6272C23.4139 15.898 23.1984 16.1177 22.9329 16.1177C22.6674 16.1177 22.4519 15.898 22.4519 15.6272ZM23.7024 17.7528C23.437 17.7528 23.2215 17.533 23.2215 17.2622C23.2215 16.9915 23.437 16.7717 23.7024 16.7717C23.9679 16.7717 24.1834 16.9915 24.1834 17.2622C24.1834 17.533 23.9679 17.7528 23.7024 17.7528ZM24.5361 16.1831C24.2706 16.1831 24.0551 15.9634 24.0551 15.6926C24.0551 15.4218 24.2706 15.2021 24.5361 15.2021C24.8016 15.2021 25.0171 15.4218 25.0171 15.6926C25.0171 15.9634 24.8016 16.1831 24.5361 16.1831ZM25.4339 14.6135C25.1684 14.6135 24.9529 14.3937 24.9529 14.1229C24.9529 13.8522 25.1684 13.6324 25.4339 13.6324C25.6994 13.6324 25.9149 13.8522 25.9149 14.1229C25.9149 14.3937 25.6994 14.6135 25.4339 14.6135ZM26.2676 13.0438C26.0021 13.0438 25.7866 12.8241 25.7866 12.5533C25.7866 12.2825 26.0021 12.0628 26.2676 12.0628C26.5331 12.0628 26.7485 12.2825 26.7485 12.5533C26.7485 12.8241 26.5331 13.0438 26.2676 13.0438ZM27.1654 11.4742C26.8999 11.4742 26.6844 11.2544 26.6844 10.9836C26.6844 10.7129 26.8999 10.4931 27.1654 10.4931C27.4309 10.4931 27.6463 10.7129 27.6463 10.9836C27.6463 11.2544 27.4309 11.4742 27.1654 11.4742ZM27.999 9.9045C27.7335 9.9045 27.5181 9.68475 27.5181 9.41398C27.5181 9.14322 27.7335 8.92346 27.999 8.92346C28.2645 8.92346 28.48 9.14322 28.48 9.41398C28.48 9.68475 28.2645 9.9045 27.999 9.9045Z" fill="#00A9EC"/>
<path d="M4.60003 8.86367L2.63522 9.96074C2.55166 10.0074 2.521 10.1143 2.56675 10.1995L2.78848 10.6126C2.83423 10.6978 2.93907 10.7291 3.02264 10.6824L4.98744 9.58535C5.07101 9.53869 5.10167 9.43177 5.05591 9.34655L4.83418 8.9335C4.78843 8.84827 4.6836 8.81701 4.60003 8.86367Z" fill="#00A9EC"/>
<path d="M5.17771 9.97549L3.2129 11.0726C3.12933 11.1192 3.09868 11.2261 3.14443 11.3114L3.36616 11.7244C3.41191 11.8096 3.51674 11.8409 3.60031 11.7942L5.56512 10.6972C5.64869 10.6505 5.67934 10.5436 5.63359 10.4584L5.41186 10.0453C5.36611 9.96009 5.26127 9.92883 5.17771 9.97549Z" fill="#00A9EC"/>
<path d="M5.75474 11.0873L3.78993 12.1843C3.70636 12.231 3.67571 12.3379 3.72146 12.4231L3.94319 12.8362C3.98894 12.9214 4.09378 12.9527 4.17734 12.906L6.14215 11.809C6.22572 11.7623 6.25637 11.6554 6.21062 11.5701L5.98889 11.1571C5.94314 11.0719 5.83831 11.0406 5.75474 11.0873Z" fill="#00A9EC"/>
<path d="M6.33177 12.1991L4.36696 13.2962C4.2834 13.3428 4.25274 13.4497 4.29849 13.535L4.52022 13.948C4.56598 14.0332 4.67081 14.0645 4.75438 14.0178L6.71918 12.9208C6.80275 12.8741 6.83341 12.7672 6.78766 12.682L6.56593 12.2689C6.52017 12.1837 6.41534 12.1524 6.33177 12.1991Z" fill="#00A9EC"/>
<path d="M6.97339 13.3109L5.00859 14.4079C4.92502 14.4546 4.89436 14.5615 4.94011 14.6467L5.16184 15.0598C5.2076 15.145 5.31243 15.1763 5.396 15.1296L7.36081 14.0326C7.44437 13.9859 7.47503 13.879 7.42928 13.7938L7.20755 13.3807C7.16179 13.2955 7.05696 13.2642 6.97339 13.3109Z" fill="#00A9EC"/>
<path d="M7.55043 14.4227L5.58562 15.5197C5.50205 15.5664 5.4714 15.6733 5.51715 15.7585L5.73888 16.1716C5.78463 16.2568 5.88946 16.2881 5.97303 16.2414L7.93784 15.1443C8.02141 15.0977 8.05206 14.9908 8.00631 14.9055L7.78458 14.4925C7.73883 14.4073 7.63399 14.376 7.55043 14.4227Z" fill="#00A9EC"/>
<path d="M8.12746 15.5345L6.16265 16.6315C6.07908 16.6782 6.04843 16.7851 6.09418 16.8704L6.31591 17.2834C6.36166 17.3686 6.4665 17.3999 6.55006 17.3532L8.51487 16.2562C8.59844 16.2095 8.62909 16.1026 8.58334 16.0174L8.36161 15.6043C8.31586 15.5191 8.21103 15.4878 8.12746 15.5345Z" fill="#00A9EC"/>
<path d="M8.70449 16.6463L6.73969 17.7434C6.65612 17.79 6.62546 17.8969 6.67121 17.9822L6.89294 18.3952C6.9387 18.4804 7.04353 18.5117 7.1271 18.465L9.0919 17.368C9.17547 17.3213 9.20613 17.2144 9.16038 17.1292L8.93865 16.7161C8.89289 16.6309 8.78806 16.5996 8.70449 16.6463Z" fill="#00A9EC"/>
<path d="M9.28153 17.7581L7.31672 18.8551C7.23315 18.9018 7.2025 19.0087 7.24825 19.094L7.46998 19.507C7.51573 19.5922 7.62056 19.6235 7.70413 19.5768L9.66894 18.4798C9.75251 18.4331 9.78316 18.3262 9.73741 18.241L9.51568 17.8279C9.46993 17.7427 9.36509 17.7114 9.28153 17.7581Z" fill="#00A9EC"/>
<path d="M31.199 0H0.800962C0.359118 0 0 0.366252 0 0.816874V23.1831C0 23.6337 0.359118 24 0.800962 24H31.199C31.6409 24 32 23.6337 32 23.1831V0.816874C32 0.366252 31.6409 0 31.199 0ZM31.3587 23.1831C31.3587 23.2714 31.2856 23.346 31.199 23.346H0.800962C0.714389 23.346 0.641283 23.2714 0.641283 23.1831V0.816874C0.641283 0.728581 0.714389 0.654022 0.800962 0.654022H31.199C31.2856 0.654022 31.3587 0.728581 31.3587 0.816874V23.1831Z" fill="#00A9EC"/>
</g>
<defs>
<clipPath id="clip0_513_66">
<rect width="32" height="24" fill="white"/>
</clipPath>
</defs>
</svg>
