<svg width="32" height="20" viewBox="0 0 32 20" fill="none" xmlns="http://www.w3.org/2000/svg">
<g clip-path="url(#clip0_513_46)">
<path d="M5.15148 3.42443C4.97382 3.10311 4.56298 2.98427 4.23874 3.1596L0.348672 5.27015C0.0244377 5.44622 -0.0954846 5.85336 0.0814378 6.17468L0.614426 7.14009L2.65236 6.03456C2.9766 5.8585 3.38744 5.97734 3.56511 6.29939L9.29695 16.6732C9.47461 16.9945 9.35469 17.4016 9.02971 17.5777L6.99177 18.6832L7.52772 19.6538C7.70539 19.9751 8.11623 20.0939 8.44046 19.9186L12.3305 17.808C12.6548 17.632 12.7747 17.2248 12.5978 16.9035L5.15148 3.42443Z" fill="#00A9EC"/>
<path d="M7.9541 2.00712C7.87786 1.8516 7.68761 1.78631 7.53068 1.86187L6.06718 2.56612C5.91024 2.64168 5.84436 2.83022 5.92061 2.98574L13.1937 16.0672C13.2551 16.178 13.3965 16.2176 13.5075 16.1545L13.6489 16.0745C13.7489 16.0181 13.7911 15.8963 13.7466 15.7906L7.9541 2.00712Z" fill="#00A9EC"/>
<path d="M11.1942 0.859763C11.1446 0.69397 10.967 0.599337 10.8004 0.648488L9.24142 1.10845C9.07412 1.1576 8.97863 1.33367 9.02822 1.49872L14.0657 15.5757C14.1086 15.6953 14.2411 15.7569 14.3611 15.7121L14.5136 15.6556C14.6216 15.616 14.6831 15.5023 14.6564 15.3908L11.1942 0.859763Z" fill="#00A9EC"/>
<path d="M14.5846 0.00220269L12.9679 0.181933C12.7947 0.201007 12.6688 0.357263 12.6881 0.528924L15.1324 15.2668C15.1531 15.3916 15.2731 15.4759 15.3989 15.4532L15.5588 15.4246C15.6721 15.404 15.7528 15.3035 15.7468 15.1891L14.9348 0.278768C14.9155 0.107107 14.7578 -0.0176044 14.5846 0.0014691V0.00220269Z" fill="#00A9EC"/>
<path d="M25.8581 2.63946L24.3946 1.9352C24.2376 1.85964 24.0474 1.92493 23.9711 2.08046L18.1786 15.864C18.1342 15.9696 18.1764 16.0914 18.2763 16.1479L18.4177 16.2278C18.5287 16.2909 18.6701 16.2513 18.7316 16.1405L26.0046 3.05907C26.0809 2.90355 26.015 2.71502 25.8581 2.63946V2.63946Z" fill="#00A9EC"/>
<path d="M22.6853 1.18182L21.1263 0.721852C20.959 0.672701 20.7821 0.767335 20.7325 0.933127L17.271 15.4649C17.2444 15.5764 17.3058 15.6894 17.4139 15.7297L17.5664 15.7862C17.6863 15.8302 17.8188 15.7686 17.8618 15.6498L22.8985 1.57209C22.9481 1.4063 22.8526 1.23097 22.6853 1.18182Z" fill="#00A9EC"/>
<path d="M18.9581 0.254564L17.3414 0.0748334C17.1681 0.0557599 17.0105 0.180471 16.9912 0.352132L16.1791 15.2617C16.1732 15.3762 16.2532 15.4767 16.3672 15.4972L16.5271 15.5258C16.6529 15.5486 16.7728 15.4642 16.7936 15.3395L19.2379 0.601555C19.2571 0.429893 19.1313 0.273638 18.9581 0.254564V0.254564Z" fill="#00A9EC"/>
<path d="M31.6513 5.19677L27.7613 3.08622C27.437 2.91016 27.0262 3.029 26.8485 3.35105L19.403 16.8301C19.2253 17.1514 19.3452 17.5586 19.6702 17.7346L23.5603 19.8452C23.8845 20.0213 24.2954 19.9024 24.473 19.5804L31.9186 6.1013C32.0962 5.77998 31.9763 5.37284 31.6513 5.19677V5.19677ZM28.0004 6.47543C28.3068 6.47543 28.5556 6.72192 28.5556 7.02563C28.5556 7.32933 28.3068 7.57582 28.0004 7.57582C27.6939 7.57582 27.4452 7.32933 27.4452 7.02563C27.4452 6.72192 27.6939 6.47543 28.0004 6.47543ZM27.038 8.23606C27.3445 8.23606 27.5932 8.48255 27.5932 8.78625C27.5932 9.08996 27.3445 9.33645 27.038 9.33645C26.7316 9.33645 26.4828 9.08996 26.4828 8.78625C26.4828 8.48255 26.7316 8.23606 27.038 8.23606ZM26.0017 9.99669C26.3081 9.99669 26.5569 10.2432 26.5569 10.5469C26.5569 10.8506 26.3081 11.0971 26.0017 11.0971C25.6952 11.0971 25.4465 10.8506 25.4465 10.5469C25.4465 10.2432 25.6952 9.99669 26.0017 9.99669ZM25.0393 11.7573C25.3458 11.7573 25.5945 12.0038 25.5945 12.3075C25.5945 12.6112 25.3458 12.8577 25.0393 12.8577C24.7329 12.8577 24.4841 12.6112 24.4841 12.3075C24.4841 12.0038 24.7329 11.7573 25.0393 11.7573ZM23.0406 16.379C22.7342 16.379 22.4854 16.1325 22.4854 15.8288C22.4854 15.5251 22.7342 15.2786 23.0406 15.2786C23.3471 15.2786 23.5958 15.5251 23.5958 15.8288C23.5958 16.1325 23.3471 16.379 23.0406 16.379ZM23.4478 14.0681C23.4478 13.7644 23.6965 13.5179 24.003 13.5179C24.3094 13.5179 24.5582 13.7644 24.5582 14.0681C24.5582 14.3718 24.3094 14.6183 24.003 14.6183C23.6965 14.6183 23.4478 14.3718 23.4478 14.0681ZM24.8913 16.4523C24.5848 16.4523 24.3361 16.2058 24.3361 15.9021C24.3361 15.5984 24.5848 15.3519 24.8913 15.3519C25.1977 15.3519 25.4465 15.5984 25.4465 15.9021C25.4465 16.2058 25.1977 16.4523 24.8913 16.4523ZM25.8536 14.6917C25.5471 14.6917 25.2984 14.4452 25.2984 14.1415C25.2984 13.8378 25.5471 13.5913 25.8536 13.5913C26.1601 13.5913 26.4088 13.8378 26.4088 14.1415C26.4088 14.4452 26.1601 14.6917 25.8536 14.6917ZM26.89 12.9311C26.5835 12.9311 26.3348 12.6846 26.3348 12.3809C26.3348 12.0772 26.5835 11.8307 26.89 11.8307C27.1964 11.8307 27.4452 12.0772 27.4452 12.3809C27.4452 12.6846 27.1964 12.9311 26.89 12.9311ZM27.8523 11.1704C27.5458 11.1704 27.2971 10.924 27.2971 10.6202C27.2971 10.3165 27.5458 10.07 27.8523 10.07C28.1588 10.07 28.4075 10.3165 28.4075 10.6202C28.4075 10.924 28.1588 11.1704 27.8523 11.1704ZM28.8887 9.40981C28.5822 9.40981 28.3335 9.16332 28.3335 8.85961C28.3335 8.55591 28.5822 8.30942 28.8887 8.30942C29.1952 8.30942 29.4439 8.55591 29.4439 8.85961C29.4439 9.16332 29.1952 9.40981 28.8887 9.40981ZM29.851 7.64918C29.5446 7.64918 29.2958 7.40269 29.2958 7.09899C29.2958 6.79528 29.5446 6.54879 29.851 6.54879C30.1575 6.54879 30.4062 6.79528 30.4062 7.09899C30.4062 7.40269 30.1575 7.64918 29.851 7.64918Z" fill="#00A9EC"/>
<path d="M2.84059 6.48273L0.572524 7.71328C0.476058 7.76562 0.440671 7.88554 0.493484 7.98114L0.749438 8.44444C0.802251 8.54003 0.923266 8.5751 1.01973 8.52276L3.2878 7.29222C3.38426 7.23988 3.41965 7.11995 3.36683 7.02436L3.11088 6.56106C3.05807 6.46546 2.93705 6.43039 2.84059 6.48273Z" fill="#00A9EC"/>
<path d="M3.50742 7.7298L1.23936 8.96035C1.14289 9.01269 1.10751 9.13261 1.16032 9.22821L1.41627 9.69151C1.46909 9.7871 1.5901 9.82217 1.68657 9.76983L3.95463 8.53929C4.0511 8.48695 4.08648 8.36702 4.03367 8.27143L3.77772 7.80813C3.7249 7.71253 3.60389 7.67746 3.50742 7.7298Z" fill="#00A9EC"/>
<path d="M4.17352 8.97687L1.90545 10.2074C1.80899 10.2598 1.7736 10.3797 1.82642 10.4753L2.08237 10.9386C2.13518 11.0342 2.2562 11.0692 2.35266 11.0169L4.62073 9.78636C4.71719 9.73402 4.75258 9.61409 4.69977 9.5185L4.44381 9.0552C4.391 8.9596 4.26998 8.92453 4.17352 8.97687Z" fill="#00A9EC"/>
<path d="M4.83961 10.224L2.57155 11.4545C2.47508 11.5069 2.4397 11.6268 2.49251 11.7224L2.74846 12.1857C2.80128 12.2813 2.92229 12.3163 3.01876 12.264L5.28682 11.0335C5.38329 10.9811 5.41867 10.8612 5.36586 10.7656L5.10991 10.3023C5.05709 10.2067 4.93608 10.1716 4.83961 10.224Z" fill="#00A9EC"/>
<path d="M5.58027 11.471L3.3122 12.7016C3.21574 12.7539 3.18035 12.8738 3.23316 12.9694L3.48911 13.4327C3.54193 13.5283 3.66294 13.5634 3.75941 13.511L6.02747 12.2805C6.12394 12.2282 6.15933 12.1082 6.10651 12.0126L5.85056 11.5493C5.79775 11.4537 5.67673 11.4187 5.58027 11.471Z" fill="#00A9EC"/>
<path d="M6.24636 12.7181L3.9783 13.9486C3.88183 14.001 3.84644 14.1209 3.89926 14.2165L4.15521 14.6798C4.20802 14.7754 4.32904 14.8105 4.4255 14.7581L6.69357 13.5276C6.79003 13.4752 6.82542 13.3553 6.77261 13.2597L6.51665 12.7964C6.46384 12.7008 6.34283 12.6657 6.24636 12.7181Z" fill="#00A9EC"/>
<path d="M6.91246 13.9652L4.64439 15.1957C4.54793 15.248 4.51254 15.368 4.56535 15.4636L4.8213 15.9269C4.87412 16.0225 4.99513 16.0575 5.0916 16.0052L7.35966 14.7746C7.45613 14.7223 7.49152 14.6024 7.4387 14.5068L7.18275 14.0435C7.12994 13.9479 7.00892 13.9128 6.91246 13.9652Z" fill="#00A9EC"/>
<path d="M7.57855 15.2122L5.31049 16.4428C5.21402 16.4951 5.17863 16.615 5.23145 16.7106L5.4874 17.1739C5.54021 17.2695 5.66123 17.3046 5.75769 17.2523L8.02576 16.0217C8.12222 15.9694 8.15761 15.8494 8.1048 15.7538L7.84884 15.2906C7.79603 15.195 7.67502 15.1599 7.57855 15.2122Z" fill="#00A9EC"/>
<path d="M8.24465 16.4593L5.97658 17.6898C5.88012 17.7422 5.84473 17.8621 5.89754 17.9577L6.1535 18.421C6.20631 18.5166 6.32732 18.5517 6.42379 18.4993L8.69185 17.2688C8.78832 17.2164 8.82371 17.0965 8.77089 17.0009L8.51494 16.5376C8.46213 16.442 8.34111 16.407 8.24465 16.4593Z" fill="#00A9EC"/>
</g>
<defs>
<clipPath id="clip0_513_46">
<rect width="32" height="20" fill="white"/>
</clipPath>
</defs>
</svg>
