<svg width="32" height="32" viewBox="0 0 32 32" fill="none" xmlns="http://www.w3.org/2000/svg">
<g clip-path="url(#clip0_522_37)">
<path d="M28.2667 32H3.73333C1.67442 32 0 30.3059 0 28.2227V4.02823C0 1.94509 1.67442 0.250977 3.73333 0.250977H28.2667C30.3256 0.250977 32 1.94509 32 4.02823V28.2227C32 30.3059 30.3256 32 28.2667 32ZM3.73333 1.2549C2.2214 1.2549 0.992248 2.49851 0.992248 4.02823V28.2227C0.992248 29.7525 2.2214 30.9961 3.73333 30.9961H28.2667C29.7786 30.9961 31.0078 29.7525 31.0078 28.2227V4.02823C31.0078 2.49851 29.7786 1.2549 28.2667 1.2549H3.73333Z" fill="#1D1E1B"/>
<path d="M0 4.64307L0 3.64165C0 1.6313 1.6124 -7.11232e-05 3.59938 -7.11232e-05L28.4006 -7.11232e-05C30.3876 -7.11232e-05 32 1.6313 32 3.64165V4.64307L0 4.64307Z" fill="#61CFD0"/>
<path d="M11.1719 9.78815V11.8462H15.3182V9.78815H11.1719Z" fill="#B9B9B9"/>
<path d="M11.1719 16.5145V18.5725H16.9294V16.5145H11.1719Z" fill="#B9B9B9"/>
<path d="M18.6172 16.5145V18.5725H21.2504V16.5145H18.6172Z" fill="#B9B9B9"/>
<path d="M22.0146 16.5145V18.5725H27.0156V16.5145H22.0146Z" fill="#B9B9B9"/>
<path d="M18.6172 9.78815V11.8462H23.9505V9.78815H18.6172Z" fill="#B9B9B9"/>
<path d="M16.082 9.78815V11.8462H17.8557V9.78815H16.082Z" fill="#B9B9B9"/>
<path d="M24.7129 9.78815V11.8462H27.4192V9.78815H24.7129Z" fill="#B9B9B9"/>
<path d="M11.1719 23.3411V25.3992H15.3182V23.3411H11.1719Z" fill="#B9B9B9"/>
<path d="M18.6172 23.3411V25.3992H23.9505V23.3411H18.6172Z" fill="#B9B9B9"/>
<path d="M16.082 23.3411V25.3992H17.8557V23.3411H16.082Z" fill="#B9B9B9"/>
<path d="M24.7129 23.3411V25.3992H27.4192V23.3411H24.7129Z" fill="#B9B9B9"/>
<path d="M6.44935 12.9256C7.61385 12.9256 8.55787 11.9705 8.55787 10.7923C8.55787 9.61406 7.61385 8.65894 6.44935 8.65894C5.28484 8.65894 4.34082 9.61406 4.34082 10.7923C4.34082 11.9705 5.28484 12.9256 6.44935 12.9256Z" fill="#FF0402"/>
<path d="M6.44935 19.702C7.61385 19.702 8.55787 18.7468 8.55787 17.5686C8.55787 16.3904 7.61385 15.4353 6.44935 15.4353C5.28484 15.4353 4.34082 16.3904 4.34082 17.5686C4.34082 18.7468 5.28484 19.702 6.44935 19.702Z" fill="#01A222"/>
<path d="M6.44935 26.4783C7.61385 26.4783 8.55787 25.5232 8.55787 24.345C8.55787 23.1668 7.61385 22.2117 6.44935 22.2117C5.28484 22.2117 4.34082 23.1668 4.34082 24.345C4.34082 25.5232 5.28484 26.4783 6.44935 26.4783Z" fill="#0194FF"/>
</g>
<defs>
<clipPath id="clip0_522_37">
<rect width="32" height="32" fill="white"/>
</clipPath>
</defs>
</svg>
