<svg width="32" height="30" viewBox="0 0 32 30" fill="none" xmlns="http://www.w3.org/2000/svg">
<g clip-path="url(#clip0_256_174)">
<path d="M31.3901 23.0146L19.8145 2.27392C19.0197 0.849778 17.5945 0 16.0003 0C14.406 0 12.9808 0.849778 12.186 2.27392L0.61038 23.0146C-0.232293 24.5235 -0.199929 26.3796 0.691891 27.8591C1.501 29.1997 2.88428 30 4.39582 30H27.6047C29.115 30 30.4995 29.1997 31.3086 27.8591C32.2016 26.3796 32.2328 24.5235 31.3901 23.0146ZM29.7611 26.9599C29.2721 27.7696 28.4869 28.2345 27.6047 28.2345H4.39582C3.51359 28.2345 2.72845 27.7696 2.23939 26.9599C1.66882 26.0148 1.64964 24.8284 2.18785 23.8632L13.7623 3.12252C14.237 2.27275 15.0737 1.76547 16.0003 1.76547C16.9268 1.76547 17.7635 2.27275 18.2382 3.12252L29.8139 23.8621C30.3521 24.8272 30.3329 26.0136 29.7623 26.9587L29.7611 26.9599Z" fill="#E9861D"/>
<path d="M16.0002 20.7607C16.9927 20.7607 17.7982 19.9697 17.7982 18.9952V9.22628C17.7982 8.25174 16.9927 7.46082 16.0002 7.46082C15.0077 7.46082 14.2021 8.25174 14.2021 9.22628V18.9952C14.2021 19.9697 15.0077 20.7607 16.0002 20.7607Z" fill="#E9861D"/>
<path d="M16.0009 25.8218C17.0601 25.8218 17.9188 24.9786 17.9188 23.9386C17.9188 22.8985 17.0601 22.0554 16.0009 22.0554C14.9417 22.0554 14.083 22.8985 14.083 23.9386C14.083 24.9786 14.9417 25.8218 16.0009 25.8218Z" fill="#E9861D"/>
</g>
<defs>
<clipPath id="clip0_256_174">
<rect width="32" height="30" fill="white"/>
</clipPath>
</defs>
</svg>
