<svg width="32" height="23" viewBox="0 0 32 23" fill="none" xmlns="http://www.w3.org/2000/svg">
<path d="M23.5694 23.0006C28.2256 23.0006 32.0002 19.2536 32.0002 14.6314C32.0002 10.0092 28.2256 6.26221 23.5694 6.26221C18.9133 6.26221 15.1387 10.0092 15.1387 14.6314C15.1387 19.2536 18.9133 23.0006 23.5694 23.0006Z" fill="#1480A9"/>
<path d="M6.83077 14.6314C6.83077 11.9044 8.11815 9.47794 10.1194 7.91162C9.25785 7.5573 8.31385 7.36182 7.32308 7.36182C3.27877 7.36182 0 10.6166 0 14.6314C0 18.6462 3.27877 21.901 7.32308 21.901C8.31385 21.901 9.25785 21.7043 10.1194 21.3512C8.11692 19.7849 6.83077 17.3584 6.83077 14.6314Z" fill="#1480A9"/>
<path d="M14.4001 14.6314C14.4001 11.6148 15.8795 8.9428 18.1552 7.28728C17.3109 6.98062 16.3976 6.81201 15.4463 6.81201C11.0955 6.81201 7.56934 10.3124 7.56934 14.6314C7.56934 18.9504 11.0955 22.4508 15.4463 22.4508C16.3976 22.4508 17.3109 22.2834 18.1552 21.9755C15.8795 20.3188 14.4001 17.6468 14.4001 14.6314Z" fill="#1480A9"/>
<path d="M2.52261 3.20772H27.2525L26.2112 4.24135C25.9712 4.47959 25.9712 4.8669 26.2112 5.10514C26.3318 5.22488 26.4894 5.28352 26.6469 5.28352C26.8045 5.28352 26.962 5.22366 27.0826 5.10514L29.1281 3.07455C29.3681 2.8363 29.3681 2.449 29.1281 2.21075L27.0814 0.178929C26.8414 -0.0593176 26.4512 -0.0593176 26.2112 0.178929C25.9712 0.417176 25.9712 0.80448 26.2112 1.04273L27.1601 1.98472H2.52261C2.18292 1.98472 1.90723 2.2584 1.90723 2.59561C1.90723 2.93282 2.18292 3.2065 2.52261 3.2065V3.20772Z" fill="#1480A9"/>
</svg>
