<svg xmlns="http://www.w3.org/2000/svg" width="1em" height="1em" viewBox="0 0 36 36"><path fill="currentColor" d="M30.47 24.37a17.16 17.16 0 0 0-24.93 0A2 2 0 0 0 5 25.74V31a2 2 0 0 0 2 2h22a2 2 0 0 0 2-2v-5.26a2 2 0 0 0-.53-1.37ZM29 31H7v-5.27a15.17 15.17 0 0 1 22 0Z" class="clr-i-outline--badged clr-i-outline-path-1--badged"/><path fill="currentColor" d="M18 17a7 7 0 0 0 6.85-5.56a7.4 7.4 0 0 1-2.24-6.69A7 7 0 1 0 18 17Zm0-12a5 5 0 1 1-5 5a5 5 0 0 1 5-5Z" class="clr-i-outline--badged clr-i-outline-path-2--badged"/><circle cx="30" cy="6" r="5" fill="currentColor" class="clr-i-outline--badged clr-i-outline-path-3--badged clr-i-badge"/><path fill="none" d="M0 0h36v36H0z"/></svg>