<svg width="32" height="11" viewBox="0 0 32 11" fill="none" xmlns="http://www.w3.org/2000/svg">
<g clip-path="url(#clip0_443_44)">
<path d="M31.3626 5.27106H13.089C12.7369 5.27106 12.4515 5.55425 12.4515 5.90359C12.4515 6.25292 12.7369 6.53612 13.089 6.53612H31.3626C31.7146 6.53612 32 6.25292 32 5.90359C32 5.55425 31.7146 5.27106 31.3626 5.27106Z" fill="#0099DC"/>
<path d="M7.75777 5.8062C8.27368 5.19181 8.58433 4.40241 8.58433 3.54217C8.58433 1.58892 6.98305 0 5.01461 0C3.04616 0 1.44489 1.58892 1.44489 3.54217C1.44489 4.40241 1.75596 5.19181 2.27145 5.8062C0.858008 6.74319 0 8.33295 0 10.0783C0 10.3111 0.190385 10.5 0.424967 10.5C0.659548 10.5 0.849934 10.3111 0.849934 10.0783C0.849934 8.55012 1.63357 7.1653 2.91145 6.40205C3.50173 6.83048 4.22884 7.08434 5.01461 7.08434C5.80037 7.08434 6.52749 6.83048 7.11777 6.40205C8.39607 7.16572 9.17928 8.55012 9.17928 10.0783C9.17928 10.3111 9.36967 10.5 9.60425 10.5C9.83883 10.5 10.0292 10.3111 10.0292 10.0783C10.0292 8.33295 9.17121 6.74319 7.75777 5.8062ZM2.29482 3.54217C2.29482 2.05404 3.5149 0.843373 5.01461 0.843373C6.51432 0.843373 7.7344 2.05404 7.7344 3.54217C7.7344 5.0303 6.51432 6.24096 5.01461 6.24096C3.5149 6.24096 2.29482 5.0303 2.29482 3.54217Z" fill="#0099DC"/>
</g>
<defs>
<clipPath id="clip0_443_44">
<rect width="32" height="10.5" fill="white"/>
</clipPath>
</defs>
</svg>
