<svg width="32" height="11" viewBox="0 0 32 11" fill="none" xmlns="http://www.w3.org/2000/svg">
<g clip-path="url(#clip0_443_48)">
<path d="M31.3626 5.05231H13.089C12.7384 5.05231 12.4515 5.34886 12.4515 5.7113C12.4515 6.07375 12.7384 6.3703 13.089 6.3703H31.3626C31.7132 6.3703 32 6.07375 32 5.7113C32 5.34886 31.7132 5.05231 31.3626 5.05231Z" fill="#0099DC"/>
<path d="M7.3906 5.37916C7.86911 4.80891 8.15936 4.06513 8.15936 3.25105C8.15936 1.4555 6.75145 0 5.01461 0C3.27777 0 1.86985 1.4555 1.86985 3.25105C1.86985 4.06513 2.16011 4.80891 2.63862 5.37916C1.0076 6.30967 0 8.09027 0 10.0607C0 10.3032 0.190385 10.5 0.424967 10.5C0.659548 10.5 0.849934 10.3032 0.849934 10.0607C0.849934 8.37276 1.73004 6.85268 3.1473 6.09351C3.2051 6.06232 3.25312 6.01927 3.29009 5.96874C3.7856 6.30527 4.37801 6.50165 5.01503 6.50165C5.65206 6.50165 6.24446 6.30527 6.73997 5.96874C6.77695 6.01927 6.82454 6.06232 6.88276 6.09351C8.2996 6.85224 9.18013 8.37232 9.18013 10.0607C9.18013 10.3032 9.37052 10.5 9.6051 10.5C9.83968 10.5 10.0301 10.3032 10.0301 10.0607C10.0301 8.09027 9.02247 6.30967 7.39145 5.37916H7.3906Z" fill="#0099DC"/>
</g>
<defs>
<clipPath id="clip0_443_48">
<rect width="32" height="10.5" fill="white"/>
</clipPath>
</defs>
</svg>
