<svg xmlns="http://www.w3.org/2000/svg" width="1em" height="1em" viewBox="0 0 15 15"><path fill="currentColor" fill-rule="evenodd" d="M.877 7.5a6.623 6.623 0 1 1 13.246 0a6.623 6.623 0 0 1-13.246 0ZM7.5 1.827a5.673 5.673 0 0 0-4.193 9.494A4.971 4.971 0 0 1 7.5 9.025a4.97 4.97 0 0 1 4.193 2.296A5.673 5.673 0 0 0 7.5 1.827Zm3.482 10.152A4.023 4.023 0 0 0 7.5 9.975a4.023 4.023 0 0 0-3.482 2.004A5.648 5.648 0 0 0 7.5 13.173c1.312 0 2.52-.446 3.482-1.194ZM5.15 6.505a2.35 2.35 0 1 1 4.7 0a2.35 2.35 0 0 1-4.7 0Zm2.35-1.4a1.4 1.4 0 1 0 0 2.8a1.4 1.4 0 0 0 0-2.8Z" clip-rule="evenodd"/></svg>