<svg width="32" height="32" viewBox="0 0 32 32" fill="none" xmlns="http://www.w3.org/2000/svg">
<g clip-path="url(#clip0_61_50)">
<path d="M16 0C7.16298 0 0 7.16298 0 16C0 24.837 7.16298 32 16 32C24.837 32 32 24.837 32 16C32 7.16298 24.837 0 16 0ZM19.6555 24.3451H8.2171C6.03859 24.3451 6.22055 21.4965 8.2171 21.4965H19.5338C24.9801 21.1376 25.2223 13.3308 19.5338 12.7247H11.9693C11.9693 12.7247 12.9079 13.7236 13.1187 13.9357C14.0875 15.1467 12.7561 17.2035 11.0005 15.872C10.698 15.5696 8.15561 13.0271 7.43027 12.3018C6.76518 11.5752 6.82541 10.8499 7.43027 10.3053L11.1222 6.61333C12.6356 5.64455 14.0875 7.15796 13.2405 8.54965C13.12 8.67012 11.909 9.8811 11.909 9.8811C11.7835 9.90243 18.3843 9.8811 19.6555 9.8811C28.854 10.6679 28.7335 23.6198 19.6555 24.3451Z" fill="#00A5E8"/>
</g>
<defs>
<clipPath id="clip0_61_50">
<rect width="32" height="32" fill="white"/>
</clipPath>
</defs>
</svg>
