<svg width="32" height="32" viewBox="0 0 32 32" fill="none" xmlns="http://www.w3.org/2000/svg">
<g clip-path="url(#clip0_143_21)">
<path d="M1.12062 0H0V31.9206H1.12062V0Z" fill="#1493D0"/>
<path d="M9.58754 0.0794067H8.46692V32H9.58754V0.0794067Z" fill="#1493D0"/>
<path d="M16.8093 0.0794067H15.6887V32H16.8093V0.0794067Z" fill="#1493D0"/>
<path d="M19.5487 0.0794067H18.428V32H19.5487V0.0794067Z" fill="#1493D0"/>
<path d="M21.9144 0.0794067H20.7938V32H21.9144V0.0794067Z" fill="#1493D0"/>
<path d="M24.0311 0.0794067H22.9105V32H24.0311V0.0794067Z" fill="#1493D0"/>
<path d="M25.7743 0.0794067H24.6537V32H25.7743V0.0794067Z" fill="#1493D0"/>
<path d="M29.0117 0.0794067H27.642V32H29.0117V0.0794067Z" fill="#1493D0"/>
<path d="M32 0.0794067H30.8794V32H32V0.0794067Z" fill="#1493D0"/>
<path d="M2.5525 0.0794067H1.80542V32H2.5525V0.0794067Z" fill="#1493D0"/>
<path d="M3.98445 0.0794067H3.23737V32H3.98445V0.0794067Z" fill="#1493D0"/>
<path d="M6.84828 0.0794067H6.1012V32H6.84828V0.0794067Z" fill="#1493D0"/>
<path d="M11.8288 0.0794067H11.0817V32H11.8288V0.0794067Z" fill="#1493D0"/>
<path d="M12.9494 0.0794067H12.2023V32H12.9494V0.0794067Z" fill="#1493D0"/>
<path d="M30.2568 0.0794067H29.5097V32H30.2568V0.0794067Z" fill="#1493D0"/>
<path d="M14.07 0.0794067H13.3229V32H14.07V0.0794067Z" fill="#1493D0"/>
</g>
<defs>
<clipPath id="clip0_143_21">
<rect width="32" height="32" fill="white"/>
</clipPath>
</defs>
</svg>
