<svg width="32" height="32" viewBox="0 0 32 32" fill="none" xmlns="http://www.w3.org/2000/svg">
<rect x="3" y="3" width="7.42857" height="26" fill="#00A9EC"/>
<path d="M21.5714 16L11.3571 29V3L21.5714 16Z" fill="#00A9EC"/>
<path d="M30.0607 17.0607C30.6464 16.4749 30.6464 15.5251 30.0607 14.9393L20.5147 5.3934C19.9289 4.80761 18.9792 4.80761 18.3934 5.3934C17.8076 5.97919 17.8076 6.92893 18.3934 7.51472L26.8787 16L18.3934 24.4853C17.8076 25.0711 17.8076 26.0208 18.3934 26.6066C18.9792 27.1924 19.9289 27.1924 20.5147 26.6066L30.0607 17.0607ZM28 17.5H29V14.5H28V17.5Z" fill="#00A9EC"/>
<rect x="0.5" y="0.5" width="31" height="31" stroke="#00A9EC"/>
</svg>
