<svg width="31" height="32" viewBox="0 0 31 32" fill="none" xmlns="http://www.w3.org/2000/svg">
<g clip-path="url(#clip0_525_128)">
<path d="M27.3833 30.6686H3.61667C1.62209 30.6686 0 29.045 0 27.0485V3.86064C0 1.86417 1.62209 0.24054 3.61667 0.24054H27.3833C29.3779 0.24054 31 1.86417 31 3.86064V27.0485C31 29.045 29.3779 30.6686 27.3833 30.6686ZM3.61667 1.20269C2.15198 1.20269 0.96124 2.39456 0.96124 3.86064V27.0485C0.96124 28.5146 2.15198 29.7065 3.61667 29.7065H27.3833C28.848 29.7065 30.0388 28.5146 30.0388 27.0485V3.86064C30.0388 2.39456 28.848 1.20269 27.3833 1.20269H3.61667Z" fill="#1D1E1B"/>
<path d="M0 4.44995L0 3.4902C0 1.56349 1.56202 -5.70714e-06 3.4869 -5.70714e-06L27.5131 -5.70714e-06C29.438 -5.70714e-06 31 1.56349 31 3.4902V4.44995L0 4.44995Z" fill="#1580BE"/>
<path d="M10.9342 7.57697H7.44967C6.65665 7.57697 6.00781 8.22642 6.00781 9.02019V12.508C6.00781 13.3018 6.65665 13.9512 7.44967 13.9512H10.9342C11.7272 13.9512 12.376 13.3018 12.376 12.508V9.02019C12.376 8.22642 11.7272 7.57697 10.9342 7.57697ZM10.784 11.1249H9.55239V12.3577C9.55239 12.5573 9.39138 12.7185 9.19192 12.7185C8.99246 12.7185 8.83146 12.5573 8.83146 12.3577V11.1249H7.59987C7.40041 11.1249 7.2394 10.9637 7.2394 10.7641C7.2394 10.5644 7.40041 10.4033 7.59987 10.4033H8.83146V9.17053C8.83146 8.97088 8.99246 8.80972 9.19192 8.80972C9.39138 8.80972 9.55239 8.97088 9.55239 9.17053V10.4033H10.784C10.9834 10.4033 11.1444 10.5644 11.1444 10.7641C11.1444 10.9637 10.9834 11.1249 10.784 11.1249Z" fill="#364869"/>
<path d="M23.5504 7.57697H20.0659C19.2729 7.57697 18.624 8.22642 18.624 9.02019V12.508C18.624 13.3018 19.2729 13.9512 20.0659 13.9512H23.5504C24.3434 13.9512 24.9922 13.3018 24.9922 12.508V9.02019C24.9922 8.22642 24.3434 7.57697 23.5504 7.57697ZM23.4002 11.1249H22.1686V12.3577C22.1686 12.5573 22.0076 12.7185 21.8081 12.7185C21.6087 12.7185 21.4477 12.5573 21.4477 12.3577V11.1249H20.2161C20.0166 11.1249 19.8556 10.9637 19.8556 10.7641C19.8556 10.5644 20.0166 10.4033 20.2161 10.4033H21.4477V9.17053C21.4477 8.97088 21.6087 8.80972 21.8081 8.80972C22.0076 8.80972 22.1686 8.97088 22.1686 9.17053V10.4033H23.4002C23.5996 10.4033 23.7607 10.5644 23.7607 10.7641C23.7607 10.9637 23.5996 11.1249 23.4002 11.1249Z" fill="#AA64A8"/>
<path d="M10.9342 17.6796H7.44967C6.65665 17.6796 6.00781 18.329 6.00781 19.1228V22.6106C6.00781 23.4044 6.65665 24.0538 7.44967 24.0538H10.9342C11.7272 24.0538 12.376 23.4044 12.376 22.6106V19.1228C12.376 18.329 11.7272 17.6796 10.9342 17.6796ZM10.784 21.2275H9.55239V22.4603C9.55239 22.6599 9.39138 22.8211 9.19192 22.8211C8.99246 22.8211 8.83146 22.6599 8.83146 22.4603V21.2275H7.59987C7.40041 21.2275 7.2394 21.0663 7.2394 20.8667C7.2394 20.667 7.40041 20.5059 7.59987 20.5059H8.83146V19.2731C8.83146 19.0735 8.99246 18.9123 9.19192 18.9123C9.39138 18.9123 9.55239 19.0735 9.55239 19.2731V20.5059H10.784C10.9834 20.5059 11.1444 20.667 11.1444 20.8667C11.1444 21.0663 10.9834 21.2275 10.784 21.2275Z" fill="#12D4D4"/>
<path d="M23.5504 17.6796H20.0659C19.2729 17.6796 18.624 18.329 18.624 19.1228V22.6106C18.624 23.4044 19.2729 24.0538 20.0659 24.0538H23.5504C24.3434 24.0538 24.9922 23.4044 24.9922 22.6106V19.1228C24.9922 18.329 24.3434 17.6796 23.5504 17.6796ZM23.4002 21.2275H22.1686V22.4603C22.1686 22.6599 22.0076 22.8211 21.8081 22.8211C21.6087 22.8211 21.4477 22.6599 21.4477 22.4603V21.2275H20.2161C20.0166 21.2275 19.8556 21.0663 19.8556 20.8667C19.8556 20.667 20.0166 20.5059 20.2161 20.5059H21.4477V19.2731C21.4477 19.0735 21.6087 18.9123 21.8081 18.9123C22.0076 18.9123 22.1686 19.0735 22.1686 19.2731V20.5059H23.4002C23.5996 20.5059 23.7607 20.667 23.7607 20.8667C23.7607 21.0663 23.5996 21.2275 23.4002 21.2275Z" fill="#59C8F7"/>
<path d="M22.9375 21.7687L17.2998 26.4195H19.0144V32H26.8605V26.4195H28.5752L22.9375 21.7687Z" fill="#D9801D"/>
</g>
<defs>
<clipPath id="clip0_525_128">
<rect width="31" height="32" fill="white"/>
</clipPath>
</defs>
</svg>
