<svg width="32" height="32" viewBox="0 0 32 32" fill="none" xmlns="http://www.w3.org/2000/svg">
<g clip-path="url(#clip0_195_169)">
<path d="M28.1935 2.5098H26.6667V0H24.186V2.5098H7.81395V0H5.33333V2.5098H3.80651C1.70791 2.5098 0 4.2378 0 6.3611V28.1487C0 30.272 1.70791 32 3.80651 32H28.1935C30.2921 32 32 30.272 32 28.1487V6.3611C32 4.2378 30.2921 2.5098 28.1935 2.5098ZM3.80651 5.01961H5.33333V7.52941H7.81395V5.01961H24.186V7.52941H26.6667V5.01961H28.1935C28.924 5.01961 29.5194 5.62071 29.5194 6.3611V9.03529H2.48062V6.3611C2.48062 5.62196 3.07473 5.01961 3.80651 5.01961ZM28.1935 29.4902H3.80651C3.07597 29.4902 2.48062 28.8891 2.48062 28.1487V11.5451H29.5194V28.1487C29.5194 28.8878 28.9253 29.4902 28.1935 29.4902Z" fill="#0986C7"/>
<path d="M7.31778 14.3059H4.83716V16.8157H7.31778V14.3059Z" fill="#0986C7"/>
<path d="M12.279 14.3059H9.79834V16.8157H12.279V14.3059Z" fill="#0986C7"/>
<path d="M17.2404 14.3059H14.7598V16.8157H17.2404V14.3059Z" fill="#0986C7"/>
<path d="M22.2016 14.3059H19.7209V16.8157H22.2016V14.3059Z" fill="#0986C7"/>
<path d="M27.1627 14.3059H24.6821V16.8157H27.1627V14.3059Z" fill="#0986C7"/>
<path d="M7.31778 19.3254H4.83716V21.8352H7.31778V19.3254Z" fill="#0986C7"/>
<path d="M12.279 19.3254H9.79834V21.8352H12.279V19.3254Z" fill="#0986C7"/>
<path d="M17.2404 19.3254H14.7598V21.8352H17.2404V19.3254Z" fill="#0986C7"/>
<path d="M22.2016 19.3254H19.7209V21.8352H22.2016V19.3254Z" fill="#0986C7"/>
<path d="M27.1627 19.3254H24.6821V21.8352H27.1627V19.3254Z" fill="#0986C7"/>
<path d="M7.31778 24.3451H4.83716V26.8549H7.31778V24.3451Z" fill="#0986C7"/>
<path d="M12.279 24.3451H9.79834V26.8549H12.279V24.3451Z" fill="#0986C7"/>
<path d="M17.2404 24.3451H14.7598V26.8549H17.2404V24.3451Z" fill="#0986C7"/>
<path d="M22.2016 24.3451H19.7209V26.8549H22.2016V24.3451Z" fill="#0986C7"/>
</g>
<defs>
<clipPath id="clip0_195_169">
<rect width="32" height="32" fill="white"/>
</clipPath>
</defs>
</svg>
