<svg width="32" height="25" viewBox="0 0 32 25" fill="none" xmlns="http://www.w3.org/2000/svg">
<path d="M0 10.8521H4.66843V7.90259L8.6708 12.8102L4.66843 17.7178V14.7693H0V10.8521Z" fill="#F5921D"/>
<path d="M27.1609 7.50753C24.7956 4.14874 20.6227 3.17027 17.2503 4.95089L18.142 6.21778L12.3672 6.62267L14.244 0.683283L15.2882 2.16568C20.087 -0.749049 26.2551 0.529818 29.6917 5.4091C31.7501 8.33254 32.4021 11.9417 31.7661 15.282L28.4228 15.4964C29.2052 12.8635 28.826 9.87153 27.1609 7.50645V7.50753Z" fill="#1480BA"/>
<path d="M11.8368 20.2114C9.77339 17.2803 9.12338 13.6603 9.76737 10.3124L13.1127 10.098C12.3203 12.7373 12.6964 15.7413 14.3676 18.114C16.7329 21.4728 20.9058 22.4513 24.2782 20.6707L23.3865 19.4038L29.1613 18.9989L27.2845 24.9383L26.2403 23.4559C21.4415 26.3706 15.2734 25.0917 11.8368 20.2124V20.2114Z" fill="#F5921D"/>
</svg>
