<svg width="32" height="32" viewBox="0 0 32 32" fill="none" xmlns="http://www.w3.org/2000/svg">
<path d="M31.3869 1.52971C30.2904 -0.0714704 28.1032 -0.481958 26.5022 0.61455C24.9012 1.71106 24.4907 3.89845 25.5871 5.49964C25.6532 5.59663 25.7249 5.68942 25.7994 5.77798L20.4016 13.1639C19.5568 12.7155 18.594 12.4597 17.5707 12.4597C17.2923 12.4597 17.0182 12.4807 16.7483 12.5173L15.3188 8.15375C16.3309 7.53661 17.007 6.42323 17.007 5.1496C17.007 3.20821 15.4341 1.63515 13.4928 1.63515C11.5516 1.63515 9.9787 3.20821 9.9787 5.1496C9.9787 7.09098 11.5516 8.66405 13.4928 8.66405C13.5645 8.66405 13.6362 8.66124 13.7079 8.65702L15.1234 12.977C13.0037 13.916 11.5249 16.0374 11.5249 18.5045C11.5249 18.8813 11.5615 19.2496 11.6275 19.6066L6.98043 21.5157C6.25652 20.5457 5.05047 19.9764 3.76148 20.124C1.83292 20.3461 0.449753 22.0893 0.671847 24.018C0.89394 25.9467 2.63695 27.33 4.56552 27.1079C6.49408 26.8858 7.87724 25.1426 7.65515 23.2139C7.64953 23.1661 7.6425 23.1183 7.63547 23.0705L12.1659 21.2092C13.1583 23.1886 15.2049 24.548 17.5707 24.548C18.7191 24.548 19.793 24.2274 20.7081 23.6708L23.0035 26.398C22.2852 27.3736 22.0898 28.695 22.6085 29.8857C23.383 31.6654 25.4536 32.4808 27.2331 31.7062C29.0127 30.9316 29.828 28.8609 29.0535 27.0812C28.2789 25.3015 26.2084 24.4861 24.4289 25.2607C24.3853 25.279 24.3431 25.3001 24.3009 25.3197L22.0111 22.601C23.0049 21.5241 23.6136 20.0846 23.6136 18.5031C23.6136 16.7951 22.9037 15.2529 21.7651 14.1536L27.1629 6.76765C28.2185 7.19501 29.4611 7.10363 30.4704 6.41199C32.0714 5.31548 32.4819 3.12809 31.3854 1.5269L31.3869 1.52971Z" fill="#1480A8"/>
<path d="M10.5424 16.9835L5.75054 11.1692V12.9377H0V21.0293H5.75054V22.7992L10.5424 16.9835Z" fill="#E1801D"/>
</svg>
