<svg width="32" height="25" viewBox="0 0 32 25" fill="none" xmlns="http://www.w3.org/2000/svg">
<g clip-path="url(#clip0_46_2)">
<path d="M29.25 3.1407H22.875V1.88442C22.875 0.84799 22.0312 0 21 0H11C9.96875 0 9.125 0.84799 9.125 1.88442V3.1407H2.75C1.2375 3.1407 0 4.38442 0 5.90452V22.2362C0 23.7563 1.2375 25 2.75 25H29.25C30.7625 25 32 23.7563 32 22.2362V5.90452C32 4.38442 30.7625 3.1407 29.25 3.1407ZM15.9375 21.8593C11.6225 21.8593 8.125 18.3442 8.125 14.0075C8.125 9.67085 11.6225 6.15578 15.9375 6.15578C20.2525 6.15578 23.75 9.67085 23.75 14.0075C23.75 18.3442 20.2525 21.8593 15.9375 21.8593ZM27.4375 9.17085C26.575 9.17085 25.875 8.46734 25.875 7.6005C25.875 6.73367 26.575 6.03015 27.4375 6.03015C28.3 6.03015 29 6.73367 29 7.6005C29 8.46734 28.3 9.17085 27.4375 9.17085Z" fill="#00A9EC"/>
<path d="M16 20.2261C19.3827 20.2261 22.125 17.4701 22.125 14.0703C22.125 10.6706 19.3827 7.91457 16 7.91457C12.6173 7.91457 9.875 10.6706 9.875 14.0703C9.875 17.4701 12.6173 20.2261 16 20.2261Z" fill="#00A9EC"/>
</g>
<defs>
<clipPath id="clip0_46_2">
<rect width="32" height="25" fill="white"/>
</clipPath>
</defs>
</svg>
