<svg width="31" height="32" viewBox="0 0 31 32" fill="none" xmlns="http://www.w3.org/2000/svg">
<g clip-path="url(#clip0_298_34)">
<path d="M27.3833 30.6686H3.61667C1.62209 30.6686 0 29.045 0 27.0485V3.86064C0 1.86417 1.62209 0.24054 3.61667 0.24054H27.3833C29.3779 0.24054 31 1.86417 31 3.86064V27.0485C31 29.045 29.3779 30.6686 27.3833 30.6686ZM3.61667 1.20269C2.15198 1.20269 0.96124 2.39456 0.96124 3.86064V27.0485C0.96124 28.5146 2.15198 29.7065 3.61667 29.7065H27.3833C28.848 29.7065 30.0388 28.5146 30.0388 27.0485V3.86064C30.0388 2.39456 28.848 1.20269 27.3833 1.20269H3.61667Z" fill="#1D1E1B"/>
<path d="M3.97461 9.832L3.97461 12.8387C3.97461 14.0177 4.92947 14.9735 6.10736 14.9735L24.8936 14.9735C26.0715 14.9735 27.0264 14.0177 27.0264 12.8387V9.832C27.0264 8.65299 26.0715 7.69722 24.8936 7.69722L6.10736 7.69722C4.92947 7.69722 3.97461 8.65299 3.97461 9.832Z" fill="#1580BE"/>
<path d="M3.97461 18.9724L3.97461 21.9792C3.97461 23.1582 4.92947 24.114 6.10736 24.114H24.8936C26.0715 24.114 27.0264 23.1582 27.0264 21.9792V18.9724C27.0264 17.7934 26.0715 16.8377 24.8936 16.8377H6.10736C4.92947 16.8377 3.97461 17.7934 3.97461 18.9724Z" fill="#1D1D1B"/>
<path d="M0 4.44995L0 3.49021C0 1.5635 1.56202 -1.43051e-06 3.4869 -1.43051e-06L27.5131 -1.43051e-06C29.438 -1.43051e-06 31 1.5635 31 3.49021V4.44995L0 4.44995Z" fill="#1580BE"/>
<path d="M22.9375 21.7687L17.2998 26.4195H19.0144V32H26.8605V26.4195H28.5752L22.9375 21.7687Z" fill="#DF801D"/>
</g>
<defs>
<clipPath id="clip0_298_34">
<rect width="31" height="32" fill="white"/>
</clipPath>
</defs>
</svg>
