<svg width="30" height="32" viewBox="0 0 30 32" fill="none" xmlns="http://www.w3.org/2000/svg">
<g clip-path="url(#clip0_298_49)">
<path d="M26.5 30.6686H3.5C1.56977 30.6686 0 29.045 0 27.0485V3.86064C0 1.86417 1.56977 0.24054 3.5 0.24054H26.5C28.4302 0.24054 30 1.86417 30 3.86064V27.0485C30 29.045 28.4302 30.6686 26.5 30.6686ZM3.5 1.20269C2.08256 1.20269 0.930233 2.39456 0.930233 3.86064V27.0485C0.930233 28.5146 2.08256 29.7065 3.5 29.7065H26.5C27.9174 29.7065 29.0698 28.5146 29.0698 27.0485V3.86064C29.0698 2.39456 27.9174 1.20269 26.5 1.20269H3.5Z" fill="#1D1E1B"/>
<path d="M3.84668 18.9724L3.84668 21.9792C3.84668 23.1582 4.77074 24.114 5.91063 24.114H24.0909C25.2308 24.114 26.1548 23.1582 26.1548 21.9792V18.9724C26.1548 17.7934 25.2308 16.8377 24.0909 16.8377H5.91063C4.77074 16.8377 3.84668 17.7934 3.84668 18.9724Z" fill="#1D1D1B"/>
<path d="M0 4.44995L0 3.4902C0 1.56349 1.51163 -5.24521e-06 3.37442 -5.24521e-06L26.6256 -5.24521e-06C28.4884 -5.24521e-06 30 1.56349 30 3.4902V4.44995L0 4.44995Z" fill="#1580BE"/>
<path d="M22.1975 21.7687L16.7417 26.4195H18.401V32H25.994V26.4195H27.6533L22.1975 21.7687Z" fill="#DF801D"/>
</g>
<defs>
<clipPath id="clip0_298_49">
<rect width="30" height="32" fill="white"/>
</clipPath>
</defs>
</svg>
