<svg width="31" height="32" viewBox="0 0 31 32" fill="none" xmlns="http://www.w3.org/2000/svg">
<g clip-path="url(#clip0_304_4)">
<path d="M27.3832 0.721619H3.61652C1.88452 0.721619 0.480469 2.12701 0.480469 3.86064V27.0485C0.480469 28.7822 1.88452 30.1875 3.61652 30.1875H27.3832C29.1152 30.1875 30.5192 28.7822 30.5192 27.0485V3.86064C30.5192 2.12701 29.1152 0.721619 27.3832 0.721619Z" fill="white"/>
<path d="M27.3833 30.6686H3.61667C1.62209 30.6686 0 29.045 0 27.0485V3.86064C0 1.86417 1.62209 0.24054 3.61667 0.24054H27.3833C29.3779 0.24054 31 1.86417 31 3.86064V27.0485C31 29.045 29.3779 30.6686 27.3833 30.6686ZM3.61667 1.20269C2.15198 1.20269 0.96124 2.39456 0.96124 3.86064V27.0485C0.96124 28.5146 2.15198 29.7065 3.61667 29.7065H27.3833C28.848 29.7065 30.0388 28.5146 30.0388 27.0485V3.86064C30.0388 2.39456 28.848 1.20269 27.3833 1.20269H3.61667Z" fill="#1D1E1B"/>
<path d="M3.85449 7.69722V10.5837H9.73248V7.69722H3.85449Z" fill="#1480A5"/>
<path d="M3.85449 12.0269V14.9134H12.0154V12.0269H3.85449Z" fill="#DE801D"/>
<path d="M14.4092 12.0269V14.9134H18.1436V12.0269H14.4092Z" fill="#DE801D"/>
<path d="M19.2246 12.0269V14.9134H26.3138V12.0269H19.2246Z" fill="#DE801D"/>
<path d="M14.4102 7.69722V10.5837H21.9703V7.69722H14.4102Z" fill="#1480A5"/>
<path d="M10.814 7.69722V10.5837H13.3276V7.69722H10.814Z" fill="#1480A5"/>
<path d="M23.0518 7.69722V10.5837H26.8871V7.69722H23.0518Z" fill="#1480A5"/>
<path d="M0 4.44995L0 3.4902C0 1.56349 1.56202 -5.72205e-06 3.4869 -5.72205e-06L27.5131 -5.72205e-06C29.438 -5.72205e-06 31 1.56349 31 3.4902V4.44995L0 4.44995Z" fill="#1580BE"/>
<path d="M22.9375 21.7687L17.2998 26.4195H19.0144V32H26.8605V26.4195H28.5752L22.9375 21.7687Z" fill="#DF801D"/>
</g>
<defs>
<clipPath id="clip0_304_4">
<rect width="31" height="32" fill="white"/>
</clipPath>
</defs>
</svg>
