<svg width="32" height="32" viewBox="0 0 32 32" fill="none" xmlns="http://www.w3.org/2000/svg">
<g clip-path="url(#clip0_163_101)">
<path d="M31.0625 30.125H1.875V0.9375C1.875 0.42 1.455 0 0.9375 0C0.42 0 0 0.42 0 0.9375V31.0625C0 31.58 0.42 32 0.9375 32H31.0625C31.58 32 32 31.58 32 31.0625C32 30.545 31.58 30.125 31.0625 30.125Z" fill="#208FCE"/>
<path d="M8.5525 19H4.76C4.23671 19 3.8125 19.4242 3.8125 19.9475V27.4275C3.8125 27.9508 4.23671 28.375 4.76 28.375H8.5525C9.07579 28.375 9.5 27.9508 9.5 27.4275V19.9475C9.5 19.4242 9.07579 19 8.5525 19Z" fill="#208FCE"/>
<path d="M16.0525 7.375H12.26C11.7367 7.375 11.3125 7.79921 11.3125 8.3225V27.4275C11.3125 27.9508 11.7367 28.375 12.26 28.375H16.0525C16.5758 28.375 17 27.9508 17 27.4275V8.3225C17 7.79921 16.5758 7.375 16.0525 7.375Z" fill="#208FCE"/>
<path d="M23.5525 13.5H19.76C19.2367 13.5 18.8125 13.9242 18.8125 14.4475V27.4275C18.8125 27.9508 19.2367 28.375 19.76 28.375H23.5525C24.0758 28.375 24.5 27.9508 24.5 27.4275V14.4475C24.5 13.9242 24.0758 13.5 23.5525 13.5Z" fill="#208FCE"/>
<path d="M31.0525 2.625H27.26C26.7367 2.625 26.3125 3.04921 26.3125 3.5725V27.4275C26.3125 27.9508 26.7367 28.375 27.26 28.375H31.0525C31.5758 28.375 32 27.9508 32 27.4275V3.5725C32 3.04921 31.5758 2.625 31.0525 2.625Z" fill="#208FCE"/>
</g>
<defs>
<clipPath id="clip0_163_101">
<rect width="32" height="32" fill="white"/>
</clipPath>
</defs>
</svg>
