<svg width="30" height="32" viewBox="0 0 30 32" fill="none" xmlns="http://www.w3.org/2000/svg">
<g clip-path="url(#clip0_107_96)">
<path d="M14.1325 23.63C14.575 24.1362 15.4262 24.1362 15.8687 23.63L22.7625 15.7325C23.3312 15.08 22.815 14.125 21.895 14.125H18.0637V0.98C18.0637 0.44125 17.6225 0 17.0837 0H12.9175C12.3787 0 11.9375 0.44125 11.9375 0.98V14.125H8.10624C7.18498 14.125 6.66874 15.0813 7.23874 15.7325L14.1325 23.63Z" fill="#1499D6"/>
<path d="M26.125 22.125V28.125H3.875V22.125H0V30.0625C0 31.1275 0.87125 32 1.9375 32H28.0625C29.1287 32 30 31.1275 30 30.0625V22.125H26.125Z" fill="#1499D6"/>
</g>
<defs>
<clipPath id="clip0_107_96">
<rect width="30" height="32" fill="white"/>
</clipPath>
</defs>
</svg>
