<svg width="32" height="32" viewBox="0 0 32 32" fill="none" xmlns="http://www.w3.org/2000/svg">
<g clip-path="url(#clip0_118_3)">
<path d="M22.6437 6.44733H9.35631C7.75217 6.44733 6.44733 7.75217 6.44733 9.35631V22.6449C6.44733 24.249 7.75217 25.5539 9.35631 25.5539H22.6449C24.249 25.5539 25.5539 24.249 25.5539 22.6449V9.35631C25.5539 7.75217 24.249 6.44733 22.6449 6.44733H22.6437ZM15.6451 19.5786C15.14 19.5786 14.7283 19.1669 14.7283 18.6617C14.7283 18.1566 15.14 17.7449 15.6451 17.7449C16.1502 17.7449 16.5619 18.1566 16.5619 18.6617C16.5619 19.1669 16.1502 19.5786 15.6451 19.5786ZM24.488 22.6437C24.488 23.3227 24.1189 23.9142 23.5712 24.2348V21.0254L18.3956 14.7815C18.5825 14.5035 18.6913 14.1699 18.6913 13.8115C18.6913 12.8497 17.9082 12.0666 16.9464 12.0666C15.9846 12.0666 15.2015 12.8497 15.2015 13.8115C15.2015 14.7732 15.9846 15.5564 16.9464 15.5564C17.2504 15.5564 17.5355 15.4783 17.784 15.3411L22.7431 21.3247V24.4833C22.71 24.4844 22.6768 24.488 22.6437 24.488H16.0296V20.3629C16.8068 20.1866 17.39 19.4922 17.39 18.6617C17.39 17.7 16.6069 16.9168 15.6451 16.9168C14.6833 16.9168 13.9002 17.7 13.9002 18.6617C13.9002 19.4709 14.4538 20.15 15.2015 20.3475V24.488H9.75971V20.1902L11.3769 18.0501C11.565 18.1188 11.7661 18.159 11.9778 18.159C12.9396 18.159 13.7227 17.3758 13.7227 16.4141C13.7227 15.4523 12.9396 14.6691 11.9778 14.6691C11.0161 14.6691 10.2329 15.4523 10.2329 16.4141C10.2329 16.866 10.4068 17.2765 10.6895 17.5864L8.93162 19.9134V24.4371C8.1189 24.2443 7.51202 23.5144 7.51202 22.6449V10.5878H11.2385C11.436 11.3355 12.1151 11.8891 12.9242 11.8891C13.886 11.8891 14.6691 11.106 14.6691 10.1442C14.6691 9.18241 13.886 8.39927 12.9242 8.39927C12.0938 8.39927 11.3993 8.98248 11.2231 9.75971H7.51202V9.35631C7.51202 8.34012 8.33893 7.51202 9.35631 7.51202H18.0596V10.4636L20.3286 12.7326C20.2268 12.9538 20.1689 13.1975 20.1689 13.4566C20.1689 14.4183 20.952 15.2015 21.9138 15.2015C22.8756 15.2015 23.6587 14.4183 23.6587 13.4566C23.6587 12.4948 22.8756 11.7117 21.9138 11.7117C21.5116 11.7117 21.1413 11.8501 20.8456 12.0796L18.8865 10.1205V7.51202H22.6425C23.6587 7.51202 24.4868 8.33893 24.4868 9.35631V22.6449L24.488 22.6437ZM16.9464 14.7283C16.4413 14.7283 16.0296 14.3166 16.0296 13.8115C16.0296 13.3063 16.4413 12.8946 16.9464 12.8946C17.4515 12.8946 17.8632 13.3063 17.8632 13.8115C17.8632 14.3166 17.4515 14.7283 16.9464 14.7283ZM11.061 16.4141C11.061 15.9089 11.4727 15.4972 11.9778 15.4972C12.483 15.4972 12.8946 15.9089 12.8946 16.4141C12.8946 16.9192 12.483 17.3309 11.9778 17.3309C11.4727 17.3309 11.061 16.9192 11.061 16.4141ZM12.0074 10.1442C12.0074 9.63905 12.4191 9.22736 12.9242 9.22736C13.4294 9.22736 13.841 9.63905 13.841 10.1442C13.841 10.6493 13.4294 11.061 12.9242 11.061C12.4191 11.061 12.0074 10.6493 12.0074 10.1442ZM21.915 12.5397C22.4201 12.5397 22.8318 12.9514 22.8318 13.4566C22.8318 13.9617 22.4201 14.3734 21.915 14.3734C21.4098 14.3734 20.9982 13.9617 20.9982 13.4566C20.9982 12.9514 21.4098 12.5397 21.915 12.5397Z" fill="#1394D2"/>
<path d="M31.4677 14.0185C31.7622 14.0185 32 13.7807 32 13.4861C32 13.1916 31.7622 12.9538 31.4677 12.9538H28.3327V9.28651H31.4677C31.7622 9.28651 32 9.04873 32 8.75416C32 8.45959 31.7622 8.22181 31.4677 8.22181H28.3327V6.57627C28.3327 4.97213 27.0279 3.66728 25.4237 3.66728H23.4824V0.532348C23.4824 0.237782 23.2447 0 22.9501 0C22.6555 0 22.4177 0.237782 22.4177 0.532348V3.66728H18.7505V0.532348C18.7505 0.237782 18.5127 0 18.2181 0C17.9235 0 17.6858 0.237782 17.6858 0.532348V3.66728H14.0185V0.532348C14.0185 0.237782 13.7807 0 13.4861 0C13.1916 0 12.9538 0.237782 12.9538 0.532348V3.66728H9.28651V0.532348C9.28651 0.237782 9.04873 0 8.75416 0C8.45959 0 8.22181 0.237782 8.22181 0.532348V3.66728H6.57627C4.97213 3.66728 3.66728 4.97213 3.66728 6.57627V8.22181H0.532348C0.237782 8.22181 0 8.45959 0 8.75416C0 9.04873 0.237782 9.28651 0.532348 9.28651H3.66728V12.9538H0.532348C0.237782 12.9538 0 13.1916 0 13.4861C0 13.7807 0.237782 14.0185 0.532348 14.0185H3.66728V17.6858H0.532348C0.237782 17.6858 0 17.9235 0 18.2181C0 18.5127 0.237782 18.7505 0.532348 18.7505H3.66728V22.4177H0.532348C0.237782 22.4177 0 22.6555 0 22.9501C0 23.2447 0.237782 23.4824 0.532348 23.4824H3.66728V25.4237C3.66728 27.0279 4.97213 28.3327 6.57627 28.3327H8.22181V31.4677C8.22181 31.7622 8.45959 32 8.75416 32C9.04873 32 9.28651 31.7622 9.28651 31.4677V28.3327H12.9538V31.4677C12.9538 31.7622 13.1916 32 13.4861 32C13.7807 32 14.0185 31.7622 14.0185 31.4677V28.3327H17.6858V31.4677C17.6858 31.7622 17.9235 32 18.2181 32C18.5127 32 18.7505 31.7622 18.7505 31.4677V28.3327H22.4177V31.4677C22.4177 31.7622 22.6555 32 22.9501 32C23.2447 32 23.4824 31.7622 23.4824 31.4677V28.3327H25.4237C27.0279 28.3327 28.3327 27.0279 28.3327 25.4237V23.4824H31.4677C31.7622 23.4824 32 23.2447 32 22.9501C32 22.6555 31.7622 22.4177 31.4677 22.4177H28.3327V18.7505H31.4677C31.7622 18.7505 32 18.5127 32 18.2181C32 17.9235 31.7622 17.6858 31.4677 17.6858H28.3327V14.0185H31.4677ZM27.268 25.4237C27.268 26.4399 26.4411 27.268 25.4237 27.268H6.57627C5.56007 27.268 4.73198 26.4411 4.73198 25.4237V6.57627C4.73198 5.56007 5.55889 4.73198 6.57627 4.73198H25.4237C26.4399 4.73198 27.268 5.55889 27.268 6.57627V25.4237Z" fill="#1394D2"/>
</g>
<defs>
<clipPath id="clip0_118_3">
<rect width="32" height="32" fill="white"/>
</clipPath>
</defs>
</svg>
