<svg width="32" height="32" viewBox="0 0 32 32" fill="none" xmlns="http://www.w3.org/2000/svg">
<path d="M7.45284 6.01209L10.5679 2.94035C10.8799 2.6327 10.8799 2.131 10.5679 1.82335L9.64754 0.915794C9.33555 0.608147 8.82678 0.608147 8.51479 0.915794L5.39974 3.98753L2.28589 0.916977C1.97391 0.60933 1.46513 0.60933 1.15314 0.916977L0.233989 1.82454C-0.0779963 2.13218 -0.0779963 2.63388 0.233989 2.94153L3.34904 6.01327L0.233989 9.08382C-0.0779963 9.39147 -0.0779963 9.89317 0.233989 10.2008L1.15434 11.1084C1.46633 11.416 1.97511 11.416 2.28709 11.1084L5.40214 8.03664L8.51719 11.1084C8.82918 11.416 9.33795 11.416 9.64994 11.1084L10.5703 10.2008C10.8823 9.89317 10.8823 9.39147 10.5703 9.08382L7.45524 6.01209H7.45284Z" fill="#DB2424"/>
<path d="M31.5261 1.15835C30.6838 -0.0544935 29.005 -0.364507 27.7739 0.464957C26.544 1.2956 26.2296 2.95098 27.0707 4.165C27.1223 4.23837 27.1763 4.30936 27.2339 4.37562L23.0893 9.96888C22.4401 9.62929 21.701 9.43524 20.915 9.43524C20.7002 9.43524 20.4902 9.45062 20.2839 9.47902L19.1859 6.17418C19.9635 5.70679 20.483 4.86313 20.483 3.89995C20.483 2.43035 19.2747 1.23881 17.7844 1.23881C16.294 1.23881 15.0857 2.43035 15.0857 3.89995C15.0857 5.36956 16.294 6.5611 17.7844 6.5611C17.8396 6.5611 17.8948 6.55874 17.95 6.55519L19.0371 9.82689C17.41 10.538 16.2736 12.1437 16.2736 14.0133C16.2736 14.2984 16.3012 14.5777 16.3516 14.8486L12.783 16.2946C12.2262 15.5598 11.3011 15.1291 10.3111 15.2415C8.8304 15.4095 7.76845 16.73 7.93885 18.1902C8.10924 19.6503 9.44837 20.6975 10.9291 20.5295C12.4098 20.3614 13.4718 19.0409 13.3014 17.5808C13.2966 17.5441 13.2918 17.5086 13.2858 17.4719L16.7656 16.0615C17.5276 17.5607 19.0995 18.5901 20.9162 18.5901C21.7982 18.5901 22.6237 18.3475 23.3257 17.9263L25.0896 19.9911C24.5376 20.7306 24.3889 21.7305 24.786 22.6321C25.3812 23.9798 26.9711 24.5975 28.3379 24.0106C29.7046 23.4237 30.331 21.8559 29.7358 20.5082C29.1406 19.1604 27.5507 18.5428 26.184 19.1297C26.1504 19.1439 26.118 19.1593 26.0868 19.1746L24.3289 17.1158C25.092 16.3005 25.5588 15.2107 25.5588 14.0121C25.5588 12.7188 25.014 11.5509 24.1393 10.7191L28.2851 5.12581C29.095 5.45002 30.0502 5.38021 30.8253 4.85721C32.0553 4.02656 32.3697 2.37119 31.5285 1.15716L31.5261 1.15835Z" fill="#67CCCC"/>
<path d="M16.3251 20.8158C14.662 18.6682 11.7269 18.0434 9.35465 19.1817L9.98221 19.9911L5.92041 20.249L7.24035 16.4531L7.97471 17.4009C11.3501 15.5373 15.6879 16.3549 18.1046 19.474C19.5518 21.3423 20.0113 23.6497 19.5638 25.7843L17.2131 25.9215C17.7626 24.239 17.4963 22.3268 16.3251 20.8146V20.8158Z" fill="#1480A5"/>
<path d="M5.54848 28.9365C4.09655 27.0634 3.63937 24.7489 4.09295 22.6096L6.44604 22.4724C5.88926 24.1597 6.15325 26.0789 7.32799 27.5959C8.99111 29.7435 11.9262 30.3682 14.2985 29.2299L13.6709 28.4206L17.7327 28.1626L16.4128 31.9585L15.6784 31.0107C12.303 32.8744 7.96516 32.0567 5.54848 28.9377V28.9365Z" fill="#E0801D"/>
</svg>
