<svg width="31" height="32" viewBox="0 0 31 32" fill="none" xmlns="http://www.w3.org/2000/svg">
<g clip-path="url(#clip0_270_60)">
<path d="M18.6497 16.7287L22.2847 13.1474C22.6483 12.7891 22.6483 12.2037 22.2847 11.8455L21.2111 10.7877C20.8474 10.4295 20.2533 10.4295 19.8897 10.7877L16.2548 14.3691L12.6198 10.7877C12.2562 10.4295 11.6621 10.4295 11.2985 10.7877L10.2249 11.8455C9.86124 12.2037 9.86124 12.7891 10.2249 13.1474L13.8598 16.7287L10.2249 20.31C9.86124 20.6683 9.86124 21.2536 10.2249 21.6119L11.2985 22.6696C11.6621 23.0279 12.2562 23.0279 12.6198 22.6696L16.2548 19.0883L19.8897 22.6696C20.2533 23.0279 20.8474 23.0279 21.2111 22.6696L22.2847 21.6119C22.6483 21.2536 22.6483 20.6683 22.2847 20.31L18.6497 16.7287Z" fill="#E5821D"/>
<path d="M25.588 8.67215C26.2347 8.67215 26.7589 8.15562 26.7589 7.51845C26.7589 6.88128 26.2347 6.36475 25.588 6.36475C24.9413 6.36475 24.417 6.88128 24.417 7.51845C24.417 8.15562 24.9413 8.67215 25.588 8.67215Z" fill="#1480AB"/>
<path d="M29.4597 18.2466C30.3106 18.2466 31.0005 17.567 31.0005 16.7286C31.0005 15.8902 30.3106 15.2106 29.4597 15.2106C28.6088 15.2106 27.9189 15.8902 27.9189 16.7286C27.9189 17.567 28.6088 18.2466 29.4597 18.2466Z" fill="#1480AB"/>
<path d="M25.5873 27.82C26.6425 27.82 27.4978 26.9772 27.4978 25.9377C27.4978 24.8981 26.6425 24.0553 25.5873 24.0553C24.5321 24.0553 23.6768 24.8981 23.6768 25.9377C23.6768 26.9772 24.5321 27.82 25.5873 27.82Z" fill="#1480AB"/>
<path d="M16.209 32C17.4684 32 18.4893 30.9941 18.4893 29.7533C18.4893 28.5125 17.4684 27.5066 16.209 27.5066C14.9496 27.5066 13.9287 28.5125 13.9287 29.7533C13.9287 30.9941 14.9496 32 16.209 32Z" fill="#1480AB"/>
<path d="M6.89131 28.5487C8.35492 28.5487 9.54141 27.3797 9.54141 25.9377C9.54141 24.4956 8.35492 23.3267 6.89131 23.3267C5.4277 23.3267 4.24121 24.4956 4.24121 25.9377C4.24121 27.3797 5.4277 28.5487 6.89131 28.5487Z" fill="#1480AB"/>
<path d="M3.01988 19.704C4.68771 19.704 6.03976 18.3719 6.03976 16.7286C6.03976 15.0854 4.68771 13.7533 3.01988 13.7533C1.35205 13.7533 0 15.0854 0 16.7286C0 18.3719 1.35205 19.704 3.01988 19.704Z" fill="#1480AB"/>
<path d="M6.89162 10.8582C8.76367 10.8582 10.2813 9.36293 10.2813 7.51849C10.2813 5.67405 8.76367 4.17883 6.89162 4.17883C5.01956 4.17883 3.50195 5.67405 3.50195 7.51849C3.50195 9.36293 5.01956 10.8582 6.89162 10.8582Z" fill="#1480AB"/>
<path d="M16.2399 7.40797C18.3162 7.40797 19.9994 5.74964 19.9994 3.70398C19.9994 1.65833 18.3162 0 16.2399 0C14.1636 0 12.4805 1.65833 12.4805 3.70398C12.4805 5.74964 14.1636 7.40797 16.2399 7.40797Z" fill="#1480AB"/>
</g>
<defs>
<clipPath id="clip0_270_60">
<rect width="31" height="32" fill="white"/>
</clipPath>
</defs>
</svg>
