<svg width="32" height="32" viewBox="0 0 32 32" fill="none" xmlns="http://www.w3.org/2000/svg">
<g clip-path="url(#clip0_522_24)">
<path d="M22.4541 5.45874V26.5411H31.4348V5.45874H22.4541Z" fill="white"/>
<path d="M31.9998 27.1058H21.8896V4.89404H31.9998V27.1058ZM23.0191 25.9764H30.8704V6.02345H23.0191V25.9764Z" fill="#88CEEB"/>
<path d="M29.5811 8.09424H24.3105V9.22365H29.5811V8.09424Z" fill="#BABABA"/>
<path d="M29.5811 12.0471H24.3105V13.1765H29.5811V12.0471Z" fill="#BABABA"/>
<path d="M29.5811 16H24.3105V17.1294H29.5811V16Z" fill="#BABABA"/>
<path d="M29.5811 19.9529H24.3105V21.0823H29.5811V19.9529Z" fill="#BABABA"/>
<path d="M28.4706 32H3.52941C1.58306 32 0 30.4169 0 28.4706V3.52941C0 1.58306 1.58306 0 3.52941 0H28.4706C30.4169 0 32 1.58306 32 3.52941V28.4706C32 30.4169 30.4169 32 28.4706 32ZM3.52941 1.12941C2.20612 1.12941 1.12941 2.20612 1.12941 3.52941V28.4706C1.12941 29.7939 2.20612 30.8706 3.52941 30.8706H28.4706C29.7939 30.8706 30.8706 29.7939 30.8706 28.4706V3.52941C30.8706 2.20612 29.7939 1.12941 28.4706 1.12941H3.52941Z" fill="#0098DB"/>
<path d="M32 6.02353V2.96471C32 1.32706 30.6729 0 29.0353 0H2.96471C1.32706 0 0 1.32706 0 2.96471V6.02353H32Z" fill="#0098DB"/>
<path d="M27.6553 5.84473L29.7711 3.72897C29.9819 3.51814 29.9819 3.17179 29.7711 2.95908L29.1461 2.33414C28.9353 2.12332 28.589 2.12332 28.3763 2.33414L26.2605 4.44991L24.1447 2.33414C23.9339 2.12332 23.5876 2.12332 23.3749 2.33414L22.7499 2.95908C22.5391 3.16991 22.5391 3.51626 22.7499 3.72897L24.8657 5.84473L22.7499 7.9605C22.5391 8.17132 22.5391 8.51767 22.7499 8.73038L23.3749 9.35532C23.5857 9.56614 23.932 9.56614 24.1447 9.35532L26.2605 7.23956L28.3763 9.35532C28.5871 9.56614 28.9334 9.56614 29.1461 9.35532L29.7711 8.73038C29.9819 8.51956 29.9819 8.1732 29.7711 7.9605L27.6553 5.84473V5.84473Z" fill="#D62424"/>
</g>
<defs>
<clipPath id="clip0_522_24">
<rect width="32" height="32" fill="white"/>
</clipPath>
</defs>
</svg>
