<svg width="32" height="32" viewBox="0 0 32 32" fill="none" xmlns="http://www.w3.org/2000/svg">
<g clip-path="url(#clip0_518_108)">
<path d="M28.4706 32H3.52941C1.58306 32 0 30.4169 0 28.4706V3.52941C0 1.58306 1.58306 0 3.52941 0H28.4706C30.4169 0 32 1.58306 32 3.52941V28.4706C32 30.4169 30.4169 32 28.4706 32ZM3.52941 1.12941C2.20612 1.12941 1.12941 2.20612 1.12941 3.52941V28.4706C1.12941 29.7939 2.20612 30.8706 3.52941 30.8706H28.4706C29.7939 30.8706 30.8706 29.7939 30.8706 28.4706V3.52941C30.8706 2.20612 29.7939 1.12941 28.4706 1.12941H3.52941Z" fill="#0098DB"/>
<path d="M24.723 21.0825H7.27736C5.44395 21.0825 3.95312 19.5916 3.95312 17.7582V12.7361C3.95312 10.9027 5.44395 9.41187 7.27736 9.41187H24.723C26.5564 9.41187 28.0472 10.9027 28.0472 12.7361V17.7582C28.0472 19.5916 26.5564 21.0825 24.723 21.0825ZM7.27736 10.5413C6.06701 10.5413 5.08254 11.5257 5.08254 12.7361V17.7582C5.08254 18.9686 6.06701 19.953 7.27736 19.953H24.723C25.9334 19.953 26.9178 18.9686 26.9178 17.7582V12.7361C26.9178 11.5257 25.9334 10.5413 24.723 10.5413H7.27736Z" fill="#0098DB"/>
<path d="M28.0435 12.8001C28.0435 12.7719 28.0472 12.7455 28.0472 12.7173C28.0472 10.8914 26.5677 9.41187 24.7418 9.41187H7.25854C5.43265 9.41187 3.95312 10.8914 3.95312 12.7173C3.95312 12.7455 3.95689 12.7719 3.95689 12.8001H28.0435Z" fill="#61CFD0"/>
<path d="M32 3.95294V2.96471C32 1.32706 30.6805 0 29.0522 0H2.94776C1.31953 0 0 1.32706 0 2.96471V3.95294H32Z" fill="#61CFD0"/>
<path d="M27.2793 6.97413L29.3951 4.85836C29.6059 4.64754 29.6059 4.30118 29.3951 4.08848L28.7702 3.46354C28.5593 3.25271 28.213 3.25271 28.0003 3.46354L25.8845 5.5793L23.7688 3.46354C23.5579 3.25271 23.2116 3.25271 22.9989 3.46354L22.3739 4.08848C22.1631 4.2993 22.1631 4.64566 22.3739 4.85836L24.4897 6.97413L22.3739 9.08989C22.1631 9.30071 22.1631 9.64707 22.3739 9.85977L22.9989 10.4847C23.2097 10.6955 23.5561 10.6955 23.7688 10.4847L25.8845 8.36895L28.0003 10.4847C28.2111 10.6955 28.5575 10.6955 28.7702 10.4847L29.3951 9.85977C29.6059 9.64895 29.6059 9.3026 29.3951 9.08989L27.2793 6.97413V6.97413Z" fill="#E32424"/>
</g>
<defs>
<clipPath id="clip0_518_108">
<rect width="32" height="32" fill="white"/>
</clipPath>
</defs>
</svg>
