<svg width="28" height="32" viewBox="0 0 28 32" fill="none" xmlns="http://www.w3.org/2000/svg">
<g clip-path="url(#clip0_102_80)">
<path d="M24.9725 0H3.0275C1.35844 0 0 1.34853 0 3.00543V24.7904C0 26.4473 1.35844 27.7959 3.0275 27.7959H24.9725C26.6416 27.7959 28 26.4473 28 24.7904V3.00543C28 1.34853 26.6416 0 24.9725 0ZM26.6875 24.7904C26.6875 25.7296 25.9175 26.4929 24.9725 26.4929H3.0275C2.08141 26.4929 1.3125 25.7286 1.3125 24.7904V3.00543C1.3125 2.06623 2.0825 1.30293 3.0275 1.30293H24.9725C25.9186 1.30293 26.6875 2.06732 26.6875 3.00543V24.7904Z" fill="#1399D7"/>
<path d="M22.7248 7.54614H5.38453C4.31484 7.54614 3.44531 8.41042 3.44531 9.47122V18.3236C3.44531 19.3854 4.31594 20.2486 5.38453 20.2486H22.7248C23.7945 20.2486 24.6641 19.3844 24.6641 18.3236V9.47122C24.6641 8.40934 23.7934 7.54614 22.7248 7.54614ZM23.5703 18.3246C23.5703 18.7872 23.1908 19.1639 22.7248 19.1639H5.38453C4.91859 19.1639 4.53906 18.7872 4.53906 18.3246V9.47122C4.53906 9.00868 4.91859 8.63192 5.38453 8.63192H22.7248C23.1908 8.63192 23.5703 9.00868 23.5703 9.47122V18.3236V18.3246Z" fill="#1399D7"/>
<path d="M20.5144 21.2269L13.0823 28.5244H17.7909V32H20.5144H23.2378V28.5244H27.9453L20.5144 21.2269Z" fill="#E99547"/>
</g>
<defs>
<clipPath id="clip0_102_80">
<rect width="28" height="32" fill="white"/>
</clipPath>
</defs>
</svg>
