<svg xmlns="http://www.w3.org/2000/svg" width="1em" height="1em" viewBox="0 0 24 24"><g transform="rotate(90 12 12)"><path fill="currentColor" d="M9.115 17q-.69 0-1.152-.462q-.463-.463-.463-1.153V4.615q0-.69.463-1.152Q8.425 3 9.115 3h7.77q.69 0 1.152.463q.463.462.463 1.152v10.77q0 .69-.462 1.153q-.463.462-1.153.462h-7.77Zm0-1h7.77q.23 0 .423-.192q.192-.193.192-.423V4.615q0-.23-.192-.423Q17.115 4 16.885 4h-7.77q-.23 0-.423.192q-.192.193-.192.423v10.77q0 .23.192.423q.193.192.423.192Zm-3 4q-.69 0-1.152-.462q-.463-.463-.463-1.153V6.615h1v11.77q0 .23.192.423q.193.192.423.192h8.77v1h-8.77ZM8.5 16V4v12Z"/></g></svg>