<svg width="31" height="32" viewBox="0 0 31 32" fill="none" xmlns="http://www.w3.org/2000/svg">
<g clip-path="url(#clip0_524_120)">
<path d="M27.3833 30.6686H3.61667C1.62209 30.6686 0 29.045 0 27.0485V3.86064C0 1.86417 1.62209 0.24054 3.61667 0.24054H27.3833C29.3779 0.24054 31 1.86417 31 3.86064V27.0485C31 29.045 29.3779 30.6686 27.3833 30.6686ZM3.61667 1.20269C2.15198 1.20269 0.96124 2.39456 0.96124 3.86064V27.0485C0.96124 28.5146 2.15198 29.7065 3.61667 29.7065H27.3833C28.848 29.7065 30.0388 28.5146 30.0388 27.0485V3.86064C30.0388 2.39456 28.848 1.20269 27.3833 1.20269H3.61667Z" fill="#1D1E1B"/>
<path d="M0 4.44995L0 3.4902C0 1.56349 1.56202 -5.70714e-06 3.4869 -5.70714e-06L27.5131 -5.70714e-06C29.438 -5.70714e-06 31 1.56349 31 3.4902V4.44995L0 4.44995Z" fill="#1580BE"/>
<path d="M22.9375 21.7687L17.2998 26.4195H19.0144V32H26.8605V26.4195H28.5752L22.9375 21.7687Z" fill="#DA801D"/>
<path d="M6.6685 18.1606C8.02888 18.1606 9.13168 17.0568 9.13168 15.6951C9.13168 14.3335 8.02888 13.2296 6.6685 13.2296C5.30812 13.2296 4.20532 14.3335 4.20532 15.6951C4.20532 17.0568 5.30812 18.1606 6.6685 18.1606Z" fill="#FF0402"/>
<path d="M15.44 18.1606C16.8004 18.1606 17.9032 17.0568 17.9032 15.6951C17.9032 14.3335 16.8004 13.2296 15.44 13.2296C14.0796 13.2296 12.9768 14.3335 12.9768 15.6951C12.9768 17.0568 14.0796 18.1606 15.44 18.1606Z" fill="#0886C7"/>
<path d="M24.2112 18.1606C25.5716 18.1606 26.6744 17.0568 26.6744 15.6951C26.6744 14.3335 25.5716 13.2296 24.2112 13.2296C22.8508 13.2296 21.748 14.3335 21.748 15.6951C21.748 17.0568 22.8508 18.1606 24.2112 18.1606Z" fill="#00A7EA"/>
</g>
<defs>
<clipPath id="clip0_524_120">
<rect width="31" height="32" fill="white"/>
</clipPath>
</defs>
</svg>
