<svg width="32" height="32" viewBox="0 0 32 32" fill="none" xmlns="http://www.w3.org/2000/svg">
<g clip-path="url(#clip0_198_203)">
<path d="M26.6244 23.6576H25.4861V21.7277C25.4861 21.2122 25.0611 20.7938 24.5375 20.7938C24.0138 20.7938 23.5889 21.2122 23.5889 21.7277V24.5915C23.5889 25.107 24.0138 25.5253 24.5375 25.5253C24.5476 25.5253 24.559 25.5253 24.5691 25.5241C24.5792 25.5241 24.5906 25.5253 24.6007 25.5253H26.6244C27.1481 25.5253 27.5731 25.107 27.5731 24.5915C27.5731 24.076 27.1481 23.6576 26.6244 23.6576Z" fill="#0A86C7"/>
<path d="M7.84197 14.319C8.54051 14.319 9.10679 13.7615 9.10679 13.0739C9.10679 12.3862 8.54051 11.8287 7.84197 11.8287C7.14343 11.8287 6.57715 12.3862 6.57715 13.0739C6.57715 13.7615 7.14343 14.319 7.84197 14.319Z" fill="#0A86C7"/>
<path d="M13.2807 14.319C13.9792 14.319 14.5455 13.7615 14.5455 13.0739C14.5455 12.3862 13.9792 11.8287 13.2807 11.8287C12.5821 11.8287 12.0159 12.3862 12.0159 13.0739C12.0159 13.7615 12.5821 14.319 13.2807 14.319Z" fill="#0A86C7"/>
<path d="M7.84197 19.6731C8.54051 19.6731 9.10679 19.1157 9.10679 18.428C9.10679 17.7403 8.54051 17.1829 7.84197 17.1829C7.14343 17.1829 6.57715 17.7403 6.57715 18.428C6.57715 19.1157 7.14343 19.6731 7.84197 19.6731Z" fill="#0A86C7"/>
<path d="M13.2807 19.6731C13.9792 19.6731 14.5455 19.1157 14.5455 18.428C14.5455 17.7403 13.9792 17.1829 13.2807 17.1829C12.5821 17.1829 12.0159 17.7403 12.0159 18.428C12.0159 19.1157 12.5821 19.6731 13.2807 19.6731Z" fill="#0A86C7"/>
<path d="M7.84197 25.0273C8.54051 25.0273 9.10679 24.4698 9.10679 23.7821C9.10679 23.0945 8.54051 22.537 7.84197 22.537C7.14343 22.537 6.57715 23.0945 6.57715 23.7821C6.57715 24.4698 7.14343 25.0273 7.84197 25.0273Z" fill="#0A86C7"/>
<path d="M13.2807 25.0273C13.9792 25.0273 14.5455 24.4698 14.5455 23.7821C14.5455 23.0945 13.9792 22.537 13.2807 22.537C12.5821 22.537 12.0159 23.0945 12.0159 23.7821C12.0159 24.4698 12.5821 25.0273 13.2807 25.0273Z" fill="#0A86C7"/>
<path d="M18.7194 14.319C19.418 14.319 19.9842 13.7615 19.9842 13.0739C19.9842 12.3862 19.418 11.8287 18.7194 11.8287C18.0209 11.8287 17.4546 12.3862 17.4546 13.0739C17.4546 13.7615 18.0209 14.319 18.7194 14.319Z" fill="#0A86C7"/>
<path d="M24.1581 14.319C24.8567 14.319 25.423 13.7615 25.423 13.0739C25.423 12.3862 24.8567 11.8287 24.1581 11.8287C23.4596 11.8287 22.8933 12.3862 22.8933 13.0739C22.8933 13.7615 23.4596 14.319 24.1581 14.319Z" fill="#0A86C7"/>
<path d="M26.947 2.36576H25.6759V1.24514C25.6759 0.557821 25.1092 0 24.4111 0C23.7129 0 23.1462 0.557821 23.1462 1.24514V2.36576H9.10672V1.24514C9.10672 0.557821 8.54008 0 7.8419 0C7.14372 0 6.57708 0.557821 6.57708 1.24514V2.36576H5.05296C2.26656 2.36576 0 4.59704 0 7.34008V27.0257C0 29.7687 2.26656 32 5.05296 32H14.6719C15.3701 32 15.9368 31.4422 15.9368 30.7549C15.9368 30.0675 15.3701 29.5097 14.6719 29.5097H5.05296C3.66166 29.5097 2.52964 28.3953 2.52964 27.0257V7.34008C2.52964 5.97043 3.66166 4.85603 5.05296 4.85603H6.57708V6.35019C6.57708 7.03751 7.14372 7.59533 7.8419 7.59533C8.54008 7.59533 9.10672 7.03751 9.10672 6.35019V4.85603H23.1462V6.35019C23.1462 7.03751 23.7129 7.59533 24.4111 7.59533C25.1092 7.59533 25.6759 7.03751 25.6759 6.35019V4.85603H26.947C28.3383 4.85603 29.4704 5.97043 29.4704 7.34008V14.4735C29.4704 15.1608 30.037 15.7186 30.7352 15.7186C31.4334 15.7186 32 15.1608 32 14.4735V7.34008C32 4.59704 29.7334 2.36576 26.947 2.36576Z" fill="#0A86C7"/>
<path d="M24.5376 17.1829C20.5623 17.1829 17.3281 20.3667 17.3281 24.2801C17.3281 28.1936 20.5623 31.3774 24.5376 31.3774C28.5129 31.3774 31.7471 28.1936 31.7471 24.2801C31.7471 20.3667 28.5129 17.1829 24.5376 17.1829ZM24.5376 29.5097C21.6083 29.5097 19.2254 27.1639 19.2254 24.2801C19.2254 21.3964 21.6083 19.0506 24.5376 19.0506C27.4669 19.0506 29.8499 21.3964 29.8499 24.2801C29.8499 27.1639 27.4669 29.5097 24.5376 29.5097Z" fill="#0A86C7"/>
</g>
<defs>
<clipPath id="clip0_198_203">
<rect width="32" height="32" fill="white"/>
</clipPath>
</defs>
</svg>
