<svg xmlns="http://www.w3.org/2000/svg" width="1em" height="1em" viewBox="0 0 2048 2048"><path fill="currentColor" d="M1792 993q60 41 107 93t81 114t50 131t18 141q0 119-45 224t-124 183t-183 123t-224 46q-91 0-176-27t-156-78t-126-122t-85-157H128V128h256V0h128v128h896V0h128v128h256v865zM256 256v256h1408V256h-128v128h-128V256H512v128H384V256H256zm643 1280q-3-31-3-64q0-86 24-167t73-153h-97v-128h128v86q41-51 91-90t108-67t121-42t128-15q100 0 192 33V640H256v896h643zm573 384q93 0 174-35t142-96t96-142t36-175q0-93-35-174t-96-142t-142-96t-175-36q-93 0-174 35t-142 96t-96 142t-36 175q0 93 35 174t96 142t142 96t175 36zm64-512h192v128h-320v-384h128v256zM384 1024h128v128H384v-128zm256 0h128v128H640v-128zm0-256h128v128H640V768zm-256 512h128v128H384v-128zm256 0h128v128H640v-128zm384-384H896V768h128v128zm256 0h-128V768h128v128zm256 0h-128V768h128v128z"/></svg>