<svg width="30" height="32" viewBox="0 0 30 32" fill="none" xmlns="http://www.w3.org/2000/svg">
<path d="M28.9006 12.4548C28.424 11.9837 27.6525 11.9837 27.1771 12.4548L11.433 28.0562C9.37677 30.0939 6.03097 30.0939 3.97473 28.0562C1.9185 26.0184 1.9185 22.7027 3.97473 20.665L7.60818 17.0642C7.63012 17.0461 7.65085 17.0279 7.67157 17.0074L20.1101 4.68067C21.4094 3.39304 23.5242 3.39304 24.8235 4.68067C26.1228 5.96831 26.1228 8.06403 24.8235 9.35167L18.99 15.1327L12.3849 21.6784L11.5659 22.4901C10.982 23.0687 10.0593 23.0965 9.50962 22.5517C9.25122 22.2956 9.11105 21.9453 9.11836 21.5661C9.12446 21.1711 9.28657 20.7978 9.57178 20.5152L13.3064 16.8141L16.9959 13.1578C17.4725 12.6855 17.4725 11.9209 16.9959 11.4498C16.5193 10.9787 15.7478 10.9787 15.2724 11.4498L11.5829 15.1062L7.8483 18.8072C6.31375 20.3279 6.28571 22.774 7.78614 24.2609C8.52478 24.9929 9.49865 25.3577 10.4811 25.3577C11.4927 25.3577 12.5117 24.97 13.2906 24.1993L14.1096 23.3876L20.7147 16.8419L26.5482 11.0609C28.7982 8.83106 28.7982 5.2037 26.5482 2.9739C24.2982 0.744093 20.6379 0.744093 18.3879 2.9739L18.0588 3.30003C18.0368 3.31815 18.0161 3.33627 17.9954 3.3568L2.25125 18.957C0.799578 20.3944 0 22.3138 0 24.3612C0 26.4086 0.799578 28.3267 2.25125 29.7654C3.75412 31.2547 5.72991 32 7.70448 32C9.67904 32 11.6536 31.2547 13.1577 29.7654L28.9006 14.1628C29.376 13.6905 29.376 12.9259 28.9006 12.4548Z" fill="#1580BE"/>
<path d="M9.91195 5.43803L13.0761 2.30229C13.393 1.98824 13.393 1.47608 13.0761 1.16203L12.1413 0.235558C11.8244 -0.0784989 11.3076 -0.0784989 10.9907 0.235558L7.82646 3.37129L4.6635 0.236766C4.34659 -0.077291 3.82979 -0.077291 3.51288 0.236766L2.57801 1.16323C2.26111 1.47729 2.26111 1.98944 2.57801 2.3035L5.7422 5.43924L2.57801 8.57497C2.26111 8.88903 2.26111 9.40118 2.57801 9.71524L3.51288 10.6417C3.82979 10.9558 4.34659 10.9558 4.6635 10.6417L7.82768 7.50597L10.9919 10.6417C11.3088 10.9558 11.8256 10.9558 12.1425 10.6417L13.0774 9.71524C13.3943 9.40118 13.3943 8.88903 13.0774 8.57497L9.91317 5.43924L9.91195 5.43803Z" fill="#F32424"/>
</svg>
