<svg width="32" height="10" viewBox="0 0 32 10" fill="none" xmlns="http://www.w3.org/2000/svg">
<path d="M17.0885 4.50036L12.1985 0.489258V3.65575H0.805942C0.362338 3.65575 0 4.03611 0 4.50036C0 4.9646 0.362949 5.34497 0.805942 5.34497H12.1985V8.51146L17.0885 4.49972V4.50036Z" fill="#DE801D"/>
<path d="M21.0301 0.000732422L21.5433 0.538619C21.1584 0.903614 20.8498 1.29102 20.6176 1.70084C20.3854 2.11066 20.2174 2.54481 20.1135 3.00265C20.0096 3.4605 19.9577 3.96188 19.9577 4.50553C19.9577 5.04918 20.0096 5.5352 20.1135 5.99945C20.2174 6.4637 20.3854 6.89785 20.6176 7.30127C20.8498 7.70468 21.1584 8.09209 21.5433 8.46349L21.0301 9.00137C20.364 8.43787 19.8618 7.7796 19.5227 7.0272C19.1835 6.2748 19.0137 5.43467 19.0137 4.50553C19.0137 3.5764 19.1829 2.72539 19.5227 1.96978C19.8618 1.21418 20.364 0.557829 21.0301 0.000732422V0.000732422Z" fill="#1480A4"/>
<path d="M23.01 5.87891C23.2178 5.87891 23.384 5.94102 23.5093 6.06589C23.6345 6.19075 23.6974 6.35916 23.6974 6.57047C23.6974 6.78179 23.6345 6.95148 23.5093 7.07955C23.384 7.20761 23.2172 7.27165 23.01 7.27165C22.8029 7.27165 22.6263 7.20761 22.5011 7.07955C22.3758 6.95148 22.3135 6.78179 22.3135 6.57047C22.3135 6.35916 22.3758 6.19139 22.5011 6.06589C22.6263 5.94102 22.7956 5.87891 23.01 5.87891Z" fill="#1480A4"/>
<path d="M25.512 5.87891C25.7197 5.87891 25.8859 5.94102 26.0112 6.06589C26.1365 6.19075 26.1994 6.35916 26.1994 6.57047C26.1994 6.78179 26.1365 6.95148 26.0112 7.07955C25.8859 7.20761 25.7191 7.27165 25.512 7.27165C25.3049 7.27165 25.1283 7.20761 25.003 7.07955C24.8778 6.95148 24.8154 6.78179 24.8154 6.57047C24.8154 6.35916 24.8778 6.19139 25.003 6.06589C25.1283 5.94102 25.2975 5.87891 25.512 5.87891Z" fill="#1480A4"/>
<path d="M28.014 5.87891C28.2217 5.87891 28.3879 5.94102 28.5132 6.06589C28.6384 6.19075 28.7014 6.35916 28.7014 6.57047C28.7014 6.78179 28.6384 6.95148 28.5132 7.07955C28.3879 7.20761 28.2211 7.27165 28.014 7.27165C27.8068 7.27165 27.6302 7.20761 27.505 7.07955C27.3797 6.95148 27.3174 6.78179 27.3174 6.57047C27.3174 6.35916 27.3797 6.19139 27.505 6.06589C27.6302 5.94102 27.7995 5.87891 28.014 5.87891Z" fill="#1480A4"/>
<path d="M29.984 9.00064L29.4707 8.46275C29.8618 8.09135 30.1715 7.70395 30.4007 7.30053C30.6298 6.89712 30.796 6.46361 30.8999 5.99872C31.0038 5.53447 31.0557 5.03693 31.0557 4.5048C31.0557 3.97268 31.0038 3.45976 30.8999 3.00192C30.796 2.54408 30.6298 2.11057 30.4007 1.70011C30.1715 1.29029 29.8611 0.902882 29.4707 0.537887L29.984 0C30.65 0.557097 31.1522 1.21345 31.492 1.96905C31.8311 2.72465 32.0003 3.5699 32.0003 4.5048C32.0003 5.4397 31.8311 6.27407 31.492 7.02647C31.1529 7.77887 30.65 8.4365 29.984 9.00064Z" fill="#1480A4"/>
</svg>
