<svg width="32" height="32" viewBox="0 0 32 32" fill="none" xmlns="http://www.w3.org/2000/svg">
<g clip-path="url(#clip0_487_2)">
<path d="M16 32C24.8366 32 32 24.8366 32 16C32 7.16344 24.8366 0 16 0C7.16344 0 0 7.16344 0 16C0 24.8366 7.16344 32 16 32Z" fill="#EB2424"/>
<path d="M19.3835 16L24.5177 10.8659C25.0306 10.3529 25.0306 9.51217 24.5177 8.99922L23.0008 7.48236C22.4879 6.96942 21.6471 6.96942 21.1341 7.48236L16 12.6165L10.8659 7.48236C10.3529 6.96942 9.51217 6.96942 8.99922 7.48236L7.48236 8.99922C6.96942 9.51217 6.96942 10.3529 7.48236 10.8659L12.6165 16L7.48236 21.1341C6.96942 21.6471 6.96942 22.4879 7.48236 23.0008L8.99922 24.5177C9.51217 25.0306 10.3529 25.0306 10.8659 24.5177L16 19.3835L21.1341 24.5177C21.6471 25.0306 22.4879 25.0306 23.0008 24.5177L24.5177 23.0008C25.0306 22.4879 25.0306 21.6471 24.5177 21.1341L19.3835 16Z" fill="white"/>
</g>
<defs>
<clipPath id="clip0_487_2">
<rect width="32" height="32" fill="white"/>
</clipPath>
</defs>
</svg>
