<svg width="32" height="32" viewBox="0 0 32 32" fill="none" xmlns="http://www.w3.org/2000/svg">
<g clip-path="url(#clip0_160_90)">
<path d="M23.5333 14.9054H17.0946V8.46679C17.0946 7.86285 16.604 7.37222 16.0001 7.37222C15.3961 7.37222 14.9055 7.86285 14.9055 8.46679V14.9054H8.46688C7.86294 14.9054 7.37231 15.396 7.37231 16C7.37231 16.6039 7.86294 17.0946 8.46688 17.0946H14.9055V23.5332C14.9055 24.1371 15.3961 24.6278 16.0001 24.6278C16.604 24.6278 17.0946 24.1371 17.0946 23.5332V17.0946H23.5333C24.1372 17.0946 24.6278 16.6039 24.6278 16C24.6278 15.396 24.1372 14.9054 23.5333 14.9054Z" fill="#1492CF"/>
<path d="M16 0C7.17779 0 0 7.17779 0 16C0 24.8222 7.17779 32 16 32C24.8222 32 32 24.8222 32 16C32 7.17779 24.8222 0 16 0ZM16 29.8109C8.38439 29.8109 2.18913 23.6156 2.18913 16C2.18913 8.38439 8.38439 2.18913 16 2.18913C23.6156 2.18913 29.8109 8.38439 29.8109 16C29.8109 23.6156 23.6156 29.8109 16 29.8109Z" fill="#1492CF"/>
</g>
<defs>
<clipPath id="clip0_160_90">
<rect width="32" height="32" fill="white"/>
</clipPath>
</defs>
</svg>
