<svg width="10" height="32" viewBox="0 0 10 32" fill="none" xmlns="http://www.w3.org/2000/svg">
<g clip-path="url(#clip0_303_73)">
<path d="M5 10.2995C7.76142 10.2995 10 7.9939 10 5.14977C10 2.30563 7.76142 0 5 0C2.23858 0 0 2.30563 0 5.14977C0 7.9939 2.23858 10.2995 5 10.2995Z" fill="#0093D6"/>
<path d="M5 7.99845C4.8062 7.99845 4.64917 7.83672 4.64917 7.63712V2.66239C4.64917 2.46279 4.8062 2.30106 5 2.30106C5.19379 2.30106 5.35082 2.46279 5.35082 2.66239V7.63712C5.35082 7.83672 5.19379 7.99845 5 7.99845Z" fill="white"/>
<path d="M7.41501 5.51109H2.58496C2.39116 5.51109 2.23413 5.34936 2.23413 5.14976C2.23413 4.95015 2.39116 4.78842 2.58496 4.78842H7.41501C7.60881 4.78842 7.76583 4.95015 7.76583 5.14976C7.76583 5.34936 7.60881 5.51109 7.41501 5.51109Z" fill="white"/>
<path d="M5 21.1498C7.76142 21.1498 10 18.8441 10 16C10 13.1558 7.76142 10.8502 5 10.8502C2.23858 10.8502 0 13.1558 0 16C0 18.8441 2.23858 21.1498 5 21.1498Z" fill="#0093D6"/>
<path d="M5 18.8487C4.8062 18.8487 4.64917 18.687 4.64917 18.4874V13.5126C4.64917 13.313 4.8062 13.1513 5 13.1513C5.19379 13.1513 5.35082 13.313 5.35082 13.5126V18.4874C5.35082 18.687 5.19379 18.8487 5 18.8487Z" fill="white"/>
<path d="M7.41501 16.3613H2.58496C2.39116 16.3613 2.23413 16.1996 2.23413 16C2.23413 15.8004 2.39116 15.6387 2.58496 15.6387H7.41501C7.60881 15.6387 7.76583 15.8004 7.76583 16C7.76583 16.1996 7.60881 16.3613 7.41501 16.3613Z" fill="white"/>
<path d="M5 32C7.76142 32 10 29.6944 10 26.8502C10 24.0061 7.76142 21.7005 5 21.7005C2.23858 21.7005 0 24.0061 0 26.8502C0 29.6944 2.23858 32 5 32Z" fill="#0093D6"/>
<path d="M5 29.6989C4.8062 29.6989 4.64917 29.5372 4.64917 29.3376V24.3629C4.64917 24.1633 4.8062 24.0015 5 24.0015C5.19379 24.0015 5.35082 24.1633 5.35082 24.3629V29.3376C5.35082 29.5372 5.19379 29.6989 5 29.6989Z" fill="white"/>
<path d="M7.41501 27.2116H2.58496C2.39116 27.2116 2.23413 27.0498 2.23413 26.8502C2.23413 26.6506 2.39116 26.4889 2.58496 26.4889H7.41501C7.60881 26.4889 7.76583 26.6506 7.76583 26.8502C7.76583 27.0498 7.60881 27.2116 7.41501 27.2116Z" fill="white"/>
</g>
<defs>
<clipPath id="clip0_303_73">
<rect width="10" height="32" fill="white"/>
</clipPath>
</defs>
</svg>
