<svg width="32" height="32" viewBox="0 0 32 32" fill="none" xmlns="http://www.w3.org/2000/svg">
<path d="M19.8516 12.7191C19.8516 12.3496 19.5702 12.0497 19.2234 12.0497H7.66423C7.31745 12.0497 7.03601 12.3496 7.03601 12.7191C7.03601 13.0886 7.31745 13.3885 7.66423 13.3885H19.2234C19.5702 13.3885 19.8516 13.0886 19.8516 12.7191Z" fill="#1594D1"/>
<path d="M19.2234 7.36371H7.66423C7.31745 7.36371 7.03601 7.66361 7.03601 8.03314C7.03601 8.40266 7.31745 8.70256 7.66423 8.70256H19.2234C19.5702 8.70256 19.8516 8.40266 19.8516 8.03314C19.8516 7.66361 19.5702 7.36371 19.2234 7.36371Z" fill="#1594D1"/>
<path d="M7.03601 17.4051C7.03601 17.7747 7.31745 18.0746 7.66423 18.0746H7.92179C8.22334 17.4507 8.55378 16.9593 9.01237 16.7357H7.66423C7.31745 16.7357 7.03601 17.0356 7.03601 17.4051Z" fill="#1594D1"/>
<path d="M4.64878 25.0366L5.52828 23.0283V1.93732C5.52828 1.60797 5.77957 1.33886 6.0899 1.33886H17.0874V5.08765C17.0874 5.45718 17.3689 5.75708 17.7156 5.75708H21.3593V16.4679H22.6157V4.81051L22.4323 4.61504C22.4323 4.61504 22.4323 4.61504 22.431 4.6137C21.9021 4.05004 21.3957 3.53592 20.8102 2.94147C20.0777 2.19706 19.2472 1.35492 18.1604 0.196812C18.1604 0.196812 18.1604 0.196812 18.1592 0.195473L17.9757 0H6.0899C5.08727 0 4.27185 0.868918 4.27185 1.93732V22.1621C4.27185 22.9199 4.27185 25.0366 4.64878 25.0366ZM20.4421 4.41822H18.3439V2.27204C18.9469 2.89862 19.4671 3.42747 19.9433 3.9108C20.1167 4.08619 20.28 4.25355 20.4421 4.41822Z" fill="#1594D1"/>
<path d="M30.9572 17.6729H24.8773V14.4462C24.8773 13.6657 24.1234 12.7566 23.6209 12.8865V17.6729H10.1633C9.21214 17.6916 8.76988 18.7051 8.27108 19.9235L3.29687 30.6022C3.28305 30.6357 3.27174 30.6678 3.26043 30.6986H2.13593C1.65095 30.6986 1.25643 30.2903 1.25643 29.7882V11.7163C1.25643 11.2142 1.65095 10.8059 2.13593 10.8059H3.26672V9.50586H2.13593C0.958656 9.50586 0 10.498 0 11.7163V29.7882C0 31.0065 0.958656 31.9986 2.13593 31.9986H4.51184C4.58471 32 4.65758 32 4.73046 31.9986H24.1448C25.0947 31.9799 25.9252 31.6184 26.4252 30.4L31.7776 19.6999C32.2764 18.4816 31.907 17.6541 30.9572 17.6729Z" fill="#1594D1"/>
</svg>
