<svg width="32" height="30" viewBox="0 0 32 30" fill="none" xmlns="http://www.w3.org/2000/svg">
<path d="M24.0047 9.91516C26.2514 10.529 27.7768 9.47583 28.0251 10.7938C28.1126 11.2608 28.2616 12.9277 28.2616 15.5637C29.2242 20.3888 25.6188 20.6976 25.5419 21.5888L19.5112 11.0449" fill="white"/>
<path d="M21.5214 25.7724H18.6515C18.0118 25.7724 17.4927 25.2415 17.4927 24.5888V11.7766C17.4927 11.1239 18.013 10.5929 18.6515 10.5929H27.0543C27.6941 10.5929 28.2132 11.1239 28.2132 11.7766V18.7017H29.0882V11.7766C29.0882 10.6118 28.1753 9.66406 27.0532 9.66406H18.6503C17.5282 9.66406 16.6153 10.6118 16.6153 11.7766V24.59C16.6153 25.7549 17.5282 26.7026 18.6503 26.7026H21.5203V25.7737L21.5214 25.7724Z" fill="#1594D1"/>
<path d="M15.8455 8.53425C18.0922 9.14806 24.3476 7.34178 24.5959 8.65977C24.6834 9.12672 24.8324 10.5426 24.5959 13.0531C25.5585 17.8782 23.1355 23.71 23.0587 24.6012L15.8455 8.53425Z" fill="white"/>
<path d="M23.1769 7.53003H13.8967C12.6574 7.53003 11.6499 8.57689 11.6499 9.86225V24.0112C11.6499 25.2978 12.6574 26.3434 13.8967 26.3434H23.1757C24.415 26.3434 25.4225 25.2966 25.4225 24.0112V9.86225C25.4225 8.57564 24.415 7.53003 23.1757 7.53003H23.1769ZM24.4575 24.0125C24.4575 24.733 23.8829 25.3192 23.1769 25.3192H13.8967C13.1907 25.3192 12.616 24.733 12.616 24.0125V9.86225C12.616 9.14175 13.1907 8.55555 13.8967 8.55555H23.1757C23.8817 8.55555 24.4564 9.14175 24.4564 9.86225V24.0112L24.4575 24.0125Z" fill="#1594D1"/>
<path d="M5.20299 1.00295C7.44973 1.61676 16.8979 0.0615285 17.1462 1.37952C17.2337 1.84647 19.8115 2.37492 20.3389 5.01969C21.3015 9.84479 20.4158 17.936 20.3389 18.8272C20.2207 20.208 5.55774 22.7184 4.37524 22.9695C4.49349 21.5887 5.20299 1.00295 5.20299 1.00295Z" fill="white"/>
<path d="M18.0922 12.551H7.21323C6.88686 12.551 6.62198 12.2698 6.62198 11.9234C6.62198 11.5769 6.88686 11.2958 7.21323 11.2958H18.0922C18.4186 11.2958 18.6834 11.5769 18.6834 11.9234C18.6834 12.2698 18.4186 12.551 18.0922 12.551Z" fill="#1594D1"/>
<path d="M18.0922 8.15782H7.21323C6.88686 8.15782 6.62198 7.87665 6.62198 7.5302C6.62198 7.18376 6.88686 6.90259 7.21323 6.90259H18.0922C18.4186 6.90259 18.6834 7.18376 18.6834 7.5302C18.6834 7.87665 18.4186 8.15782 18.0922 8.15782Z" fill="#1594D1"/>
<path d="M7.21323 16.9443H7.45564C7.73944 16.3594 8.05043 15.8987 8.48205 15.6891H7.21323C6.88686 15.6891 6.62198 15.9703 6.62198 16.3167C6.62198 16.6631 6.88686 16.9443 7.21323 16.9443V16.9443Z" fill="#1594D1"/>
<path d="M4.37523 23.4716L5.20297 21.5887V1.81506C5.20297 1.50628 5.43947 1.25398 5.73155 1.25398H16.4284C17.3768 2.2569 18.1146 3.00251 18.7697 3.66527C19.251 4.1523 19.6744 4.58034 20.1024 5.02971V15.4381H21.2849V4.50879L21.1123 4.32552C20.6144 3.79707 20.1379 3.31506 19.5869 2.75774C18.8975 2.05983 18.1158 1.26904 17.0918 0.183264L16.9191 0H5.73155C4.78792 0 4.02048 0.814644 4.02048 1.81632V20.7766C4.02048 21.487 4.02048 23.4716 4.37523 23.4716Z" fill="#1594D1"/>
<path d="M22.724 29.9988H4.45327C3.55812 30.0163 2.63341 29.8318 3.10286 28.6896L7.78436 18.6778C8.25381 17.5356 8.67005 16.5866 9.5652 16.5678H29.1355C30.0307 16.5502 30.3783 17.326 29.9077 18.4682L24.8702 28.5C24.4008 29.6423 23.6192 29.9812 22.724 29.9988Z" fill="#1594D1"/>
<path d="M22.2309 12.0803V27.9264C22.2309 28.3971 21.8596 28.7799 21.4032 28.7799H2.01024C1.5538 28.7799 1.1825 28.3971 1.1825 27.9264V10.9833C1.1825 10.5126 1.5538 10.1297 2.01024 10.1297H3.07449V8.91089H2.01024C0.902244 8.91089 0 9.84101 0 10.9833V27.9264C0 29.0686 0.902244 29.9988 2.01024 29.9988H21.4032C22.5112 29.9988 23.4134 29.0686 23.4134 27.9264V13.5427C23.4134 12.8109 22.7039 11.9586 22.2309 12.0803Z" fill="#1594D1"/>
<path d="M15.0212 6.3728C16.2995 6.3728 17.4158 6.57992 18.3701 6.99289C19.3244 7.40586 20.0741 8.00084 20.6215 8.77782C21.1679 9.55481 21.441 10.5038 21.441 11.6247C21.441 12.7456 21.2045 13.7435 20.7327 14.5004C20.2597 15.2573 19.6259 15.8272 18.8289 16.2113C18.0319 16.5941 17.1521 16.8452 16.1884 16.9632L16.1044 19.9431H13.2416V15.4883C14.5565 15.3113 15.5758 15.0753 16.2983 14.7803C17.0209 14.4854 17.5305 14.1163 17.8261 13.6745C18.1218 13.2314 18.2707 12.6967 18.2707 12.0665C18.2707 11.4364 18.1454 10.9305 17.8959 10.4887C17.6464 10.0469 17.2656 9.71172 16.7572 9.48577C16.2475 9.25983 15.6042 9.14686 14.8261 9.14686C13.7323 9.14686 12.8431 9.47071 12.1584 10.1197C11.4726 10.7686 11.0646 11.6736 10.9357 12.8335L8.18524 11.5067C8.38863 10.4849 8.78713 9.5887 9.37956 8.82176C9.97199 8.05481 10.7418 7.45481 11.6854 7.02301C12.6302 6.59121 13.7418 6.37406 15.0201 6.37406L15.0212 6.3728ZM14.6606 22.2427C15.2897 22.2427 15.7946 22.4347 16.1754 22.8176C16.5549 23.2004 16.7453 23.7075 16.7453 24.3364C16.7453 24.9653 16.5549 25.4674 16.1754 25.8414C15.7958 26.2142 15.2909 26.4013 14.6606 26.4013C14.0303 26.4013 13.5538 26.2142 13.1742 25.8414C12.7946 25.4686 12.6042 24.9665 12.6042 24.3364C12.6042 23.7063 12.7946 23.2004 13.1742 22.8176C13.5538 22.4347 14.0492 22.2427 14.6606 22.2427V22.2427Z" fill="#0D4654"/>
</svg>
