<svg xmlns="http://www.w3.org/2000/svg" width="1em" height="1em" viewBox="0 0 24 24"><path fill="currentColor" d="M3.27 9.515q-.108-.086-.132-.216q-.023-.13.07-.272q1.569-2.087 3.87-3.271q2.3-1.185 4.909-1.185q2.636 0 4.973 1.138q2.338 1.137 3.894 3.268q.13.167.08.313q-.05.147-.18.233q-.13.087-.282.076q-.151-.01-.264-.176q-1.414-1.988-3.595-3.035q-2.18-1.048-4.626-1.048q-2.425 0-4.57 1.067q-2.144 1.066-3.563 3.016q-.13.187-.292.192q-.162.006-.293-.1ZM14.83 21.88q-2.522-.65-4.153-2.56q-1.63-1.91-1.63-4.669q0-1.212.88-2.023q.88-.812 2.1-.812t2.078.812q.86.811.86 2.023q0 .874.658 1.47q.658.595 1.552.595t1.533-.6q.638-.602.638-1.465q0-2.949-2.17-4.957q-2.168-2.008-5.18-2.008q-3.011 0-5.165 2.014t-2.154 4.945q0 .61.141 1.524t.547 2.115q.056.167-.002.294t-.22.202q-.162.075-.302.005t-.195-.228q-.394-1.033-.566-1.976q-.172-.943-.172-1.93q0-3.284 2.384-5.507q2.384-2.222 5.695-2.222q3.336 0 5.732 2.222t2.396 5.507q0 1.209-.854 2.019q-.853.81-2.08.81q-1.218 0-2.101-.81q-.884-.81-.884-2.019q0-.863-.64-1.464q-.642-.601-1.531-.601q-.905 0-1.557.595q-.653.596-.653 1.47q0 2.483 1.476 4.146q1.476 1.664 3.751 2.314q.178.057.248.19q.07.132.02.284q-.05.133-.162.24q-.111.105-.317.055ZM6.366 4.329q-.103.067-.255.024q-.152-.043-.214-.186q-.061-.142-.04-.276q.02-.133.163-.22q1.381-.77 2.906-1.16q1.525-.39 3.1-.39q1.575 0 3.076.388q1.5.387 2.903 1.112q.206.106.233.252q.028.146-.027.283q-.056.136-.202.198q-.146.061-.3-.025q-1.306-.733-2.747-1.086q-1.44-.353-2.945-.353q-1.48 0-2.899.376T6.365 4.33Zm3.143 17.238q-1.418-1.511-2.215-3.133q-.797-1.622-.797-3.785q0-2.236 1.622-3.76q1.622-1.524 3.908-1.524q2.286 0 3.912 1.524q1.627 1.524 1.627 3.761q0 .173-.105.279q-.106.106-.28.106q-.142 0-.263-.106t-.12-.279q0-1.913-1.417-3.214q-1.416-1.301-3.355-1.301q-1.938 0-3.35 1.3q-1.41 1.302-1.41 3.214q0 2.064.72 3.487q.719 1.422 2.069 2.882q.15.153.121.305q-.029.152-.121.244q-.112.112-.264.121q-.152.01-.282-.12Zm7.473-1.738q-2.168 0-3.776-1.473q-1.609-1.472-1.609-3.706q0-.154.105-.27q.105-.115.276-.115q.171 0 .28.116q.108.115.108.269q0 1.934 1.38 3.172q1.378 1.238 3.236 1.238q.246 0 .52-.025t.557-.075q.148-.031.253.043q.104.074.154.245q.05.152-.055.267q-.106.114-.268.164q-.277.067-.595.109q-.318.04-.566.04Z"/></svg>