<svg width="32" height="32" viewBox="0 0 32 32" fill="none" xmlns="http://www.w3.org/2000/svg">
<g clip-path="url(#clip0_101_66)">
<path d="M25.9088 16.1229H6.09125C4.86875 16.1229 3.875 16.9814 3.875 18.035V22.2982C3.875 23.3529 4.87 24.2103 6.09125 24.2103H25.9088C27.1313 24.2103 28.125 23.3518 28.125 22.2982V18.035C28.125 16.9803 27.13 16.1229 25.9088 16.1229ZM26.875 22.2993C26.875 22.7587 26.4412 23.1329 25.9088 23.1329H6.09125C5.5575 23.1329 5.125 22.7587 5.125 22.2993V18.0361C5.125 17.5767 5.55875 17.2025 6.09125 17.2025H25.9088C26.4425 17.2025 26.875 17.5767 26.875 18.0361V22.2993Z" fill="#009BDE"/>
<path d="M28.54 0H3.46C1.5525 0 0 1.33944 0 2.98517V24.6234C0 26.2691 1.5525 27.6085 3.46 27.6085H28.54C30.4488 27.6085 32 26.2691 32 24.6234V2.98517C32 1.33944 30.4475 0 28.54 0ZM30.5 24.6234C30.5 25.5562 29.62 26.3144 28.54 26.3144H3.46C2.37875 26.3144 1.5 25.5551 1.5 24.6234V2.98517C1.5 2.05231 2.38 1.29415 3.46 1.29415H28.54C29.6213 1.29415 30.5 2.05338 30.5 2.98517V24.6234Z" fill="#009BDE"/>
<path d="M23.445 21.2996L14.9512 28.5479H20.3325V32H23.445H26.5575V28.5479H31.9375L23.445 21.2996Z" fill="#E99547"/>
</g>
<defs>
<clipPath id="clip0_101_66">
<rect width="32" height="32" fill="white"/>
</clipPath>
</defs>
</svg>
