<svg width="32" height="32" viewBox="0 0 32 32" fill="none" xmlns="http://www.w3.org/2000/svg">
<g clip-path="url(#clip0_219_138)">
<path d="M30.5282 7.52191H8.72021C7.90938 7.52191 7.24854 8.21163 7.24854 9.06072V30.4612C7.24854 31.309 7.90817 32 8.72021 32H30.5282C31.3391 32 31.9999 31.3103 31.9999 30.4612V9.06072C31.9999 8.21291 31.3403 7.52191 30.5282 7.52191ZM14.4423 30.7251H8.72021C8.58365 30.7251 8.46781 30.604 8.46781 30.4612V13.5139H14.4423V30.7251ZM30.7806 30.4612C30.7806 30.604 30.6648 30.7251 30.5282 30.7251H15.6616V22.4382H30.7806V30.4612ZM30.7806 21.1633H15.6616V13.5139H30.7806V21.1633ZM30.7806 12.239H8.46781V9.06072C8.46781 8.91793 8.58365 8.79681 8.72021 8.79681H30.5282C30.6648 8.79681 30.7806 8.91793 30.7806 9.06072V12.239Z" fill="#1480BB"/>
<path d="M7.26311 4.16637H20.4143V6.24701L24.6598 3.12351L20.4143 0V2.08064H7.26311V0L3.01758 3.12351L7.26311 6.24701V4.16637Z" fill="#1480BB"/>
<path d="M5.97447 11.9292L2.98724 7.49004L0 11.9292H1.98986V25.6803H0L2.98724 30.1195L5.97447 25.6803H3.98461V11.9292H5.97447Z" fill="#1480BB"/>
</g>
<defs>
<clipPath id="clip0_219_138">
<rect width="32" height="32" fill="white"/>
</clipPath>
</defs>
</svg>
