<svg width="32" height="30" viewBox="0 0 32 30" fill="none" xmlns="http://www.w3.org/2000/svg">
<g clip-path="url(#clip0_207_32)">
<path d="M29.7674 6.72202H2.23251C1.41051 6.72202 0.744141 7.3908 0.744141 8.21579V27.7594C0.744141 28.5843 1.41051 29.2531 2.23251 29.2531H29.7674C30.5894 29.2531 31.2558 28.5843 31.2558 27.7594V8.21579C31.2558 7.3908 30.5894 6.72202 29.7674 6.72202Z" fill="white"/>
<path d="M29.7674 30H2.23256C1.00217 30 0 28.9942 0 27.7594V8.21579C0 6.98094 1.00217 5.97513 2.23256 5.97513H29.7674C30.9978 5.97513 32 6.98094 32 8.21579V27.7594C32 28.9942 30.9978 30 29.7674 30ZM2.23256 7.4689C1.82202 7.4689 1.48837 7.80376 1.48837 8.21579V27.7594C1.48837 28.1714 1.82202 28.5062 2.23256 28.5062H29.7674C30.178 28.5062 30.5116 28.1714 30.5116 27.7594V8.21579C30.5116 7.80376 30.178 7.4689 29.7674 7.4689H2.23256Z" fill="#61B6B7"/>
<path d="M31.3898 7.26972L30.3777 6.17429L16.9166 18.6984C16.4192 19.1614 15.5795 19.1614 15.0822 18.6984L1.62232 6.17429L0.610228 7.26972L11.8015 17.6826L0.231934 28.7116L1.25643 29.7946L12.8955 18.7008L14.0713 19.795C14.6034 20.2905 15.3017 20.5369 16 20.5369C16.6983 20.5369 17.3978 20.2892 17.9287 19.795L19.1107 18.6959L30.3777 29.1797L31.3898 28.0842L20.2059 17.6776L31.3898 7.26972Z" fill="#61B6B7"/>
<path d="M7.48656 20.9042C7.14919 20.9042 6.86516 20.8631 6.63322 20.7797C6.40128 20.6963 6.21648 20.5569 6.07756 20.3614C5.93865 20.166 5.83818 19.8984 5.77493 19.5598C5.71167 19.2212 5.68066 18.7992 5.68066 18.295C5.68066 17.7909 5.71167 17.3589 5.77493 17.0203C5.83818 16.6818 5.93741 16.4141 6.0726 16.2187C6.2078 16.0232 6.38888 15.8813 6.61338 15.7954C6.83787 15.7096 7.1157 15.666 7.44687 15.666C7.69121 15.666 7.91322 15.6859 8.11167 15.7257C8.31012 15.7656 8.48749 15.834 8.64252 15.9299C8.79756 16.0257 8.92159 16.1639 9.01462 16.3432H9.08407V13.4253H10.1359V20.8245H9.16345L9.12376 20.1573H9.06423C8.96501 20.3701 8.83105 20.5295 8.66237 20.6353C8.49369 20.7411 8.3064 20.8133 8.10175 20.8494C7.8971 20.8855 7.69121 20.9042 7.48656 20.9042ZM7.91322 19.9681C8.20469 19.9681 8.43043 19.9295 8.59291 19.8535C8.75539 19.7776 8.8695 19.6556 8.93524 19.4901C9.00097 19.3369 9.04314 19.1614 9.05927 18.9623C9.07539 18.7631 9.08407 18.5303 9.08407 18.2652C9.08407 18 9.07539 17.7921 9.05927 17.6029C9.04314 17.4137 9.0047 17.2531 8.94516 17.1199C8.87198 16.9407 8.75539 16.8112 8.59291 16.7315C8.43043 16.6519 8.20469 16.612 7.91322 16.612C7.64904 16.612 7.43818 16.6307 7.28314 16.6668C7.12811 16.7029 7.01152 16.7764 6.93586 16.8859C6.8602 16.9954 6.80811 17.161 6.78206 17.3838C6.75601 17.6067 6.74237 17.9067 6.74237 18.2851C6.74237 18.6635 6.75601 18.9635 6.78206 19.1863C6.80811 19.4091 6.86144 19.5759 6.94082 19.6892C7.0202 19.8025 7.13803 19.8772 7.29307 19.9133C7.44811 19.9494 7.65524 19.9681 7.91322 19.9681Z" fill="#1480BC"/>
<path d="M13.3907 20.9042C13.0471 20.9042 12.7569 20.8581 12.5224 20.7647C12.288 20.6714 12.1107 20.517 11.9916 20.3017C11.8725 20.0863 11.813 19.7925 11.813 19.4203C11.813 19.0282 11.8589 18.7183 11.9519 18.4892C12.0449 18.2602 12.2037 18.0959 12.4282 17.9963C12.6527 17.8967 12.9702 17.8469 13.3807 17.8469C13.4465 17.8469 13.5445 17.8481 13.6735 17.8519C13.8024 17.8556 13.9513 17.8581 14.12 17.8618C14.2886 17.8656 14.4573 17.8681 14.626 17.8718C14.7947 17.8755 14.9485 17.8805 15.0874 17.8867V17.6477C15.0874 17.3888 15.0713 17.1859 15.0378 17.0403C15.0043 16.8946 14.9373 16.7863 14.8344 16.7166C14.7314 16.6469 14.5851 16.6021 14.3928 16.5822C14.2006 16.5623 13.9525 16.5523 13.6486 16.5523C13.5035 16.5523 13.3324 16.5573 13.1376 16.5672C12.9429 16.5772 12.7519 16.5884 12.5671 16.6021C12.3823 16.6158 12.2397 16.632 12.1404 16.6519V15.8154C12.4121 15.7618 12.7097 15.7245 13.0335 15.7008C13.3572 15.6772 13.6821 15.666 14.0059 15.666C14.3829 15.666 14.6992 15.6896 14.9535 15.7357C15.2077 15.7818 15.4148 15.8552 15.5736 15.9548C15.7324 16.0544 15.8514 16.1838 15.9308 16.3432C16.0102 16.5025 16.066 16.693 16.0995 16.9158C16.133 17.1386 16.1491 17.3925 16.1491 17.6776V20.8245H15.1767L15.137 20.1672H15.0775C14.9646 20.3801 14.8145 20.5407 14.626 20.6502C14.4375 20.7598 14.2341 20.8295 14.0158 20.8593C13.7975 20.8892 13.5891 20.9042 13.3907 20.9042ZM13.857 20.0477C14.022 20.0477 14.1733 20.0365 14.3085 20.0129C14.4437 19.9892 14.5628 19.9494 14.6657 19.8934C14.7686 19.8374 14.8493 19.7589 14.9088 19.6593C14.9683 19.5461 15.013 19.4166 15.0428 19.271C15.0725 19.1253 15.0874 18.9523 15.0874 18.7531V18.5739H13.6387C13.4204 18.5739 13.253 18.5901 13.1376 18.6237C13.0223 18.6573 12.9442 18.727 12.9045 18.8328C12.8648 18.9386 12.8449 19.1017 12.8449 19.3208C12.8449 19.5262 12.8685 19.6805 12.9144 19.7838C12.9603 19.8871 13.0583 19.9569 13.2071 19.993C13.3559 20.0291 13.573 20.0477 13.857 20.0477Z" fill="#1480BC"/>
<path d="M18.5204 20.8245V16.632H17.5083V15.7456H18.5204V14.2718H19.5722V15.7456H20.753V16.632H19.5722V20.8245H18.5204Z" fill="#1480BC"/>
<path d="M23.3623 20.9042C23.0188 20.9042 22.7285 20.8581 22.4941 20.7647C22.2597 20.6714 22.0823 20.517 21.9633 20.3017C21.8442 20.0863 21.7847 19.7925 21.7847 19.4203C21.7847 19.0282 21.8306 18.7183 21.9236 18.4892C22.0166 18.2602 22.1754 18.0959 22.3999 17.9963C22.6244 17.8967 22.9419 17.8469 23.3524 17.8469C23.4182 17.8469 23.5161 17.8481 23.6451 17.8519C23.7741 17.8556 23.923 17.8581 24.0916 17.8618C24.2603 17.8656 24.429 17.8681 24.5977 17.8718C24.7664 17.8755 24.9202 17.8805 25.0591 17.8867V17.6477C25.0591 17.3888 25.043 17.1859 25.0095 17.0403C24.976 16.8946 24.909 16.7863 24.8061 16.7166C24.7031 16.6469 24.5568 16.6021 24.3645 16.5822C24.1723 16.5623 23.9242 16.5523 23.6203 16.5523C23.4752 16.5523 23.304 16.5573 23.1093 16.5672C22.9146 16.5772 22.7236 16.5884 22.5388 16.6021C22.354 16.6158 22.2113 16.632 22.1121 16.6519V15.8154C22.3837 15.7618 22.6814 15.7245 23.0051 15.7008C23.3289 15.6772 23.6538 15.666 23.9775 15.666C24.3546 15.666 24.6709 15.6896 24.9251 15.7357C25.1794 15.7818 25.3865 15.8552 25.5453 15.9548C25.704 16.0544 25.8231 16.1838 25.9025 16.3432C25.9819 16.5025 26.0377 16.693 26.0712 16.9158C26.1047 17.1386 26.1208 17.3925 26.1208 17.6776V20.8245H25.1484L25.1087 20.1672H25.0492C24.9363 20.3801 24.7862 20.5407 24.5977 20.6502C24.4092 20.7598 24.2058 20.8295 23.9875 20.8593C23.7692 20.8892 23.5608 20.9042 23.3623 20.9042ZM23.8287 20.0477C23.9937 20.0477 24.145 20.0365 24.2802 20.0129C24.4154 19.9892 24.5344 19.9494 24.6374 19.8934C24.7403 19.8374 24.8209 19.7589 24.8805 19.6593C24.94 19.5461 24.9847 19.4166 25.0144 19.271C25.0442 19.1253 25.0591 18.9523 25.0591 18.7531V18.5739H23.6104C23.3921 18.5739 23.2247 18.5901 23.1093 18.6237C22.994 18.6573 22.9158 18.727 22.8761 18.8328C22.8365 18.9386 22.8166 19.1017 22.8166 19.3208C22.8166 19.5262 22.8402 19.6805 22.8861 19.7838C22.932 19.8871 23.0299 19.9569 23.1788 19.993C23.3276 20.0291 23.5447 20.0477 23.8287 20.0477Z" fill="#1480BC"/>
<path d="M8.94406 5.60293L12.1639 2.37139C12.4864 2.04774 12.4864 1.51994 12.1639 1.19629L11.2126 0.241518C10.8901 -0.0821336 10.3642 -0.0821336 10.0417 0.241518L6.82189 3.47305L3.60329 0.242763C3.28081 -0.0808887 2.75492 -0.0808887 2.43244 0.242763L1.48112 1.19753C1.15864 1.52119 1.15864 2.04899 1.48112 2.37264L4.70096 5.60417L1.48112 8.83571C1.15864 9.15936 1.15864 9.68716 1.48112 10.0108L2.43244 10.9656C2.75492 11.2892 3.28081 11.2892 3.60329 10.9656L6.82313 7.73405L10.043 10.9656C10.3655 11.2892 10.8914 11.2892 11.2138 10.9656L12.1651 10.0108C12.4876 9.68716 12.4876 9.15936 12.1651 8.83571L8.9453 5.60417L8.94406 5.60293Z" fill="#F22424"/>
</g>
<defs>
<clipPath id="clip0_207_32">
<rect width="32" height="30" fill="white"/>
</clipPath>
</defs>
</svg>
