<svg width="32" height="25" viewBox="0 0 32 25" fill="none" xmlns="http://www.w3.org/2000/svg">
<g clip-path="url(#clip0_214_127)">
<path d="M24.105 10.5358C25.6936 10.5358 26.9815 9.25694 26.9815 7.67941C26.9815 6.10187 25.6936 4.82303 24.105 4.82303C22.5164 4.82303 21.2285 6.10187 21.2285 7.67941C21.2285 9.25694 22.5164 10.5358 24.105 10.5358Z" fill="#1480BA"/>
<path d="M30.3696 0.751167H2.41753C1.51908 0.751167 0.787109 1.47681 0.787109 2.37019V23.381C0.787109 24.2731 1.51786 25 2.41753 25H30.3696C31.2681 25 32.0001 24.2744 32.0001 23.381V2.36897C32.0001 1.47681 31.2693 0.749951 30.3696 0.749951V0.751167ZM30.164 16.9256L26.6681 13.3788C25.9888 12.6896 24.6681 12.6896 23.9887 13.3788L20.1122 17.3121L12.1707 8.03068C11.5807 7.3415 10.4337 7.3415 9.84498 8.03068L2.62317 16.4698V2.57439H30.164V16.9256Z" fill="#1480BA"/>
<path d="M19.6911 3.14688H7.59515V0L0 5.2375L7.59515 10.475V7.32692H19.6911V3.14688Z" fill="#F5921D"/>
</g>
<defs>
<clipPath id="clip0_214_127">
<rect width="32" height="25" fill="white"/>
</clipPath>
</defs>
</svg>
