<svg width="32" height="30" viewBox="0 0 32 30" fill="none" xmlns="http://www.w3.org/2000/svg">
<g clip-path="url(#clip0_208_71)">
<path d="M29.7674 5.94135H2.23251C1.41051 5.94135 0.744141 6.63256 0.744141 7.48522V27.6842C0.744141 28.5369 1.41051 29.2281 2.23251 29.2281H29.7674C30.5894 29.2281 31.2558 28.5369 31.2558 27.6842V7.48522C31.2558 6.63256 30.5894 5.94135 29.7674 5.94135Z" fill="white"/>
<path d="M29.7674 30H2.23256C1.00217 30 0 28.9605 0 27.6842V7.48521C0 6.20894 1.00217 5.1694 2.23256 5.1694H29.7674C30.9978 5.1694 32 6.20894 32 7.48521V27.6842C32 28.9605 30.9978 30 29.7674 30ZM2.23256 6.71327C1.82202 6.71327 1.48837 7.05936 1.48837 7.48521V27.6842C1.48837 28.11 1.82202 28.4561 2.23256 28.4561H29.7674C30.178 28.4561 30.5116 28.11 30.5116 27.6842V7.48521C30.5116 7.05936 30.178 6.71327 29.7674 6.71327H2.23256Z" fill="#61B6B7"/>
<path d="M31.3898 6.50742L30.3777 5.37525L16.9166 18.3193C16.4192 18.7979 15.5795 18.7979 15.0822 18.3193L1.62232 5.37396L0.610228 6.50613L11.8015 17.2682L0.231934 28.6671L1.25643 29.7864L12.8955 18.3206L14.0713 19.4515C14.6034 19.9636 15.3017 20.2183 16 20.2183C16.6983 20.2183 17.3978 19.9623 17.9287 19.4515L19.1107 18.3155L30.3777 29.1509L31.3898 28.0187L20.2059 17.2631L31.3898 6.50742Z" fill="#61B6B7"/>
<path d="M7.48656 20.5978C7.14919 20.5978 6.86516 20.5554 6.63322 20.4692C6.40128 20.383 6.21648 20.2389 6.07756 20.0369C5.93865 19.8349 5.83818 19.5583 5.77493 19.2083C5.71167 18.8584 5.68066 18.4222 5.68066 17.9012C5.68066 17.3801 5.71167 16.9337 5.77493 16.5837C5.83818 16.2338 5.93741 15.9572 6.0726 15.7552C6.2078 15.5532 6.38888 15.4065 6.61338 15.3178C6.83787 15.229 7.1157 15.184 7.44687 15.184C7.69121 15.184 7.91322 15.2046 8.11167 15.2457C8.31012 15.2869 8.48749 15.3577 8.64252 15.4567C8.79756 15.5558 8.92159 15.6986 9.01462 15.8839H9.08407V12.8682H10.1359V20.5155H9.16345L9.12376 19.8259H9.06423C8.96501 20.0459 8.83105 20.2106 8.66237 20.3199C8.49369 20.4293 8.3064 20.5039 8.10175 20.5412C7.8971 20.5785 7.69121 20.5978 7.48656 20.5978ZM7.91322 19.6303C8.20469 19.6303 8.43043 19.5904 8.59291 19.512C8.75539 19.4335 8.8695 19.3074 8.93524 19.1363C9.00097 18.978 9.04314 18.7966 9.05927 18.5908C9.07539 18.3849 9.08407 18.1443 9.08407 17.8703C9.08407 17.5963 9.07539 17.3814 9.05927 17.1859C9.04314 16.9903 9.0047 16.8243 8.94516 16.6867C8.87198 16.5014 8.75539 16.3676 8.59291 16.2853C8.43043 16.2029 8.20469 16.1618 7.91322 16.1618C7.64904 16.1618 7.43818 16.1811 7.28314 16.2184C7.12811 16.2557 7.01152 16.3316 6.93586 16.4448C6.8602 16.558 6.80811 16.7291 6.78206 16.9594C6.75601 17.1897 6.74237 17.4998 6.74237 17.8909C6.74237 18.282 6.75601 18.5921 6.78206 18.8224C6.80811 19.0527 6.86144 19.2251 6.94082 19.3421C7.0202 19.4592 7.13803 19.5364 7.29307 19.5737C7.44811 19.611 7.65524 19.6303 7.91322 19.6303Z" fill="#1480BC"/>
<path d="M13.3907 20.5978C13.0471 20.5978 12.7569 20.5502 12.5224 20.4537C12.288 20.3572 12.1107 20.1977 11.9916 19.9751C11.8725 19.7525 11.813 19.4489 11.813 19.0642C11.813 18.659 11.8589 18.3386 11.9519 18.1019C12.0449 17.8652 12.2037 17.6953 12.4282 17.5924C12.6527 17.4895 12.9702 17.438 13.3807 17.438C13.4465 17.438 13.5445 17.4393 13.6735 17.4432C13.8024 17.447 13.9513 17.4496 14.12 17.4535C14.2886 17.4573 14.4573 17.4599 14.626 17.4637C14.7947 17.4676 14.9485 17.4728 15.0874 17.4792V17.2322C15.0874 16.9646 15.0713 16.7548 15.0378 16.6043C15.0043 16.4538 14.9373 16.3419 14.8344 16.2698C14.7314 16.1978 14.5851 16.1515 14.3928 16.1309C14.2006 16.1103 13.9525 16.1 13.6486 16.1C13.5035 16.1 13.3324 16.1051 13.1376 16.1154C12.9429 16.1257 12.7519 16.1373 12.5671 16.1515C12.3823 16.1656 12.2397 16.1823 12.1404 16.2029V15.3383C12.4121 15.283 12.7097 15.2444 13.0335 15.22C13.3572 15.1955 13.6821 15.184 14.0059 15.184C14.3829 15.184 14.6992 15.2084 14.9535 15.256C15.2077 15.3036 15.4148 15.3795 15.5736 15.4824C15.7324 15.5854 15.8514 15.7192 15.9308 15.8838C16.0102 16.0485 16.066 16.2454 16.0995 16.4757C16.133 16.706 16.1491 16.9684 16.1491 17.263V20.5155H15.1767L15.137 19.8362H15.0775C14.9646 20.0562 14.8145 20.2221 14.626 20.3353C14.4375 20.4486 14.2341 20.5206 14.0158 20.5515C13.7975 20.5824 13.5891 20.5978 13.3907 20.5978ZM13.857 19.7127C14.022 19.7127 14.1733 19.7011 14.3085 19.6766C14.4437 19.6522 14.5628 19.611 14.6657 19.5531C14.7686 19.4952 14.8493 19.4142 14.9088 19.3112C14.9683 19.1942 15.013 19.0604 15.0428 18.9098C15.0725 18.7593 15.0874 18.5805 15.0874 18.3746V18.1894H13.6387C13.4204 18.1894 13.253 18.2061 13.1376 18.2408C13.0223 18.2756 12.9442 18.3476 12.9045 18.457C12.8648 18.5663 12.8449 18.7349 12.8449 18.9613C12.8449 19.1736 12.8685 19.3331 12.9144 19.4399C12.9603 19.5467 13.0583 19.6187 13.2071 19.656C13.3559 19.6934 13.573 19.7127 13.857 19.7127Z" fill="#1480BC"/>
<path d="M18.5204 20.5155V16.1823H17.5083V15.2663H18.5204V13.743H19.5722V15.2663H20.753V16.1823H19.5722V20.5155H18.5204Z" fill="#1480BC"/>
<path d="M23.3623 20.5978C23.0188 20.5978 22.7285 20.5502 22.4941 20.4537C22.2597 20.3572 22.0823 20.1977 21.9633 19.9751C21.8442 19.7525 21.7847 19.4489 21.7847 19.0642C21.7847 18.659 21.8306 18.3386 21.9236 18.1019C22.0166 17.8652 22.1754 17.6953 22.3999 17.5924C22.6244 17.4895 22.9419 17.438 23.3524 17.438C23.4182 17.438 23.5161 17.4393 23.6451 17.4432C23.7741 17.447 23.923 17.4496 24.0916 17.4535C24.2603 17.4573 24.429 17.4599 24.5977 17.4637C24.7664 17.4676 24.9202 17.4728 25.0591 17.4792V17.2322C25.0591 16.9646 25.043 16.7548 25.0095 16.6043C24.976 16.4538 24.909 16.3419 24.8061 16.2698C24.7031 16.1978 24.5568 16.1515 24.3645 16.1309C24.1723 16.1103 23.9242 16.1 23.6203 16.1C23.4752 16.1 23.304 16.1051 23.1093 16.1154C22.9146 16.1257 22.7236 16.1373 22.5388 16.1515C22.354 16.1656 22.2113 16.1823 22.1121 16.2029V15.3383C22.3837 15.283 22.6814 15.2444 23.0051 15.22C23.3289 15.1955 23.6538 15.184 23.9775 15.184C24.3546 15.184 24.6709 15.2084 24.9251 15.256C25.1794 15.3036 25.3865 15.3795 25.5453 15.4824C25.704 15.5854 25.8231 15.7192 25.9025 15.8838C25.9819 16.0485 26.0377 16.2454 26.0712 16.4757C26.1047 16.706 26.1208 16.9684 26.1208 17.263V20.5155H25.1484L25.1087 19.8362H25.0492C24.9363 20.0562 24.7862 20.2221 24.5977 20.3353C24.4092 20.4486 24.2058 20.5206 23.9875 20.5515C23.7692 20.5824 23.5608 20.5978 23.3623 20.5978ZM23.8287 19.7127C23.9937 19.7127 24.145 19.7011 24.2802 19.6766C24.4154 19.6522 24.5344 19.611 24.6374 19.5531C24.7403 19.4952 24.8209 19.4142 24.8805 19.3112C24.94 19.1942 24.9847 19.0604 25.0144 18.9098C25.0442 18.7593 25.0591 18.5805 25.0591 18.3746V18.1894H23.6104C23.3921 18.1894 23.2247 18.2061 23.1093 18.2408C22.994 18.2756 22.9158 18.3476 22.8761 18.457C22.8365 18.5663 22.8166 18.7349 22.8166 18.9613C22.8166 19.1736 22.8402 19.3331 22.8861 19.4399C22.932 19.5467 23.0299 19.6187 23.1788 19.656C23.3276 19.6934 23.5447 19.7127 23.8287 19.7127Z" fill="#1480BC"/>
<path d="M0.690918 2.87417H12.9477V0L20.6438 4.78343L12.9477 9.56686V6.69268H0.690918V2.87417Z" fill="#F7941D"/>
</g>
<defs>
<clipPath id="clip0_208_71">
<rect width="32" height="30" fill="white"/>
</clipPath>
</defs>
</svg>
