<svg width="32" height="32" viewBox="0 0 32 32" fill="none" xmlns="http://www.w3.org/2000/svg">
<path d="M24.3627 7.21052C24.3615 7.20066 24.3578 7.1908 24.3566 7.18095C24.3517 7.15754 24.3456 7.13536 24.3383 7.11318C24.3346 7.10209 24.331 7.091 24.3261 7.08114C24.3175 7.05896 24.3065 7.03802 24.2955 7.01707C24.2907 7.00845 24.2858 6.99859 24.2809 6.98996C24.2638 6.96162 24.2442 6.93328 24.2223 6.90741L18.4488 0.210698C18.4305 0.188519 18.4097 0.170037 18.389 0.151555C18.3829 0.146626 18.378 0.141697 18.3719 0.136769C18.3536 0.121983 18.334 0.10843 18.3145 0.0948759C18.3108 0.0924116 18.3072 0.0899473 18.3035 0.087483C18.2803 0.0726973 18.2559 0.0603758 18.2302 0.0492865C18.2241 0.0468222 18.2192 0.0443579 18.2131 0.0431258C18.1923 0.0345008 18.1716 0.0271079 18.1496 0.0221793C18.1435 0.0209472 18.1374 0.0184829 18.1313 0.0172507C18.1044 0.01109 18.0775 0.00616141 18.0494 0.00246497C18.047 0.00246497 18.0433 0.00246497 18.0409 0.00246497C18.0238 0.00123283 18.0055 6.82568e-07 17.9872 6.82568e-07H3.68244C1.65252 -0.00123146 0 1.66586 0 3.71369V27.8132C0 29.8623 1.65252 31.5281 3.68244 31.5281H20.6888C22.72 31.5281 24.3713 29.8611 24.3713 27.8132V7.31155C24.3713 7.27829 24.3676 7.24502 24.3627 7.21175V7.21052ZM20.6888 30.296H3.68244C2.32549 30.296 1.22137 29.1821 1.22137 27.8132V3.71369C1.22137 2.34477 2.32549 1.23091 3.68244 1.23091H17.3765V7.31155C17.3765 7.65163 17.6501 7.92763 17.9872 7.92763H23.1499V27.8132C23.1499 29.1821 22.0458 30.296 20.6888 30.296Z" fill="#1480BA"/>
<path d="M23.7483 13.0669H11.6787V10.3143L4.1001 14.8954L11.6787 19.4765V16.7239H23.7483V13.0669Z" fill="#F6931D"/>
<path d="M23.756 18.704C28.1129 18.704 31.6449 17.4197 31.6449 15.8355C31.6449 14.2513 28.1129 12.9671 23.756 12.9671C19.3991 12.9671 15.8672 14.2513 15.8672 15.8355C15.8672 17.4197 19.3991 18.704 23.756 18.704Z" fill="white"/>
<path d="M23.756 19.0613C21.6088 19.0613 19.585 18.7557 18.0571 18.2C16.4155 17.6037 15.5117 16.7633 15.5117 15.8343C15.5117 14.9053 16.4155 14.0662 18.0571 13.4686C19.585 12.9129 21.6088 12.6073 23.756 12.6073C25.9032 12.6073 27.927 12.9129 29.4549 13.4686C31.0964 14.0649 32.0002 14.9053 32.0002 15.8343C32.0002 16.7633 31.0964 17.6024 29.4549 18.2C27.927 18.7557 25.9032 19.0613 23.756 19.0613ZM23.756 13.3256C19.3163 13.3256 16.2226 14.6477 16.2226 15.8355C16.2226 17.0233 19.3163 18.3454 23.756 18.3454C28.1957 18.3454 31.2894 17.0233 31.2894 15.8355C31.2894 14.6477 28.1957 13.3256 23.756 13.3256Z" fill="#F6931D"/>
<path d="M31.6449 15.8355C31.6449 17.4188 28.1127 18.7039 23.756 18.7039C19.3994 18.7039 15.8672 17.42 15.8672 15.8355V27.8095C15.8672 29.3928 19.3994 30.6779 23.756 30.6779C28.1127 30.6779 31.6449 29.394 31.6449 27.8095V15.8355Z" fill="white"/>
<path d="M23.756 31.0352C21.6088 31.0352 19.585 30.7297 18.0571 30.174C16.4155 29.5776 15.5117 28.7373 15.5117 27.8083V15.8343C15.5117 15.6359 15.6705 15.4757 15.8671 15.4757C16.0638 15.4757 16.2226 15.6359 16.2226 15.8343C16.2226 17.0208 19.3163 18.3441 23.756 18.3441C28.1957 18.3441 31.2894 17.0221 31.2894 15.8343C31.2894 15.6359 31.4482 15.4757 31.6448 15.4757C31.8415 15.4757 32.0002 15.6359 32.0002 15.8343V27.8083C32.0002 28.7373 31.0964 29.5764 29.4549 30.174C27.927 30.7297 25.9032 31.0352 23.756 31.0352ZM16.2226 17.1909V27.8083C16.2226 28.9948 19.3163 30.3181 23.756 30.3181C28.1957 30.3181 31.2894 28.996 31.2894 27.8083V17.1909C30.8595 17.5716 30.2415 17.9141 29.4549 18.2C27.927 18.7557 25.9032 19.0613 23.756 19.0613C21.6088 19.0613 19.585 18.7557 18.0571 18.2C17.2693 17.9141 16.6525 17.5716 16.2226 17.1909Z" fill="#F6931D"/>
<path d="M23.756 23.0768C21.6088 23.0768 19.585 22.7712 18.0571 22.2155C16.4155 21.6192 15.5117 20.7789 15.5117 19.8498C15.5117 19.6515 15.6705 19.4913 15.8671 19.4913C16.0638 19.4913 16.2226 19.6515 16.2226 19.8498C16.2226 21.0364 19.3163 22.3597 23.756 22.3597C28.1957 22.3597 31.2894 21.0376 31.2894 19.8498C31.2894 19.6515 31.4482 19.4913 31.6448 19.4913C31.8415 19.4913 32.0002 19.6515 32.0002 19.8498C32.0002 20.7789 31.0964 21.618 29.4549 22.2155C27.927 22.7712 25.9032 23.0768 23.756 23.0768Z" fill="#F6931D"/>
<path d="M23.756 27.0924C21.6088 27.0924 19.585 26.7868 18.0571 26.2311C16.4155 25.6348 15.5117 24.7944 15.5117 23.8654C15.5117 23.667 15.6705 23.5068 15.8671 23.5068C16.0638 23.5068 16.2226 23.667 16.2226 23.8654C16.2226 25.0519 19.3163 26.3753 23.756 26.3753C28.1957 26.3753 31.2894 25.0532 31.2894 23.8654C31.2894 23.667 31.4482 23.5068 31.6448 23.5068C31.8415 23.5068 32.0002 23.667 32.0002 23.8654C32.0002 24.7944 31.0964 25.6335 29.4549 26.2311C27.927 26.7868 25.9032 27.0924 23.756 27.0924Z" fill="#F6931D"/>
</svg>
