<svg width="32" height="14" viewBox="0 0 32 14" fill="none" xmlns="http://www.w3.org/2000/svg">
<g clip-path="url(#clip0_180_65)">
<path d="M27.3445 6.4325H11.4C11.0929 6.4325 10.8439 6.68656 10.8439 6.99996C10.8439 7.31337 11.0929 7.56743 11.4 7.56743H27.3445C27.6516 7.56743 27.9006 7.31337 27.9006 6.99996C27.9006 6.68656 27.6516 6.4325 27.3445 6.4325Z" fill="#008ACD"/>
<path d="M32 0H0V1.74036H32V0Z" fill="#008ACD"/>
<path d="M32 12.2596H0V14H32V12.2596Z" fill="#008ACD"/>
<path d="M6.72561 4.41772L7.50732 6.11764L9.2561 6.39017L7.99085 7.71364L8.28963 9.58217L6.72561 8.69986L5.16159 9.58217L5.46037 7.71364L4.19512 6.39017L5.94329 6.11764L6.72561 4.41772Z" fill="#008ACD"/>
</g>
<defs>
<clipPath id="clip0_180_65">
<rect width="32" height="14" fill="white"/>
</clipPath>
</defs>
</svg>
