<svg xmlns="http://www.w3.org/2000/svg" width="1em" height="1em" viewBox="0 0 256 256"><path fill="currentColor" d="M128 68a36 36 0 1 0 36 36a36 36 0 0 0-36-36Zm0 64a28 28 0 1 1 28-28a28 28 0 0 1-28 28Zm0-112a84.09 84.09 0 0 0-84 84c0 30.42 14.17 62.79 41 93.62a250 250 0 0 0 40.73 37.66a4 4 0 0 0 4.58 0A250 250 0 0 0 171 197.62c26.81-30.83 41-63.2 41-93.62a84.09 84.09 0 0 0-84-84Zm37.1 172.23A254.62 254.62 0 0 1 128 227a254.62 254.62 0 0 1-37.1-34.81C73.15 171.8 52 139.9 52 104a76 76 0 0 1 152 0c0 35.9-21.15 67.8-38.9 88.23Z"/></svg>