<svg width="23" height="32" viewBox="0 0 23 32" fill="none" xmlns="http://www.w3.org/2000/svg">
<g clip-path="url(#clip0_202_3)">
<path d="M11.6896 0C11.6268 0 11.5628 0.00125245 11.5 0.00250489C11.4372 0.00250489 11.3744 0 11.3104 0C5.06362 0 0 5.25276 0 11.7329C0 18.2131 6.88189 26.9902 9.79885 30.9955C10.3265 31.7245 10.9036 31.9737 11.4698 31.9975V32C11.4795 32 11.4903 32 11.5 32C11.5097 32 11.5205 32 11.5302 32V31.9975C12.0964 31.975 12.6748 31.7245 13.2012 30.9955C16.1181 26.9902 23 18.2131 23 11.7329C23 5.25276 17.9364 0 11.6896 0ZM11.5 17.3464C8.36572 17.3464 5.82546 14.7112 5.82546 11.4599C5.82546 8.20853 8.36572 5.57339 11.5 5.57339C14.6343 5.57339 17.1745 8.20853 17.1745 11.4599C17.1745 14.7112 14.6343 17.3464 11.5 17.3464Z" fill="#1580BE"/>
</g>
<defs>
<clipPath id="clip0_202_3">
<rect width="23" height="32" fill="white"/>
</clipPath>
</defs>
</svg>
