<svg width="32" height="32" viewBox="0 0 32 32" fill="none" xmlns="http://www.w3.org/2000/svg">
<path d="M28.2361 0H3.76395C1.68897 0 0 1.68897 0 3.76395V28.2361C0 30.311 1.68897 32 3.76395 32H28.2361C30.311 32 32 30.311 32 28.2361V3.76395C32 1.68897 30.311 0 28.2361 0ZM3.76395 2.15247H28.2361C29.1243 2.15247 29.8475 2.8757 29.8475 3.76395V6.88789H2.15247V3.76395C2.15247 2.8757 2.8757 2.15247 3.76395 2.15247ZM28.2361 29.8475H3.76395C2.8757 29.8475 2.15247 29.1243 2.15247 28.2361V9.04036H29.8475V28.2361C29.8475 29.1243 29.1243 29.8475 28.2361 29.8475Z" fill="#1480BA"/>
<path d="M20.7354 5.73991C21.409 5.73991 21.9551 5.19382 21.9551 4.52018C21.9551 3.84654 21.409 3.30045 20.7354 3.30045C20.0617 3.30045 19.5156 3.84654 19.5156 4.52018C19.5156 5.19382 20.0617 5.73991 20.7354 5.73991Z" fill="#1480BA"/>
<path d="M24.0361 5.73991C24.7098 5.73991 25.2559 5.19382 25.2559 4.52018C25.2559 3.84654 24.7098 3.30045 24.0361 3.30045C23.3625 3.30045 22.8164 3.84654 22.8164 4.52018C22.8164 5.19382 23.3625 5.73991 24.0361 5.73991Z" fill="#1480BA"/>
<path d="M27.3359 5.73991C28.0096 5.73991 28.5557 5.19382 28.5557 4.52018C28.5557 3.84654 28.0096 3.30045 27.3359 3.30045C26.6623 3.30045 26.1162 3.84654 26.1162 4.52018C26.1162 5.19382 26.6623 5.73991 27.3359 5.73991Z" fill="#1480BA"/>
<path d="M16.0721 10.5471C11.1186 10.5471 7.10352 14.5622 7.10352 19.5157C7.10352 24.4692 11.1186 28.4843 16.0721 28.4843C21.0257 28.4843 25.0407 24.4692 25.0407 19.5157C25.0407 14.5622 21.0257 10.5471 16.0721 10.5471ZM17.0953 24.3874C16.6303 24.8969 16.0477 25.1523 15.346 25.1523C14.8754 25.1523 14.5223 25.0361 14.287 24.8036C14.0517 24.5711 13.934 24.2956 13.934 23.9756C13.934 23.6556 14.0373 23.1993 14.2454 22.6224L15.3302 19.6549C15.4364 19.3851 15.4895 19.2043 15.4895 19.1082C15.4895 19.0465 15.4637 18.9905 15.4135 18.9403C15.3632 18.89 15.3073 18.8642 15.2456 18.8642C15.0547 18.8642 14.8467 19.0135 14.6185 19.3105C14.3918 19.6075 14.2224 19.8744 14.1105 20.1098H13.3701C13.7001 19.3693 14.1306 18.7968 14.6601 18.3907C15.1896 17.9846 15.7177 17.7808 16.2443 17.7808C16.6145 17.7808 16.9216 17.8726 17.1656 18.0535C17.4095 18.2357 17.5315 18.4782 17.5315 18.781C17.5315 19.101 17.4698 19.4224 17.3464 19.7482L16.0348 23.271C15.9458 23.5121 15.8999 23.7087 15.8999 23.8594C15.8999 23.9268 15.9258 23.9928 15.9803 24.0574C16.0334 24.122 16.0908 24.1535 16.1525 24.1535C16.3204 24.1535 16.494 24.0646 16.6734 23.8838C16.8528 23.703 17.0766 23.3744 17.3464 22.8922H18.1198C17.9017 23.3801 17.5588 23.8795 17.0938 24.3889L17.0953 24.3874ZM18.4197 15.1677C18.2045 15.383 17.9505 15.492 17.6592 15.492C17.3449 15.492 17.0838 15.3844 16.8728 15.1677C16.6633 14.9525 16.5571 14.6927 16.5571 14.39C16.5571 14.0872 16.6619 13.8447 16.8728 13.6294C17.0823 13.4142 17.3449 13.3051 17.6592 13.3051C17.8615 13.3051 18.0452 13.3539 18.2102 13.4529C18.3753 13.5505 18.5058 13.6796 18.6006 13.8404C18.6953 13.9996 18.7441 14.1833 18.7441 14.3914C18.7441 14.6942 18.6364 14.9539 18.4197 15.1692V15.1677Z" fill="#1480BA"/>
</svg>
