<svg width="32" height="32" viewBox="0 0 32 32" fill="none" xmlns="http://www.w3.org/2000/svg">
<g clip-path="url(#clip0_235_49)">
<path d="M19.5709 5.66093C19.5402 5.66093 19.5096 5.66093 19.4789 5.66171C19.4483 5.66171 19.4176 5.66093 19.3869 5.66093C16.3442 5.66093 13.877 8.12736 13.877 11.1709C13.877 14.2144 17.2295 18.3351 18.6502 20.2166C18.9073 20.5586 19.1888 20.6758 19.464 20.6868C19.4687 20.6876 19.4734 20.6868 19.4789 20.6868C19.4836 20.6868 19.4884 20.6868 19.4939 20.6868C19.7698 20.675 20.0513 20.5578 20.3076 20.2158C21.7284 18.3351 25.0809 14.2137 25.0809 11.1701C25.0809 8.12658 22.6144 5.66014 19.5709 5.66014V5.66093ZM19.4789 13.8064C17.952 13.8064 16.7145 12.5688 16.7145 11.042C16.7145 9.51508 17.952 8.27754 19.4789 8.27754C21.0058 8.27754 22.2433 9.51508 22.2433 11.042C22.2433 12.5688 21.0058 13.8064 19.4789 13.8064Z" fill="#1581B8"/>
<path d="M16 0C7.17759 0 0 7.17759 0 16C0 24.8224 7.17759 32 16 32C24.8224 32 32 24.8224 32 16C32 7.17759 24.8224 0 16 0ZM16 30.8206C7.82781 30.8206 1.17936 24.1722 1.17936 16C1.17936 7.82781 7.82781 1.17936 16 1.17936C24.1722 1.17936 30.8206 7.82781 30.8206 16C30.8206 24.1722 24.1722 30.8206 16 30.8206Z" fill="#1581B8"/>
</g>
<defs>
<clipPath id="clip0_235_49">
<rect width="32" height="32" fill="white"/>
</clipPath>
</defs>
</svg>
