<svg xmlns="http://www.w3.org/2000/svg" width="1em" height="1em" viewBox="0 0 100 100"><path fill="currentColor" d="m70.387 70l-3.854 7.247l18.87-3.085c-3.808-1.91-8.963-3.275-15.016-4.162Zm-48.61 1.58C13.037 73.885 7.5 77.662 7.5 83.272a8.4 8.4 0 0 0 .774 3.497l30.285-4.95zM91.79 80l-42.15 6.87l11.116 12.646C79.01 97.881 92.5 92.05 92.5 83.272c0-1.17-.252-2.257-.71-3.271zm-49.272 8.055l-28.48 4.655C21.566 97.374 34.853 100 50 100c.918 0 1.815-.026 2.719-.045z"/><path fill="currentColor" d="M50.002 0c-16.3 0-29.675 13.332-29.675 29.595c0 6.302 2.017 12.173 5.421 16.984l-.102-.159l19.259 33.291l.08.107c.76.991 1.5 1.772 2.371 2.348c.87.575 1.95.921 3.009.815c2.118-.212 3.416-1.708 4.647-3.377l.065-.087l21.235-36.14l.013-.024c.498-.9.865-1.815 1.177-2.707a29.248 29.248 0 0 0 2.17-11.051C79.673 13.332 66.303 0 50.003 0Zm0 4.15c14.04 0 25.52 11.455 25.52 25.445c0 3.367-.668 6.58-1.877 9.53l-.022.052l-.018.052c-.27.774-.563 1.486-.911 2.116l-21.055 35.83c-.972 1.294-1.682 1.676-1.688 1.677c-.003 0-.014.045-.304-.148c-.281-.185-.76-.642-1.318-1.36L29.189 44.26l-.053-.076c-2.932-4.145-4.659-9.169-4.659-14.588c0-13.99 11.485-25.445 25.525-25.445zm0 8.746c-9.266 0-16.743 7.45-16.743 16.699c0 9.249 7.477 16.699 16.743 16.699c9.265 0 16.74-7.45 16.74-16.7c0-9.248-7.474-16.698-16.74-16.698zm0 4.15c7.07 0 12.59 5.507 12.59 12.549s-5.519 12.549-12.59 12.549c-7.072 0-12.593-5.508-12.593-12.55c0-7.04 5.521-12.548 12.593-12.548z" color="currentColor"/></svg>