<svg width="32" height="30" viewBox="0 0 32 30" fill="none" xmlns="http://www.w3.org/2000/svg">
<g clip-path="url(#clip0_488_10)">
<path d="M11.5693 19.9222H22.0358V17.1038L28.608 21.7933L22.0358 26.4828V23.6656H11.5693V19.9222Z" fill="#DC801D"/>
<path d="M31.853 6.57236L26.2109 0.201649C26.0974 0.0738599 25.9327 0 25.7608 0H11.7772C9.79182 0 8.17773 1.58623 8.17773 3.53472V26.4653C8.17773 28.4149 9.79302 30 11.7772 30H28.4004C30.3858 30 31.9998 28.4138 31.9998 26.4653V6.95807C31.9998 6.81621 31.9473 6.68021 31.853 6.57353V6.57236ZM28.4004 28.8276H11.7772C10.4508 28.8276 9.37159 27.7678 9.37159 26.4653V3.53472C9.37159 2.23221 10.4508 1.17238 11.7772 1.17238H25.4874L25.4946 1.18059V7.25585H30.8048V26.4653C30.8048 27.7678 29.7256 28.8276 28.3992 28.8276H28.4004Z" fill="#1480A2"/>
<path d="M3.04163 8.41999C3.63855 6.74935 5.2598 5.54884 7.1628 5.54884C8.09639 5.54884 8.98701 5.83373 9.73794 6.37302L11.3902 4.15605C10.157 3.26973 8.69571 2.80078 7.1628 2.80078C4.44679 2.80078 2.07938 4.29205 0.865234 6.4844" fill="#F14436"/>
<path d="M3.07417 11.3381C2.89509 10.8703 2.79719 10.3638 2.79719 9.83625C2.79719 9.34034 2.88315 8.86435 3.04193 8.42119L0.865542 6.4856C0.313983 7.48212 0 8.62284 0 9.83508C0 11.0473 0.300851 12.1412 0.830921 13.1224" fill="#FBBB02"/>
<path d="M9.45425 13.4824C8.78808 13.888 8.00372 14.1213 7.16324 14.1213C5.29487 14.1213 3.6963 12.9618 3.0743 11.3369L0.831055 13.1213C2.03446 15.3488 4.42097 16.8682 7.16324 16.8682C8.87045 16.8682 10.4404 16.2785 11.6724 15.296" fill="#27B446"/>
<path d="M11.6719 15.2972C13.2896 14.0064 14.3259 12.0379 14.3259 9.83504V8.51611H7.14844V11.2642H11.2768C10.9425 12.1915 10.2918 12.9723 9.45257 13.4823" fill="#518FF8"/>
</g>
<defs>
<clipPath id="clip0_488_10">
<rect width="32" height="30" fill="white"/>
</clipPath>
</defs>
</svg>
