<svg width="32" height="32" viewBox="0 0 32 32" fill="none" xmlns="http://www.w3.org/2000/svg">
<g clip-path="url(#clip0_239_68)">
<path d="M0.996094 1.24513L0.996094 10.7082L31.0039 10.7082V1.24513L0.996094 1.24513Z" fill="#67DCDC"/>
<path d="M28.1799 0H3.82008C1.71331 0 0 1.71331 0 3.82008V28.1799C0 30.2867 1.71331 32 3.82008 32H28.1799C30.2867 32 32 30.2867 32 28.1799V3.82008C32 1.71331 30.2867 0 28.1799 0ZM11.7665 20.2335V11.7665H20.2335V20.2335H11.7665ZM20.2335 22.1012V30.1323H11.7665V22.1012H20.2335ZM9.89883 20.2335H1.8677V11.7665H9.89883V20.2335ZM11.7665 9.89883V1.8677H20.2335V9.89883H11.7665ZM22.1012 11.7665H30.1323V20.2335H22.1012V11.7665ZM30.1323 3.82008V9.89883H22.1012V1.8677H28.1799C29.257 1.8677 30.1323 2.74304 30.1323 3.82008ZM3.82008 1.8677H9.89883V9.89883H1.8677V3.82008C1.8677 2.74304 2.74304 1.8677 3.82008 1.8677ZM1.8677 28.1799V22.1012H9.89883V30.1323H3.82008C2.74304 30.1323 1.8677 29.257 1.8677 28.1799ZM28.1799 30.1323H22.1012V22.1012H30.1323V28.1799C30.1323 29.257 29.257 30.1323 28.1799 30.1323Z" fill="#1481B6"/>
</g>
<defs>
<clipPath id="clip0_239_68">
<rect width="32" height="32" fill="white"/>
</clipPath>
</defs>
</svg>
