<svg width="32" height="32" viewBox="0 0 32 32" fill="none" xmlns="http://www.w3.org/2000/svg">
<g clip-path="url(#clip0_101_73)">
<path d="M28.54 0H3.46C1.5525 0 0 1.33944 0 2.98517V24.6233C0 26.2691 1.5525 27.6085 3.46 27.6085H28.54C30.4475 27.6085 32 26.2691 32 24.6233V2.98517C32 1.33944 30.4475 0 28.54 0ZM30.5 24.6233C30.5 25.5562 29.62 26.3144 28.54 26.3144H3.46C2.37875 26.3144 1.5 25.5551 1.5 24.6233V2.98517C1.5 2.05231 2.38 1.29415 3.46 1.29415H28.54C29.6213 1.29415 30.5 2.05338 30.5 2.98517V24.6233Z" fill="#009BDE"/>
<path d="M25.9713 3.39716H6.15375C4.93125 3.39716 3.9375 4.25561 3.9375 5.30926V9.57241C3.9375 10.6271 4.9325 11.4845 6.15375 11.4845H25.9713C27.1938 11.4845 28.1875 10.6261 28.1875 9.57241V5.30926C28.1875 4.25453 27.1925 3.39716 25.9713 3.39716ZM26.9375 9.57348C26.9375 10.0329 26.5037 10.4071 25.9713 10.4071H6.15375C5.62125 10.4071 5.1875 10.0329 5.1875 9.57348V5.30926C5.1875 4.84984 5.62125 4.47561 6.15375 4.47561H25.9713C26.5037 4.47561 26.9375 4.84984 26.9375 5.30926V9.57241V9.57348Z" fill="#009BDE"/>
<path d="M23.445 21.2996L14.9512 28.5479H20.3325V32H23.445H26.5575V28.5479H31.9375L23.445 21.2996Z" fill="#E99547"/>
</g>
<defs>
<clipPath id="clip0_101_73">
<rect width="32" height="32" fill="white"/>
</clipPath>
</defs>
</svg>
