<svg xmlns="http://www.w3.org/2000/svg" width="1em" height="1em" viewBox="0 0 48 48"><path fill="none" stroke="currentColor" stroke-linecap="round" stroke-linejoin="round" d="M13.722 5.5h0a8.226 8.226 0 0 1 8.222 8.222v8.222h-8.222A8.226 8.226 0 0 1 5.5 13.722h0A8.226 8.226 0 0 1 13.722 5.5Zm20.556 0h0a8.226 8.226 0 0 1 8.222 8.222h0a8.226 8.226 0 0 1-8.222 8.222h-8.222v-8.222A8.226 8.226 0 0 1 34.278 5.5ZM13.722 26.056h8.222v8.222a8.226 8.226 0 0 1-8.222 8.222h0A8.226 8.226 0 0 1 5.5 34.278h0a8.226 8.226 0 0 1 8.222-8.222Zm12.334 0h8.222a8.226 8.226 0 0 1 8.222 8.222h0a8.226 8.226 0 0 1-8.222 8.222h0a8.226 8.226 0 0 1-8.222-8.222v-8.222h0Z"/></svg>