<svg width="32" height="32" viewBox="0 0 32 32" fill="none" xmlns="http://www.w3.org/2000/svg">
<g clip-path="url(#clip0_160_84)">
<path d="M24.2402 0H7.75984C3.48072 0 0 3.48072 0 7.75984V24.2414C0 28.5206 3.48072 32.0013 7.75984 32.0013H24.2414C28.5206 32.0013 32.0013 28.5206 32.0013 24.2414V7.75984C32 3.48072 28.5193 0 24.2402 0ZM29.8109 24.2402C29.8109 27.3114 27.3114 29.8109 24.2402 29.8109H7.75984C4.68861 29.8109 2.18913 27.3114 2.18913 24.2402V7.75984C2.18913 4.68861 4.68861 2.18913 7.75984 2.18913H24.2414C27.3127 2.18913 29.8122 4.68861 29.8122 7.75984V24.2414L29.8109 24.2402Z" fill="#1492CF"/>
<path d="M23.5333 14.9054H17.0946V8.46681C17.0946 7.86286 16.604 7.37224 16.0001 7.37224C15.3961 7.37224 14.9055 7.86286 14.9055 8.46681V14.9054H8.46688C7.86294 14.9054 7.37231 15.3961 7.37231 16C7.37231 16.6039 7.86294 17.0946 8.46688 17.0946H14.9055V23.5332C14.9055 24.1371 15.3961 24.6278 16.0001 24.6278C16.604 24.6278 17.0946 24.1371 17.0946 23.5332V17.0946H23.5333C24.1372 17.0946 24.6278 16.6039 24.6278 16C24.6278 15.3961 24.1372 14.9054 23.5333 14.9054Z" fill="#1492CF"/>
</g>
<defs>
<clipPath id="clip0_160_84">
<rect width="32" height="32" fill="white"/>
</clipPath>
</defs>
</svg>
