<svg width="32" height="32" viewBox="0 0 32 32" fill="none" xmlns="http://www.w3.org/2000/svg">
<path d="M15.5422 0C17.1421 0 18.4419 1.2938 18.4419 2.88627V31.3274C18.4419 31.6988 18.1393 32 17.7662 32H13.3183C12.9452 32 12.6426 31.6988 12.6426 31.3274V2.88627C12.6426 1.2938 13.9424 0 15.5422 0Z" fill="#126987"/>
<path d="M25.1877 14.4314H7.4367C6.60462 14.4314 5.92383 13.7538 5.92383 12.9255V7.52944C5.92383 6.70121 6.60462 6.02356 7.4367 6.02356H25.1701C25.5243 6.02356 25.8698 6.14027 26.1509 6.35485L29.802 9.14325C30.6719 9.66278 30.6719 10.9164 29.802 11.436L26.1433 14.1189C25.8672 14.3222 25.5319 14.4314 25.1877 14.4314Z" fill="white"/>
<path d="M25.1882 15.0589H7.43718C6.25588 15.0589 5.29395 14.1014 5.29395 12.9255V7.52945C5.29395 6.35361 6.25588 5.39612 7.43718 5.39612H25.1705C25.661 5.39612 26.1463 5.55926 26.5346 5.85667L30.1592 8.62624C30.7392 8.98765 31.0846 9.60631 31.0846 10.2902C31.0846 10.9742 30.7379 11.5966 30.1542 11.958L26.5183 14.6247C26.1312 14.9095 25.6711 15.0589 25.1895 15.0589H25.1882ZM7.43718 6.65102C6.95054 6.65102 6.55467 7.04506 6.55467 7.52945V12.9255C6.55467 13.4099 6.95054 13.804 7.43718 13.804H25.1882C25.3987 13.804 25.5992 13.7387 25.7694 13.6145L29.4772 10.8989C29.7898 10.7131 29.8239 10.412 29.8239 10.2902C29.8239 10.1685 29.7898 9.86859 29.4772 9.68161L29.4179 9.64145L25.7669 6.85306C25.5967 6.72255 25.3849 6.65102 25.1705 6.65102H7.43718Z" fill="#E9861D"/>
<path d="M5.89559 26.2274H23.6466C24.4787 26.2274 25.1595 25.5498 25.1595 24.7215V19.3255C25.1595 18.4972 24.4787 17.8196 23.6466 17.8196H5.91324C5.55897 17.8196 5.21354 17.9363 4.93239 18.1509L1.28133 20.9393C0.411431 21.4588 0.411431 22.7124 1.28133 23.232L4.93996 25.915C5.21606 26.1182 5.55141 26.2274 5.89559 26.2274Z" fill="white"/>
<path d="M23.6462 26.8549H5.89515C5.41356 26.8549 4.95339 26.7043 4.56635 26.4207L0.930416 23.754C0.3467 23.3926 0 22.7727 0 22.0863C0 21.3998 0.345439 20.7837 0.925373 20.4223L4.54996 17.6527C4.93826 17.3553 5.42364 17.1921 5.91406 17.1921H23.6462C24.8275 17.1921 25.7894 18.1496 25.7894 19.3255V24.7215C25.7894 25.8974 24.8275 26.8549 23.6462 26.8549ZM5.9128 18.447C5.69848 18.447 5.48668 18.5186 5.31648 18.6491L1.63768 21.4601L1.60616 21.4789C1.2935 21.6646 1.25946 21.9658 1.25946 22.0875C1.25946 22.2092 1.2935 22.5092 1.60616 22.6961L1.65659 22.7288L5.31522 25.4117C5.48416 25.536 5.68587 25.6012 5.89641 25.6012H23.6462C24.1328 25.6012 24.5287 25.2072 24.5287 24.7228V19.3267C24.5287 18.8423 24.1328 18.4483 23.6462 18.4483H5.9128V18.447Z" fill="#1480AE"/>
</svg>
