<svg width="26" height="32" viewBox="0 0 26 32" fill="none" xmlns="http://www.w3.org/2000/svg">
<g clip-path="url(#clip0_256_161)">
<path d="M10.3317 0C11.9445 0 13.2549 1.2938 13.2549 2.88627V31.3274C13.2549 31.6988 12.9499 32 12.5737 32H8.08846C7.71226 32 7.40723 31.6988 7.40723 31.3274V2.88627C7.40723 1.2938 8.71758 0 10.3304 0H10.3317Z" fill="#126987"/>
<path d="M20.056 14.4314H2.16089C1.32206 14.4314 0.635742 13.7538 0.635742 12.9255V7.52944C0.635742 6.70121 1.32206 6.02356 2.16089 6.02356H20.0382C20.3953 6.02356 20.7436 6.14027 21.027 6.35485L24.7077 9.14325C25.5847 9.66278 25.5847 10.9164 24.7077 11.436L21.0194 14.1189C20.741 14.3222 20.403 14.4314 20.056 14.4314Z" fill="white"/>
<path d="M20.0557 15.0589H2.16063C0.969741 15.0589 0 14.1014 0 12.9255V7.52945C0 6.35361 0.969741 5.39612 2.16063 5.39612H20.0379C20.5323 5.39612 21.0217 5.55926 21.4131 5.85667L25.0671 8.62624C25.6518 8.98765 26 9.60631 26 10.2902C26 10.9742 25.6505 11.5966 25.062 11.958L21.3966 14.6247C21.0064 14.9095 20.5425 15.0589 20.057 15.0589H20.0557ZM2.16063 6.65102C1.67004 6.65102 1.27096 7.04506 1.27096 7.52945V12.9255C1.27096 13.4099 1.67004 13.804 2.16063 13.804H20.0557C20.268 13.804 20.4701 13.7387 20.6416 13.6145L24.3795 10.8989C24.6947 10.7131 24.729 10.412 24.729 10.2902C24.729 10.1685 24.6947 9.86859 24.3795 9.68161L24.3198 9.64145L20.6391 6.85306C20.4675 6.72255 20.254 6.65102 20.0379 6.65102H2.16063Z" fill="#E9861D"/>
</g>
<defs>
<clipPath id="clip0_256_161">
<rect width="26" height="32" fill="white"/>
</clipPath>
</defs>
</svg>
