<svg width="32" height="24" viewBox="0 0 32 24" fill="none" xmlns="http://www.w3.org/2000/svg">
<path d="M23.9058 9.68421C25.5345 9.68421 26.8548 8.41849 26.8548 6.85714C26.8548 5.2958 25.5345 4.03008 23.9058 4.03008C22.2771 4.03008 20.9568 5.2958 20.9568 6.85714C20.9568 8.41849 22.2771 9.68421 23.9058 9.68421Z" fill="#1493D0"/>
<path d="M30.3285 0H1.67153C0.749177 0 0 0.718195 0 1.60241V22.3976C0 23.2806 0.749177 24 1.67153 24H30.3285C31.2496 24 32 23.2818 32 22.3976V1.60241C32 0.719398 31.2508 0 30.3285 0ZM30.1176 16.0084L26.5336 12.498C25.8372 11.8159 24.4831 11.8159 23.7867 12.498L19.8124 16.391L11.6706 7.20481C11.0657 6.52271 9.88988 6.52271 9.28627 7.20481L1.88235 15.5573V1.80451H30.1176V16.0084Z" fill="#1493D0"/>
</svg>
