<svg width="22" height="32" viewBox="0 0 22 32" fill="none" xmlns="http://www.w3.org/2000/svg">
<g clip-path="url(#clip0_427_14)">
<path d="M11.0569 32C10.7594 32 10.4619 31.889 10.2353 31.6681L5.29137 26.8501C4.83696 26.4073 4.83696 25.6904 5.29137 25.2487C5.74578 24.807 6.48144 24.807 6.93469 25.2487L11.0569 29.2659L15.1792 25.2487C15.6336 24.807 16.3692 24.807 16.8225 25.2487C17.2769 25.6915 17.2769 26.4084 16.8225 26.8501L11.8786 31.6681C11.652 31.889 11.3544 32 11.0569 32V32Z" fill="#00A7EA"/>
<path d="M16.0008 7.08318C15.7032 7.08318 15.4057 6.97219 15.1791 6.75134L11.0569 2.73406L6.93579 6.75134C6.48137 7.19304 5.74572 7.19304 5.29247 6.75134C4.83806 6.3085 4.83806 5.59157 5.29247 5.14986L10.2352 0.331855C10.6896 -0.110985 11.4253 -0.110985 11.8785 0.331855L16.8224 5.14986C17.2768 5.5927 17.2768 6.30963 16.8224 6.75134C16.5958 6.97219 16.2983 7.08318 16.0008 7.08318Z" fill="#00A7EA"/>
<path d="M9.53789 16.0498L9.5437 16.0555L9.55416 16.0657L12.7199 19.2641C13.7461 20.4375 15.2291 21.0661 16.7376 21.0661C17.7498 21.0661 18.7725 20.7829 19.6744 20.1917C22.0859 18.6095 22.7274 15.4099 21.1039 13.0598C20.3171 11.9216 19.1235 11.1492 17.7405 10.8864C16.3587 10.6236 14.6701 10.9883 13.4788 11.9171L11.6914 13.659L13.2406 15.1687L15.028 13.4268C15.623 12.9624 16.5098 12.7812 17.3303 12.9375C18.1508 13.0938 18.8597 13.5514 19.3257 14.2275C20.2892 15.6217 19.908 17.5211 18.4773 18.46C17.1699 19.3174 15.4324 19.0818 14.4074 17.973L13.0418 16.5403L12.4642 15.9343L12.4584 15.9287L12.448 15.9185L9.28221 12.7201C8.25601 11.5467 6.77307 10.9181 5.26456 10.9181C4.25231 10.9181 3.22959 11.2013 2.32774 11.7925C-0.084934 13.3724 -0.726455 16.572 0.897105 18.9221C1.6839 20.0603 2.87745 20.8327 4.26044 21.0955C5.64227 21.3583 7.33091 20.9936 8.52214 20.0649L10.3096 18.3229L8.76039 16.8132L6.97296 18.5551C6.37793 19.0195 5.49119 19.2007 4.67069 19.0444C3.85019 18.8881 3.14127 18.4305 2.67523 17.7544C1.71179 16.3602 2.09298 14.4608 3.52362 13.5219C4.83107 12.6646 6.56853 12.9001 7.59356 14.0089L8.95912 15.4417L9.53672 16.0476L9.53789 16.0498Z" fill="#00A7EA"/>
</g>
<defs>
<clipPath id="clip0_427_14">
<rect width="22" height="32" fill="white"/>
</clipPath>
</defs>
</svg>
