<svg width="23" height="32" viewBox="0 0 23 32" fill="none" xmlns="http://www.w3.org/2000/svg">
<g clip-path="url(#clip0_427_24)">
<path d="M14.4225 22.6492L11.5398 25.5373L8.65705 22.6492C8.33928 22.3316 7.82482 22.3316 7.50786 22.6492C7.19009 22.9676 7.19009 23.483 7.50786 23.8005L10.9652 27.2643C11.1237 27.4231 11.3317 27.5029 11.5398 27.5029C11.7478 27.5029 11.9559 27.4231 12.1144 27.2643L15.5717 23.8005C15.8895 23.4822 15.8895 22.9667 15.5717 22.6492C15.2539 22.3316 14.7395 22.3316 14.4225 22.6492V22.6492Z" fill="#00A7EA"/>
<path d="M8.6579 9.35083L11.5406 6.46269L14.4233 9.35083C14.5818 9.50961 14.7899 9.58941 14.9979 9.58941C15.206 9.58941 15.4141 9.50961 15.5725 9.35083C15.8903 9.03246 15.8903 8.51704 15.5725 8.19948L12.1152 4.73567C11.7974 4.41729 11.283 4.41729 10.966 4.73567L7.50872 8.19948C7.19094 8.51785 7.19094 9.03327 7.50872 9.35083C7.82649 9.66839 8.34094 9.66839 8.6579 9.35083V9.35083Z" fill="#00A7EA"/>
<path d="M16.213 12.3229C15.2467 12.134 14.0658 12.3962 13.2328 13.0638L11.9828 14.3162L13.0661 15.4016L14.3161 14.1492C14.7322 13.8154 15.3523 13.6851 15.9261 13.7975C16.4999 13.9099 16.9957 14.2388 17.3216 14.7249C17.9953 15.7273 17.7287 17.0928 16.7283 17.7678C15.814 18.3842 14.5989 18.2148 13.8821 17.4176L12.9272 16.3876L12.5232 15.952L12.5192 15.9479L12.5119 15.9406L10.298 13.6411C9.58039 12.7984 8.54335 12.3457 7.48844 12.3457C6.78056 12.3457 6.06537 12.5492 5.4347 12.9743C3.7483 14.1118 3.29968 16.412 4.43505 18.1016C4.98526 18.9199 5.81993 19.4752 6.78706 19.6642C7.75339 19.8531 8.93427 19.5909 9.76731 18.9232L11.0173 17.6709L9.93392 16.5863L8.68395 17.8386C8.26784 18.1724 7.64774 18.3027 7.07395 18.1904C6.50017 18.078 6.00441 17.749 5.67851 17.2629C5.00477 16.2606 5.27134 14.8951 6.2718 14.2201C7.18611 13.6037 8.40113 13.7731 9.11795 14.5702L10.0729 15.6002L10.4768 16.0359L10.4809 16.0399L10.4882 16.0473L12.702 18.3467C13.4197 19.1903 14.4567 19.6422 15.5116 19.6422C16.2195 19.6422 16.9347 19.4386 17.5654 19.0136C19.2518 17.8761 19.7004 15.5758 18.565 13.8862C18.0148 13.0679 17.1801 12.5126 16.213 12.3237V12.3229Z" fill="#00A7EA"/>
<path d="M20.2042 0H2.79576C1.25403 0 0 1.25639 0 2.80102V29.199C0 30.7436 1.25403 32 2.79576 32H20.2042C21.746 32 23 30.7436 23 29.199V2.80102C23 1.25639 21.746 0 20.2042 0ZM21.3746 29.199C21.3746 29.8455 20.8495 30.3715 20.2042 30.3715H2.79576C2.15046 30.3715 1.62544 29.8455 1.62544 29.199V2.80102C1.62544 2.1545 2.15046 1.6285 2.79576 1.6285H20.2042C20.8495 1.6285 21.3746 2.1545 21.3746 2.80102V29.199Z" fill="#00A7EA"/>
</g>
<defs>
<clipPath id="clip0_427_24">
<rect width="23" height="32" fill="white"/>
</clipPath>
</defs>
</svg>
