<svg width="32" height="32" viewBox="0 0 32 32" fill="none" xmlns="http://www.w3.org/2000/svg">
<g clip-path="url(#clip0_195_163)">
<path d="M9.73155 13.6082C9.04438 12.9147 7.91889 12.9147 7.23046 13.6082C6.5433 14.3018 6.5433 15.4377 7.23046 16.1325L12.9413 21.8964C13.6284 22.5899 14.7539 22.5899 15.4424 21.8964C15.4563 21.8823 15.4689 21.8658 15.4828 21.8518L31.4847 5.70131C32.1718 5.00777 32.1718 3.87183 31.4847 3.17701C30.7975 2.48219 29.672 2.48346 28.9836 3.17701L14.1893 18.1086L9.73155 13.6095V13.6082Z" fill="#0986C7"/>
<path d="M29.1793 29.1952C29.1793 29.3329 29.0631 29.4502 28.9267 29.4502H2.77898C2.64256 29.4502 2.52635 29.3329 2.52635 29.1952V2.80478C2.52635 2.66709 2.64256 2.5498 2.77898 2.5498H21.3477V0H2.77898C1.24675 0 0 1.25833 0 2.80478V29.1952C0 30.7417 1.24675 32 2.77898 32H28.9267C30.4589 32 31.7057 30.7417 31.7057 29.1952V14.1514H29.1793V29.1952Z" fill="#0986C7"/>
</g>
<defs>
<clipPath id="clip0_195_163">
<rect width="32" height="32" fill="white"/>
</clipPath>
</defs>
</svg>
