<svg width="32" height="19" viewBox="0 0 32 19" fill="none" xmlns="http://www.w3.org/2000/svg">
<g clip-path="url(#clip0_189_141)">
<path d="M31.3488 3.8239H5.35409V1.19497H8.71595C9.05837 1.19497 9.33852 0.926101 9.33852 0.597484C9.33852 0.268868 9.05837 0 8.71595 0H0.747082C0.404669 0 0.124514 0.268868 0.124514 0.597484C0.124514 0.926101 0.404669 1.19497 0.747082 1.19497H4.10895V3.8239H0.651206C0.292607 3.8239 0 4.10352 0 4.44887V14.5511C0 14.8953 0.291362 15.1761 0.651206 15.1761H4.10895V17.805H0.747082C0.404669 17.805 0.124514 18.0739 0.124514 18.4025C0.124514 18.7311 0.404669 19 0.747082 19H8.71595C9.05837 19 9.33852 18.7311 9.33852 18.4025C9.33852 18.0739 9.05837 17.805 8.71595 17.805H5.35409V15.1761H31.3488C31.7074 15.1761 32 14.8965 32 14.5511V4.44887C32 4.10472 31.7086 3.8239 31.3488 3.8239ZM1.24514 13.9811V5.01887H4.10895V13.9811H1.24514ZM30.7549 13.9811H5.35409V5.01887H30.7549V13.9811Z" fill="#1586C4"/>
</g>
<defs>
<clipPath id="clip0_189_141">
<rect width="32" height="19" fill="white"/>
</clipPath>
</defs>
</svg>
