<svg width="32" height="26" viewBox="0 0 32 26" fill="none" xmlns="http://www.w3.org/2000/svg">
<g clip-path="url(#clip0_278_146)">
<path d="M23.45 26L11.3926 12.9994L23.45 0V7.20915H31.9996V18.7896H23.45V25.9988V26ZM13.8891 12.9994L21.6179 21.3325V16.9611H30.1675V9.03765H21.6179V4.66754L13.8891 13.0006V12.9994Z" fill="#E2801D"/>
<path d="M8.54962 26V18.7908H0V7.20915H8.54962V0L20.607 12.9994L8.54962 25.9988V26ZM1.83206 16.9611H10.3817V21.3325L18.1105 12.9994L10.3817 4.66754V9.03887H1.83206V16.9624V16.9611Z" fill="#1480A7"/>
<path d="M30.168 13.0603V16.9611H21.6184V21.3324L13.9457 13.0603H11.4492L23.4504 26V18.7896H32.0001V13.0603H30.168Z" fill="#E2801D"/>
<path d="M20.4162 11.9375L19.5698 11.8461C19.5698 11.8461 19.571 11.8461 19.571 11.8449C19.5649 11.7742 19.4233 11.4036 19.3402 11.2634L19.8727 10.6027C20.0352 10.387 20.0242 10.1066 19.8459 9.92862L19.0617 9.14602C18.8834 8.96805 18.6025 8.95707 18.3863 9.1192L17.7207 9.65312C17.6645 9.60436 17.2443 9.4142 17.1442 9.4081L17.0538 8.57431C17.0159 8.30735 16.8095 8.11597 16.5567 8.11597H15.4477C15.1949 8.11597 14.9884 8.30735 14.9506 8.57431L14.8602 9.4081C14.7601 9.4142 14.3387 9.60436 14.2837 9.65312L13.6181 9.1192C13.4019 8.95707 13.121 8.96805 12.9426 9.14602L12.1585 9.92862C11.9802 10.1066 11.9692 10.387 12.1317 10.6027L12.6642 11.2634C12.5811 11.4036 12.4394 11.7742 12.4333 11.8449C12.4333 11.8449 12.4333 11.8449 12.4346 11.8461L11.5881 11.9375C11.3207 11.9753 11.1289 12.1813 11.1289 12.4337V13.5405C11.1289 13.7928 11.3207 13.9988 11.5881 14.0366L12.4236 14.1268C12.4297 14.2268 12.6202 14.6474 12.6691 14.7022L12.1341 15.3666C11.9717 15.5823 11.9826 15.8627 12.161 16.0407L12.9451 16.8233C13.1234 17.0012 13.4043 17.0122 13.6205 16.8501L14.2678 16.3308C14.3582 16.3978 14.7124 16.5331 14.8455 16.5673L14.9384 17.4255C14.9762 17.6924 15.1826 17.8838 15.4355 17.8838H16.5713C16.8242 17.8838 17.0306 17.6924 17.0684 17.4255L17.1613 16.5673C17.2944 16.5331 17.6498 16.3978 17.739 16.3308L18.3863 16.8501C18.6025 17.0122 18.8834 17.0012 19.0617 16.8233L19.8459 16.0407C20.0242 15.8627 20.0352 15.5823 19.8727 15.3666L19.3378 14.7022C19.3866 14.6461 19.5771 14.2268 19.5833 14.1268L20.4187 14.0366C20.6862 13.9988 20.8779 13.7928 20.8779 13.5405V12.4337C20.8779 12.1813 20.6862 11.9753 20.4187 11.9375H20.4162ZM16.9671 15.3471C16.9536 15.341 16.939 15.3349 16.9243 15.3288C16.9439 15.3215 16.9634 15.3129 16.9817 15.3056C16.9768 15.319 16.9707 15.3337 16.9671 15.3471ZM15.9997 15.0789C14.8492 15.0789 13.9161 14.1476 13.9161 12.9993C13.9161 11.851 14.8492 10.9197 15.9997 10.9197C17.1503 10.9197 18.0834 11.851 18.0834 12.9993C18.0834 14.1476 17.1503 15.0789 15.9997 15.0789Z" fill="#67CECE"/>
</g>
<defs>
<clipPath id="clip0_278_146">
<rect width="32" height="26" fill="white"/>
</clipPath>
</defs>
</svg>
