<svg width="32" height="26" viewBox="0 0 32 26" fill="none" xmlns="http://www.w3.org/2000/svg">
<g clip-path="url(#clip0_277_110)">
<path d="M6.29393 19.0477C7.13109 19.0477 7.81052 19.7399 7.81052 20.5927V21.3142C7.81052 22.1933 8.5127 22.9101 9.37715 22.9101H22.6245C23.4875 22.9101 24.1912 22.1948 24.1912 21.3142V15.0525L22.0027 17.2819C21.707 17.5831 21.3188 17.7345 20.9305 17.7345C20.5423 17.7345 20.154 17.5831 19.8583 17.2819C19.2653 16.6778 19.2653 15.6998 19.8583 15.0973L24.6355 10.2307C25.2285 9.62818 26.1885 9.62818 26.78 10.2307L31.5572 15.0973C32.1502 15.7014 32.1502 16.6793 31.5572 17.2819C31.2615 17.5831 30.8733 17.7345 30.485 17.7345C30.0968 17.7345 29.7085 17.5831 29.4128 17.2819L27.2244 15.0525V21.3142C27.2244 23.8974 25.1618 26 22.6245 26H9.37715C6.84142 26 4.77734 23.8989 4.77734 21.3142V20.5927C4.77734 19.7399 5.45678 19.0477 6.29393 19.0477Z" fill="#E4811D"/>
<path d="M0.444739 8.71817C0.740474 8.4169 1.12872 8.26549 1.51697 8.26549C1.90521 8.26549 2.29346 8.4169 2.58919 8.71817L4.77763 10.9475V4.68584C4.77763 2.10114 6.84019 0 9.37744 0H22.6248C25.1606 0 27.2246 2.10114 27.2246 4.68584V5.40733C27.2246 6.26015 26.5452 6.95229 25.7081 6.95229C24.8709 6.95229 24.1915 6.26015 24.1915 5.40733V4.68584C24.1915 3.80676 23.4893 3.0899 22.6248 3.0899H9.37744C8.5145 3.0899 7.8108 3.80522 7.8108 4.68584V10.9475L9.99924 8.71817C10.295 8.4169 10.6832 8.26549 11.0715 8.26549C11.4597 8.26549 11.848 8.4169 12.1437 8.71817C12.7367 9.32224 12.7367 10.3002 12.1437 10.9027L7.36644 15.7693C6.77346 16.3719 5.81346 16.3719 5.22199 15.7693L0.444739 10.9027C-0.148246 10.2987 -0.148246 9.3207 0.444739 8.71817Z" fill="#1480AA"/>
<path d="M21.4843 11.6535L20.4333 11.5376C20.4333 11.5376 20.4348 11.5376 20.4348 11.5361C20.4272 11.4465 20.2513 10.9768 20.1482 10.7991L20.8094 9.96176C21.0111 9.68831 20.9975 9.33297 20.776 9.1074L19.8024 8.11554C19.581 7.88998 19.2321 7.87608 18.9637 8.08155L18.1372 8.75824C18.0674 8.69644 17.5457 8.45543 17.4213 8.44771L17.3091 7.39096C17.2621 7.05262 17.0058 6.81006 16.6919 6.81006H15.3148C15.0009 6.81006 14.7446 7.05262 14.6976 7.39096L14.5853 8.44771C14.461 8.45543 13.9377 8.69644 13.8695 8.75824L13.043 8.08155C12.7745 7.87608 12.4257 7.88998 12.2043 8.11554L11.2306 9.1074C11.0092 9.33297 10.9956 9.68831 11.1973 9.96176L11.8585 10.7991C11.7554 10.9768 11.5794 11.4465 11.5719 11.5361C11.5719 11.5361 11.5719 11.5361 11.5734 11.5376L10.5224 11.6535C10.1903 11.7014 9.95215 11.9625 9.95215 12.2823V13.6851C9.95215 14.0049 10.1903 14.266 10.5224 14.3139L11.5597 14.4282C11.5673 14.5549 11.8039 15.0879 11.8646 15.1574L11.2003 15.9994C10.9986 16.2729 11.0122 16.6282 11.2337 16.8538L12.2073 17.8457C12.4287 18.0712 12.7776 18.0851 13.046 17.8796L13.8498 17.2215C13.962 17.3065 14.4018 17.478 14.5671 17.5212L14.6824 18.6089C14.7294 18.9472 14.9857 19.1898 15.2996 19.1898H16.7101C17.024 19.1898 17.2803 18.9472 17.3273 18.6089L17.4426 17.5212C17.6079 17.478 18.0492 17.3065 18.1599 17.2215L18.9637 17.8796C19.2321 18.0851 19.581 18.0712 19.8024 17.8457L20.776 16.8538C20.9975 16.6282 21.0111 16.2729 20.8094 15.9994L20.1451 15.1574C20.2058 15.0864 20.4424 14.5549 20.45 14.4282L21.4873 14.3139C21.8194 14.266 22.0576 14.0049 22.0576 13.6851V12.2823C22.0576 11.9625 21.8194 11.7014 21.4873 11.6535H21.4843ZM17.2014 15.9747C17.1848 15.967 17.1666 15.9593 17.1484 15.9515C17.1726 15.9423 17.1969 15.9315 17.2196 15.9222C17.2136 15.9392 17.206 15.9577 17.2014 15.9747ZM16.0003 15.6348C14.5717 15.6348 13.413 14.4545 13.413 12.9991C13.413 11.5438 14.5717 10.3634 16.0003 10.3634C17.4289 10.3634 18.5876 11.5438 18.5876 12.9991C18.5876 14.4545 17.4289 15.6348 16.0003 15.6348Z" fill="#67CFCF"/>
</g>
<defs>
<clipPath id="clip0_277_110">
<rect width="32" height="26" fill="white"/>
</clipPath>
</defs>
</svg>
