<svg width="32" height="32" viewBox="0 0 32 32" fill="none" xmlns="http://www.w3.org/2000/svg">
<path d="M31.8715 13.7635L32.0024 2.88751C32.0198 1.28674 30.7244 -0.0197854 29.1323 -2.28553e-05L18.2367 0.129532L18.2454 0.138315C17.493 0.0746358 16.7188 0.327158 16.1474 0.898076L0.748228 16.2997C-0.248433 17.2966 -0.248433 18.9281 0.748228 19.925L12.0757 31.2512C13.0724 32.2481 14.7058 32.2481 15.7025 31.2512L31.1017 15.8518C31.6731 15.2808 31.926 14.5057 31.8606 13.7547L31.8693 13.7635H31.8715ZM23.9135 10.8892C22.4087 10.8892 21.1874 9.65948 21.1874 8.14435C21.1874 6.62922 22.4087 5.39955 23.9135 5.39955C25.4183 5.39955 26.6396 6.62922 26.6396 8.14435C26.6396 9.65948 25.4183 10.8892 23.9135 10.8892Z" fill="#00A0E3"/>
</svg>
