<svg xmlns="http://www.w3.org/2000/svg" width="1em" height="1em" viewBox="0 0 256 256"><path fill="currentColor" d="M216 44H40a12 12 0 0 0-12 12v144a12 12 0 0 0 12 12h176a12 12 0 0 0 12-12V56a12 12 0 0 0-12-12ZM40 52h176a4 4 0 0 1 4 4v112.4l-32.89-32.89a12 12 0 0 0-17 0l-22.83 22.83l-46.82-46.83a12 12 0 0 0-17 0L36 159V56a4 4 0 0 1 4-4Zm-4 148v-29.66l53.17-53.17a4 4 0 0 1 5.66 0L181.66 204H40a4 4 0 0 1-4-4Zm180 4h-23l-40-40l22.83-22.83a4 4 0 0 1 5.66 0L220 179.71V200a4 4 0 0 1-4 4Zm-68-104a8 8 0 1 1 8 8a8 8 0 0 1-8-8Z"/></svg>