<svg width="32" height="24" viewBox="0 0 32 24" fill="none" xmlns="http://www.w3.org/2000/svg">
<path d="M23.9059 9.68423C25.5346 9.68423 26.8549 8.4185 26.8549 6.85716C26.8549 5.29581 25.5346 4.03009 23.9059 4.03009C22.2772 4.03009 20.9569 5.29581 20.9569 6.85716C20.9569 8.4185 22.2772 9.68423 23.9059 9.68423Z" fill="#1493D0"/>
<path d="M30.3285 0H1.67153C0.749177 0 0 0.718195 0 1.60241V22.3976C0 23.2806 0.749177 24 1.67153 24H30.3285C31.2496 24 32 23.2818 32 22.3976V1.60241C32 0.719398 31.2508 0 30.3285 0ZM30.1176 16.0084L26.5336 12.498C25.8372 11.8159 24.4831 11.8159 23.7867 12.498L19.8124 16.391L11.6706 7.20481C11.0657 6.52271 9.88988 6.52271 9.28627 7.20481L1.88235 15.5573V1.80451H30.1176V16.0084Z" fill="#1493D0"/>
<path d="M9.136 22V10.992H11.92V19.76H16.208V22H9.136Z" fill="white"/>
</svg>
