<svg xmlns="http://www.w3.org/2000/svg" width="1em" height="1em" viewBox="0 0 24 24"><path fill="currentColor" d="M7.654 9.115v-1H20v1H7.654Zm0 3.385v-1H20v1H7.654Zm0 3.385v-1H20v1H7.654ZM4.615 9.23q-.261 0-.438-.183T4 8.596q0-.253.177-.425Q4.354 8 4.615 8q.262 0 .439.171q.177.172.177.425q0 .27-.177.452t-.439.183Zm0 3.365q-.261 0-.438-.171T4 12q0-.29.177-.462t.438-.173q.262 0 .439.173q.177.172.177.462q0 .253-.177.425q-.177.171-.439.171Zm0 3.404q-.261 0-.438-.182T4 15.365q0-.253.177-.424t.438-.172q.262 0 .439.172q.177.171.177.424q0 .27-.177.453q-.177.182-.439.182Z"/></svg>