<svg xmlns="http://www.w3.org/2000/svg" width="1em" height="1em" viewBox="0 0 24 24"><path fill="currentColor" d="M8.117 16.538q.327 0 .547-.221q.22-.222.22-.55t-.22-.547q-.222-.22-.55-.22t-.548.222q-.22.221-.22.549q0 .327.222.547q.221.22.549.22Zm0-3.769q.327 0 .547-.221q.22-.222.22-.55t-.22-.547q-.222-.22-.55-.22t-.548.221q-.22.222-.22.55t.222.547q.221.22.549.22Zm0-3.769q.327 0 .547-.222q.22-.221.22-.549q0-.327-.22-.547q-.222-.22-.55-.22t-.548.221q-.22.222-.22.55t.222.547q.221.22.549.22Zm3.075 7.27h5.385v-1h-5.385v1Zm0-3.77h5.385v-1h-5.385v1Zm0-3.77h5.385v-1h-5.385v1ZM5.615 20q-.69 0-1.152-.462Q4 19.075 4 18.385V5.615q0-.69.463-1.152Q4.925 4 5.615 4h12.77q.69 0 1.152.463q.463.462.463 1.152v12.77q0 .69-.462 1.152q-.463.463-1.153.463H5.615Zm0-1h12.77q.23 0 .423-.192q.192-.193.192-.423V5.615q0-.23-.192-.423Q18.615 5 18.385 5H5.615q-.23 0-.423.192Q5 5.385 5 5.615v12.77q0 .23.192.423q.193.192.423.192ZM5 5v14V5Z"/></svg>