<svg width="32" height="14" viewBox="0 0 32 14" fill="none" xmlns="http://www.w3.org/2000/svg">
<g clip-path="url(#clip0_518_87)">
<path d="M31.1473 0H0.864931C0.393984 0 0.012207 0.377837 0.012207 0.843922C0.012207 1.31001 0.393984 1.68784 0.864931 1.68784H31.1473C31.6182 1.68784 32 1.31001 32 0.843922C32 0.377837 31.6182 0 31.1473 0Z" fill="#00A7EA"/>
<path d="M31.1473 12.3121H0.864931C0.393984 12.3121 0.012207 12.69 0.012207 13.1561C0.012207 13.6221 0.393984 14 0.864931 14H31.1473C31.6182 14 32 13.6221 32 13.1561C32 12.69 31.6182 12.3121 31.1473 12.3121Z" fill="#00A7EA"/>
<path d="M30.2348 2.29309H1.76518C0.790298 2.29309 0 3.07551 0 4.04068V9.9593C0 10.9245 0.790298 11.7069 1.76518 11.7069H30.2348C31.2097 11.7069 32 10.9245 32 9.9593V4.04068C32 3.07551 31.2097 2.29309 30.2348 2.29309Z" fill="#00A7EA" fill-opacity="0.29"/>
<path d="M20.8609 6.2511H4.92246C4.61546 6.2511 4.36658 6.4975 4.36658 6.80144V7.19791C4.36658 7.50186 4.61546 7.74825 4.92246 7.74825H20.8609C21.1679 7.74825 21.4168 7.50186 21.4168 7.19791V6.80144C21.4168 6.4975 21.1679 6.2511 20.8609 6.2511Z" fill="#0080A8"/>
</g>
<defs>
<clipPath id="clip0_518_87">
<rect width="32" height="14" fill="white"/>
</clipPath>
</defs>
</svg>
