<svg width="32" height="13" viewBox="0 0 32 13" fill="none" xmlns="http://www.w3.org/2000/svg">
<path d="M27.3445 5.97302H11.4C11.0928 5.97302 10.8439 6.20894 10.8439 6.49996C10.8439 6.79097 11.0928 7.02689 11.4 7.02689H27.3445C27.6516 7.02689 27.9006 6.79097 27.9006 6.49996C27.9006 6.20894 27.6516 5.97302 27.3445 5.97302Z" fill="#008ACD"/>
<path d="M32 0H0V1.61604H32V0Z" fill="#2D8ECD"/>
<path d="M32 11.3839H0V13H32V11.3839Z" fill="#2D8ECD"/>
<path d="M6.72562 4.10217L7.50732 5.68066L9.2561 5.93373L7.99086 7.16266L8.28964 8.89773L6.72562 8.07844L5.16159 8.89773L5.46037 7.16266L4.19513 5.93373L5.9433 5.68066L6.72562 4.10217Z" fill="#008ACD"/>
</svg>
