<svg width="31" height="32" viewBox="0 0 31 32" fill="none" xmlns="http://www.w3.org/2000/svg">
<g clip-path="url(#clip0_302_7)">
<path d="M30.1774 6.70813H0.965405C0.511105 6.70813 0.142822 7.07816 0.142822 7.53461C0.142822 7.99106 0.511105 8.36108 0.965405 8.36108H30.1774C30.6317 8.36108 30.9999 7.99106 30.9999 7.53461C30.9999 7.07816 30.6317 6.70813 30.1774 6.70813Z" fill="#2D8ECD"/>
<path d="M29.2408 0H1.61635C0.723666 0 0 0.727351 0 1.62458V1.62518C0 2.52241 0.723666 3.24976 1.61635 3.24976H29.2408C30.1335 3.24976 30.8571 2.52241 30.8571 1.62518V1.62458C30.8571 0.727351 30.1335 0 29.2408 0Z" fill="#1480A2"/>
<path d="M30.1774 18.5276H0.965405C0.511105 18.5276 0.142822 18.8976 0.142822 19.3541C0.142822 19.8105 0.511105 20.1805 0.965405 20.1805H30.1774C30.6317 20.1805 30.9999 19.8105 30.9999 19.3541C30.9999 18.8976 30.6317 18.5276 30.1774 18.5276Z" fill="#2D8ECD"/>
<path d="M20.2541 12.7112H4.87901C4.58285 12.7112 4.34277 12.9525 4.34277 13.2501V13.6384C4.34277 13.9361 4.58285 14.1774 4.87901 14.1774H20.2541C20.5502 14.1774 20.7903 13.9361 20.7903 13.6384V13.2501C20.7903 12.9525 20.5502 12.7112 20.2541 12.7112Z" fill="#0080A8"/>
<path d="M30.1774 30.347H0.965405C0.511105 30.347 0.142822 30.7171 0.142822 31.1735C0.142822 31.63 0.511105 32 0.965405 32H30.1774C30.6317 32 30.9999 31.63 30.9999 31.1735C30.9999 30.7171 30.6317 30.347 30.1774 30.347Z" fill="#2D8ECD"/>
<path d="M20.2541 24.5306H4.87901C4.58285 24.5306 4.34277 24.7719 4.34277 25.0696V25.4579C4.34277 25.7555 4.58285 25.9968 4.87901 25.9968H20.2541C20.5502 25.9968 20.7903 25.7555 20.7903 25.4579V25.0696C20.7903 24.7719 20.5502 24.5306 20.2541 24.5306Z" fill="#0080A8"/>
</g>
<defs>
<clipPath id="clip0_302_7">
<rect width="31" height="32" fill="white"/>
</clipPath>
</defs>
</svg>
