<svg width="32" height="27" viewBox="0 0 32 27" fill="none" xmlns="http://www.w3.org/2000/svg">
<g clip-path="url(#clip0_518_93)">
<path d="M31.1473 0H0.864931C0.393984 0 0.012207 0.387741 0.012207 0.866044C0.012207 1.34435 0.393984 1.73209 0.864931 1.73209H31.1473C31.6182 1.73209 32 1.34435 32 0.866044C32 0.387741 31.6182 0 31.1473 0Z" fill="#00A7EA"/>
<path d="M31.1473 12.6349H0.864931C0.393984 12.6349 0.012207 13.0226 0.012207 13.5009C0.012207 13.9792 0.393984 14.367 0.864931 14.367H31.1473C31.6182 14.367 32 13.9792 32 13.5009C32 13.0226 31.6182 12.6349 31.1473 12.6349Z" fill="#00A7EA"/>
<path d="M30.2348 2.35327H1.76518C0.790298 2.35327 0 3.1562 0 4.14667V10.2204C0 11.2109 0.790298 12.0138 1.76518 12.0138H30.2348C31.2097 12.0138 32 11.2109 32 10.2204V4.14667C32 3.1562 31.2097 2.35327 30.2348 2.35327Z" fill="#00A7EA" fill-opacity="0.29"/>
<path d="M20.8609 6.41492H4.92246C4.61546 6.41492 4.36658 6.66777 4.36658 6.97969V7.38655C4.36658 7.69846 4.61546 7.95132 4.92246 7.95132H20.8609C21.1679 7.95132 21.4168 7.69846 21.4168 7.38655V6.97969C21.4168 6.66777 21.1679 6.41492 20.8609 6.41492Z" fill="#0080A8"/>
<path d="M31.1473 25.2679H0.864931C0.393984 25.2679 0.012207 25.6557 0.012207 26.134C0.012207 26.6123 0.393984 27 0.864931 27H31.1473C31.6182 27 32 26.6123 32 26.134C32 25.6557 31.6182 25.2679 31.1473 25.2679Z" fill="#00A7EA"/>
<path d="M30.2348 14.9862H1.76518C0.790298 14.9862 0 15.7891 0 16.7796V22.8534C0 23.8438 0.790298 24.6468 1.76518 24.6468H30.2348C31.2097 24.6468 32 23.8438 32 22.8534V16.7796C32 15.7891 31.2097 14.9862 30.2348 14.9862Z" fill="#00A7EA" fill-opacity="0.29"/>
<path d="M20.8609 19.048H4.92246C4.61546 19.048 4.36658 19.3008 4.36658 19.6127V20.0196C4.36658 20.3315 4.61546 20.5844 4.92246 20.5844H20.8609C21.1679 20.5844 21.4168 20.3315 21.4168 20.0196V19.6127C21.4168 19.3008 21.1679 19.048 20.8609 19.048Z" fill="#0080A8"/>
</g>
<defs>
<clipPath id="clip0_518_93">
<rect width="32" height="27" fill="white"/>
</clipPath>
</defs>
</svg>
