<svg xmlns="http://www.w3.org/2000/svg" width="1em" height="1em" viewBox="0 0 24 24"><path fill="currentColor" d="M15.615 20q-.402 0-.7-.299q-.3-.3-.3-.701v-4.385q0-.402.3-.7q.298-.3.7-.3H20q.402 0 .701.3q.299.298.299.7V19q0 .402-.299.701q-.3.299-.701.299h-4.385Zm0-1H20v-4.385h-4.385V19ZM3 17.308v-1h8.23v1H3Zm12.615-6.923q-.402 0-.7-.3q-.3-.298-.3-.7V5q0-.402.3-.701q.298-.299.7-.299H20q.402 0 .701.299q.299.3.299.701v4.385q0 .402-.299.7q-.3.3-.701.3h-4.385Zm0-1H20V5h-4.385v4.385ZM3 7.692v-1h8.23v1H3Zm14.808 9.116Zm0-9.616Z"/></svg>