<svg width="32" height="26" viewBox="0 0 32 26" fill="none" xmlns="http://www.w3.org/2000/svg">
<g clip-path="url(#clip0_180_98)">
<path d="M31.147 0H0.853049C0.381923 0 0 0.380386 0 0.849616C0 1.31885 0.381923 1.69923 0.853049 1.69923H31.147C31.6181 1.69923 32 1.31885 32 0.849616C32 0.380386 31.6181 0 31.147 0Z" fill="#2D8ECD"/>
<path d="M31.147 12.1504H0.853049C0.381923 12.1504 0 12.5308 0 13C0 13.4692 0.381923 13.8496 0.853049 13.8496H31.147C31.6181 13.8496 32 13.4692 32 13C32 12.5308 31.6181 12.1504 31.147 12.1504Z" fill="#2D8ECD"/>
<path d="M20.8561 6.17114H4.91157C4.60444 6.17114 4.35547 6.4192 4.35547 6.7252V7.12434C4.35547 7.43034 4.60444 7.6784 4.91157 7.6784H20.8561C21.1632 7.6784 21.4122 7.43034 21.4122 7.12434V6.7252C21.4122 6.4192 21.1632 6.17114 20.8561 6.17114Z" fill="#008ACD"/>
<path d="M31.147 24.3008H0.853049C0.381923 24.3008 0 24.6812 0 25.1504C0 25.6196 0.381923 26 0.853049 26H31.147C31.6181 26 32 25.6196 32 25.1504C32 24.6812 31.6181 24.3008 31.147 24.3008Z" fill="#2D8ECD"/>
<path d="M20.8561 18.3215H4.91157C4.60444 18.3215 4.35547 18.5696 4.35547 18.8756V19.2747C4.35547 19.5807 4.60444 19.8288 4.91157 19.8288H20.8561C21.1632 19.8288 21.4122 19.5807 21.4122 19.2747V18.8756C21.4122 18.5696 21.1632 18.3215 20.8561 18.3215Z" fill="#008ACD"/>
</g>
<defs>
<clipPath id="clip0_180_98">
<rect width="32" height="26" fill="white"/>
</clipPath>
</defs>
</svg>
