<svg width="30" height="32" viewBox="0 0 30 32" fill="none" xmlns="http://www.w3.org/2000/svg">
<g clip-path="url(#clip0_275_77)">
<path d="M29.8491 7.01051L24.0503 0.215092C23.9338 0.0787839 23.7645 0 23.5878 0H9.21599C7.1755 0 5.5166 1.69198 5.5166 3.77037V28.2296C5.5166 30.3093 7.17672 32 9.21599 32H26.3007C28.3411 32 30 30.308 30 28.2296V7.42194C30 7.27062 29.946 7.12556 29.8491 7.01176V7.01051ZM26.3007 30.7495H9.21599C7.8528 30.7495 6.7436 29.619 6.7436 28.2296V3.77037C6.7436 2.38102 7.8528 1.25054 9.21599 1.25054H23.3068L23.3141 1.25929V7.73958H28.7718V28.2296C28.7718 29.619 27.6626 30.7495 26.2994 30.7495H26.3007Z" fill="#1480AB"/>
<path d="M20.3681 14.3949H1.47239C0.659213 14.3949 0 15.0668 0 15.8955V22.9161C0 23.7448 0.659213 24.4167 1.47239 24.4167H20.3681C21.1813 24.4167 21.8405 23.7448 21.8405 22.9161V15.8955C21.8405 15.0668 21.1813 14.3949 20.3681 14.3949Z" fill="#1480AB"/>
<path d="M3.9841 21.3241H6.97306V22.2958H2.79883V16.5183H3.9841V21.3241Z" fill="white"/>
<path d="M10.2205 16.4296C10.7813 16.4296 11.2659 16.5496 11.6721 16.7885C12.0782 17.0273 12.3923 17.3687 12.6132 17.8127C12.834 18.2566 12.9445 18.7868 12.9445 19.4058C12.9445 20.0249 12.834 20.5551 12.6132 20.999C12.3923 21.443 12.0794 21.7844 11.6721 22.0232C11.2659 22.2621 10.7813 22.3821 10.2205 22.3821C9.65981 22.3821 9.17392 22.2621 8.76533 22.0232C8.35552 21.7844 8.04141 21.443 7.82055 20.999C7.59969 20.5551 7.48926 20.0249 7.48926 19.4058C7.48926 18.7868 7.59969 18.2566 7.82055 17.8127C8.04141 17.3687 8.35552 17.0273 8.76533 16.7885C9.17515 16.5496 9.65981 16.4296 10.2205 16.4296ZM10.2205 17.4187C9.90521 17.4187 9.63527 17.495 9.4095 17.6463C9.18374 17.7977 9.01196 18.0227 8.89417 18.3204C8.77637 18.618 8.71748 18.9794 8.71748 19.4058C8.71748 19.8323 8.77637 20.1937 8.89417 20.4913C9.01196 20.7889 9.18374 21.014 9.4095 21.1653C9.63527 21.3167 9.90644 21.3929 10.2205 21.3929C10.5347 21.3929 10.8046 21.3167 11.0279 21.1653C11.2512 21.014 11.4218 20.7889 11.5396 20.4913C11.6574 20.1937 11.7163 19.8323 11.7163 19.4058C11.7163 18.9794 11.6574 18.618 11.5396 18.3204C11.4218 18.0227 11.2524 17.7977 11.0279 17.6463C10.8046 17.495 10.5359 17.4187 10.2205 17.4187Z" fill="white"/>
<path d="M16.4648 22.3821C15.9433 22.3821 15.4869 22.2658 15.0943 22.032C14.7016 21.7981 14.3973 21.4605 14.1789 21.0165C13.9617 20.5726 13.8525 20.0386 13.8525 19.4146C13.8525 18.7906 13.9666 18.2629 14.1961 17.8177C14.4255 17.3712 14.7482 17.0286 15.1666 16.7885C15.5851 16.5496 16.0746 16.4296 16.6354 16.4296C17.2476 16.4296 17.7433 16.5446 18.1213 16.776C18.4992 17.0061 18.7998 17.3637 19.0231 17.8489L17.9237 18.3304C17.8317 18.0215 17.6759 17.7927 17.4562 17.6426C17.2354 17.4938 16.9654 17.4187 16.6439 17.4187C16.3225 17.4187 16.0452 17.4963 15.8108 17.6513C15.5765 17.8064 15.3961 18.0303 15.2697 18.3254C15.1433 18.6205 15.0808 18.9807 15.0808 19.4071C15.0808 19.8335 15.1409 20.2137 15.2611 20.5138C15.3814 20.8139 15.5605 21.039 15.7986 21.1879C16.0366 21.3367 16.3298 21.4117 16.6783 21.4117C16.8673 21.4117 17.0427 21.3879 17.2059 21.3417C17.3691 21.2954 17.5114 21.2254 17.6305 21.1316C17.7507 21.0378 17.8452 20.919 17.9139 20.7727C17.9826 20.6264 18.017 20.4575 18.017 20.265V20.1337H16.5311V19.2495H19.039V22.2958H18.2059L18.12 21.0353L18.3262 21.1841C18.1998 21.5693 17.9789 21.8657 17.6611 22.072C17.3433 22.2796 16.9446 22.3834 16.4636 22.3834L16.4648 22.3821Z" fill="white"/>
</g>
<defs>
<clipPath id="clip0_275_77">
<rect width="30" height="32" fill="white"/>
</clipPath>
</defs>
</svg>
