<svg width="32" height="32" viewBox="0 0 32 32" fill="none" xmlns="http://www.w3.org/2000/svg">
<g clip-path="url(#clip0_182_118)">
<path d="M24.2402 0H7.75984C3.48072 0 0 3.48072 0 7.75984V24.2414C0 28.5206 3.48072 32.0013 7.75984 32.0013H24.2414C28.5206 32.0013 32.0013 28.5206 32.0013 24.2414V7.75984C32 3.48072 28.5193 0 24.2402 0ZM29.8109 24.2402C29.8109 27.3114 27.3114 29.8109 24.2402 29.8109H7.75984C4.68861 29.8109 2.18913 27.3114 2.18913 24.2402V7.75984C2.18913 4.68861 4.68732 2.18913 7.75984 2.18913H24.2414C27.3127 2.18913 29.8122 4.68861 29.8122 7.75984V24.2414L29.8109 24.2402Z" fill="#148AC7"/>
<path d="M24.4089 8.79517H7.5912C6.93961 8.79517 6.40649 9.32828 6.40649 9.97987C6.40649 10.6315 6.93961 11.1646 7.5912 11.1646H24.4089C25.0605 11.1646 25.5936 10.6315 25.5936 9.97987C25.5936 9.32828 25.0605 8.79517 24.4089 8.79517Z" fill="#148AC7"/>
<path d="M24.4089 14.8153H7.5912C6.93961 14.8153 6.40649 15.3484 6.40649 16C6.40649 16.6516 6.93961 17.1847 7.5912 17.1847H24.4089C25.0605 17.1847 25.5936 16.6516 25.5936 16C25.5936 15.3484 25.0605 14.8153 24.4089 14.8153Z" fill="#148AC7"/>
<path d="M24.4089 20.8341H7.5912C6.93961 20.8341 6.40649 21.3673 6.40649 22.0188C6.40649 22.6704 6.93961 23.2036 7.5912 23.2036H24.4089C25.0605 23.2036 25.5936 22.6704 25.5936 22.0188C25.5936 21.3673 25.0605 20.8341 24.4089 20.8341Z" fill="#148AC7"/>
</g>
<defs>
<clipPath id="clip0_182_118">
<rect width="32" height="32" fill="white"/>
</clipPath>
</defs>
</svg>
