<svg width="32" height="32" viewBox="0 0 32 32" fill="none" xmlns="http://www.w3.org/2000/svg">
<g clip-path="url(#clip0_178_44)">
<path d="M30.0235 0H1.97647C0.884896 0 0 1.17832 0 2.63185C0 4.08539 0.884896 5.26371 1.97647 5.26371H30.0235C31.1151 5.26371 32 4.08539 32 2.63185C32 1.17832 31.1151 0 30.0235 0Z" fill="#088BCC"/>
<path d="M30.0235 13.3681H1.97647C0.884896 13.3681 0 14.5465 0 16C0 17.4535 0.884896 18.6318 1.97647 18.6318H30.0235C31.1151 18.6318 32 17.4535 32 16C32 14.5465 31.1151 13.3681 30.0235 13.3681Z" fill="#088BCC"/>
<path d="M30.0235 26.7363H1.97647C0.884896 26.7363 0 27.9146 0 29.3682C0 30.8217 0.884896 32 1.97647 32H30.0235C31.1151 32 32 30.8217 32 29.3682C32 27.9146 31.1151 26.7363 30.0235 26.7363Z" fill="#088BCC"/>
</g>
<defs>
<clipPath id="clip0_178_44">
<rect width="32" height="32" fill="white"/>
</clipPath>
</defs>
</svg>
