<svg width="32" height="21" viewBox="0 0 32 21" fill="none" xmlns="http://www.w3.org/2000/svg">
<path d="M30.9542 0H0V1.66644H30.9542V0Z" fill="#2D8ECD"/>
<path d="M31.2928 11.2444L29.9863 11.1008C29.9863 11.1008 29.9887 11.099 29.9887 11.0985C29.9798 10.9882 29.761 10.4097 29.6324 10.1905L30.4534 9.15914C30.7035 8.82192 30.687 8.38401 30.4116 8.10578L29.2018 6.8838C28.9264 6.60557 28.4928 6.58889 28.159 6.8415L27.1315 7.67561C27.0454 7.59935 26.3966 7.30146 26.2415 7.29252L26.1017 5.9913C26.0427 5.57425 25.7242 5.27635 25.3349 5.27635H23.6244C23.2351 5.27635 22.9166 5.57425 22.8576 5.9913L22.7178 7.29252C22.5627 7.30205 21.9139 7.59995 21.8278 7.67561L20.8003 6.8415C20.4665 6.58889 20.0329 6.60557 19.7575 6.8838L18.5477 8.10578C18.2723 8.38401 18.2558 8.82192 18.5059 9.15914L19.3269 10.1905C19.1983 10.4097 18.9795 10.9888 18.9706 11.0985C18.9706 11.0996 18.9718 11.1002 18.973 11.1008L17.6665 11.2444C17.2537 11.304 16.9587 11.6257 16.9587 12.019V13.7468C16.9587 14.14 17.2537 14.4617 17.6665 14.5213L18.9547 14.6625C18.9642 14.8192 19.2591 15.4746 19.334 15.5615L18.5082 16.5994C18.2581 16.9366 18.2746 17.3745 18.5501 17.6528L19.7598 18.8748C20.0353 19.153 20.4688 19.1697 20.8027 18.9171L21.8012 18.1062C21.9398 18.2104 22.4866 18.4225 22.6925 18.4756L22.8364 19.8143C22.8954 20.2314 23.2139 20.5293 23.6032 20.5293H25.3555C25.7448 20.5293 26.0633 20.2314 26.1223 19.8143L26.2662 18.4756C26.4727 18.4225 27.0189 18.2104 27.1575 18.1062L28.1561 18.9171C28.4899 19.1697 28.9234 19.153 29.1989 18.8748L30.4086 17.6528C30.6841 17.3745 30.7006 16.9366 30.4505 16.5994L29.6247 15.5615C29.7002 15.4746 29.9951 14.8192 30.004 14.6625L31.2922 14.5213C31.7051 14.4617 32 14.14 32 13.7468V12.019C32 11.6257 31.7051 11.304 31.2922 11.2444H31.2928ZM25.9731 16.5684C25.9513 16.5583 25.9295 16.5488 25.907 16.5398C25.9371 16.5279 25.9666 16.516 25.9961 16.5029C25.9878 16.5249 25.9802 16.5464 25.9731 16.5684ZM24.4802 16.1502C22.7049 16.1502 21.2657 14.6965 21.2657 12.9031C21.2657 11.1098 22.7049 9.65603 24.4802 9.65603C26.2556 9.65603 27.6948 11.1098 27.6948 12.9031C27.6948 14.6965 26.2556 16.1502 24.4802 16.1502Z" fill="#2D8ECD"/>
</svg>
