<svg width="32" height="32" viewBox="0 0 32 32" fill="none" xmlns="http://www.w3.org/2000/svg">
<g clip-path="url(#clip0_184_126)">
<path d="M24.2402 0H7.75984C3.48072 0 0 3.48072 0 7.75984V24.2414C0 28.5206 3.48072 32.0013 7.75984 32.0013H24.2414C28.5206 32.0013 32.0013 28.5206 32.0013 24.2414V7.75984C32 3.48072 28.5193 0 24.2402 0ZM29.8109 24.2402C29.8109 27.3114 27.3114 29.8109 24.2402 29.8109H7.75984C4.68861 29.8109 2.18913 27.3114 2.18913 24.2402V7.75984C2.18913 4.68861 4.68732 2.18913 7.75984 2.18913H24.2414C27.3127 2.18913 29.8122 4.68861 29.8122 7.75984V24.2414L29.8109 24.2402Z" fill="#088ACB"/>
<path d="M27.5972 11.7454H17.665C17.28 11.7454 16.9645 12.0609 16.9645 12.4459C16.9645 12.8309 17.28 13.1464 17.665 13.1464H27.5972C27.9823 13.1464 28.2978 12.8309 28.2978 12.4459C28.2978 12.0609 27.9823 11.7454 27.5972 11.7454Z" fill="#088ACB"/>
<path d="M27.5972 15.2995H17.665C17.28 15.2995 16.9645 15.615 16.9645 16C16.9645 16.385 17.28 16.7005 17.665 16.7005H27.5972C27.9823 16.7005 28.2978 16.385 28.2978 16C28.2978 15.615 27.9823 15.2995 27.5972 15.2995Z" fill="#088ACB"/>
<path d="M27.5972 18.8549H17.665C17.28 18.8549 16.9645 19.1704 16.9645 19.5554C16.9645 19.9404 17.28 20.2559 17.665 20.2559H27.5972C27.9823 20.2559 28.2978 19.9404 28.2978 19.5554C28.2978 19.1704 27.9823 18.8549 27.5972 18.8549Z" fill="#088ACB"/>
<path d="M9.43265 21.7304C12.5975 21.7304 15.163 19.1648 15.163 16C15.163 12.8352 12.5975 10.2696 9.43265 10.2696C6.26785 10.2696 3.70227 12.8352 3.70227 16C3.70227 19.1648 6.26785 21.7304 9.43265 21.7304Z" fill="#088ACB"/>
</g>
<defs>
<clipPath id="clip0_184_126">
<rect width="32" height="32" fill="white"/>
</clipPath>
</defs>
</svg>
