<svg width="32" height="32" viewBox="0 0 32 32" fill="none" xmlns="http://www.w3.org/2000/svg">
<g clip-path="url(#clip0_518_102)">
<path d="M28.4706 32H3.52941C1.58306 32 0 30.4169 0 28.4706V3.52941C0 1.58306 1.58306 0 3.52941 0H28.4706C30.4169 0 32 1.58306 32 3.52941V28.4706C32 30.4169 30.4169 32 28.4706 32ZM3.52941 1.12941C2.20612 1.12941 1.12941 2.20612 1.12941 3.52941V28.4706C1.12941 29.7939 2.20612 30.8706 3.52941 30.8706H28.4706C29.7939 30.8706 30.8706 29.7939 30.8706 28.4706V3.52941C30.8706 2.20612 29.7939 1.12941 28.4706 1.12941H3.52941Z" fill="#0098DB"/>
<path d="M24.7228 21.0823H7.27718C5.44377 21.0823 3.95294 19.5915 3.95294 17.7581V12.736C3.95294 10.9026 5.44377 9.41174 7.27718 9.41174H24.7228C26.5562 9.41174 28.0471 10.9026 28.0471 12.736V17.7581C28.0471 19.5915 26.5562 21.0823 24.7228 21.0823ZM7.27718 10.5412C6.06682 10.5412 5.08235 11.5256 5.08235 12.736V17.7581C5.08235 18.9684 6.06682 19.9529 7.27718 19.9529H24.7228C25.9332 19.9529 26.9176 18.9684 26.9176 17.7581V12.736C26.9176 11.5256 25.9332 10.5412 24.7228 10.5412H7.27718Z" fill="#0098DB"/>
<path d="M28.0433 12.8C28.0433 12.7717 28.0471 12.7454 28.0471 12.7172C28.0471 10.8913 26.5675 9.41174 24.7416 9.41174H7.25835C5.43247 9.41174 3.95294 10.8913 3.95294 12.7172C3.95294 12.7454 3.95671 12.7717 3.95671 12.8H28.0433Z" fill="#00A7EA"/>
<path d="M32 3.95294V2.96471C32 1.32706 30.6805 0 29.0522 0H2.94776C1.31953 0 0 1.32706 0 2.96471V3.95294H32Z" fill="#1480BC"/>
</g>
<defs>
<clipPath id="clip0_518_102">
<rect width="32" height="32" fill="white"/>
</clipPath>
</defs>
</svg>
