<svg width="32" height="32" viewBox="0 0 32 32" fill="none" xmlns="http://www.w3.org/2000/svg">
<g clip-path="url(#clip0_278_116)">
<path d="M15.4763 4.16379C15.961 4.16379 16.353 3.79379 16.353 3.33629C16.353 2.87879 15.961 2.50879 15.4763 2.50879C14.9916 2.50879 14.5996 2.87879 14.5996 3.33629C14.5996 3.79379 14.9916 4.16379 15.4763 4.16379Z" fill="#1480AA"/>
<path d="M17.949 4.21118C18.4332 4.21118 18.8257 3.81943 18.8257 3.33618C18.8257 2.85293 18.4332 2.46118 17.949 2.46118C17.4648 2.46118 17.0723 2.85293 17.0723 3.33618C17.0723 3.81943 17.4648 4.21118 17.949 4.21118Z" fill="#1480AA"/>
<path d="M20.4207 4.21118C20.9049 4.21118 21.2974 3.81943 21.2974 3.33618C21.2974 2.85293 20.9049 2.46118 20.4207 2.46118C19.9365 2.46118 19.5439 2.85293 19.5439 3.33618C19.5439 3.81943 19.9365 4.21118 20.4207 4.21118Z" fill="#1480AA"/>
<path d="M30.1814 9.75H24.1096V1.815C24.1096 0.81375 23.2942 0 22.291 0H1.81855C0.815342 0 0 0.81375 0 1.815V20.435C0 21.4362 0.815342 22.25 1.81855 22.25H3.74732C3.97652 23.32 4.93088 24.125 6.07061 24.125H7.89041V30.185C7.89041 31.1862 8.70575 32 9.70896 32H30.1814C31.1847 32 32 31.1862 32 30.185V11.565C32 10.5637 31.1847 9.75 30.1814 9.75ZM30.1814 11.25C30.353 11.25 30.4971 11.3937 30.4971 11.565V14.6725H9.39335V11.565C9.39335 11.3937 9.53738 11.25 9.70896 11.25H30.1814ZM1.81855 1.5H22.291C22.4626 1.5 22.6067 1.64375 22.6067 1.815V4.9225H1.50294V1.815C1.50294 1.64375 1.64697 1.5 1.81855 1.5ZM4.19695 17.31C3.90137 17.3925 3.69472 17.665 3.69472 17.9713V20.75H1.81855C1.64697 20.75 1.50294 20.6062 1.50294 20.435V6.4225H22.6067V9.75H9.70896C8.70575 9.75 7.89041 10.5637 7.89041 11.565V19.125H6.26724C5.96039 19.125 5.6811 18.9563 5.53832 18.6863L4.991 17.6475L4.97221 17.6138C4.8119 17.3512 4.49503 17.2262 4.1982 17.31H4.19695ZM4.94716 21.7537V19.9037C5.31162 20.2037 5.77503 20.375 6.26724 20.375H14.7162V18.8263L18.6727 21.6L14.7162 24.3725V22.875H6.07061C5.45065 22.875 4.94716 22.3713 4.94716 21.7537ZM30.1814 30.5H9.70896C9.53738 30.5 9.39335 30.3562 9.39335 30.185V24.125H13.4638V24.415C13.4638 24.9125 13.7218 25.3563 14.1364 25.5713C14.3017 25.6575 14.477 25.6987 14.6524 25.6987C14.8778 25.6987 15.102 25.6287 15.2999 25.49L19.6759 22.4225C19.944 22.235 20.1043 21.9262 20.1043 21.5987C20.1043 21.2712 19.944 20.9637 19.6759 20.775L15.2999 17.7075C14.9479 17.4613 14.5133 17.4312 14.1364 17.6262C13.7218 17.8412 13.4638 18.2837 13.4638 18.7825V19.1238H9.39335V16.1712H30.4971V30.1825C30.4971 30.3538 30.353 30.4975 30.1814 30.4975V30.5Z" fill="#1480AA"/>
<path d="M23.3669 13.9138C23.8516 13.9138 24.2437 13.5438 24.2437 13.0863C24.2437 12.6288 23.8516 12.2588 23.3669 12.2588C22.8822 12.2588 22.4902 12.6288 22.4902 13.0863C22.4902 13.5438 22.8822 13.9138 23.3669 13.9138Z" fill="#1480AA"/>
<path d="M25.8396 13.9612C26.3238 13.9612 26.7163 13.5694 26.7163 13.0862C26.7163 12.6029 26.3238 12.2112 25.8396 12.2112C25.3554 12.2112 24.9629 12.6029 24.9629 13.0862C24.9629 13.5694 25.3554 13.9612 25.8396 13.9612Z" fill="#1480AA"/>
<path d="M28.3113 13.9612C28.7955 13.9612 29.188 13.5694 29.188 13.0862C29.188 12.6029 28.7955 12.2112 28.3113 12.2112C27.8271 12.2112 27.4346 12.6029 27.4346 13.0862C27.4346 13.5694 27.8271 13.9612 28.3113 13.9612Z" fill="#1480AA"/>
</g>
<defs>
<clipPath id="clip0_278_116">
<rect width="32" height="32" fill="white"/>
</clipPath>
</defs>
</svg>
