<svg xmlns="http://www.w3.org/2000/svg" width="1em" height="1em" viewBox="0 0 32 32"><path fill="currentColor" d="M23.024 5.673C21.28 3.98 19.4 2.623 17.856 2.437a1.835 1.835 0 0 0-.263-.02H7.438a.606.606 0 0 0-.436.18a.624.624 0 0 0-.18.436v25.75a.615.615 0 0 0 .616.615h18.364a.61.61 0 0 0 .434-.18a.613.613 0 0 0 .182-.435V11.648c-.036-1.99-1.594-4.158-3.394-5.975zm-.867.872c.805.786 1.53 1.676 2.07 2.534a10.39 10.39 0 0 0-1.42-.432a17.073 17.073 0 0 0-2.626-.357c.004-.132.005-.282.005-.445c0-.87-.055-2.108-.356-3.2l-.01-.03a14.622 14.622 0 0 1 2.337 1.93zm3.027 21.62H8.052V3.644h9.542v.003c.416-.025.775.386 1.05 1.326c.25.895.313 2.062.312 2.87c.002.594-.027.992-.027.992l-.05.652l.656.007c.003 0 1.516.018 3 .355c1.426.308 2.54.922 2.645 1.617c.005.062.006.124.005.182v16.514z"/></svg>