<svg width="32" height="32" viewBox="0 0 32 32" fill="none" xmlns="http://www.w3.org/2000/svg">
<path d="M13.44 15.0553C13.44 15.0553 12.8898 15.6339 12.8694 15.8323C12.849 15.8654 12.7185 16.2985 12.7185 16.2985C12.7091 16.3299 12.6965 16.3613 12.6886 16.3927L11.2094 20.9438C11.0161 21.5357 11.5521 22.0994 12.1165 21.8977C12.1165 21.8977 16.9737 20.2032 16.9769 20.1503C17.1372 20.0974 17.6874 19.5188 17.6874 19.5188L29.8668 6.70691L25.6226 2.24341L13.44 15.0553Z" fill="#1382C1"/>
<path d="M31.1244 0.920851C29.958 -0.307439 28.0465 -0.307439 26.8801 0.920851L26.8691 0.932423L31.1134 5.39592L31.1244 5.38435C32.2908 4.15606 32.2908 2.14914 31.1244 0.920851Z" fill="#1382C1"/>
<path d="M25.937 25.8453C25.937 27.4158 24.7219 28.692 23.2301 28.692H5.85076C4.35742 28.692 3.14388 27.4142 3.14388 25.8453V7.56977C3.14388 5.99928 4.35899 4.72305 5.85076 4.72305H19.9322L23.0761 1.41675H5.85076C2.62514 1.41675 0 4.17751 0 7.56977V25.8453C0 29.2392 2.62514 31.9983 5.85076 31.9983H23.2286C26.4558 31.9983 29.0793 29.2376 29.0793 25.8453V10.6744L25.9355 13.9807V25.847L25.937 25.8453Z" fill="#1382C1"/>
</svg>
