<svg width="32" height="32" viewBox="0 0 32 32" fill="none" xmlns="http://www.w3.org/2000/svg">
<g clip-path="url(#clip0_296_7)">
<path d="M16 32C24.8366 32 32 24.8366 32 16C32 7.16344 24.8366 0 16 0C7.16344 0 0 7.16344 0 16C0 24.8366 7.16344 32 16 32Z" fill="#1780A7"/>
<path d="M21.8098 13.4924H20.6708V12.2533C20.6708 9.67817 18.5757 7.58301 16.0005 7.58301C13.4253 7.58301 11.3302 9.67817 11.3302 12.2533V13.4924H10.1912C10.0486 13.4924 9.93262 13.6084 9.93262 13.751V22.3174C9.93262 23.0552 10.5362 23.6588 11.274 23.6588H20.7269C21.4647 23.6588 22.0684 23.0552 22.0684 22.3174V13.751C22.0684 13.6084 21.9516 13.4924 21.8098 13.4924ZM17.0136 20.6006C17.0287 20.769 16.9029 20.9191 16.7338 20.9343H15.2672C15.0989 20.9191 14.9722 20.769 14.9874 20.6006L15.1626 18.6048C14.8418 18.3546 14.634 17.9656 14.634 17.5273C14.634 16.7728 15.246 16.1608 16.0005 16.1608C16.755 16.1608 17.3669 16.7728 17.3669 17.5273C17.3669 17.9656 17.1599 18.3546 16.8384 18.6048L17.0136 20.6006ZM18.7645 13.4924H13.2365V12.2533C13.2365 10.7292 14.4763 9.48936 16.0005 9.48936C17.5247 9.48936 18.7645 10.7292 18.7645 12.2533V13.4924Z" fill="white"/>
</g>
<defs>
<clipPath id="clip0_296_7">
<rect width="32" height="32" fill="white"/>
</clipPath>
</defs>
</svg>
