<svg width="32" height="32" viewBox="0 0 32 32" fill="none" xmlns="http://www.w3.org/2000/svg">
<g clip-path="url(#clip0_247_103)">
<path d="M16 0C7.17779 0 0 7.17779 0 16C0 24.8222 7.17779 32 16 32C24.8222 32 32 24.8222 32 16C32 7.17779 24.8222 0 16 0ZM16 29.8109C8.38439 29.8109 2.18913 23.6156 2.18913 16C2.18913 8.38439 8.38439 2.18913 16 2.18913C23.6156 2.18913 29.8109 8.38439 29.8109 16C29.8109 23.6156 23.6156 29.8109 16 29.8109Z" fill="#1480B4"/>
<path d="M12.3296 8.78101C11.5466 8.78101 10.9131 9.41457 10.9131 10.1975V21.8592C10.9131 22.6421 11.5466 23.2757 12.3296 23.2757C13.1125 23.2757 13.7461 22.6421 13.7461 21.8592V10.1975C13.7461 9.41457 13.1125 8.78101 12.3296 8.78101Z" fill="#1480B4"/>
<path d="M19.6704 8.72437C18.8875 8.72437 18.2539 9.35793 18.2539 10.1409V21.8025C18.2539 22.5855 18.8875 23.219 19.6704 23.219C20.4533 23.219 21.0869 22.5855 21.0869 21.8025V10.1409C21.0869 9.35793 20.4533 8.72437 19.6704 8.72437Z" fill="#1480B4"/>
</g>
<defs>
<clipPath id="clip0_247_103">
<rect width="32" height="32" fill="white"/>
</clipPath>
</defs>
</svg>
