<svg width="32" height="32" viewBox="0 0 32 32" fill="none" xmlns="http://www.w3.org/2000/svg">
<g clip-path="url(#clip0_518_122)">
<path d="M28.4706 32H3.52941C1.58306 32 0 30.4169 0 28.4706V3.52941C0 1.58306 1.58306 0 3.52941 0H28.4706C30.4169 0 32 1.58306 32 3.52941V28.4706C32 30.4169 30.4169 32 28.4706 32ZM3.52941 1.12941C2.20612 1.12941 1.12941 2.20612 1.12941 3.52941V28.4706C1.12941 29.7939 2.20612 30.8706 3.52941 30.8706H28.4706C29.7939 30.8706 30.8706 29.7939 30.8706 28.4706V3.52941C30.8706 2.20612 29.7939 1.12941 28.4706 1.12941H3.52941Z" fill="#0098DB"/>
<path d="M30.8706 27.1059H21.8899V6.02356H23.0193V25.9765H30.8706V27.1059Z" fill="#88CEEB"/>
<path d="M29.5812 8.09412H24.3106V9.22353H29.5812V8.09412Z" fill="white"/>
<path d="M29.5812 12.0471H24.3106V13.1765H29.5812V12.0471Z" fill="white"/>
<path d="M29.5812 16H24.3106V17.1294H29.5812V16Z" fill="white"/>
<path d="M29.5812 19.9529H24.3106V21.0823H29.5812V19.9529Z" fill="white"/>
<path d="M32 6.02353V2.96471C32 1.32706 30.6729 0 29.0353 0H2.96471C1.32706 0 0 1.32706 0 2.96471V6.02353H32Z" fill="#0098DB"/>
</g>
<defs>
<clipPath id="clip0_518_122">
<rect width="32" height="32" fill="white"/>
</clipPath>
</defs>
</svg>
