<svg width="32" height="30" viewBox="0 0 32 30" fill="none" xmlns="http://www.w3.org/2000/svg">
<path d="M31.8975 4.98738L28.0103 0.484271C27.9322 0.393943 27.8187 0.341736 27.7002 0.341736H18.0668C16.699 0.341736 15.5869 1.46295 15.5869 2.84024V19.0486C15.5869 20.4267 16.6998 21.5471 18.0668 21.5471H29.5196C30.8875 21.5471 31.9995 20.4259 31.9995 19.0486V5.26002C31.9995 5.15974 31.9633 5.06362 31.8984 4.9882L31.8975 4.98738ZM29.5188 20.7184H18.066C17.1522 20.7184 16.4086 19.9693 16.4086 19.0486V2.84024C16.4086 1.91956 17.1522 1.17043 18.066 1.17043H27.5119L27.5168 1.17623V5.4705H31.1754V19.0486C31.1754 19.9693 30.4318 20.7184 29.518 20.7184H29.5188Z" fill="#1480B5"/>
<path d="M26.0798 10.8942L12.6414 20.222L15.0209 23.7016L2.62305 23.7671L7.10086 12.1199L9.48042 15.5995L22.9188 6.27179L26.0798 10.8942Z" fill="#EF8C1D"/>
<path d="M16.3115 13.44L12.4234 8.93611C12.3452 8.84579 12.2317 8.79358 12.1133 8.79358H2.47991C1.11205 8.79358 0 9.9148 0 11.2921V27.5004C0 28.8786 1.11287 29.9989 2.47991 29.9989H13.9327C15.3006 29.9989 16.4126 28.8777 16.4126 27.5004V13.7127C16.4126 13.6124 16.3764 13.5163 16.3115 13.4409V13.44ZM13.9327 29.1711H2.47991C1.56608 29.1711 0.822523 28.4219 0.822523 27.5013V11.2929C0.822523 10.3722 1.56608 9.6231 2.47991 9.6231H11.9258L11.9307 9.6289V13.9232H15.5893V27.5013C15.5893 28.4219 14.8457 29.1711 13.9319 29.1711H13.9327Z" fill="#1480B5"/>
</svg>
