<svg width="32" height="8" viewBox="0 0 32 8" fill="none" xmlns="http://www.w3.org/2000/svg">
<g clip-path="url(#clip0_72_3)">
<path d="M28.032 0H3.968C1.7856 0 0 1.77143 0 3.93651V4.06349C0 6.22857 1.7856 8 3.968 8H28.032C30.2144 8 32 6.22857 32 4.06349V3.93651C32 1.77143 30.2144 0 28.032 0ZM19.968 6.76191H3.872C2.34112 6.76191 1.088 5.51873 1.088 4C1.088 2.48127 2.34112 1.2381 3.872 1.2381H19.968V6.76191Z" fill="#00A2E5"/>
<path d="M14.5024 1.2381H13.2185L11.8477 6.76191H13.1315L14.5024 1.2381Z" fill="#00A2E5"/>
<path d="M6.47168 6.76191H7.75552L9.1264 1.2381H7.84256L6.47168 6.76191Z" fill="#00A2E5"/>
<path d="M17.1904 1.2381H15.9065L14.5356 6.76191H15.8195L17.1904 1.2381Z" fill="#00A2E5"/>
<path d="M11.8144 1.2381H10.5305L9.15967 6.76191H10.4435L11.8144 1.2381Z" fill="#00A2E5"/>
<path d="M19.8784 1.2381H18.5945L17.2236 6.76191H18.5075L19.8784 1.2381Z" fill="#00A2E5"/>
<path d="M6.43841 1.2381H5.15457L3.78369 6.75937C3.81313 6.75937 3.84257 6.76191 3.87201 6.76191H5.06753L6.43841 1.2381Z" fill="#00A2E5"/>
<path d="M3.74907 1.24066C3.23707 1.26352 2.75963 1.42479 2.35387 1.68765L1.44507 5.3486C1.68827 5.77653 2.04411 6.1359 2.47163 6.38352L3.74907 1.24066Z" fill="#00A2E5"/>
</g>
<defs>
<clipPath id="clip0_72_3">
<rect width="32" height="8" fill="white"/>
</clipPath>
</defs>
</svg>
