<svg xmlns="http://www.w3.org/2000/svg" width="1em" height="1em" viewBox="0 0 24 24"><path fill="currentColor" d="M7.5 5.41Q5.74 6.625 4.87 8.343Q4 10.062 4 12q0 2.76 1.654 4.907q1.654 2.147 4.386 2.849q.202.061.331.235t.129.382t-.16.339q-.16.13-.336.075q-3.096-.727-5.05-3.148T3 12q0-2.16.932-4.017q.931-1.858 2.795-3.252H4.25q-.213 0-.357-.143q-.143-.144-.143-.357q0-.214.143-.357q.144-.143.357-.143h3.442q.348 0 .578.23q.23.23.23.577v3.443q0 .213-.143.357q-.144.143-.357.143t-.357-.144Q7.5 8.195 7.5 7.982V5.41Zm3.075 9.077l5.321-5.322q.146-.146.344-.152q.198-.007.364.158q.16.166.162.354q.003.188-.162.354l-5.464 5.463q-.242.243-.565.243q-.323 0-.565-.243l-2.614-2.619q-.14-.14-.153-.341q-.012-.201.153-.367q.16-.16.354-.16t.354.16l2.471 2.472Zm6.698 4.801h2.477q.213 0 .357.144q.143.143.143.356q0 .214-.143.357q-.144.143-.357.143h-3.442q-.348 0-.578-.23q-.23-.23-.23-.577v-3.443q0-.213.143-.356q.144-.144.357-.144t.357.144q.143.143.143.356v2.572q1.74-1.24 2.62-2.956Q20 13.938 20 12q0-2.76-1.654-4.907q-1.654-2.147-4.386-2.849q-.202-.061-.331-.226t-.129-.372q0-.208.16-.348q.16-.14.336-.085q3.096.708 5.05 3.138Q21 8.781 21 12q0 2.16-.932 4.027t-2.795 3.261Z"/></svg>