<svg width="32" height="30" viewBox="0 0 32 30" fill="none" xmlns="http://www.w3.org/2000/svg">
<path d="M31.8974 4.5765L28.0102 0.140414C27.9321 0.0514306 27.8186 0 27.7001 0H18.0668C16.699 0 15.5869 1.10453 15.5869 2.46132V18.4285C15.5869 19.7861 16.6998 20.8898 18.0668 20.8898H29.5195C30.8874 20.8898 31.9994 19.7853 31.9994 18.4285V4.84509C31.9994 4.74631 31.9632 4.65161 31.8982 4.57732L31.8974 4.5765ZM29.5187 20.0734H18.066C17.1522 20.0734 16.4086 19.3354 16.4086 18.4285V2.46132C16.4086 1.55435 17.1522 0.816358 18.066 0.816358H27.5118L27.5167 0.822073V5.05244H31.1752V18.4285C31.1752 19.3354 30.4317 20.0734 29.5179 20.0734H29.5187Z" fill="#1480B5"/>
<path d="M2.62305 18.5232L16.0613 9.33505L13.6818 5.90635L26.0796 5.84186L21.6018 17.3166L19.2223 13.8887L5.78398 23.0768L2.62305 18.5232Z" fill="#EF8C1D"/>
<path d="M16.3113 12.9034L12.4233 8.46646C12.3451 8.37748 12.2316 8.32605 12.1132 8.32605H2.47989C1.11204 8.32605 0 9.43058 0 10.7874V26.7545C0 28.1121 1.11286 29.2158 2.47989 29.2158H13.9326C15.3005 29.2158 16.4125 28.1113 16.4125 26.7545V13.172C16.4125 13.0732 16.3763 12.9785 16.3113 12.9042V12.9034ZM13.9326 28.4003H2.47989C1.56607 28.4003 0.822516 27.6623 0.822516 26.7553V10.7882C0.822516 9.88121 1.56607 9.14322 2.47989 9.14322H11.9257L11.9306 9.14894V13.3793H15.5892V26.7553C15.5892 27.6623 14.8456 28.4003 13.9318 28.4003H13.9326Z" fill="#1480B5"/>
</svg>
