<svg width="32" height="32" viewBox="0 0 32 32" fill="none" xmlns="http://www.w3.org/2000/svg">
<path d="M30.6652 11.6253C30.1595 11.1342 29.3409 11.1342 28.8365 11.6253L12.1311 27.8901C9.94929 30.0143 6.3992 30.0143 4.21742 27.8901C2.03564 25.7658 2.03564 22.3094 4.21742 20.1852L8.07272 16.4316C8.096 16.4127 8.11799 16.3938 8.13997 16.3724L21.338 3.52254C22.7167 2.18026 24.9605 2.18026 26.3392 3.52254C27.7178 4.86482 27.7178 7.04948 26.3392 8.39176L20.1495 14.4182L13.1411 21.2416L12.272 22.0878C11.6526 22.6909 10.6735 22.7199 10.0903 22.152C9.81608 21.8851 9.66735 21.5199 9.67511 21.1245C9.68158 20.7128 9.85359 20.3237 10.1562 20.029L14.1189 16.1709L18.0337 12.3594C18.5393 11.8671 18.5393 11.07 18.0337 10.5789C17.528 10.0879 16.7093 10.0879 16.2049 10.5789L12.2901 14.3905L8.3275 18.2486C6.69925 19.8339 6.6695 22.3837 8.26154 23.9337C9.04528 24.6968 10.0786 25.0771 11.121 25.0771C12.1944 25.0771 13.2756 24.6729 14.102 23.8695L14.9711 23.0234L21.9795 16.1999L28.1692 10.1735C30.5566 7.84906 30.5566 4.06776 28.1692 1.74333C25.7818 -0.581108 21.898 -0.581108 19.5106 1.74333L19.1614 2.0833C19.1381 2.10219 19.1161 2.12108 19.0942 2.14248L2.38871 18.4034C0.848399 19.9031 0 21.9039 0 24.037C0 26.17 0.848399 28.1709 2.38871 29.6705C3.98334 31.2231 6.07976 32 8.17489 32C10.27 32 12.3652 31.2231 13.9611 29.6705L30.6652 13.407C31.1696 12.9147 31.1696 12.1177 30.6652 11.6266V11.6253Z" fill="#1480BC"/>
<path d="M0.48877 3.49487H13.2691V0.00695801L21.2939 5.81049L13.2691 11.614V8.12611H0.48877V3.49487Z" fill="#F7941D"/>
</svg>
