<svg width="32" height="31" viewBox="0 0 32 31" fill="none" xmlns="http://www.w3.org/2000/svg">
<g clip-path="url(#clip0_522_105)">
<path d="M7.33271 4.24316C5.5603 4.24316 4.12402 5.66206 4.12402 7.41301C4.12402 9.16395 5.5603 10.5828 7.33271 10.5828C9.10511 10.5828 10.5414 9.16395 10.5414 7.41301C10.5414 5.66206 9.10511 4.24316 7.33271 4.24316V4.24316ZM7.31286 9.94569C5.89767 9.94569 4.74914 8.81229 4.74914 7.41301C4.74914 6.01372 5.89643 4.88032 7.31286 4.88032C8.72929 4.88032 9.87658 6.01372 9.87658 7.41301C9.87658 8.81229 8.72929 9.94569 7.31286 9.94569V9.94569Z" fill="#FF0402"/>
<path d="M7.31281 8.98874C8.19373 8.98874 8.90785 8.28326 8.90785 7.41301C8.90785 6.54276 8.19373 5.83728 7.31281 5.83728C6.4319 5.83728 5.71777 6.54276 5.71777 7.41301C5.71777 8.28326 6.4319 8.98874 7.31281 8.98874Z" fill="#FF0402"/>
<path d="M27.4418 6.91187H12.8098C12.5701 6.91187 12.3757 7.10387 12.3757 7.34072V7.4853C12.3757 7.72215 12.5701 7.91416 12.8098 7.91416H27.4418C27.6815 7.91416 27.8759 7.72215 27.8759 7.4853V7.34072C27.8759 7.10387 27.6815 6.91187 27.4418 6.91187Z" fill="#008ACD"/>
<path d="M27.4418 15.0564H12.8098C12.5701 15.0564 12.3757 15.2484 12.3757 15.4853V15.6298C12.3757 15.8667 12.5701 16.0587 12.8098 16.0587H27.4418C27.6815 16.0587 27.8759 15.8667 27.8759 15.6298V15.4853C27.8759 15.2484 27.6815 15.0564 27.4418 15.0564Z" fill="#008ACD"/>
<path d="M27.4418 23.0858H12.8098C12.5701 23.0858 12.3757 23.2778 12.3757 23.5147V23.6593C12.3757 23.8961 12.5701 24.0881 12.8098 24.0881H27.4418C27.6815 24.0881 27.8759 23.8961 27.8759 23.6593V23.5147C27.8759 23.2778 27.6815 23.0858 27.4418 23.0858Z" fill="#008ACD"/>
<path d="M7.33271 12.3302C5.5603 12.3302 4.12402 13.7491 4.12402 15.5C4.12402 17.251 5.5603 18.6699 7.33271 18.6699C9.10511 18.6699 10.5414 17.251 10.5414 15.5C10.5414 13.7491 9.10511 12.3302 7.33271 12.3302V12.3302ZM7.31286 18.0327C5.89767 18.0327 4.74914 16.8993 4.74914 15.5C4.74914 14.1008 5.89643 12.9674 7.31286 12.9674C8.72929 12.9674 9.87658 14.1008 9.87658 15.5C9.87658 16.8993 8.72929 18.0327 7.31286 18.0327V18.0327Z" fill="#EAE643"/>
<path d="M7.31281 17.0758C8.19373 17.0758 8.90785 16.3703 8.90785 15.5C8.90785 14.6298 8.19373 13.9243 7.31281 13.9243C6.4319 13.9243 5.71777 14.6298 5.71777 15.5C5.71777 16.3703 6.4319 17.0758 7.31281 17.0758Z" fill="#EAE643"/>
<path d="M7.33271 20.4171C5.5603 20.4171 4.12402 21.836 4.12402 23.587C4.12402 25.3379 5.5603 26.7568 7.33271 26.7568C9.10511 26.7568 10.5414 25.3379 10.5414 23.587C10.5414 21.836 9.10511 20.4171 7.33271 20.4171V20.4171ZM7.31286 26.1196C5.89767 26.1196 4.74914 24.9862 4.74914 23.587C4.74914 22.1877 5.89643 21.0543 7.31286 21.0543C8.72929 21.0543 9.87658 22.1877 9.87658 23.587C9.87658 24.9862 8.72929 26.1196 7.31286 26.1196V26.1196Z" fill="#7CE6F3"/>
<path d="M7.31281 25.1627C8.19373 25.1627 8.90785 24.4572 8.90785 23.587C8.90785 22.7167 8.19373 22.0112 7.31281 22.0112C6.4319 22.0112 5.71777 22.7167 5.71777 23.587C5.71777 24.4572 6.4319 25.1627 7.31281 25.1627Z" fill="#7CE6F3"/>
<path d="M28.2667 31H3.73333C1.67442 31 0 29.3458 0 27.3119V3.68814C0 1.65415 1.67442 0 3.73333 0H28.2667C30.3256 0 32 1.65415 32 3.68814V27.3119C32 29.3458 30.3256 31 28.2667 31ZM3.73333 0.980237C2.2214 0.980237 0.992248 2.19451 0.992248 3.68814V27.3119C0.992248 28.8055 2.2214 30.0198 3.73333 30.0198H28.2667C29.7786 30.0198 31.0078 28.8055 31.0078 27.3119V3.68814C31.0078 2.19451 29.7786 0.980237 28.2667 0.980237H3.73333Z" fill="#009BDE"/>
</g>
<defs>
<clipPath id="clip0_522_105">
<rect width="32" height="31" fill="white"/>
</clipPath>
</defs>
</svg>
