<svg width="32" height="11" viewBox="0 0 32 11" fill="none" xmlns="http://www.w3.org/2000/svg">
<g clip-path="url(#clip0_76_21)">
<path d="M5.39377 0C2.41496 0 0 2.46252 0 5.5C0 8.53748 2.41496 11 5.39377 11C8.37258 11 10.7875 8.53748 10.7875 5.5C10.7875 2.46252 8.37258 0 5.39377 0ZM5.36023 9.89353C2.98062 9.89353 1.05156 7.92647 1.05156 5.5C1.05156 3.07353 2.98062 1.10647 5.36023 1.10647C7.73983 1.10647 9.66889 3.07353 9.66889 5.5C9.66889 7.92647 7.73983 9.89353 5.36023 9.89353Z" fill="#00A2E5"/>
<path d="M5.36032 8.23245C6.84026 8.23245 8.03998 7.0091 8.03998 5.50001C8.03998 3.99093 6.84026 2.76758 5.36032 2.76758C3.88039 2.76758 2.68066 3.99093 2.68066 5.50001C2.68066 7.0091 3.88039 8.23245 5.36032 8.23245Z" fill="#00A2E5"/>
<path d="M30.6402 4.11346H15.2294C14.4784 4.11346 13.8696 4.73425 13.8696 5.50002C13.8696 6.26579 14.4784 6.88657 15.2294 6.88657H30.6402C31.3911 6.88657 31.9999 6.26579 31.9999 5.50002C31.9999 4.73425 31.3911 4.11346 30.6402 4.11346Z" fill="#00A2E5"/>
</g>
<defs>
<clipPath id="clip0_76_21">
<rect width="32" height="11" fill="white"/>
</clipPath>
</defs>
</svg>
