<svg width="31" height="32" viewBox="0 0 31 32" fill="none" xmlns="http://www.w3.org/2000/svg">
<g clip-path="url(#clip0_522_96)">
<path d="M27.3833 30.6686H3.61667C1.62209 30.6686 0 29.0449 0 27.0485V3.86058C0 1.86411 1.62209 0.240479 3.61667 0.240479H27.3833C29.3779 0.240479 31 1.86411 31 3.86058V27.0485C31 29.0449 29.3779 30.6686 27.3833 30.6686ZM3.61667 1.20263C2.15198 1.20263 0.96124 2.3945 0.96124 3.86058V27.0485C0.96124 28.5145 2.15198 29.7064 3.61667 29.7064H27.3833C28.848 29.7064 30.0388 28.5145 30.0388 27.0485V3.86058C30.0388 2.3945 28.848 1.20263 27.3833 1.20263H3.61667Z" fill="#1D1E1B"/>
<path d="M0 4.44995L0 3.4902C0 1.56349 1.56202 -5.1558e-06 3.4869 -5.1558e-06L27.5131 -5.1558e-06C29.438 -5.1558e-06 31 1.56349 31 3.4902V4.44995L0 4.44995Z" fill="#1580BE"/>
<path d="M22.9375 21.7688L17.2998 26.4196H19.0144V32.0001H26.8605V26.4196H28.5752L22.9375 21.7688Z" fill="#DA801D"/>
<path d="M4.34834 17.9551C4.46369 17.9551 4.56702 17.8805 4.60187 17.7699C5.26993 15.6495 7.25489 14.1101 9.5895 14.1149C11.9253 14.1197 13.9031 15.6663 14.5639 17.7891C14.5988 17.8997 14.9304 17.3682 15.0457 17.3682L16.1788 17.4872C16.3482 17.4872 17.0343 17.8216 16.9971 17.6556C16.2317 14.2712 13.205 11.7323 9.59431 11.7263C5.98365 11.7203 2.94733 14.246 2.16993 17.6279C2.13148 17.7939 2.26005 17.9503 2.42947 17.9515L4.34954 17.9551H4.34834Z" fill="#1486C3"/>
<path d="M17.3024 12.9445L17.2448 17.3559C17.24 17.7011 16.9564 17.9801 16.6116 17.9789L12.2043 17.9597C11.6479 17.9573 11.38 17.2838 11.7777 16.8917L16.2427 12.4995C16.6416 12.1074 17.3097 12.3888 17.3024 12.9445V12.9445Z" fill="#1486C3"/>
<path d="M15.1167 20.6455C15.0014 20.6455 14.8981 20.7201 14.8632 20.8307C14.1951 22.9511 12.2102 24.4905 9.87557 24.4857C7.53976 24.4809 5.56201 22.9342 4.90115 20.8115C4.86631 20.7008 4.53468 21.2324 4.41933 21.2324L3.28627 21.1134C3.11685 21.1134 2.43077 20.779 2.46801 20.945C3.2334 24.3293 6.26011 26.8682 9.87077 26.8742C13.4814 26.8815 16.5177 24.3546 17.2951 20.9726C17.3336 20.8067 17.205 20.6503 17.0356 20.6491L15.1155 20.6455H15.1167Z" fill="#1486C3"/>
<path d="M2.16168 25.6546L2.21935 21.2431C2.22416 20.8979 2.50773 20.6189 2.85257 20.6201L7.25986 20.6394C7.81617 20.6418 8.08412 21.3153 7.68641 21.7074L3.22145 26.0996C2.82253 26.4917 2.15447 26.2102 2.16168 25.6546V25.6546Z" fill="#1486C3"/>
</g>
<defs>
<clipPath id="clip0_522_96">
<rect width="31" height="32" fill="white"/>
</clipPath>
</defs>
</svg>
