<svg width="32" height="32" viewBox="0 0 32 32" fill="none" xmlns="http://www.w3.org/2000/svg">
<g clip-path="url(#clip0_189_145)">
<path d="M4.61987 13.158C4.86441 13.158 5.08123 13.0003 5.1556 12.767C6.5674 8.28852 10.7625 5.03467 15.6975 5.04476C20.6337 5.05359 24.8149 8.32257 26.2104 12.8073C26.2835 13.0407 26.9843 11.9182 27.2289 11.9182L29.6239 12.1704C29.9819 12.1704 31.4315 12.8767 31.3533 12.5274C29.7348 5.37645 23.3388 0.0151612 15.7076 2.69821e-05C8.075 -0.013846 1.66013 5.32348 0.0138671 12.4681C-0.0668073 12.8174 0.202948 13.1504 0.562201 13.1504L4.61987 13.158Z" fill="#1486C3"/>
<path d="M32 2.57416L31.8777 11.893C31.8676 12.622 31.2689 13.2122 30.539 13.2085L21.2236 13.1681C20.0488 13.1631 19.4803 11.7392 20.3224 10.9118L29.76 1.63332C30.602 0.80472 32.0151 1.39874 31.9987 2.57416H32Z" fill="#1486C3"/>
<path d="M27.3803 18.8422C27.1358 18.8422 26.919 18.9998 26.8446 19.2331C25.4328 23.7116 21.2377 26.9654 16.3027 26.9554C11.3665 26.9465 7.18525 23.6775 5.78983 19.1928C5.71672 18.9595 5.01586 20.0819 4.77132 20.0819L2.3763 19.8297C2.01831 19.8297 0.568689 19.1234 0.646843 19.4728C2.26537 26.6237 8.66008 31.985 16.2926 32.0001C23.9239 32.0152 30.3401 26.6766 31.9851 19.532C32.0657 19.1827 31.796 18.8497 31.4367 18.8497L27.3791 18.8422H27.3803Z" fill="#1486C3"/>
<path d="M0.000120562 29.4259L0.122393 20.1071C0.132477 19.3781 0.731232 18.7879 1.46108 18.7916L10.7765 18.832C11.9513 18.837 12.5198 20.2609 11.6777 21.0883L2.2401 30.3668C1.3968 31.1954 -0.0150059 30.6014 0.000120562 29.4259Z" fill="#1486C3"/>
</g>
<defs>
<clipPath id="clip0_189_145">
<rect width="32" height="32" fill="white"/>
</clipPath>
</defs>
</svg>
