<svg width="32" height="32" viewBox="0 0 32 32" fill="none" xmlns="http://www.w3.org/2000/svg">
<g clip-path="url(#clip0_153_60)">
<path d="M27.2633 0H4.73668C2.12535 0 0 2.12535 0 4.73668V27.2633C0 29.8747 2.12535 32 4.73668 32H27.2633C29.8747 32 32 29.8747 32 27.2633V4.73668C32 2.12535 29.8747 0 27.2633 0ZM29.9465 27.2633C29.9465 28.7435 28.7418 29.9465 27.2633 29.9465H4.73668C3.25647 29.9465 2.05348 28.7418 2.05348 27.2633V4.73668C2.05348 3.25647 3.25818 2.05348 4.73668 2.05348H27.2633C28.7435 2.05348 29.9465 3.25818 29.9465 4.73668V27.2633Z" fill="#1493D0"/>
<path d="M19.1658 10.8664H7.01608C4.44924 10.9177 4.10699 12.6289 4.27812 16.0514H6.84496C6.84496 14.8535 6.68239 13.9466 7.52945 13.9466H19.1658V16.6726L27.8092 12.4065L19.1658 8.14038V10.8664Z" fill="#1493D0"/>
<path d="M25.2048 15.9487C25.2048 17.1466 25.3673 18.0535 24.5203 18.0535H12.8839V15.3275L4.24048 19.5936L12.8839 23.8597V21.1337H25.0336C27.6005 21.0824 27.9427 19.3712 27.7716 15.9487H25.2048Z" fill="#1493D0"/>
</g>
<defs>
<clipPath id="clip0_153_60">
<rect width="32" height="32" fill="white"/>
</clipPath>
</defs>
</svg>
