<svg width="32" height="32" viewBox="0 0 32 32" fill="none" xmlns="http://www.w3.org/2000/svg">
<g clip-path="url(#clip0_160_95)">
<path d="M16 0C7.16298 0 0 7.16298 0 16C0 24.837 7.16298 32 16 32C24.837 32 32 24.837 32 16C32 7.16298 24.837 0 16 0ZM16.0627 30.1176C8.2309 30.1176 1.88235 23.7691 1.88235 15.9373C1.88235 8.10541 8.2309 1.75686 16.0627 1.75686C23.8946 1.75686 30.2431 8.10541 30.2431 15.9373C30.2431 23.7691 23.8946 30.1176 16.0627 30.1176Z" fill="#178FCF"/>
<path d="M24.1919 7.29725C23.4503 7.29725 22.8467 7.90085 22.8467 8.6425V9.17834C21.7122 8.06148 20.3067 7.23952 18.7431 6.79529C16.4391 6.14148 13.9921 6.37238 11.855 7.44407C7.14658 9.80705 5.23913 15.5595 7.60211 20.2679C9.23348 23.5169 12.51 25.5347 16.1543 25.5347C17.6476 25.5347 19.0845 25.1934 20.426 24.5208C21.1086 24.1782 21.3847 23.3449 21.0421 22.6623C20.6995 21.9809 19.8663 21.7035 19.1836 22.0461C17.5673 22.858 15.7276 22.9898 14.0059 22.4188C12.2829 21.8478 10.8874 20.6431 10.0768 19.0256C8.39897 15.6812 9.75301 11.5965 13.0973 9.91748C14.681 9.12313 16.4856 8.97881 18.1809 9.51466C19.4383 9.91121 20.5314 10.6478 21.3546 11.638H19.8512C19.1096 11.638 18.506 12.2416 18.506 12.9832C18.506 13.7249 19.1096 14.3285 19.8512 14.3285H24.1919C24.9336 14.3285 25.5372 13.7249 25.5372 12.9832V8.6425C25.5372 7.90085 24.9336 7.29725 24.1919 7.29725Z" fill="#178FCF"/>
</g>
<defs>
<clipPath id="clip0_160_95">
<rect width="32" height="32" fill="white"/>
</clipPath>
</defs>
</svg>
