<svg width="25" height="32" viewBox="0 0 25 32" fill="none" xmlns="http://www.w3.org/2000/svg">
<path d="M24.8459 7.01051L18.9248 0.215092C18.8058 0.0787839 18.6329 0 18.4524 0H3.77744C1.69515 0 0 1.69198 0 3.77037V28.2296C0 30.3093 1.69515 32 3.77744 32H21.2226C23.3061 32 25 30.308 25 28.2296V7.42194C25 7.27062 24.9449 7.12556 24.8459 7.01176V7.01051ZM23.7471 28.2296C23.7471 29.619 22.6145 30.7495 21.2226 30.7495H3.77744C2.38549 30.7495 1.25288 29.619 1.25288 28.2296V3.77037C1.25288 2.38102 2.38549 1.25054 3.77744 1.25054H18.1655L18.173 1.25929V7.73958H23.7459V28.2296H23.7471Z" fill="#0980BB"/>
<path d="M11.4501 10.4082L5.39119 16.4558C4.92888 16.9173 4.81862 17.6326 5.13936 18.2179C5.40372 18.6993 5.92366 18.9869 6.47493 18.9869H6.56013V23.5401C6.56013 24.4105 7.27427 25.1233 8.14628 25.1233H10.6057C10.8312 25.1233 11.0141 24.9407 11.0141 24.7156V21.1479C11.0141 20.7264 11.3599 20.3813 11.7821 20.3813H13.2154C13.6377 20.3813 13.9835 20.7264 13.9835 21.1479V24.7156C13.9835 24.9407 14.1664 25.1233 14.3919 25.1233H16.8513C17.7233 25.1233 18.4374 24.4105 18.4374 23.5401V18.9869H18.5226C19.0727 18.9869 19.5939 18.7006 19.8582 18.2179C20.179 17.6339 20.07 16.9185 19.6064 16.4558L13.5474 10.4082C12.9674 9.82925 12.0277 9.82925 11.4476 10.4082H11.4501ZM12.4913 13.5609L12.5 13.5521L12.5088 13.5609H12.4913Z" fill="#0980BB"/>
</svg>
