<svg width="32" height="10" viewBox="0 0 32 10" fill="none" xmlns="http://www.w3.org/2000/svg">
<g clip-path="url(#clip0_188_135)">
<path d="M27.0625 0H4.9375C2.215 0 0 2.24304 0 5C0 7.75696 2.215 10 4.9375 10H27.0625C29.785 10 32 7.75696 32 5C32 2.24304 29.785 0 27.0625 0ZM27.0625 9.11392H4.9375C2.6975 9.11392 0.875 7.26835 0.875 5C0.875 2.73165 2.6975 0.886076 4.9375 0.886076H27.0625C29.3025 0.886076 31.125 2.73165 31.125 5C31.125 7.26835 29.3025 9.11392 27.0625 9.11392Z" fill="#1486C3"/>
<path d="M27.9538 6.11904C28.22 5.71651 28.375 5.23423 28.375 4.71524C28.375 3.31904 27.2538 2.18359 25.875 2.18359C24.4963 2.18359 23.375 3.31904 23.375 4.71524C23.375 6.11144 24.4963 7.24688 25.875 7.24688C26.515 7.24688 27.0988 7.00005 27.5413 6.59752L28.6537 7.7241C28.715 7.78613 28.795 7.81651 28.875 7.81651C28.955 7.81651 29.035 7.78613 29.0963 7.7241C29.2188 7.60005 29.2188 7.40005 29.0963 7.276L27.9538 6.11904ZM25.875 6.61397C24.8413 6.61397 24 5.76207 24 4.71524C24 3.6684 24.8413 2.81651 25.875 2.81651C26.9088 2.81651 27.75 3.6684 27.75 4.71524C27.75 5.76207 26.9088 6.61397 25.875 6.61397Z" fill="#1486C3"/>
</g>
<defs>
<clipPath id="clip0_188_135">
<rect width="32" height="10" fill="white"/>
</clipPath>
</defs>
</svg>
