<svg width="32" height="32" viewBox="0 0 32 32" fill="none" xmlns="http://www.w3.org/2000/svg">
<path d="M15.9994 31.38C24.4937 31.38 31.3797 24.494 31.3797 15.9997C31.3797 7.50537 24.4937 0.619385 15.9994 0.619385C7.50513 0.619385 0.619141 7.50537 0.619141 15.9997C0.619141 24.494 7.50513 31.38 15.9994 31.38Z" fill="white"/>
<path d="M21.4451 31.0414C13.1508 34.0446 3.95973 29.7393 0.956563 21.4451C-2.04661 13.1508 2.25864 3.95973 10.5529 0.956563C18.8471 -2.04661 28.0382 2.25864 31.0414 10.5529C34.0446 18.8471 29.7393 28.0382 21.4451 31.0414ZM10.9741 2.11904C3.31982 4.88996 -0.653117 13.3707 2.11904 21.0251C4.8912 28.6794 13.372 32.6511 21.0251 29.8802C28.6794 27.1092 32.6511 18.6272 29.8802 10.9741C27.1092 3.32105 18.6272 -0.653117 10.9741 2.11904Z" fill="#1480A8"/>
<path d="M11.52 1.26505L10.3584 1.68555L20.8287 30.6094L21.9903 30.1889L11.52 1.26505Z" fill="#1480A8"/>
<path d="M30.251 10.1843L1.32715 20.6545L1.74764 21.8161L30.6715 11.3459L30.251 10.1843Z" fill="#1480A8"/>
<path d="M21.5608 30.9995C19.3606 31.7963 16.7391 30.9167 14.1794 28.5226C11.7273 26.2297 9.58883 22.7905 8.15828 18.8373C6.72773 14.8842 6.16811 10.8729 6.58443 7.54238C7.01928 4.06483 8.46959 1.71023 10.6698 0.914653C12.87 0.119079 15.4914 0.997423 18.0511 3.39156C20.5033 5.6844 22.6417 9.12365 24.0722 13.0768C25.5028 17.03 26.0624 21.0412 25.6461 24.3718C25.2113 27.8493 23.7609 30.2039 21.5608 30.9995ZM11.0898 2.0759C9.34917 2.70593 8.18422 4.70228 7.80991 7.69557C7.41706 10.8359 7.95321 14.6445 9.31953 18.4173C10.6858 22.1901 12.7106 25.4589 15.0232 27.6195C17.2271 29.6801 19.4001 30.467 21.1407 29.837C22.8814 29.207 24.0463 27.2106 24.4206 24.2173C24.8135 21.077 24.2773 17.2684 22.911 13.4956C21.5447 9.7228 19.5199 6.45403 17.2073 4.29338C15.0034 2.23279 12.8304 1.44586 11.0898 2.0759Z" fill="#1480A8"/>
<path d="M13.7813 9.51014C9.07954 11.2125 4.40986 11.8005 1.5957 11.0445L1.91566 9.8511C4.49881 10.5454 8.88436 9.9697 13.3613 8.3489C17.8383 6.7281 21.5753 4.36361 23.1158 2.17578L24.1263 2.88735C22.4474 5.27037 18.4844 7.80781 13.7826 9.51014H13.7813Z" fill="#1480A8"/>
<path d="M30.3151 22.0628C27.732 21.3685 23.3464 21.9442 18.8695 23.565C14.3937 25.1858 10.6555 27.5503 9.11502 29.7381L8.10449 29.0265C9.78335 26.6435 13.7464 24.1061 18.4482 22.4038C23.15 20.7014 27.8197 20.1134 30.6338 20.8694L30.3139 22.0628H30.3151Z" fill="#1480A8"/>
<path d="M4.51074 18.4086H18.6248V22.0369L27.4885 15.9996L18.6248 9.9624V13.5894H4.51074V18.4086Z" fill="#E1801D"/>
</svg>
