<svg xmlns="http://www.w3.org/2000/svg" width="1em" height="1em" viewBox="0 0 24 24"><path fill="currentColor" d="M5.615 20q-.69 0-1.152-.462Q4 19.075 4 18.385V5.615q0-.69.463-1.152Q4.925 4 5.615 4h12.77q.69 0 1.152.463q.463.462.463 1.152v12.77q0 .69-.462 1.152q-.463.463-1.153.463H5.615Zm0-1h12.77q.269 0 .442-.173t.173-.442V5.615q0-.269-.173-.442T18.385 5H5.615q-.269 0-.442.173T5 5.615v12.77q0 .269.173.442t.442.173ZM12 16.75q1.925-1.627 2.863-3.024q.937-1.397.937-2.59q0-1.794-1.142-2.84Q13.515 7.25 12 7.25T9.342 8.296Q8.2 9.342 8.2 11.136q0 1.193.947 2.59q.947 1.397 2.853 3.024Zm0-4.538q-.448 0-.753-.305t-.305-.753t.305-.753q.305-.305.753-.305t.753.305q.305.305.305.753t-.305.753q-.305.305-.753.305ZM5 19V5v14Z"/></svg>