<svg width="25" height="32" viewBox="0 0 25 32" fill="none" xmlns="http://www.w3.org/2000/svg">
<g clip-path="url(#clip0_248_113)">
<path d="M12.6139 8.09219C12.5764 8.09219 12.5388 8.09219 12.4999 8.09344C12.4623 8.09344 12.4248 8.09219 12.3859 8.09219C8.63855 8.09219 5.60156 11.1235 5.60156 14.8639C5.60156 18.6042 9.72981 23.6689 11.4788 25.9811C11.7946 26.4013 12.1416 26.5464 12.4811 26.5589C12.4811 26.5589 12.4937 26.5589 12.4987 26.5589C12.5049 26.5589 12.5112 26.5589 12.5162 26.5589C12.8557 26.5439 13.2028 26.4001 13.5185 25.9799C15.2675 23.6676 19.3958 18.603 19.3958 14.8626C19.3958 11.1222 16.3588 8.09094 12.6114 8.09094L12.6139 8.09219ZM12.4999 18.104C10.6206 18.104 9.09585 16.5833 9.09585 14.7063C9.09585 12.8292 10.6194 11.3086 12.4999 11.3086C14.3805 11.3086 15.904 12.8292 15.904 14.7063C15.904 16.5833 14.3805 18.104 12.4999 18.104Z" fill="#EF8C1D"/>
<path d="M24.8459 7.01051L18.9248 0.215092C18.8058 0.0787839 18.6329 0 18.4524 0H3.77744C1.69515 0 0 1.69198 0 3.77037V28.2296C0 30.3093 1.69515 32 3.77744 32H21.2226C23.3061 32 25 30.308 25 28.2296V7.42194C25 7.27062 24.9449 7.12556 24.8459 7.01176V7.01051ZM21.2226 30.7495H3.77744C2.38549 30.7495 1.25288 29.619 1.25288 28.2296V3.77037C1.25288 2.38102 2.38549 1.25054 3.77744 1.25054H18.1655L18.173 1.25929V7.73958H23.7459V28.2296C23.7459 29.619 22.6133 30.7495 21.2213 30.7495H21.2226Z" fill="#1480B5"/>
</g>
<defs>
<clipPath id="clip0_248_113">
<rect width="25" height="32" fill="white"/>
</clipPath>
</defs>
</svg>
