<svg width="30" height="32" viewBox="0 0 30 32" fill="none" xmlns="http://www.w3.org/2000/svg">
<g clip-path="url(#clip0_270_48)">
<path d="M24.7621 8.67215C25.388 8.67215 25.8953 8.15562 25.8953 7.51845C25.8953 6.88128 25.388 6.36475 24.7621 6.36475C24.1363 6.36475 23.6289 6.88128 23.6289 7.51845C23.6289 8.15562 24.1363 8.67215 24.7621 8.67215Z" fill="#1480AB"/>
<path d="M28.5086 18.2466C29.3321 18.2466 29.9997 17.567 29.9997 16.7286C29.9997 15.8902 29.3321 15.2106 28.5086 15.2106C27.6851 15.2106 27.0176 15.8902 27.0176 16.7286C27.0176 17.567 27.6851 18.2466 28.5086 18.2466Z" fill="#1480AB"/>
<path d="M24.762 27.82C25.7831 27.82 26.6109 26.9772 26.6109 25.9377C26.6109 24.8981 25.7831 24.0553 24.762 24.0553C23.7409 24.0553 22.9131 24.8981 22.9131 25.9377C22.9131 26.9772 23.7409 27.82 24.762 27.82Z" fill="#1480AB"/>
<path d="M15.6863 32C16.905 32 17.893 30.9941 17.893 29.7533C17.893 28.5125 16.905 27.5066 15.6863 27.5066C14.4675 27.5066 13.4795 28.5125 13.4795 29.7533C13.4795 30.9941 14.4675 32 15.6863 32Z" fill="#1480AB"/>
<path d="M6.6691 28.5487C8.0855 28.5487 9.23372 27.3797 9.23372 25.9377C9.23372 24.4956 8.0855 23.3267 6.6691 23.3267C5.25271 23.3267 4.10449 24.4956 4.10449 25.9377C4.10449 27.3797 5.25271 28.5487 6.6691 28.5487Z" fill="#1480AB"/>
<path d="M2.92247 19.704C4.5365 19.704 5.84493 18.3719 5.84493 16.7286C5.84493 15.0854 4.5365 13.7533 2.92247 13.7533C1.30843 13.7533 0 15.0854 0 16.7286C0 18.3719 1.30843 19.704 2.92247 19.704Z" fill="#1480AB"/>
<path d="M6.66899 10.8582C8.48066 10.8582 9.94931 9.36293 9.94931 7.51849C9.94931 5.67405 8.48066 4.17883 6.66899 4.17883C4.85732 4.17883 3.38867 5.67405 3.38867 7.51849C3.38867 9.36293 4.85732 10.8582 6.66899 10.8582Z" fill="#1480AB"/>
<path d="M15.7153 7.40797C17.7246 7.40797 19.3535 5.74964 19.3535 3.70398C19.3535 1.65833 17.7246 0 15.7153 0C13.706 0 12.0771 1.65833 12.0771 3.70398C12.0771 5.74964 13.706 7.40797 15.7153 7.40797Z" fill="#1480AB"/>
</g>
<defs>
<clipPath id="clip0_270_48">
<rect width="30" height="32" fill="white"/>
</clipPath>
</defs>
</svg>
