<svg width="33" height="25" viewBox="0 0 33 25" fill="none" xmlns="http://www.w3.org/2000/svg">
<path d="M21.7242 18.743C21.6885 18.8384 21.6647 18.9357 21.6488 19.033C21.3563 20.1105 21.1759 22.0738 21.3335 22.9586C21.3554 23.1453 21.4406 23.3072 21.5626 23.4373L21.3573 23.9944C21.281 24.2029 21.4059 24.4423 21.636 24.5277C21.866 24.6131 22.1169 24.5118 22.1942 24.3042L22.3975 23.7531C22.5611 23.7332 22.7177 23.6667 22.8456 23.5415C23.5357 22.9467 24.7404 21.4074 25.2114 20.4978C25.2779 20.3895 25.3988 20.1025 25.3988 20.1025L28.7244 11.0874L25.0448 9.7428L21.7242 18.743Z" fill="#1482BF"/>
<path d="M30.6778 0.132858C29.6674 -0.240538 28.5648 0.200387 28.2277 1.11401L25.6765 8.03077L29.3561 9.37539L31.9023 2.47353C32.2395 1.5599 31.6882 0.506253 30.6778 0.132858Z" fill="#1482BF"/>
<path d="M23.5326 9.23137C23.6496 9.27705 23.7696 9.2979 23.8886 9.2979C24.2872 9.2979 24.6629 9.05559 24.8137 8.66134L27.2925 2.20637C27.4888 1.69494 27.234 1.11995 26.7234 0.92332C26.2127 0.725699 25.6386 0.981911 25.4423 1.49334L22.9635 7.94832C22.7671 8.45975 23.022 9.03474 23.5326 9.23137Z" fill="#1482BF"/>
<path d="M20.2508 19.2883C20.0753 18.9913 19.7035 18.6199 18.936 18.5385C18.0486 18.4452 17.2306 18.8116 16.4741 19.3201C16.5524 19.1979 16.6258 19.0768 16.6932 18.9566C17.4567 17.5881 17.0957 16.7788 16.6585 16.3408C15.9882 15.6695 15.0274 15.7907 13.8039 16.7013C13.0592 17.2555 12.1936 18.0847 11.3568 18.8861C10.7073 19.5087 9.75245 20.4234 9.05541 20.9527C9.46888 19.6736 10.5338 17.4938 11.1148 16.3041C11.5313 15.452 11.9239 14.6486 12.1877 14.0349C12.4911 13.3288 12.8698 12.45 12.261 11.8502C11.9923 11.585 11.5055 11.4033 10.9463 11.6893C10.3523 11.9922 9.32411 13.0279 7.40748 14.9853C6.22359 16.1939 4.88205 17.5633 3.70708 18.6428C3.11513 19.187 2.662 19.5683 2.31695 19.8355C2.53905 19.3012 2.9079 18.5286 3.51869 17.4203C4.50427 15.6298 5.78831 13.5543 6.92064 11.723C8.05892 9.88289 9.04152 8.29397 9.44607 7.43595C9.68007 6.94041 9.46788 6.34854 8.97311 6.11417C8.47734 5.87981 7.88738 6.09233 7.65338 6.58787C7.29742 7.3436 6.29597 8.9633 5.23602 10.6773C0.638287 18.1065 -0.643765 20.624 0.281335 21.8981C0.512362 22.2169 0.861381 22.4085 1.26394 22.4383C2.546 22.5317 4.35852 20.9328 8.82041 16.3776C8.85413 16.3428 8.88784 16.3081 8.92254 16.2733C8.38116 17.3895 7.82987 18.5633 7.44516 19.5713C7.08126 20.5237 6.32473 22.5058 7.67321 23.192C9.01575 23.8763 10.5725 22.3857 12.7251 20.3221C13.2208 19.8474 13.9 19.1969 14.4959 18.6885C14.2203 19.0648 13.9159 19.4412 13.7107 19.6964C12.7548 20.8822 12.1232 21.6657 12.4316 22.5019C12.5823 22.911 12.9323 23.196 13.3934 23.2824C14.4652 23.484 15.424 22.6915 16.4394 21.8524C17.0214 21.3717 17.7135 20.7997 18.2707 20.5912C18.2618 20.613 18.2529 20.6349 18.2439 20.6547C18.0516 21.1165 17.8334 21.6389 17.7948 22.201C17.7383 23.0282 18.1012 23.7204 18.817 24.1504C18.9767 24.2467 19.1522 24.2924 19.3257 24.2924C19.6628 24.2924 19.991 24.1206 20.1764 23.8097C20.458 23.339 20.3063 22.7293 19.8363 22.4472C19.7997 22.4254 19.7808 22.4085 19.7719 22.4006C19.7372 22.2238 19.9633 21.6826 20.0723 21.4204C20.3509 20.7521 20.6672 19.9953 20.2488 19.2873L20.2508 19.2883Z" fill="#1482BF"/>
</svg>
