<svg xmlns="http://www.w3.org/2000/svg" width="1em" height="1em" viewBox="0 0 48 48"><g fill="currentColor"><path d="M23 14a2 2 0 1 1-4 0a2 2 0 0 1 4 0Zm4 2a2 2 0 1 0 0-4a2 2 0 0 0 0 4Z"/><path fill-rule="evenodd" d="M16.615 17.348c0 2.035 1.385 2.487 1.847 2.487c.461 0 .615 1.356.615 2.26c0 .776 1.921.887 3.923.902V24.5h-6.5c-2.892 0-4.268 2.146-4.882 3.923a11.705 11.705 0 0 0-.541 2.447a12.397 12.397 0 0 0-.077 1.1V32a1 1 0 0 0 2 0v-.05l.008-.18c.007-.16.023-.391.056-.671a9.72 9.72 0 0 1 .444-2.022c.51-1.474 1.384-2.577 2.992-2.577H23v1.209c-.834.047-1.65.156-2.365.33c-.5.121-.98.282-1.392.495c-.401.206-.82.502-1.091.936a1 1 0 0 0 1.696 1.06s.015-.023.066-.065c.052-.042.13-.095.244-.153a4.42 4.42 0 0 1 .95-.33a11.32 11.32 0 0 1 1.892-.27v1.997c-.834.047-1.65.156-2.365.33c-.5.121-.98.282-1.392.495c-.401.206-.82.502-1.091.936a1 1 0 0 0 1.696 1.06s.015-.023.066-.065c.052-.042.13-.095.244-.153a4.42 4.42 0 0 1 .95-.33a11.32 11.32 0 0 1 1.892-.27V36h-4c-1.108 0-1.939.527-2.513 1.24c-.549.68-.876 1.538-1.08 2.32C15 41.122 15 42.723 15 42.996V43a1 1 0 1 0 2 0c0-.241.002-1.63.343-2.935c.17-.656.406-1.204.701-1.57c.27-.335.564-.495.956-.495h10c.392 0 .686.16.956.495c.295.366.53.914.701 1.57c.34 1.305.343 2.694.343 2.935a1 1 0 1 0 2 0v-.004c0-.273 0-1.874-.407-3.436c-.204-.782-.531-1.64-1.08-2.32C30.939 36.527 30.108 36 29 36h-4v-2.287c.692.044 1.344.136 1.892.27c.403.097.722.212.95.33c.113.057.192.11.244.152c.05.042.066.065.066.065a1 1 0 0 0 1.696-1.06c-.271-.434-.69-.73-1.09-.936a6.37 6.37 0 0 0-1.393-.495a13.404 13.404 0 0 0-2.365-.33v-1.996c.692.044 1.344.136 1.892.27c.403.097.722.212.95.33c.113.057.192.11.244.152c.05.042.066.065.066.065a1 1 0 0 0 1.696-1.06c-.271-.434-.69-.73-1.09-.936a6.37 6.37 0 0 0-1.393-.495a13.404 13.404 0 0 0-2.365-.33V26.5h6.5c1.608 0 2.482 1.104 2.992 2.577a9.72 9.72 0 0 1 .444 2.022a10.33 10.33 0 0 1 .064.893v.01A1 1 0 0 0 37 32h-1c1 0 1-.002 1-.002v-.028l-.001-.051v-.015a12.397 12.397 0 0 0-.076-1.034a11.705 11.705 0 0 0-.54-2.447c-.615-1.776-1.99-3.923-4.883-3.923H25v-1.503c2.002-.015 3.923-.126 3.923-.901c0-.905.577-2.261.616-2.261c.038 0 1.846-.453 1.846-2.487c0-.805.252-1.186.558-1.646C32.41 15 33 14.112 33 11.243c0-9.657-18-9.657-18 0c0 2.87.59 3.757 1.057 4.46c.306.46.558.84.558 1.645Zm2.08.498a.302.302 0 0 1-.01-.021c-.023-.054-.07-.198-.07-.477c0-1.484-.657-2.43-.968-2.877a3.415 3.415 0 0 1-.12-.181c-.174-.292-.527-.931-.527-3.047c0-1.701.756-2.933 1.976-3.806C20.256 6.522 22.074 6 24 6c1.926 0 3.745.522 5.024 1.437C30.244 8.31 31 9.542 31 11.243c0 2.116-.353 2.755-.526 3.047c-.028.046-.07.107-.121.18c-.31.447-.968 1.394-.968 2.878c0 .2-.042.293-.06.327a.374.374 0 0 1-.103.12a.703.703 0 0 1-.16.096l-.006.003a1.996 1.996 0 0 0-1.042.644a2.102 2.102 0 0 0-.301.461a4.89 4.89 0 0 0-.13.286a9.756 9.756 0 0 0-.517 1.619c-.795.093-1.882.096-3.066.096c-1.146 0-2.201-.003-2.99-.087a7.516 7.516 0 0 0-.111-.703a4.04 4.04 0 0 0-.403-1.128c-.171-.306-.722-1.13-1.802-1.236Z" clip-rule="evenodd"/></g></svg>