<svg width="32" height="32" viewBox="0 0 32 32" fill="none" xmlns="http://www.w3.org/2000/svg">
<g clip-path="url(#clip0_229_22)">
<path d="M28.2361 0H3.76395C1.68897 0 0 1.68897 0 3.76395V28.2361C0 30.311 1.68897 32 3.76395 32H28.2361C30.311 32 32 30.311 32 28.2361V3.76395C32 1.68897 30.311 0 28.2361 0ZM3.76395 2.15247H28.2361C29.1243 2.15247 29.8475 2.8757 29.8475 3.76395V6.88789H2.15247V3.76395C2.15247 2.8757 2.8757 2.15247 3.76395 2.15247ZM28.2361 29.8475H3.76395C2.8757 29.8475 2.15247 29.1243 2.15247 28.2361V9.04036H29.8475V28.2361C29.8475 29.1243 29.1243 29.8475 28.2361 29.8475Z" fill="#1480B6"/>
<path d="M20.7354 5.73991C21.409 5.73991 21.9551 5.19382 21.9551 4.52018C21.9551 3.84654 21.409 3.30045 20.7354 3.30045C20.0617 3.30045 19.5156 3.84654 19.5156 4.52018C19.5156 5.19382 20.0617 5.73991 20.7354 5.73991Z" fill="#1480B6"/>
<path d="M24.0356 5.73991C24.7093 5.73991 25.2554 5.19382 25.2554 4.52018C25.2554 3.84654 24.7093 3.30045 24.0356 3.30045C23.362 3.30045 22.8159 3.84654 22.8159 4.52018C22.8159 5.19382 23.362 5.73991 24.0356 5.73991Z" fill="#1480B6"/>
<path d="M16.0002 11.0493C12.4171 11.0493 9.5127 13.9537 9.5127 17.5369C9.5127 18.4911 9.71933 19.3966 10.0881 20.2117C9.98911 20.5231 9.93458 20.8545 9.93458 21.1989C9.93458 22.9883 11.3853 24.4391 13.1748 24.4391C13.2063 24.4391 13.2365 24.4377 13.2666 24.4362V25.4996C13.2666 26.1324 13.7846 26.649 14.416 26.649H17.5816C18.2144 26.649 18.731 26.1309 18.731 25.4996V24.4362C18.7611 24.4362 18.7927 24.4391 18.8228 24.4391C20.6122 24.4391 22.063 22.9883 22.063 21.1989C22.063 20.8545 22.0085 20.5231 21.9095 20.2117C22.2797 19.3966 22.4849 18.4897 22.4849 17.5369C22.4849 13.9537 19.5805 11.0493 15.9974 11.0493H16.0002ZM13.6971 22.1345C12.7816 22.1345 12.0383 21.3926 12.0383 20.4757C12.0383 19.5587 12.7801 18.8169 13.6971 18.8169C14.614 18.8169 15.3559 19.5587 15.3559 20.4757C15.3559 21.3926 14.614 22.1345 13.6971 22.1345ZM16.1552 23.9469H15.8438C15.2067 23.9469 14.7905 23.2969 15.0718 22.7415L15.3129 22.2666C15.5927 21.7141 16.4035 21.7141 16.6833 22.2666L16.9244 22.7415C17.207 23.2969 16.7909 23.9469 16.1523 23.9469H16.1552ZM18.3034 22.1345C17.3879 22.1345 16.6445 21.3926 16.6445 20.4757C16.6445 19.5587 17.3864 18.8169 18.3034 18.8169C19.2203 18.8169 19.9622 19.5587 19.9622 20.4757C19.9622 21.3926 19.2203 22.1345 18.3034 22.1345Z" fill="#1480B6"/>
</g>
<defs>
<clipPath id="clip0_229_22">
<rect width="32" height="32" fill="white"/>
</clipPath>
</defs>
</svg>
