<svg xmlns="http://www.w3.org/2000/svg" width="1em" height="1em" viewBox="0 0 24 24"><path fill="currentColor" d="M3.615 19q-.69 0-1.152-.462Q2 18.075 2 17.385V6.615q0-.69.463-1.152Q2.925 5 3.615 5h1.808q.69 0 1.153.463q.462.462.462 1.152v10.77q0 .69-.462 1.152Q6.113 19 5.423 19H3.615Zm0-.975h1.808q.27 0 .442-.173t.173-.442V6.59q0-.269-.173-.442t-.442-.173H3.615q-.269 0-.442.173T3 6.59v10.82q0 .269.173.442t.442.173Zm7.423.975q-.69 0-1.152-.462q-.463-.463-.463-1.153V6.615q0-.69.463-1.152Q10.348 5 11.038 5h9.347q.69 0 1.152.463q.463.462.463 1.152v10.77q0 .69-.462 1.152q-.463.463-1.153.463h-9.347Zm0-.975h9.347q.269 0 .442-.173T21 17.41V6.59q0-.269-.173-.442t-.442-.173h-9.347q-.269 0-.442.173t-.173.442v10.82q0 .269.173.442t.442.173Zm-5 0V5.975v12.05Zm4.385 0V5.975v12.05Z"/></svg>