<svg width="32" height="30" viewBox="0 0 32 30" fill="none" xmlns="http://www.w3.org/2000/svg">
<g clip-path="url(#clip0_292_19)">
<path d="M13.3609 15.8483H1.54132C1.01503 15.8483 0.588379 16.2678 0.588379 16.7853V26.0167C0.588379 26.5342 1.01503 26.9537 1.54132 26.9537H13.3609C13.8872 26.9537 14.3139 26.5342 14.3139 26.0167V16.7853C14.3139 16.2678 13.8872 15.8483 13.3609 15.8483Z" fill="white"/>
<path d="M13.3608 16.4267C13.5584 16.4267 13.7255 16.591 13.7255 16.7854V26.0167C13.7255 26.2111 13.5584 26.3753 13.3608 26.3753H1.54118C1.34353 26.3753 1.17647 26.2111 1.17647 26.0167V16.7854C1.17647 16.591 1.34353 16.4267 1.54118 16.4267H13.3608ZM13.3608 15.2699H1.54118C0.693333 15.2699 0 15.9517 0 16.7854V26.0167C0 26.8504 0.693333 27.5321 1.54118 27.5321H13.3608C14.2086 27.5321 14.902 26.8504 14.902 26.0167V16.7854C14.902 15.9517 14.2086 15.2699 13.3608 15.2699Z" fill="#1481B6"/>
<path d="M7.4511 30C7.99255 30 8.43149 29.5684 8.43149 29.036C8.43149 28.5036 7.99255 28.072 7.4511 28.072C6.90964 28.072 6.4707 28.5036 6.4707 29.036C6.4707 29.5684 6.90964 30 7.4511 30Z" fill="#1481B6"/>
<path d="M21.9098 0.5784H10.0901C9.56385 0.5784 9.13721 0.997917 9.13721 1.51542V10.7468C9.13721 11.2643 9.56385 11.6838 10.0901 11.6838H21.9098C22.4361 11.6838 22.8627 11.2643 22.8627 10.7468V1.51542C22.8627 0.997917 22.4361 0.5784 21.9098 0.5784Z" fill="white"/>
<path d="M21.9096 1.15681C22.1073 1.15681 22.2743 1.32108 22.2743 1.51542V10.7468C22.2743 10.9411 22.1073 11.1054 21.9096 11.1054H10.09C9.89236 11.1054 9.7253 10.9411 9.7253 10.7468V1.51542C9.7253 1.32108 9.89236 1.15681 10.09 1.15681H21.9096ZM21.9096 0H10.09C9.24216 0 8.54883 0.681748 8.54883 1.51542V10.7468C8.54883 11.5805 9.24216 12.2622 10.09 12.2622H21.9096C22.7575 12.2622 23.4508 11.5805 23.4508 10.7468V1.51542C23.4508 0.681748 22.7575 0 21.9096 0V0Z" fill="#1481B6"/>
<path d="M15.9999 14.7301C16.5414 14.7301 16.9803 14.2985 16.9803 13.7661C16.9803 13.2337 16.5414 12.8021 15.9999 12.8021C15.4585 12.8021 15.0195 13.2337 15.0195 13.7661C15.0195 14.2985 15.4585 14.7301 15.9999 14.7301Z" fill="#1481B6"/>
<path d="M30.4591 15.8483H18.6395C18.1132 15.8483 17.6865 16.2678 17.6865 16.7853V26.0167C17.6865 26.5342 18.1132 26.9537 18.6395 26.9537H30.4591C30.9854 26.9537 31.412 26.5342 31.412 26.0167V16.7853C31.412 16.2678 30.9854 15.8483 30.4591 15.8483Z" fill="white"/>
<path d="M30.4589 16.4267C30.6566 16.4267 30.8236 16.591 30.8236 16.7854V26.0167C30.8236 26.2111 30.6566 26.3753 30.4589 26.3753H18.6393C18.4417 26.3753 18.2746 26.2111 18.2746 26.0167V16.7854C18.2746 16.591 18.4417 16.4267 18.6393 16.4267H30.4589ZM30.4589 15.2699H18.6393C17.7915 15.2699 17.0981 15.9517 17.0981 16.7854V26.0167C17.0981 26.8504 17.7915 27.5321 18.6393 27.5321H30.4589C31.3068 27.5321 32.0001 26.8504 32.0001 26.0167V16.7854C32.0001 15.9517 31.3068 15.2699 30.4589 15.2699Z" fill="#1481B6"/>
<path d="M24.5492 30C25.0907 30 25.5296 29.5684 25.5296 29.036C25.5296 28.5036 25.0907 28.072 24.5492 28.072C24.0078 28.072 23.5688 28.5036 23.5688 29.036C23.5688 29.5684 24.0078 30 24.5492 30Z" fill="#1481B6"/>
</g>
<defs>
<clipPath id="clip0_292_19">
<rect width="32" height="30" fill="white"/>
</clipPath>
</defs>
</svg>
