<svg width="32" height="32" viewBox="0 0 32 32" fill="none" xmlns="http://www.w3.org/2000/svg">
<g clip-path="url(#clip0_177_35)">
<path d="M16 0C7.17874 0 0 7.1765 0 16C0 24.8235 7.17874 32 16 32C24.8213 32 32 24.8235 32 16C32 7.1765 24.8213 0 16 0ZM16 29.7622C8.41175 29.7622 2.23776 23.5883 2.23776 16C2.23776 8.41175 8.41175 2.23776 16 2.23776C23.5883 2.23776 29.7622 8.41175 29.7622 16C29.7622 23.5883 23.5883 29.7622 16 29.7622Z" fill="#008ACD"/>
<path d="M10.4056 14.4336H4.13989V17.5665H10.4056V14.4336Z" fill="#008ACD"/>
<path d="M19.1329 14.4336H12.8672V17.5665H19.1329V14.4336Z" fill="#008ACD"/>
<path d="M27.8601 14.4336H21.5944V17.5665H27.8601V14.4336Z" fill="#008ACD"/>
</g>
<defs>
<clipPath id="clip0_177_35">
<rect width="32" height="32" fill="white"/>
</clipPath>
</defs>
</svg>
