<svg width="32" height="32" viewBox="0 0 32 32" fill="none" xmlns="http://www.w3.org/2000/svg">
<g clip-path="url(#clip0_178_50)">
<path d="M16 0C7.17874 0 0 7.1765 0 16C0 24.8235 7.17874 32 16 32C24.8213 32 32 24.8235 32 16C32 7.1765 24.8213 0 16 0ZM16 29.7622C8.41175 29.7622 2.23776 23.5883 2.23776 16C2.23776 8.41175 8.41175 2.23776 16 2.23776C23.5883 2.23776 29.7622 8.41175 29.7622 16C29.7622 23.5883 23.5883 29.7622 16 29.7622Z" fill="#088BCC"/>
<path d="M23.7472 9.36279H8.25292C7.64981 9.36279 7.16089 9.85171 7.16089 10.4548C7.16089 11.0579 7.64981 11.5468 8.25292 11.5468H23.7472C24.3503 11.5468 24.8392 11.0579 24.8392 10.4548C24.8392 9.85171 24.3503 9.36279 23.7472 9.36279Z" fill="#088BCC"/>
<path d="M23.7472 14.908H8.25292C7.64981 14.908 7.16089 15.3969 7.16089 16C7.16089 16.6031 7.64981 17.092 8.25292 17.092H23.7472C24.3503 17.092 24.8392 16.6031 24.8392 16C24.8392 15.3969 24.3503 14.908 23.7472 14.908Z" fill="#088BCC"/>
<path d="M23.7472 20.4531H8.25292C7.6532 20.4531 7.16089 20.9454 7.16089 21.5452C7.16089 22.1449 7.6532 22.6372 8.25292 22.6372H23.7472C24.3469 22.6372 24.8392 22.1449 24.8392 21.5452C24.8392 20.9454 24.3469 20.4531 23.7472 20.4531Z" fill="#088BCC"/>
</g>
<defs>
<clipPath id="clip0_178_50">
<rect width="32" height="32" fill="white"/>
</clipPath>
</defs>
</svg>
