<svg width="33" height="34" viewBox="0 0 33 34" fill="none" xmlns="http://www.w3.org/2000/svg">
<path d="M25.9887 11.5283C25.0631 10.158 23.5263 9.96814 22.3408 10.829C21.4472 11.4784 21.0574 12.6173 21.2708 13.673L20.4767 12.4658C19.6666 11.2353 18.0448 10.9239 16.8737 11.7748C15.9641 12.4358 15.5855 13.6114 15.8406 14.6804L15.3337 13.9094C14.5797 12.7655 13.0734 12.4758 11.9841 13.2667C11.259 13.7929 10.8965 14.672 10.9575 15.5379L5.78395 7.68197C4.9626 6.43316 3.31831 6.11845 2.1296 6.98264C0.940899 7.84515 0.64252 9.57352 1.46386 10.8223L8.44209 21.4256C7.17638 22.5646 6.77533 24.3129 6.93575 24.8124C6.93575 26.4775 9.98371 30.3072 10.9462 30.7735C13.0317 32.6384 15.5984 33.1379 18.0047 32.8049C22.0151 32.1388 28.111 29.3082 30.1965 23.4804C30.3569 22.9808 31.3194 20.1502 29.5548 17.3195C28.9131 16.3205 27.9506 14.3224 25.9887 11.53V11.5283Z" stroke="#00A7EA" stroke-width="2" stroke-linecap="round" stroke-linejoin="round"/>
<path d="M7.37524 19.679L10.0254 23.6153" stroke="#00A7EA" stroke-linecap="round" stroke-linejoin="round"/>
<path d="M31.1846 6.09186C21.5338 2.4986 14.7962 3.49765 12.8712 3.99718" stroke="#00A7EA" stroke-width="2" stroke-linecap="round" stroke-linejoin="round"/>
<path d="M14.7962 1L12.8712 3.99716" stroke="#00A7EA" stroke-width="2" stroke-linecap="round" stroke-linejoin="round"/>
<path d="M15.7588 6.16178L12.8712 3.99716" stroke="#00A7EA" stroke-width="2" stroke-linecap="round" stroke-linejoin="round"/>
</svg>
