<svg width="32" height="32" viewBox="0 0 32 32" fill="none" xmlns="http://www.w3.org/2000/svg">
<g clip-path="url(#clip0_292_13)">
<path d="M28.6906 1.25654H3.3095C2.17935 1.25654 1.26318 2.16791 1.26318 3.29215V23.3466C1.26318 24.4708 2.17935 25.3822 3.3095 25.3822H28.6906C29.8207 25.3822 30.7369 24.4708 30.7369 23.3466V3.29215C30.7369 2.16791 29.8207 1.25654 28.6906 1.25654Z" fill="white"/>
<path d="M28.6905 2.51309C29.115 2.51309 29.4737 2.86995 29.4737 3.29215V23.3466C29.4737 23.7688 29.115 24.1257 28.6905 24.1257H3.30947C2.88505 24.1257 2.52632 23.7688 2.52632 23.3466V3.29215C2.52632 2.86995 2.88505 2.51309 3.30947 2.51309H28.6905ZM28.6905 0H3.30947C1.48884 0 0 1.48105 0 3.29215V23.3466C0 25.1577 1.48884 26.6387 3.30947 26.6387H28.6905C30.5112 26.6387 32 25.1577 32 23.3466V3.29215C32 1.48105 30.5112 0 28.6905 0V0Z" fill="#1481B6"/>
<path d="M15.9998 32C17.1625 32 18.1051 31.0624 18.1051 29.9058C18.1051 28.7491 17.1625 27.8115 15.9998 27.8115C14.8371 27.8115 13.8945 28.7491 13.8945 29.9058C13.8945 31.0624 14.8371 32 15.9998 32Z" fill="#1481B6"/>
</g>
<defs>
<clipPath id="clip0_292_13">
<rect width="32" height="32" fill="white"/>
</clipPath>
</defs>
</svg>
