<svg xmlns="http://www.w3.org/2000/svg" width="1em" height="1em" viewBox="0 0 24 24"><path fill="currentColor" d="M16.504 9.885q-.617 0-1.06-.432Q15 9.023 15 8.385V4q0-.638.44-1.069T16.5 2.5q.638 0 1.07.431Q18 3.363 18 4v4.385q0 .637-.43 1.068t-1.066.432ZM4 21V3h8.5v1H5v16h11v-2.27h1V21H4Zm3.5-3.27V16.5h6v1.23h-6Zm0-3v-1h4v1h-4Zm9.5.77h-1v-2.523q-1.848-.177-3.174-1.468Q11.5 10.217 11.5 8.385h1q0 1.546 1.198 2.58Q14.896 12 16.498 12q1.63 0 2.816-1.035Q20.5 9.931 20.5 8.385h1q0 1.852-1.313 3.133Q18.873 12.8 17 12.977V15.5Z"/></svg>