<svg width="32" height="32" viewBox="0 0 32 32" fill="none" xmlns="http://www.w3.org/2000/svg">
<g clip-path="url(#clip0_147_41)">
<path d="M9.36937 27.0348C13.7205 26.819 17.1943 23.202 17.1943 18.787H15.6499C15.6499 22.4867 12.6476 25.4967 8.95753 25.4967H8.23681C4.54672 25.4967 1.5444 22.4867 1.5444 18.787H0C0 23.202 3.47387 26.819 7.82497 27.0348V30.4516H2.41956V32H14.7748V30.4516H9.36937V27.0348Z" fill="#1492CF"/>
<path d="M7.15574 19.5097H3.23502C3.56758 22.177 5.85123 24.258 8.59718 24.258C11.3431 24.258 13.6268 22.177 13.9593 19.5097H9.98714V17.9097H14.0026V15.6903H9.98714V14.0903H14.0026V11.8709H9.98714V10.2709H13.9655C13.6566 7.57882 11.3606 5.47095 8.59718 5.47095C5.83373 5.47095 3.53772 7.57882 3.22884 10.2709H7.15574V11.8709H3.19177V14.0903H7.15574V15.6903H3.19177V17.9097H7.15574V19.5097Z" fill="#1492CF"/>
<path d="M31.9928 4.33445C31.9908 4.32516 31.9877 4.3169 31.9856 4.30865C31.9815 4.29523 31.9784 4.28181 31.9733 4.26839C31.9691 4.2591 31.965 4.24981 31.9599 4.24052C31.9537 4.22916 31.9485 4.21781 31.9413 4.20645C31.9362 4.19716 31.929 4.1889 31.9228 4.18064C31.9177 4.17445 31.9135 4.16723 31.9084 4.16103L28.4098 0.128C28.4098 0.128 28.4005 0.11871 28.3964 0.113548C28.3944 0.110452 28.3913 0.108387 28.3892 0.10529C28.3748 0.0908387 28.3583 0.0774194 28.3418 0.0660645C28.3388 0.064 28.3357 0.0619355 28.3326 0.059871C28.3151 0.0485161 28.2976 0.0392258 28.279 0.0309677C28.276 0.0299355 28.2729 0.027871 28.2687 0.0268387C28.2492 0.0185806 28.2286 0.0123871 28.208 0.00825806C28.2059 0.00825806 28.2039 0.00825806 28.2018 0.00722581C28.1792 0.00309677 28.1555 0 28.1318 0H19.4605C18.2301 0 17.2283 1.00439 17.2283 2.23794V16.7556C17.2283 17.9892 18.2301 18.9935 19.4605 18.9935H29.7689C30.9992 18.9935 32.001 17.9892 32.001 16.7556V4.40464C32.001 4.3809 31.998 4.35716 31.9938 4.33445H31.9928ZM28.5004 1.36361L30.817 4.03406H28.5004V1.36361ZM29.7678 18.2514H19.4595C18.6368 18.2514 17.9676 17.5804 17.9676 16.7556V2.23794C17.9676 1.41316 18.6368 0.742194 19.4595 0.742194H27.7601V4.40464C27.7601 4.61006 27.9259 4.77626 28.1308 4.77626H31.2597V16.7556C31.2597 17.5804 30.5905 18.2514 29.7678 18.2514Z" fill="#1493D0"/>
<path d="M20.0978 7.34039H29.1295C29.3344 7.34039 29.5001 7.1742 29.5001 6.96878C29.5001 6.76336 29.3344 6.59717 29.1295 6.59717H20.0978C19.8929 6.59717 19.7272 6.76336 19.7272 6.96878C19.7272 7.1742 19.8929 7.34039 20.0978 7.34039Z" fill="#1493D0"/>
<path d="M29.146 8.52747H20.1143C19.9094 8.52747 19.7437 8.69366 19.7437 8.89908C19.7437 9.1045 19.9094 9.27069 20.1143 9.27069H29.146C29.3509 9.27069 29.5166 9.1045 29.5166 8.89908C29.5166 8.69366 29.3509 8.52747 29.146 8.52747Z" fill="#1493D0"/>
<path d="M29.146 10.4578H20.1143C19.9094 10.4578 19.7437 10.624 19.7437 10.8294C19.7437 11.0349 19.9094 11.2011 20.1143 11.2011H29.146C29.3509 11.2011 29.5166 11.0349 29.5166 10.8294C29.5166 10.624 29.3509 10.4578 29.146 10.4578Z" fill="#1493D0"/>
<path d="M29.146 12.3871H20.1143C19.9094 12.3871 19.7437 12.5533 19.7437 12.7587C19.7437 12.9641 19.9094 13.1303 20.1143 13.1303H29.146C29.3509 13.1303 29.5166 12.9641 29.5166 12.7587C29.5166 12.5533 29.3509 12.3871 29.146 12.3871Z" fill="#1493D0"/>
<path d="M29.146 14.3174H20.1143C19.9094 14.3174 19.7437 14.4836 19.7437 14.6891C19.7437 14.8945 19.9094 15.0607 20.1143 15.0607H29.146C29.3509 15.0607 29.5166 14.8945 29.5166 14.6891C29.5166 14.4836 29.3509 14.3174 29.146 14.3174Z" fill="#1493D0"/>
</g>
<defs>
<clipPath id="clip0_147_41">
<rect width="32" height="32" fill="white"/>
</clipPath>
</defs>
</svg>
