<svg width="32" height="32" viewBox="0 0 32 32" fill="none" xmlns="http://www.w3.org/2000/svg">
<g clip-path="url(#clip0_216_134)">
<path d="M16 32C7.17796 32 0 24.7596 0 15.8608C0 14.8695 0.0896 13.8754 0.267378 12.907C0.4096 12.128 1.15342 11.613 1.92427 11.7579C2.69653 11.9014 3.20711 12.6502 3.06347 13.4292C2.91698 14.2254 2.84302 15.0431 2.84302 15.8608C2.84302 23.1773 8.74524 29.1308 15.9986 29.1308C23.2519 29.1308 29.1541 23.1773 29.1541 15.8608C29.1541 9.54003 24.6997 4.06563 18.5628 2.84193C17.792 2.68842 17.2914 1.93383 17.4436 1.15628C17.5957 0.378732 18.3438 -0.126244 19.1147 0.0272573C26.5799 1.51493 31.9986 8.17287 31.9986 15.8608C31.9986 24.7596 24.8206 32 15.9986 32H16Z" fill="#1480BA"/>
</g>
<defs>
<clipPath id="clip0_216_134">
<rect width="32" height="32" fill="white"/>
</clipPath>
</defs>
</svg>
