<svg width="32" height="28" viewBox="0 0 32 28" fill="none" xmlns="http://www.w3.org/2000/svg">
<g clip-path="url(#clip0_265_37)">
<path d="M25.2537 5.58937C25.5663 6.35432 26.3137 6.89356 27.1864 6.89356C28.3406 6.89356 29.2757 5.95242 29.2757 4.79089C29.2757 3.62937 28.3406 2.68823 27.1864 2.68823C26.3137 2.68823 25.5658 3.22747 25.2537 3.99242H12.6674V13.2015H6.74558C6.43299 12.4366 5.68562 11.8974 4.81289 11.8974C3.65877 11.8974 2.72363 12.8385 2.72363 14C2.72363 15.1615 3.65877 16.1027 4.81289 16.1027C5.68562 16.1027 6.43352 15.5634 6.74558 14.7985H12.6674V24.0076H25.2537C25.5663 24.7726 26.3137 25.3118 27.1864 25.3118C28.3406 25.3118 29.2757 24.3707 29.2757 23.2091C29.2757 22.0476 28.3406 21.1065 27.1864 21.1065C26.3137 21.1065 25.5658 21.6457 25.2537 22.4107H14.2542V14.7985H25.2537C25.5663 15.5634 26.3137 16.1027 27.1864 16.1027C28.3406 16.1027 29.2757 15.1615 29.2757 14C29.2757 12.8385 28.3406 11.8974 27.1864 11.8974C26.3137 11.8974 25.5658 12.4366 25.2537 13.2015H14.2542V5.58937H25.2537Z" fill="#1480AD"/>
<path d="M28.8698 0H3.13018C1.4043 0 0 1.41331 0 3.15027V24.8497C0 26.5867 1.4043 28 3.13018 28H28.8698C30.5957 28 32 26.5867 32 24.8497V3.15027C32 1.41331 30.5957 0 28.8698 0ZM30.6777 24.8497C30.6777 25.8532 29.8668 26.6692 28.8698 26.6692H3.13018C2.13316 26.6692 1.32231 25.8532 1.32231 24.8497V3.15027C1.32231 2.14684 2.13316 1.3308 3.13018 1.3308H28.8698C29.8668 1.3308 30.6777 2.14684 30.6777 3.15027V24.8497Z" fill="#1480AD"/>
</g>
<defs>
<clipPath id="clip0_265_37">
<rect width="32" height="28" fill="white"/>
</clipPath>
</defs>
</svg>
