<svg width="32" height="32" viewBox="0 0 32 32" fill="none" xmlns="http://www.w3.org/2000/svg">
<g clip-path="url(#clip0_167_141)">
<path d="M27.76 4.84324H11.0638V2.37319C11.0638 1.06724 10.0119 0 8.72851 0H2.33532C1.05191 0 0 1.06897 0 2.37319V27.6912C0 30.061 1.90809 32 4.24 32H27.76C30.0919 32 32 30.061 32 27.6912V9.152C32 6.78227 30.0919 4.84324 27.76 4.84324ZM29.1064 27.7933C29.1064 28.4454 28.5872 28.973 27.9455 28.973H4.05447C3.41277 28.973 2.89362 28.4454 2.89362 27.7933V9.04995C2.89362 8.39784 3.41277 7.87027 4.05447 7.87027H27.9455C28.5872 7.87027 29.1064 8.39784 29.1064 9.04995V27.7933Z" fill="#2C8FCD"/>
<path d="M21.617 2.71914C21.617 1.41319 20.5651 0.345947 19.2817 0.345947H15.3021C14.017 0.345947 12.9668 1.41492 12.9668 2.71914V3.45946H21.6187V2.71914H21.617Z" fill="#2C8FCD"/>
<path d="M31.6595 2.71914C31.6595 1.41319 30.6076 0.345947 29.3242 0.345947H25.3446C24.0595 0.345947 23.0093 1.41492 23.0093 2.71914V3.45946H31.6612V2.71914H31.6595Z" fill="#2C8FCD"/>
</g>
<defs>
<clipPath id="clip0_167_141">
<rect width="32" height="32" fill="white"/>
</clipPath>
</defs>
</svg>
