<svg width="32" height="32" viewBox="0 0 32 32" fill="none" xmlns="http://www.w3.org/2000/svg">
<g clip-path="url(#clip0_167_151)">
<path d="M28.0246 0H3.97535C1.78298 0 0 1.78391 0 3.97743V28.0242C0 30.2178 1.78298 32.0017 3.97535 32.0017H28.0246C30.217 32.0017 32 30.2178 32 28.0242V3.97743C32 1.78391 30.217 0 28.0246 0ZM29.6606 28.0242C29.6606 28.9271 28.927 29.661 28.0246 29.661H3.97535C3.073 29.661 2.33943 28.9271 2.33943 28.0242V3.97743C2.33943 3.07461 3.073 2.34065 3.97535 2.34065H28.0246C28.927 2.34065 29.6606 3.07461 29.6606 3.97743V28.0242Z" fill="#2D8ECD"/>
<path d="M23.573 8.88779H12.7616V7.31287C12.7616 6.48026 12.0815 5.7998 11.2493 5.7998H7.11017C6.278 5.7998 5.5979 6.48026 5.5979 7.31287V23.4533C5.5979 24.9647 6.83278 26.2002 8.34338 26.2002H23.573C25.0836 26.2002 26.3185 24.9647 26.3185 23.4533V11.6347C26.3185 10.1233 25.0836 8.88779 23.573 8.88779ZM24.4453 23.5185C24.4453 23.9331 24.1094 24.2709 23.6934 24.2709H8.22307C7.80866 24.2709 7.47111 23.9348 7.47111 23.5185V11.5695C7.47111 11.1549 7.80699 10.8172 8.22307 10.8172H23.6934C24.1078 10.8172 24.4453 11.1532 24.4453 11.5695V23.5185Z" fill="#2D8ECD"/>
<path d="M19.5961 7.53357C19.5961 6.70097 18.916 6.02051 18.0839 6.02051H15.5071C14.675 6.02051 13.9949 6.70097 13.9949 7.53357V8.00504H19.5978V7.53357H19.5961Z" fill="#2D8ECD"/>
<path d="M26.0981 7.53357C26.0981 6.70097 25.418 6.02051 24.5858 6.02051H22.0091C21.1769 6.02051 20.4968 6.70097 20.4968 7.53357V8.00504H26.0998V7.53357H26.0981Z" fill="#2D8ECD"/>
<path d="M14.3657 12.8752L10.2366 14.9133L14.3657 16.9513C14.3657 16.9513 14.369 16.1739 14.3707 15.2978H21.678V14.5287H14.3723C14.3723 13.6577 14.3723 12.8836 14.3657 12.8752Z" fill="#2D8ECD"/>
<path d="M17.5439 19.7116H10.2366V20.4807H17.5439C17.5456 21.3567 17.5489 22.1342 17.5489 22.1342L21.678 20.0961L17.5489 18.0581C17.5489 18.0581 17.5406 18.8406 17.5423 19.7116H17.5439Z" fill="#2D8ECD"/>
</g>
<defs>
<clipPath id="clip0_167_151">
<rect width="32" height="32" fill="white"/>
</clipPath>
</defs>
</svg>
