<svg width="32" height="32" viewBox="0 0 32 32" fill="none" xmlns="http://www.w3.org/2000/svg">
<g clip-path="url(#clip0_105_87)">
<path d="M24.8179 13.8487C24.5881 13.7177 24.3067 13.7191 24.0784 13.8532L21.5052 15.3629V5.59724C21.5052 5.54863 21.5008 5.49855 21.4904 5.45142C21.4846 5.42048 21.4728 5.3925 21.4639 5.36304C21.458 5.34684 21.4551 5.32916 21.4492 5.31296C21.4359 5.28055 21.4183 5.25109 21.3991 5.22016C21.3932 5.20838 21.3873 5.19659 21.3815 5.18628C21.3549 5.14651 21.324 5.10822 21.2901 5.07434C20.67 4.45422 20.0764 3.88861 19.39 3.23461C18.5313 2.41565 17.5577 1.48916 16.2835 0.215052C16.2497 0.181174 16.2114 0.150242 16.1716 0.123728C16.1613 0.116364 16.1495 0.111945 16.1377 0.106053C16.1083 0.0883775 16.0773 0.070702 16.0449 0.0559724C16.0287 0.0486076 16.011 0.0456617 15.9948 0.0412428C15.9654 0.0309321 15.9374 0.0206214 15.9065 0.0147296C15.8593 0.00441887 15.8107 0 15.7606 0H2.13137C0.955949 0 0 0.955949 0 2.13137V24.3819C0 25.5573 0.955949 26.5132 2.13137 26.5132H8.70812C9.11466 26.5132 9.4446 26.1833 9.4446 25.7768C9.4446 25.3702 9.11466 25.0403 8.70812 25.0403H2.13137C1.76902 25.0403 1.47296 24.7457 1.47296 24.3819V2.13137C1.47296 1.76902 1.76755 1.47296 2.13137 1.47296H15.0242V5.59724C15.0242 6.00377 15.3541 6.33372 15.7606 6.33372H20.0322V15.989C20.0322 16.0655 20.047 16.1362 20.069 16.2055L16.0567 18.5593H13.4039C12.7131 18.5593 12.0856 18.8406 11.6319 19.2957H5.89183C5.48529 19.2957 5.15535 19.6257 5.15535 20.0322C5.15535 20.4388 5.48529 20.7687 5.89183 20.7687H10.919C10.9072 20.8659 10.8999 20.9631 10.8999 21.0633V24.5984C10.8999 25.9785 12.0238 27.1024 13.4039 27.1024H16.2158L24.0784 31.7142C24.1933 31.782 24.3229 31.8159 24.4511 31.8159C24.5792 31.8159 24.703 31.7835 24.8179 31.7187C25.0462 31.5876 25.1876 31.3431 25.1876 31.0794V14.488C25.1876 14.2243 25.0462 13.9798 24.8179 13.8487ZM16.4971 4.86076V2.49961C17.2041 3.18895 17.8139 3.77077 18.3722 4.30251C18.5755 4.49547 18.767 4.67959 18.957 4.86076H16.4971ZM23.7146 29.7935L16.7888 25.7311C16.6754 25.6648 16.5472 25.6295 16.4161 25.6295H13.4039C12.8354 25.6295 12.3728 25.167 12.3728 24.5984V21.0633C12.3728 20.4947 12.8354 20.0322 13.4039 20.0322H16.257C16.3881 20.0322 16.5163 19.9969 16.6297 19.9306L23.7146 15.7739V29.7935Z" fill="#1499D6"/>
<path d="M27.4589 19.6935C27.1098 19.9026 26.9964 20.3533 27.2055 20.7024C27.506 21.2592 27.506 24.401 27.207 24.9549C26.9979 25.3039 27.1113 25.7561 27.4589 25.9653C27.5782 26.036 27.7078 26.0699 27.8374 26.0699C28.0878 26.0699 28.3309 25.9417 28.4693 25.712C29.0512 24.7427 29.0512 20.916 28.4693 19.9468C28.2602 19.5977 27.8065 19.4843 27.4574 19.6935H27.4589Z" fill="#1499D6"/>
<path d="M31.592 19.4092C31.4108 19.0454 30.9689 18.8966 30.6051 19.0778C30.2413 19.2589 30.0925 19.7008 30.2737 20.0646C30.611 20.7437 30.611 24.7678 30.2737 25.4468C30.0925 25.8106 30.2413 26.2525 30.6051 26.4337C30.7112 26.4867 30.8231 26.5103 30.9321 26.5103C31.2031 26.5103 31.4639 26.3601 31.592 26.1023C32.137 25.0079 32.137 20.5021 31.592 19.4062V19.4092Z" fill="#1499D6"/>
<path d="M5.89181 11.3418H15.6133C16.0199 11.3418 16.3498 11.0118 16.3498 10.6053C16.3498 10.1987 16.0199 9.8688 15.6133 9.8688H5.89181C5.48528 9.8688 5.15533 10.1987 5.15533 10.6053C5.15533 11.0118 5.48528 11.3418 5.89181 11.3418Z" fill="#1499D6"/>
<path d="M5.89181 16.0552H15.6133C16.0199 16.0552 16.3498 15.7253 16.3498 15.3188C16.3498 14.9122 16.0199 14.5823 15.6133 14.5823H5.89181C5.48528 14.5823 5.15533 14.9122 5.15533 15.3188C5.15533 15.7253 5.48528 16.0552 5.89181 16.0552Z" fill="#1499D6"/>
</g>
<defs>
<clipPath id="clip0_105_87">
<rect width="32" height="31.8159" fill="white"/>
</clipPath>
</defs>
</svg>
