<svg width="32" height="32" viewBox="0 0 32 32" fill="none" xmlns="http://www.w3.org/2000/svg">
<g clip-path="url(#clip0_62_62)">
<path d="M17.6063 23.2636V9.25688C17.6063 8.996 17.7348 8.86748 18.0265 8.86748H22.6184V9.06026C22.6184 9.87375 23.2841 10.5382 24.0963 10.5382H24.4818C25.294 10.5382 25.9597 9.87375 25.9597 9.06026V7.13254C25.9597 6.3409 25.3287 5.6919 24.5461 5.65849V5.65463H7.45369V5.65849C6.67104 5.69319 6.04004 6.34218 6.04004 7.13254V9.06026C6.04004 9.87375 6.70574 10.5382 7.51795 10.5382H7.90349C8.7157 10.5382 9.3814 9.87375 9.3814 9.06026V8.86748H13.9989C14.2649 8.86748 14.3935 8.996 14.3935 9.2556V23.2675C14.3935 23.5181 14.2649 23.6466 14.0259 23.6466H12.0802C11.1613 23.6466 10.4095 24.3984 10.4095 25.3173C10.4095 26.2362 11.1613 26.988 12.0802 26.988H19.791C20.7099 26.988 21.4617 26.2362 21.4617 25.3173C21.4617 24.3984 20.7099 23.6466 19.791 23.6466H17.9225C17.7348 23.6466 17.6063 23.5181 17.6063 23.2636Z" fill="#00A5E8"/>
<path d="M26.3453 1.67068H5.65454V2.6988H26.3453V1.67068Z" fill="#00A5E8"/>
<path d="M26.3453 29.3012H5.65454V30.3293H26.3453V29.3012Z" fill="#00A5E8"/>
<path d="M30.3293 26.3454V5.65463H29.3012V26.3454H30.3293Z" fill="#00A5E8"/>
<path d="M2.69873 26.3454L2.69873 5.65463H1.67062L1.67062 26.3454H2.69873Z" fill="#00A5E8"/>
<path d="M3.42876 0H0.940723C0.421176 0 0 0.421176 0 0.940723V3.42876C0 3.9483 0.421176 4.36948 0.940723 4.36948H3.42876C3.9483 4.36948 4.36948 3.9483 4.36948 3.42876V0.940723C4.36948 0.421176 3.9483 0 3.42876 0Z" fill="#00A5E8"/>
<path d="M31.0594 0H28.5713C28.0518 0 27.6306 0.421176 27.6306 0.940723V3.42876C27.6306 3.9483 28.0518 4.36948 28.5713 4.36948H31.0594C31.5789 4.36948 32.0001 3.9483 32.0001 3.42876V0.940723C32.0001 0.421176 31.5789 0 31.0594 0Z" fill="#00A5E8"/>
<path d="M3.42876 27.6305H0.940723C0.421176 27.6305 0 28.0517 0 28.5712V31.0593C0 31.5788 0.421176 32 0.940723 32H3.42876C3.9483 32 4.36948 31.5788 4.36948 31.0593V28.5712C4.36948 28.0517 3.9483 27.6305 3.42876 27.6305Z" fill="#00A5E8"/>
<path d="M31.0594 27.6305H28.5713C28.0518 27.6305 27.6306 28.0517 27.6306 28.5712V31.0593C27.6306 31.5788 28.0518 32 28.5713 32H31.0594C31.5789 32 32.0001 31.5788 32.0001 31.0593V28.5712C32.0001 28.0517 31.5789 27.6305 31.0594 27.6305Z" fill="#00A5E8"/>
</g>
<defs>
<clipPath id="clip0_62_62">
<rect width="32" height="32" fill="white"/>
</clipPath>
</defs>
</svg>
