<svg width="32" height="32" viewBox="0 0 32 32" fill="none" xmlns="http://www.w3.org/2000/svg">
<g clip-path="url(#clip0_121_14)">
<path d="M7.79636 9.19274H14.2545V26.4727H17.92V9.19274H24.2036V5.52728H7.79636V9.19274Z" fill="#0098DB"/>
<path d="M28.5091 0H3.49091C1.56703 0 0 1.56703 0 3.49091V28.5091C0 30.433 1.56703 32 3.49091 32H28.5091C30.433 32 32 30.433 32 28.5091V3.49091C32 1.56703 30.433 0 28.5091 0ZM29.6727 28.5091C29.6727 29.151 29.151 29.6727 28.5091 29.6727H3.49091C2.84897 29.6727 2.32727 29.151 2.32727 28.5091V3.49091C2.32727 2.84897 2.84897 2.32727 3.49091 2.32727H28.5091C29.151 2.32727 29.6727 2.84897 29.6727 3.49091V28.5091Z" fill="#0098DB"/>
</g>
<defs>
<clipPath id="clip0_121_14">
<rect width="32" height="32" fill="white"/>
</clipPath>
</defs>
</svg>
