<svg width="32" height="18" viewBox="0 0 32 18" fill="none" xmlns="http://www.w3.org/2000/svg">
<g clip-path="url(#clip0_181_106)">
<path d="M5.52546 7.42021H1.83359C0.822315 7.42021 0 6.59106 0 5.57138V1.84883C0 0.829149 0.822315 0 1.83359 0H5.52546C6.53626 0 7.35905 0.829149 7.35905 1.84883V5.57138C7.35905 6.59058 6.53674 7.42021 5.52546 7.42021ZM1.83359 0.81383C1.26766 0.81383 0.807122 1.27819 0.807122 1.84883V5.57138C0.807122 6.14202 1.26766 6.60638 1.83359 6.60638H5.52546C6.09139 6.60638 6.55193 6.14202 6.55193 5.57138V1.84883C6.55193 1.27819 6.09139 0.81383 5.52546 0.81383H1.83359Z" fill="#158AC8"/>
<path d="M31.2879 2.99207H10.8724C10.4791 2.99207 10.1603 3.31356 10.1603 3.71015C10.1603 4.10674 10.4791 4.42824 10.8724 4.42824H31.2879C31.6812 4.42824 32 4.10674 32 3.71015C32 3.31356 31.6812 2.99207 31.2879 2.99207Z" fill="#2D8ECD"/>
<path d="M5.52546 18H1.83359C0.822789 18 0 17.1709 0 16.1512V12.4287C0 11.4095 0.822315 10.5798 1.83359 10.5798H5.52546C6.53626 10.5798 7.35905 11.409 7.35905 12.4287V16.1512C7.35905 17.1704 6.53674 18 5.52546 18ZM1.83359 11.3937C1.26766 11.3937 0.807122 11.858 0.807122 12.4287V16.1512C0.807122 16.7219 1.26766 17.1862 1.83359 17.1862H5.52546C6.09139 17.1862 6.55193 16.7219 6.55193 16.1512V12.4287C6.55193 11.858 6.09139 11.3937 5.52546 11.3937H1.83359Z" fill="#158AC8"/>
<path d="M31.2879 13.5718H10.8724C10.4791 13.5718 10.1603 13.8933 10.1603 14.2899C10.1603 14.6864 10.4791 15.0079 10.8724 15.0079H31.2879C31.6812 15.0079 32 14.6864 32 14.2899C32 13.8933 31.6812 13.5718 31.2879 13.5718Z" fill="#2D8ECD"/>
</g>
<defs>
<clipPath id="clip0_181_106">
<rect width="32" height="18" fill="white"/>
</clipPath>
</defs>
</svg>
