<svg width="32" height="32" viewBox="0 0 32 32" fill="none" xmlns="http://www.w3.org/2000/svg">
<g clip-path="url(#clip0_243_77)">
<path d="M16 0C7.02857 0 0 3.73053 0 8.49123C0 10.4519 1.17079 12.2779 3.38413 13.7684C3.64571 13.9453 3.80952 14.2737 3.80952 14.6246V28.1867C3.80952 30.2891 5.35746 32 7.25968 32H24.6133C26.5156 32 28.0635 30.2891 28.0635 28.1867V14.7228C28.0635 14.3593 28.2337 14.0211 28.5067 13.8414C30.7924 12.3368 32 10.487 32 8.49123C32 3.73053 24.9714 0 16 0ZM27.8565 12.6358C27.2013 13.0681 26.7937 13.8667 26.7937 14.7228V28.1867C26.7937 29.5158 25.8159 30.5965 24.6133 30.5965H7.25968C6.05714 30.5965 5.07937 29.5158 5.07937 28.1867V14.626C5.07937 13.7881 4.68318 13.0007 4.04571 12.5712C2.77968 11.7179 1.26984 10.3186 1.26984 8.49263C1.26984 4.65123 8.01524 1.40491 16 1.40491C23.9848 1.40491 30.7302 4.65123 30.7302 8.49263C30.7302 9.94526 29.7092 11.4175 27.8565 12.6372V12.6358Z" fill="#1480B4"/>
<path d="M21.803 17.3586L16.1713 24.7775C15.9452 25.0751 15.9808 25.5172 16.25 25.7656C16.3694 25.8765 16.5141 25.9298 16.6576 25.9298C16.8392 25.9298 17.0183 25.8442 17.144 25.6786L22.7757 18.2596C23.0018 17.9621 22.9662 17.52 22.697 17.2716C22.4278 17.0231 22.0278 17.061 21.803 17.3586Z" fill="#1480B4"/>
<path d="M15.7507 10.9207C15.4815 10.6709 15.0815 10.7102 14.8567 11.0077L9.22499 18.4267C8.99896 18.7242 9.03451 19.1663 9.30372 19.4147C9.42308 19.5256 9.56785 19.579 9.71134 19.579C9.89293 19.579 10.072 19.4933 10.1977 19.3277L15.8294 11.9088C16.0555 11.6112 16.0199 11.1691 15.7507 10.9207Z" fill="#1480B4"/>
<path d="M21.3167 11.3221C21.0475 11.0737 20.6475 11.113 20.4227 11.4092L10.6449 24.3214C10.4202 24.619 10.4557 25.0611 10.7237 25.3095C10.843 25.419 10.9865 25.4737 11.1313 25.4737C11.3129 25.4737 11.4932 25.3881 11.6189 25.2225L21.3967 12.3102C21.6215 12.0127 21.5859 11.5706 21.318 11.3221H21.3167Z" fill="#1480B4"/>
</g>
<defs>
<clipPath id="clip0_243_77">
<rect width="32" height="32" fill="white"/>
</clipPath>
</defs>
</svg>
