<svg width="32" height="18" viewBox="0 0 32 18" fill="none" xmlns="http://www.w3.org/2000/svg">
<g clip-path="url(#clip0_233_30)">
<path d="M29.9422 2.74988H18.0617L16 0L13.9383 2.74988H2.05777C0.923359 2.74988 0 3.8982 0 5.30898V15.4409C0 16.8517 0.923359 18 2.05777 18H29.9422C31.0766 18 32 16.8517 32 15.4409V5.30898C32 3.8982 31.0766 2.74988 29.9422 2.74988ZM31.316 15.4409C31.316 16.3826 30.6995 17.1494 29.9422 17.1494H2.05777C1.30052 17.1494 0.683969 16.3826 0.683969 15.4409V5.30898C0.683969 4.36724 1.30052 3.60049 2.05777 3.60049H14.2363L16 1.24674L17.7637 3.60049H29.9422C30.6995 3.60049 31.316 4.36724 31.316 5.30898V15.4409Z" fill="#1481B7"/>
<path d="M16.0265 6.44028C16.0187 6.44028 16.0109 6.44028 16.0021 6.44028H15.9992H15.9962C15.9884 6.44028 15.9806 6.44028 15.9728 6.44028C14.3723 6.44028 13.0708 8.05886 13.0708 10.0493C13.0708 11.3786 13.661 12.5926 14.6127 13.222C14.8745 13.4359 14.9947 13.9548 14.9947 14.3497V15.8698C14.9947 16.1736 15.1931 16.4215 15.4383 16.4215H16.562C16.8063 16.4215 17.0056 16.1748 17.0056 15.8698V14.3497C17.0056 13.9548 17.1248 13.4359 17.3876 13.222C18.3393 12.5938 18.9295 11.3799 18.9295 10.0493C18.9295 8.05886 17.628 6.44028 16.0275 6.44028H16.0265ZM16.476 15.7629H15.5243V15.0399H16.476V15.7629ZM17.1297 12.646L17.1111 12.6594C16.6421 13.0276 16.475 13.8004 16.475 14.3485V14.3813H15.5233V14.3485C15.5233 13.7992 15.3572 13.0276 14.8872 12.6594L14.8687 12.646C14.085 12.1332 13.5984 11.138 13.5984 10.0493C13.5984 8.42218 14.6635 7.09767 15.9708 7.09767H15.9943H16.0246C17.3329 7.09767 18.397 8.42218 18.397 10.0493C18.397 11.1393 17.9104 12.1332 17.1267 12.646H17.1297Z" fill="#1481B7"/>
<path d="M16.0002 5.76589C16.1751 5.76589 16.3177 5.5897 16.3177 5.37097V4.05618C16.3177 3.83867 16.1761 3.66125 16.0002 3.66125C15.8243 3.66125 15.6826 3.83745 15.6826 4.05618V5.37097C15.6826 5.58848 15.8243 5.76589 16.0002 5.76589Z" fill="#1481B7"/>
<path d="M18.6928 7.15236C18.7739 7.15236 18.855 7.11348 18.9175 7.03692L19.665 6.10733C19.7891 5.95301 19.7891 5.7039 19.665 5.54958C19.5409 5.39526 19.3406 5.39526 19.2165 5.54958L18.469 6.47917C18.345 6.63349 18.345 6.8826 18.469 7.03692C18.5306 7.11348 18.6117 7.15236 18.6938 7.15236H18.6928Z" fill="#1481B7"/>
<path d="M13.0822 7.03692C13.1438 7.11348 13.2249 7.15236 13.307 7.15236C13.3891 7.15236 13.4692 7.11348 13.5317 7.03692C13.6558 6.8826 13.6558 6.63349 13.5317 6.47917L12.7842 5.54958C12.6601 5.39526 12.4598 5.39526 12.3357 5.54958C12.2117 5.7039 12.2117 5.95301 12.3357 6.10733L13.0832 7.03692H13.0822Z" fill="#1481B7"/>
<path d="M12.5625 9.97515C12.5625 9.75764 12.4208 9.58023 12.2449 9.58023H11.1877C11.0128 9.58023 10.8701 9.75643 10.8701 9.97515C10.8701 10.1939 11.0118 10.3701 11.1877 10.3701H12.2449C12.4198 10.3701 12.5625 10.1939 12.5625 9.97515Z" fill="#1481B7"/>
<path d="M20.8123 9.58023H19.7551C19.5802 9.58023 19.4375 9.75643 19.4375 9.97515C19.4375 10.1939 19.5792 10.3701 19.7551 10.3701H20.8123C20.9872 10.3701 21.1298 10.1939 21.1298 9.97515C21.1298 9.75643 20.9882 9.58023 20.8123 9.58023Z" fill="#1481B7"/>
<path d="M18.9175 13.0458C18.7934 12.8915 18.5931 12.8915 18.469 13.0458C18.345 13.2002 18.345 13.4493 18.469 13.6036L19.2165 14.5332C19.2781 14.6097 19.3602 14.6486 19.4413 14.6486C19.5224 14.6486 19.6035 14.6097 19.666 14.5332C19.7901 14.3788 19.7901 14.1297 19.666 13.9754L18.9185 13.0458H18.9175Z" fill="#1481B7"/>
<path d="M13.0822 13.0458L12.3348 13.9754C12.2107 14.1297 12.2107 14.3788 12.3348 14.5332C12.3963 14.6097 12.4784 14.6486 12.5595 14.6486C12.6406 14.6486 12.7217 14.6097 12.7842 14.5332L13.5317 13.6036C13.6558 13.4493 13.6558 13.2002 13.5317 13.0458C13.4076 12.8915 13.2073 12.8915 13.0832 13.0458H13.0822Z" fill="#1481B7"/>
</g>
<defs>
<clipPath id="clip0_233_30">
<rect width="32" height="18" fill="white"/>
</clipPath>
</defs>
</svg>
