<svg xmlns="http://www.w3.org/2000/svg" width="1em" height="1em" viewBox="0 0 24 24"><path fill="currentColor" d="M5.615 20q-.69 0-1.152-.462Q4 19.075 4 18.385V5.615q0-.69.463-1.152Q4.925 4 5.615 4h12.77q.69 0 1.152.463q.463.462.463 1.152v12.77q0 .69-.462 1.152q-.463.463-1.153.463H5.615ZM5 8h14V5.615q0-.23-.192-.423Q18.615 5 18.385 5H5.615q-.23 0-.423.192Q5 5.385 5 5.615V8Zm14 1H5v9.385q0 .23.192.423q.193.192.423.192h12.77q.23 0 .423-.192q.192-.193.192-.423V9ZM5 8v1v-1Zm0 0V5v3Zm0 1v10V9Z"/></svg>