<svg width="32" height="25" viewBox="0 0 32 25" fill="none" xmlns="http://www.w3.org/2000/svg">
<g clip-path="url(#clip0_182_114)">
<path d="M30.8493 15.9686H28.298V12.5249C28.298 12.1139 27.978 11.7801 27.584 11.7801H16.6274V9.03141H19.1787C19.8124 9.03141 20.3294 8.49346 20.3294 7.83115V1.20026C20.3294 0.539267 19.8136 0 19.1787 0H12.8201C12.1864 0 11.6693 0.537958 11.6693 1.20026V7.83115C11.6693 8.49215 12.1851 9.03141 12.8201 9.03141H15.3713V11.7801H4.416C4.02196 11.7801 3.70196 12.1139 3.70196 12.5249V15.9686H1.15075C0.51702 15.9686 0 16.5065 0 17.1688V23.801C0 24.462 0.515765 25.0013 1.15075 25.0013H7.50808C8.1418 25.0013 8.65882 24.4634 8.65882 23.801V17.1688C8.65882 16.5079 8.14306 15.9686 7.50808 15.9686H4.95686V13.089H15.3725V15.9686H12.8213C12.1876 15.9686 11.6706 16.5065 11.6706 17.1688V23.801C11.6706 24.462 12.1864 25.0013 12.8213 25.0013H19.1799C19.8136 25.0013 20.3307 24.4634 20.3307 23.801V17.1688C20.3307 16.5079 19.8149 15.9686 19.1799 15.9686H16.6287V13.089H27.0444V15.9686H24.4932C23.8594 15.9686 23.3424 16.5065 23.3424 17.1688V23.801C23.3424 24.462 23.8582 25.0013 24.4932 25.0013H30.8518C31.4855 25.0013 32.0025 24.4634 32.0025 23.801V17.1688C32.0025 16.5079 31.4867 15.9686 30.8518 15.9686H30.8493ZM12.9255 1.3089H19.0745V7.72251H12.9255V1.3089ZM7.40392 17.2775V23.6911H1.2549V17.2775H7.40392ZM19.0745 17.2775V23.6911H12.9255V17.2775H19.0745ZM30.7451 23.6911H24.5961V17.2775H30.7451V23.6911Z" fill="#1589C7"/>
</g>
<defs>
<clipPath id="clip0_182_114">
<rect width="32" height="25" fill="white"/>
</clipPath>
</defs>
</svg>
