<svg width="28" height="32" viewBox="0 0 28 32" fill="none" xmlns="http://www.w3.org/2000/svg">
<g clip-path="url(#clip0_416_7)">
<path d="M19.9737 6.14902H7.8563C7.34098 6.14902 6.92419 5.75624 6.92419 5.27059V2.63529C6.92419 1.18212 8.17854 0 9.72051 0H18.1095C19.6514 0 20.9058 1.18212 20.9058 2.63529V5.27059C20.9058 5.75624 20.489 6.14902 19.9737 6.14902ZM8.7884 4.39216H19.0416V2.63529C19.0416 2.1509 18.6234 1.75686 18.1095 1.75686H9.72051C9.20652 1.75686 8.7884 2.1509 8.7884 2.63529V4.39216Z" fill="#00A8EB"/>
<path d="M21.192 32H6.39155C6.37158 32 6.35293 32 6.33296 31.9988C4.36888 31.8833 3.19576 30.6635 3.19576 28.7373C3.19576 28.0094 2.51932 18.8938 1.88549 10.6039C1.86684 10.3605 1.95606 10.1208 2.13316 9.94259C2.30893 9.7644 2.5566 9.66275 2.81493 9.66275H24.9072C25.1575 9.66275 25.3985 9.75812 25.5729 9.92628C25.7487 10.0957 25.8446 10.3241 25.8393 10.56C25.814 11.6781 25.4664 16.1556 25.1322 20.4863C24.8379 24.2874 24.5596 27.8789 24.501 29.1363C24.4877 30.0863 23.6728 32 21.192 32ZM6.42218 30.2431H21.192C22.5116 30.2431 22.6275 29.2367 22.6368 29.1012C22.6368 29.0924 22.6368 29.0836 22.6368 29.0761C22.6954 27.8074 22.975 24.1895 23.272 20.3595C23.545 16.8333 23.8259 13.2091 23.9324 11.4209H3.81761C4.24238 16.9914 5.05997 27.845 5.05997 28.7385C5.05997 29.9784 5.7444 30.2005 6.42218 30.2444V30.2431ZM16.9776 26.9177C16.4623 26.9177 16.0455 26.5249 16.0455 26.0392V14.7451C16.0455 14.2595 16.4623 13.8667 16.9776 13.8667C17.4929 13.8667 17.9097 14.2595 17.9097 14.7451V26.0392C17.9097 26.5249 17.4929 26.9177 16.9776 26.9177ZM10.8523 26.9177C10.337 26.9177 9.92023 26.5249 9.92023 26.0392V14.7451C9.92023 14.2595 10.337 13.8667 10.8523 13.8667C11.3677 13.8667 11.7844 14.2595 11.7844 14.7451V26.0392C11.7844 26.5249 11.3677 26.9177 10.8523 26.9177Z" fill="#00A8EB"/>
<path d="M26.8979 11.4196H0.932105C0.416784 11.4196 0 11.0268 0 10.5412V8.03764C0 6.02729 1.61254 4.39215 3.59526 4.39215H24.2347C26.2175 4.39215 27.83 6.02729 27.83 8.03764V10.5412C27.83 11.0268 27.4132 11.4196 26.8979 11.4196ZM1.86421 9.66274H25.9658V8.03764C25.9658 6.99607 25.1895 6.14901 24.2347 6.14901H3.59526C2.64052 6.14901 1.86421 6.99607 1.86421 8.03764V9.66274Z" fill="#00A8EB"/>
</g>
<defs>
<clipPath id="clip0_416_7">
<rect width="27.83" height="32" fill="white"/>
</clipPath>
</defs>
</svg>
