<svg width="32" height="32" viewBox="0 0 32 32" fill="none" xmlns="http://www.w3.org/2000/svg">
<g clip-path="url(#clip0_166_110)">
<path d="M31.0375 0H0.96251C0.432941 0 0 0.515888 0 1.14692V30.8531C0 31.4841 0.432941 32 0.96251 32H31.0375C31.5671 32 32 31.4841 32 30.8531V1.14692C32 0.515888 31.5671 0 31.0375 0ZM11.7961 2.24299H15.0588V4.18692H11.7961V2.24299ZM19.3506 14.714C20.1525 15.2464 20.1525 16.7521 19.3506 17.2845L13.6345 21.0766C12.9067 21.5596 12.0458 20.8643 12.0458 19.7907V12.2064C12.0458 11.1342 12.9054 10.4374 13.6345 10.9204L19.3506 14.7125V14.714ZM4.76863 29.757H1.50588V27.8131H4.76863V29.757ZM4.76863 4.18692H1.50588V2.24299H4.76863V4.18692ZM9.91373 29.757H6.65098V27.8131H9.91373V29.757ZM9.91373 4.18692H6.65098V2.24299H9.91373V4.18692ZM15.0588 29.757H11.7961V27.8131H15.0588V29.757ZM20.2039 29.757H16.9412V27.8131H20.2039V29.757ZM20.2039 4.18692H16.9412V2.24299H20.2039V4.18692ZM25.349 29.757H22.0863V27.8131H25.349V29.757ZM25.349 4.18692H22.0863V2.24299H25.349V4.18692ZM30.4941 29.757H27.2314V27.8131H30.4941V29.757ZM30.4941 4.18692H27.2314V2.24299H30.4941V4.18692Z" fill="#208FCD"/>
</g>
<defs>
<clipPath id="clip0_166_110">
<rect width="32" height="32" fill="white"/>
</clipPath>
</defs>
</svg>
