<svg xmlns="http://www.w3.org/2000/svg" width="16" height="16" viewBox="0 0 24 24"><path fill="#7D8591" d="m19 3l-6 6l2 2l7-7V3m-10 9.5a.5.5 0 0 1-.5-.5a.5.5 0 0 1 .5-.5a.5.5 0 0 1 .5.5a.5.5 0 0 1-.5.5M6 20a2 2 0 0 1-2-2a2 2 0 0 1 2-2a2 2 0 0 1 2 2a2 2 0 0 1-2 2M6 8a2 2 0 0 1-2-2a2 2 0 0 1 2-2a2 2 0 0 1 2 2a2 2 0 0 1-2 2m3.64-.36c.23-.5.36-1.05.36-1.64a4 4 0 0 0-4-4a4 4 0 0 0-4 4a4 4 0 0 0 4 4c.59 0 1.14-.13 1.64-.36L10 12l-2.36 2.36C7.14 14.13 6.59 14 6 14a4 4 0 0 0-4 4a4 4 0 0 0 4 4a4 4 0 0 0 4-4c0-.59-.13-1.14-.36-1.64L12 14l7 7h3v-1z"/></svg>
