<svg xmlns="http://www.w3.org/2000/svg" width="1em" height="1em" viewBox="0 0 32 32"><path fill="currentColor" d="M23.024 5.673C21.28 3.98 19.4 2.623 17.856 2.437a1.835 1.835 0 0 0-.263-.02H7.438a.606.606 0 0 0-.436.18a.624.624 0 0 0-.18.436v25.75a.615.615 0 0 0 .616.615h18.364a.61.61 0 0 0 .434-.18a.613.613 0 0 0 .182-.435V11.648c-.036-1.99-1.594-4.158-3.394-5.975zm2.16 22.49H8.052V3.647h9.542v.002c.416-.025.775.386 1.05 1.326c.25.895.313 2.062.312 2.87c.002.594-.027.992-.027.992l-.05.652l.656.007c.003 0 1.516.018 3 .355c1.426.308 2.54.922 2.645 1.617c.005.062.006.124.005.182v16.514z"/></svg>