<?xml version="1.0" encoding="UTF-8"?>
<svg id="Calque_1" data-name="Calque 1" xmlns="http://www.w3.org/2000/svg" viewBox="0 0 5.29 9.55">
  <defs>
    <style>
      .cls-1 {
        fill: none;
        stroke-width: 0px;
      }

      .cls-2 {
        stroke: #000;
        stroke-miterlimit: 10;
        stroke-width: 0px;
      }
    </style>
  </defs>
  <path class="cls-2" d="M4.68,8.24H.61c-.17,0-.32-.06-.43-.18-.12-.12-.17-.27-.17-.44V1.93c0-.18.06-.32.17-.44.12-.12.26-.18.43-.18h2.63l2.05,2.09v4.22c0,.18-.06.32-.17.44-.12.12-.26.18-.44.18ZM4.68,7.85c.06,0,.11-.02.16-.07.05-.05.07-.1.07-.16V3.56l-1.83-1.87H.61c-.06,0-.11.02-.16.07-.05.05-.07.1-.07.16v5.69c0,.06.02.11.07.16.05.05.1.07.16.07h4.06ZM.38,7.85V1.7v6.16Z"/>
  <rect class="cls-1" x="0" y="8.48" width="5.28" height="1.07"/>
  <rect class="cls-1" x="0" width="5.28" height="1.07"/>
</svg>