<svg width="23" height="32" viewBox="0 0 23 32" fill="none" xmlns="http://www.w3.org/2000/svg">
<path d="M21.6338 10.6251H15.2663L21.3229 0.846256C21.3316 0.831256 21.3415 0.817506 21.3514 0.802506C21.5756 0.467503 21.3489 0.00250002 20.9475 0C20.9438 0 20.9401 0 20.9376 0H13.257C12.6561 0 12.1358 0.365003 11.9029 0.886256L4.19753 16.1451C4.19753 16.1451 4.19505 16.1501 4.19381 16.1539C4.00056 16.5426 4.29911 17.0001 4.73022 17.0001H10.233L4.37592 31.2452C4.1616 31.8302 4.91108 32.2752 5.30751 31.799L22.0761 11.5813C22.3907 11.2026 22.1232 10.6251 21.6338 10.6251Z" fill="#EB881D"/>
<path d="M6.62765 14.3752C10.288 14.3752 13.2553 11.381 13.2553 7.68761C13.2553 3.99418 10.288 1.00006 6.62765 1.00006C2.9673 1.00006 0 3.99418 0 7.68761C0 11.381 2.9673 14.3752 6.62765 14.3752Z" fill="#E62424"/>
<path d="M8.0285 7.68752L10.1555 5.54126C10.3686 5.32626 10.3686 4.975 10.1555 4.76125L9.52746 4.1275C9.31439 3.9125 8.96628 3.9125 8.75444 4.1275L6.6274 6.27376L4.50036 4.1275C4.28728 3.9125 3.93918 3.9125 3.72734 4.1275L3.09926 4.76125C2.88618 4.97625 2.88618 5.32751 3.09926 5.54126L5.2263 7.68752L3.09926 9.83379C2.88618 10.0488 2.88618 10.4 3.09926 10.6138L3.72734 11.2475C3.94041 11.4626 4.28852 11.4626 4.50036 11.2475L6.6274 9.10128L8.75444 11.2475C8.96752 11.4626 9.31563 11.4626 9.52746 11.2475L10.1555 10.6138C10.3686 10.3988 10.3686 10.0475 10.1555 9.83379L8.0285 7.68752Z" fill="white"/>
</svg>
