<svg width="28" height="32" viewBox="0 0 28 32" fill="none" xmlns="http://www.w3.org/2000/svg">
<path d="M13.9022 13.6134L7.19043 5.49752H10.3072V0H17.4972V5.49752H20.614L13.9022 13.6134ZM9.8848 6.76306L13.9022 11.6215L17.9196 6.76306H16.2251V1.26554H11.5793V6.76306H9.8848Z" fill="#E7841D"/>
<path d="M27.732 11.9848C27.213 10.5218 24.6382 9.17657 20.5801 8.46533L19.1082 10.2308C22.1206 10.7269 24.142 11.6406 24.142 12.6872C24.142 14.2628 19.5573 15.5397 13.9014 15.5397C8.24547 15.5397 3.66071 14.2628 3.66071 12.6872C3.66071 11.6418 5.68212 10.7281 8.69453 10.2308L7.22267 8.46533C3.16457 9.17657 0.589778 10.5218 0.0707486 11.9848C-0.0564646 12.491 -0.0348383 13.2402 0.325175 13.63L11.3927 27.1726V31.135C11.3927 31.7488 12.0186 32.1677 12.5898 31.9348L15.8134 30.6224C16.1403 30.4896 16.3528 30.1732 16.3528 29.8226V27.2409L27.4763 13.6287C27.8363 13.239 27.8579 12.4898 27.7307 11.9835L27.732 11.9848Z" fill="#1480AD"/>
</svg>
