<svg width="32" height="25" viewBox="0 0 32 25" fill="none" xmlns="http://www.w3.org/2000/svg">
<g clip-path="url(#clip0_269_43)">
<path d="M6.29393 18.3152C7.13109 18.3152 7.81052 18.9807 7.81052 19.8007V20.4944C7.81052 21.3397 8.5127 22.029 9.37715 22.029H22.6245C23.4875 22.029 24.1912 21.3412 24.1912 20.4944V14.4736L22.0027 16.6172C21.707 16.9069 21.3188 17.0525 20.9305 17.0525C20.5423 17.0525 20.154 16.9069 19.8583 16.6172C19.2653 16.0363 19.2653 15.096 19.8583 14.5167L24.6355 9.83723C25.2285 9.25787 26.1885 9.25787 26.78 9.83723L31.5572 14.5167C32.1502 15.0975 32.1502 16.0378 31.5572 16.6172C31.2615 16.9069 30.8733 17.0525 30.485 17.0525C30.0968 17.0525 29.7085 16.9069 29.4128 16.6172L27.2244 14.4736V20.4944C27.2244 22.9782 25.1618 25 22.6245 25H9.37715C6.84142 25 4.77734 22.9797 4.77734 20.4944V19.8007C4.77734 18.9807 5.45678 18.3152 6.29393 18.3152Z" fill="#E7841D"/>
<path d="M0.444739 8.38285C0.740474 8.09317 1.12872 7.94759 1.51697 7.94759C1.90521 7.94759 2.29346 8.09317 2.58919 8.38285L4.77763 10.5265V4.50562C4.77763 2.02032 6.84019 0 9.37744 0H22.6248C25.1606 0 27.2246 2.02032 27.2246 4.50562V5.19936C27.2246 6.01937 26.5452 6.68489 25.7081 6.68489C24.8709 6.68489 24.1915 6.01937 24.1915 5.19936V4.50562C24.1915 3.66035 23.4893 2.97106 22.6248 2.97106H9.37744C8.5145 2.97106 7.8108 3.65886 7.8108 4.50562V10.5265L9.99924 8.38285C10.295 8.09317 10.6832 7.94759 11.0715 7.94759C11.4597 7.94759 11.848 8.09317 12.1437 8.38285C12.7367 8.96369 12.7367 9.90404 12.1437 10.4834L7.36644 15.1628C6.77346 15.7422 5.81346 15.7422 5.22199 15.1628L0.444739 10.4834C-0.148246 9.90255 -0.148246 8.96221 0.444739 8.38285Z" fill="#1480AD"/>
</g>
<defs>
<clipPath id="clip0_269_43">
<rect width="32" height="25" fill="white"/>
</clipPath>
</defs>
</svg>
