<svg width="32" height="31" viewBox="0 0 32 31" fill="none" xmlns="http://www.w3.org/2000/svg">
<g clip-path="url(#clip0_263_32)">
<path d="M12.918 13.6891H25.2411C25.5913 14.5538 26.4286 15.1633 27.4064 15.1633C28.6994 15.1633 29.747 14.0995 29.747 12.7865C29.747 11.4736 28.6994 10.4098 27.4064 10.4098C26.4286 10.4098 25.5908 11.0193 25.2411 11.884H12.918V3.27937H25.2411C25.5913 4.14404 26.4286 4.75359 27.4064 4.75359C28.6994 4.75359 29.747 3.68975 29.747 2.37679C29.747 1.06384 28.6994 0 27.4064 0C26.4286 0 25.5908 0.609542 25.2411 1.47421H11.1403V11.884H4.50591C4.1557 11.0193 3.3184 10.4098 2.34065 10.4098C1.04766 10.4098 0 11.4736 0 12.7865C0 14.0995 1.04766 15.1633 2.34065 15.1633C3.3184 15.1633 4.15629 14.5538 4.50591 13.6891H11.1403V24.0989H25.2411C25.5913 24.9635 26.4286 25.5731 27.4064 25.5731C28.6994 25.5731 29.747 24.5092 29.747 23.1963C29.747 21.8833 28.6994 20.8195 27.4064 20.8195C26.4286 20.8195 25.5908 21.429 25.2411 22.2937H12.918V13.6891Z" fill="#1480AC"/>
<path d="M28.5334 23.8516C29.6356 23.8516 30.4889 24.1602 31.0933 24.7776C31.6977 25.395 31.9999 26.2777 31.9999 27.4258C31.9999 28.5739 31.6977 29.4476 31.0933 30.0685C30.4889 30.6895 29.6356 31 28.5334 31H25.8135V23.8516H28.5334ZM28.4587 29.8086C29.1271 29.8086 29.6302 29.6046 29.968 29.1966C30.3058 28.7887 30.4746 28.1984 30.4746 27.4258C30.4746 26.6532 30.3058 26.0629 29.968 25.6549C29.6302 25.2469 29.1271 25.043 28.4587 25.043H27.2854V29.8086H28.4587Z" fill="#E7841D"/>
</g>
<defs>
<clipPath id="clip0_263_32">
<rect width="32" height="31" fill="white"/>
</clipPath>
</defs>
</svg>
