<svg width="32" height="27" viewBox="0 0 32 27" fill="none" xmlns="http://www.w3.org/2000/svg">
<g clip-path="url(#clip0_263_27)">
<path d="M13.0149 15.1894H25.4304C25.7833 16.0487 26.6269 16.6545 27.6119 16.6545C28.9146 16.6545 29.9701 15.5972 29.9701 14.2924C29.9701 12.9875 28.9146 11.9302 27.6119 11.9302C26.6269 11.9302 25.7827 12.536 25.4304 13.3953H13.0149V4.84385H25.4304C25.7833 5.70319 26.6269 6.30897 27.6119 6.30897C28.9146 6.30897 29.9701 5.25169 29.9701 3.94684C29.9701 2.64199 28.9146 1.58472 27.6119 1.58472C26.6269 1.58472 25.7827 2.1905 25.4304 3.04983H11.2239V13.3953H4.5397C4.18687 12.536 3.34328 11.9302 2.35821 11.9302C1.05552 11.9302 0 12.9875 0 14.2924C0 15.5972 1.05552 16.6545 2.35821 16.6545C3.34328 16.6545 4.18746 16.0487 4.5397 15.1894H11.2239V25.5349H25.4304C25.7833 26.3942 26.6269 27 27.6119 27C28.9146 27 29.9701 25.9427 29.9701 24.6379C29.9701 23.333 28.9146 22.2757 27.6119 22.2757C26.6269 22.2757 25.7827 22.8815 25.4304 23.7409H13.0149V15.1894Z" fill="#1480AC"/>
<path d="M31.9996 7.83389H9.96973V0H31.9996V7.83389ZM10.8652 6.93688H31.1041V0.89701H10.8652V6.93688Z" fill="#E7841D"/>
</g>
<defs>
<clipPath id="clip0_263_27">
<rect width="32" height="27" fill="white"/>
</clipPath>
</defs>
</svg>
