<svg width="26" height="32" viewBox="0 0 26 32" fill="none" xmlns="http://www.w3.org/2000/svg">
<g clip-path="url(#clip0_466_21)">
<path d="M25.4153 10.625H18.9841L25.1012 0.84625C25.11 0.83125 25.12 0.8175 25.13 0.8025C25.3565 0.4675 25.1275 0.0025 24.7221 0C24.7184 0 24.7146 0 24.7121 0H16.9547C16.3478 0 15.8223 0.365 15.5871 0.88625L7.80461 16.145C7.80461 16.145 7.80211 16.15 7.80086 16.1537C7.60567 16.5425 7.90721 17 8.34263 17H13.9005L7.98478 31.245C7.76833 31.83 8.5253 32.275 8.92569 31.7987L25.862 11.5813C26.1798 11.2025 25.9095 10.625 25.4153 10.625Z" fill="#EB881D"/>
<path d="M14.7976 8.78495C14.9102 8.53495 14.9715 8.26495 14.9715 7.98245C14.9715 7.52995 14.8126 7.1087 14.5399 6.7512C14.5899 6.57745 14.6174 6.3962 14.6174 6.20995C14.6174 5.66245 14.3885 5.15995 14.0044 4.76245C14.0181 4.66495 14.0256 4.56745 14.0256 4.46745C14.0256 3.12995 13.2574 2.2812 11.1866 2.33995C10.496 2.29995 9.97548 2.3187 9.58385 2.3887C7.88973 2.59495 6.18183 3.4087 5.39107 3.5212H5.26971C4.9469 3.5212 4.68164 3.78495 4.68164 4.1087V10.2012C4.68164 10.5237 4.94564 10.7887 5.26971 10.7887H5.33227C5.80522 10.9074 7.34295 13.0337 7.7571 13.4474C8.23005 13.7424 8.46653 14.9249 8.6442 15.7512C8.76306 16.2237 9.17596 16.8737 9.59011 16.8737C10.3583 16.8737 11.2455 16.6374 11.542 15.5737C11.8973 14.5687 11.542 13.0924 10.9502 12.2062C10.9276 12.1724 10.9226 12.0762 10.9076 12.0137C11.6421 12.0212 12.4316 12.0287 13.2561 12.0287C14.4385 11.9699 15.2668 11.3199 15.3256 10.1387C15.3256 9.63495 15.1292 9.1687 14.7964 8.78495H14.7976Z" fill="#0580BD"/>
<path d="M3.44063 3.52246H0.896932C0.506557 3.52246 0.1875 3.84121 0.1875 4.23121V10.08C0.1875 10.47 0.506557 10.7887 0.896932 10.7887H3.44063C3.831 10.7887 4.15006 10.47 4.15006 10.08V4.23121C4.15006 3.84121 3.831 3.52246 3.44063 3.52246ZM1.99173 5.94496C1.64891 5.94496 1.37114 5.66746 1.37114 5.32496C1.37114 4.98246 1.64891 4.70496 1.99173 4.70496C2.33456 4.70496 2.61233 4.98246 2.61233 5.32496C2.61233 5.66746 2.33456 5.94496 1.99173 5.94496V5.94496Z" fill="white"/>
<path d="M3.44081 10.9775H0.897113C0.401636 10.9775 0 10.575 0 10.0812V4.23121C0 3.73746 0.402887 3.33496 0.897113 3.33496H3.44081C3.93628 3.33496 4.33792 3.73746 4.33792 4.23121V10.08C4.33792 10.5737 3.93503 10.9762 3.44081 10.9762V10.9775ZM0.897113 3.70996C0.609336 3.70996 0.375361 3.94371 0.375361 4.23121V10.08C0.375361 10.3675 0.609336 10.6012 0.897113 10.6012H3.44081C3.72858 10.6012 3.96256 10.3675 3.96256 10.08V4.23121C3.96256 3.94371 3.72858 3.70996 3.44081 3.70996H0.897113ZM1.99066 6.13246C1.54524 6.13246 1.18239 5.76996 1.18239 5.32496C1.18239 4.87996 1.54524 4.51746 1.99066 4.51746C2.43609 4.51746 2.79894 4.87996 2.79894 5.32496C2.79894 5.76996 2.43609 6.13246 1.99066 6.13246ZM1.99066 4.89121C1.75168 4.89121 1.55775 5.08496 1.55775 5.32371C1.55775 5.56246 1.75168 5.75621 1.99066 5.75621C2.22964 5.75621 2.42358 5.56246 2.42358 5.32371C2.42358 5.08496 2.22964 4.89121 1.99066 4.89121Z" fill="#0580BD"/>
</g>
<defs>
<clipPath id="clip0_466_21">
<rect width="26" height="32" fill="white"/>
</clipPath>
</defs>
</svg>
