<svg width="27" height="32" viewBox="0 0 27 32" fill="none" xmlns="http://www.w3.org/2000/svg">
<path d="M10.3547 0C11.9711 0 13.2844 1.2938 13.2844 2.88627V31.3274C13.2844 31.6988 12.9787 32 12.6016 32H8.10656C7.72953 32 7.42383 31.6988 7.42383 31.3274V2.88627C7.42383 1.2938 8.73707 0 10.3535 0H10.3547Z" fill="#126987"/>
<path d="M20.0996 26.2274H2.16522C1.32454 26.2274 0.636719 25.5498 0.636719 24.7215V19.3255C0.636719 18.4972 1.32454 17.8196 2.16522 17.8196H20.0818C20.4397 17.8196 20.7887 17.9363 21.0728 18.1509L24.7616 20.9393C25.6405 21.4588 25.6405 22.7124 24.7616 23.232L21.0652 25.915C20.7862 26.1182 20.4474 26.2274 20.0996 26.2274Z" fill="white"/>
<path d="M2.16538 26.8549H20.0998C20.5864 26.8549 21.0513 26.7043 21.4423 26.4207L25.1158 23.754C25.7056 23.3926 26.0559 22.7727 26.0559 22.0863C26.0559 21.3998 25.7069 20.7837 25.1209 20.4223L21.4589 17.6527C21.0666 17.3553 20.5762 17.1921 20.0807 17.1921H2.16538C0.971873 17.1921 0 18.1496 0 19.3255V24.7216C0 25.8974 0.971873 26.8549 2.16538 26.8549ZM20.082 18.447C20.2985 18.447 20.5125 18.5186 20.6845 18.6491L24.4013 21.4601L24.4331 21.4789C24.749 21.6646 24.7834 21.9658 24.7834 22.0875C24.7834 22.2092 24.749 22.5092 24.4331 22.6961L24.3822 22.7288L20.6857 25.4117C20.515 25.536 20.3112 25.6012 20.0985 25.6012H2.16538C1.67371 25.6012 1.27375 25.2072 1.27375 24.7228V19.3267C1.27375 18.8423 1.67371 18.4483 2.16538 18.4483H20.082V18.447Z" fill="#1480AE"/>
</svg>
