<svg width="22" height="32" viewBox="0 0 22 32" fill="none" xmlns="http://www.w3.org/2000/svg">
<path d="M5.36542 31.9086C5.12862 31.8099 4.93185 31.6361 4.80613 31.4146C4.68042 31.1932 4.63293 30.9368 4.67115 30.6857L6.7771 17.143H1.18824C1.01105 17.1478 0.835142 17.1122 0.674077 17.0391C0.513012 16.966 0.371098 16.8574 0.259285 16.7216C0.147472 16.5857 0.0687484 16.4263 0.0291884 16.2557C-0.0103717 16.085 -0.00971044 15.9077 0.0311206 15.7374L3.50247 0.880397C3.56355 0.624709 3.71196 0.397612 3.92271 0.237335C4.13346 0.077058 4.39369 -0.00661244 4.65958 0.000408465H16.2307C16.4036 -0.000172067 16.5744 0.0375093 16.7306 0.110684C16.8868 0.183859 17.0244 0.290667 17.1333 0.42326C17.2437 0.557351 17.3219 0.71444 17.362 0.882702C17.4021 1.05096 17.403 1.22601 17.3647 1.39468L15.3629 10.286H20.8592C21.0761 10.2856 21.2887 10.3453 21.4728 10.4585C21.657 10.5717 21.8052 10.7336 21.9006 10.926C21.9835 11.1106 22.0154 11.3136 21.9931 11.5144C21.9707 11.7151 21.8949 11.9064 21.7733 12.0688L6.73082 31.4971C6.62915 31.646 6.49341 31.7691 6.33459 31.8565C6.17577 31.9438 5.99835 31.993 5.8167 32C5.66186 31.9971 5.50889 31.9662 5.36542 31.9086V31.9086ZM12.4701 12.5717L14.7843 2.28609H5.58527L2.6462 14.8574H9.48475L7.64494 26.6058L18.545 12.5717H12.4701Z" fill="#00A9EC"/>
</svg>
