<svg width="33" height="30" viewBox="0 0 33 30" fill="none" xmlns="http://www.w3.org/2000/svg">
<path d="M31.899 4.61156L28.0117 0.141489C27.9335 0.0518245 27.82 0 27.7016 0H18.0679C16.7 0 15.5879 1.11299 15.5879 2.48017V18.5696C15.5879 19.9376 16.7008 21.0498 18.0679 21.0498H29.5211C30.889 21.0498 32.001 19.9368 32.001 18.5696V4.8822C32.001 4.78266 31.9648 4.68724 31.8999 4.61238L31.899 4.61156ZM29.5202 20.2272H18.0671C17.1532 20.2272 16.4096 19.4835 16.4096 18.5696V2.48017C16.4096 1.56625 17.1532 0.822611 18.0671 0.822611H27.5132L27.5181 0.828369V5.09114H31.1768V18.5696C31.1768 19.4835 30.4333 20.2272 29.5194 20.2272H29.5202Z" fill="#1480AE"/>
<path d="M2.62305 18.665L16.0619 9.40655L13.6822 5.95158L26.0805 5.8866L21.6026 17.4492L19.2229 13.9951L5.7841 23.2536L2.62305 18.665Z" fill="#E8851D"/>
<path d="M16.312 13.0022L12.4238 8.53126C12.3456 8.4416 12.2321 8.38977 12.1137 8.38977H2.47999C1.11209 8.38977 0 9.50276 0 10.8699V26.9594C0 28.3274 1.11291 29.4396 2.47999 29.4396H13.9332C15.3011 29.4396 16.4131 28.3266 16.4131 26.9594V13.2728C16.4131 13.1733 16.377 13.0778 16.312 13.003V13.0022ZM13.9332 28.6178H2.47999C1.56613 28.6178 0.822549 27.8741 0.822549 26.9602V10.8708C0.822549 9.95684 1.56613 9.2132 2.47999 9.2132H11.9261L11.9311 9.21896V13.4817H15.5898V26.9602C15.5898 27.8741 14.8462 28.6178 13.9323 28.6178H13.9332Z" fill="#1480AE"/>
<path d="M18.2344 14.7207L21.6258 11.3291C21.9647 10.9901 21.9647 10.4349 21.6258 10.096L20.6239 9.09403C20.285 8.75511 19.7298 8.75511 19.3909 9.09403L15.9995 12.4857L12.6082 9.09403C12.2693 8.75511 11.7141 8.75511 11.3752 9.09403L10.3733 10.096C10.0344 10.4349 10.0344 10.9901 10.3733 11.3291L13.7647 14.7207L10.3733 18.1123C10.0344 18.4512 10.0344 19.0065 10.3733 19.3454L11.3752 20.3473C11.7141 20.6863 12.2693 20.6863 12.6082 20.3473L15.9995 16.9557L19.3909 20.3473C19.7298 20.6863 20.285 20.6863 20.6239 20.3473L21.6258 19.3454C21.9647 19.0065 21.9647 18.4512 21.6258 18.1123L18.2344 14.7207Z" fill="#E32424"/>
</svg>
