<svg xmlns="http://www.w3.org/2000/svg" width="1em" height="1em" viewBox="0 0 48 48"><path fill="none" stroke="currentColor" stroke-linecap="round" stroke-linejoin="round" d="M14.51 10.51H24V20h-9.49ZM24 20h9.49v9.49H24Z"/><path fill="none" stroke="currentColor" stroke-linecap="round" stroke-linejoin="round" d="M24 4.5s-11.26 2-15.25 2v20a11.16 11.16 0 0 0 .8 4.1a15 15 0 0 0 2 3.61a22 22 0 0 0 2.81 3.07a34.47 34.47 0 0 0 3 2.48a34 34 0 0 0 2.89 1.86c1 .59 1.71 1 2.13 1.19l1 .49a1.44 1.44 0 0 0 1.24 0l1-.49c.42-.2 1.13-.6 2.13-1.19a34 34 0 0 0 2.89-1.86a34.47 34.47 0 0 0 3-2.48a22 22 0 0 0 2.81-3.07a15 15 0 0 0 2-3.61a11.16 11.16 0 0 0 .8-4.1v-20c-3.99.03-15.25-2-15.25-2Z"/></svg>