<svg width="31" height="32" viewBox="0 0 31 32" fill="none" xmlns="http://www.w3.org/2000/svg">
<path d="M4.32688 13.0676V7.77925H17.7875V13.0676H19.0694V6.72157C19.0694 5.67235 18.2062 4.81775 17.1465 4.81775H4.96786C3.90811 4.81775 3.04492 5.67235 3.04492 6.72157V13.0676H4.32688ZM9.08081 6.03408H13.0335C13.1809 6.03408 13.3006 6.15254 13.3006 6.2985C13.3006 6.44446 13.1809 6.56292 13.0335 6.56292H9.08081C8.93339 6.56292 8.81374 6.44446 8.81374 6.2985C8.81374 6.15254 8.93339 6.03408 9.08081 6.03408Z" fill="#1480AE"/>
<path d="M17.7875 23.7504V28.5099H4.32688V23.7504H3.04492V30.0964C3.04492 31.1456 3.90811 32.0002 4.96786 32.0002H17.1465C18.2062 32.0002 19.0694 31.1456 19.0694 30.0964V23.7504H17.7875ZM11.0572 31.207C10.5262 31.207 10.0957 30.7807 10.0957 30.2551C10.0957 29.7294 10.5262 29.3032 11.0572 29.3032C11.5881 29.3032 12.0186 29.7294 12.0186 30.2551C12.0186 30.7807 11.5881 31.207 11.0572 31.207Z" fill="#1480AE"/>
<path d="M12.2961 16.7218C12.0868 16.5473 11.7716 16.4606 11.3528 16.4606H10.1553V18.5505H11.3528C11.7727 18.5505 12.0868 18.4617 12.2961 18.284C12.5055 18.1063 12.6102 17.8472 12.6102 17.5056C12.6102 17.1639 12.5055 16.8963 12.2961 16.7218Z" fill="#1480AE"/>
<path d="M18.8518 16.7218C18.6424 16.5473 18.3273 16.4606 17.9085 16.4606H16.7109V18.5505H17.9085C18.3283 18.5505 18.6424 18.4617 18.8518 18.284C19.0612 18.1063 19.1659 17.8472 19.1659 17.5056C19.1659 17.1639 19.0612 16.8963 18.8518 16.7218Z" fill="#1480AE"/>
<path d="M3.49805 19.3544H5.43594L4.46165 16.4606L3.49805 19.3544Z" fill="#1480AE"/>
<path d="M20.8318 13.0676H1.28196C0.576882 13.0676 0 13.6388 0 14.3368V22.481C0 23.179 0.576882 23.7502 1.28196 23.7502H20.8318C21.5369 23.7502 22.1138 23.179 22.1138 22.481V14.3368C22.1138 13.6388 21.5369 13.0676 20.8318 13.0676ZM6.30831 21.9976L5.75066 20.3804H3.18246L2.62481 21.9976H1.19329L3.6397 15.366H5.31372L7.76013 21.9976H6.30831ZM13.7319 18.6564C13.5321 18.9748 13.2501 19.2191 12.8848 19.3904C12.5194 19.5618 12.0793 19.6464 11.5654 19.6464H10.1542V21.9976H8.75364V15.366H11.5654C12.0793 15.366 12.5194 15.4516 12.8848 15.6219C13.2501 15.7922 13.5321 16.0376 13.7319 16.3549C13.9317 16.6732 14.031 17.0572 14.031 17.5056C14.031 17.9541 13.9306 18.338 13.7319 18.6564ZM20.2881 18.6564C20.0883 18.9748 19.8063 19.2191 19.4409 19.3904C19.0756 19.5618 18.6354 19.6464 18.1216 19.6464H16.7103V21.9976H15.3098V15.366H18.1216C18.6354 15.366 19.0756 15.4516 19.4409 15.6219C19.8063 15.7922 20.0883 16.0376 20.2881 16.3549C20.4878 16.6732 20.5872 17.0572 20.5872 17.5056C20.5872 17.9541 20.4868 18.338 20.2881 18.6564Z" fill="#1480AE"/>
<path d="M29.9771 8.3419H24.8824L29.7271 0.664221C29.7346 0.652587 29.7421 0.640952 29.7496 0.630376C29.9291 0.367014 29.7474 0.00211535 29.427 0C29.4237 0 29.4216 0 29.4184 0H23.2725C22.7917 0 22.3762 0.286631 22.1892 0.695952L16.023 12.6763C16.023 12.6763 16.0209 12.6805 16.0198 12.6826C15.8649 12.9883 16.1042 13.3479 16.4493 13.3479H20.8528L16.1662 24.5328C15.9942 24.9919 16.5945 25.3419 16.9108 24.9675L30.3307 9.09391C30.5818 8.7967 30.3681 8.34402 29.9771 8.34402V8.3419Z" fill="#E8851D"/>
</svg>
