<svg width="29" height="32" viewBox="0 0 29 32" fill="none" xmlns="http://www.w3.org/2000/svg">
<circle cx="14.5" cy="15.5" r="14" stroke="#00A9EC"/>
<path d="M14.182 9.093C14.2 9.075 14.362 9.066 14.668 9.066C14.992 9.102 15.217 9.129 15.343 9.147C15.937 9.327 16.423 9.633 16.801 10.065L16.936 10.254L17.125 10.065C17.611 9.615 18.115 9.489 18.637 9.687C18.907 9.777 19.087 9.948 19.177 10.2C19.249 10.416 19.204 10.866 19.042 11.55C18.934 12.018 18.682 13.035 18.286 14.601C17.656 17.067 17.323 18.426 17.287 18.678C17.215 19.074 17.224 19.398 17.314 19.65C17.422 19.938 17.629 20.064 17.935 20.028C18.151 20.01 18.376 19.839 18.61 19.515C18.862 19.137 19.123 18.435 19.393 17.409C19.465 17.103 19.546 16.932 19.636 16.896C19.69 16.878 19.861 16.869 20.149 16.869C20.491 16.869 20.68 16.887 20.716 16.923C20.824 16.995 20.824 17.202 20.716 17.544C20.248 19.218 19.645 20.325 18.907 20.865C18.619 21.081 18.331 21.216 18.043 21.27C17.665 21.324 17.26 21.297 16.828 21.189C16.018 21.009 15.442 20.586 15.1 19.92L15.019 19.731L14.857 19.866C13.435 21.09 12.031 21.522 10.645 21.162C10.249 21.054 9.88 20.892 9.538 20.676C8.512 19.956 7.927 18.885 7.783 17.463C7.711 16.977 7.72 16.455 7.81 15.897C8.044 14.385 8.665 12.999 9.673 11.739C10.015 11.325 10.393 10.947 10.807 10.605C11.833 9.759 12.868 9.264 13.912 9.12C13.984 9.102 14.074 9.093 14.182 9.093ZM14.965 10.416C14.605 10.326 14.308 10.308 14.074 10.362C13.516 10.47 12.976 10.785 12.454 11.307C11.932 11.865 11.473 12.855 11.077 14.277C10.987 14.601 10.888 14.979 10.78 15.411C10.474 16.635 10.321 17.544 10.321 18.138C10.321 18.696 10.438 19.137 10.672 19.461C11.014 19.911 11.491 20.091 12.103 20.001C12.787 19.929 13.489 19.533 14.209 18.813C14.533 18.489 14.776 18.192 14.938 17.922C14.938 17.976 15.181 17.031 15.667 15.087L16.342 12.306L16.315 12.117C16.081 11.217 15.631 10.65 14.965 10.416Z" fill="#00A9EC"/>
</svg>
