<svg width="32" height="32" viewBox="0 0 32 32" fill="none" xmlns="http://www.w3.org/2000/svg">
<path d="M30.4937 12.5213L27.7141 12.22C27.7141 12.22 27.7191 12.2163 27.7191 12.215C27.7003 11.9838 27.2347 10.77 26.9611 10.31L28.708 8.14625C29.24 7.43875 29.2049 6.52 28.6189 5.93625L26.0451 3.3725C25.459 2.78875 24.5367 2.75375 23.8264 3.28375L21.6404 5.03375C21.4571 4.87375 20.0768 4.24875 19.7467 4.23L19.4493 1.5C19.3238 0.625 18.6462 0 17.8179 0H14.1787C13.3505 0 12.6728 0.625 12.5473 1.5L12.2499 4.23C11.9199 4.25 10.5395 4.875 10.3563 5.03375L8.17025 3.28375C7.45997 2.75375 6.53762 2.78875 5.95158 3.3725L3.37778 5.93625C2.79174 6.52 2.7566 7.43875 3.28868 8.14625L5.0355 10.31C4.76193 10.77 4.29636 11.985 4.27754 12.215C4.27754 12.2175 4.28005 12.2188 4.28256 12.22L1.50295 12.5213C0.624521 12.6463 -0.00292969 13.3213 -0.00292969 14.1463V17.7713C-0.00292969 18.5963 0.624521 19.2713 1.50295 19.3963L4.24366 19.6925C4.26374 20.0213 4.89119 21.3963 5.05056 21.5788L3.2937 23.7563C2.76162 24.4638 2.79676 25.3825 3.3828 25.9663L5.9566 28.53C6.54264 29.1138 7.46499 29.1488 8.17527 28.6188L10.2998 26.9175C10.5947 27.1363 11.758 27.5813 12.196 27.6925L12.5022 30.5013C12.6277 31.3763 13.3053 32.0013 14.1335 32.0013H17.8619C18.6901 32.0013 19.3677 31.3763 19.4932 30.5013L19.7994 27.6925C20.2386 27.5813 21.4007 27.1363 21.6956 26.9175L23.8201 28.6188C24.5304 29.1488 25.4528 29.1138 26.0388 28.53L28.6126 25.9663C29.1986 25.3825 29.2338 24.4638 28.7017 23.7563L26.9448 21.5788C27.1055 21.3963 27.7329 20.0213 27.7517 19.6925L30.4924 19.3963C31.3709 19.2713 31.9983 18.5963 31.9983 17.7713V14.1463C31.9983 13.3213 31.3709 12.6463 30.4924 12.5213H30.4937ZM19.1757 23.6913C19.1293 23.67 19.0829 23.65 19.0352 23.6313C19.0992 23.6063 19.1619 23.5813 19.2247 23.5538C19.2071 23.6 19.1908 23.645 19.1757 23.6913ZM15.9996 22.8138C12.2223 22.8138 9.16036 19.7638 9.16036 16.0013C9.16036 12.2388 12.2223 9.18875 15.9996 9.18875C19.7768 9.18875 22.8388 12.2388 22.8388 16.0013C22.8388 19.7638 19.7768 22.8138 15.9996 22.8138Z" fill="#2D80BD"/>
</svg>
