<svg width="21" height="32" viewBox="0 0 21 32" fill="none" xmlns="http://www.w3.org/2000/svg">
<g clip-path="url(#clip0_541_6)">
<path d="M3.95948 0.56177C2.93929 -0.294326 1.4184 -0.161368 0.562476 0.85874C-0.293444 1.87885 -0.160274 3.39981 0.859919 4.25591L17.043 17.836C18.0632 18.6921 19.5841 18.5591 20.44 17.539C21.296 16.5189 21.1628 14.9979 20.1426 14.1418L3.95948 0.56177Z" fill="#15809F"/>
<path d="M17.0421 14.1643L0.858943 27.7443C-0.161251 28.6004 -0.294421 30.1214 0.5615 31.1415C1.41742 32.1616 2.93831 32.2946 3.9585 31.4385L20.1416 17.8584C21.1618 17.0023 21.295 15.4813 20.4391 14.4612C19.5831 13.4411 18.0622 13.3082 17.0421 14.1643Z" fill="#15809F"/>
</g>
<defs>
<clipPath id="clip0_541_6">
<rect width="21" height="32" fill="white"/>
</clipPath>
</defs>
</svg>
