<svg width="32" height="31" viewBox="0 0 32 31" fill="none" xmlns="http://www.w3.org/2000/svg">
<g clip-path="url(#clip0_281_29)">
<path d="M24.7644 21.1606C22.9931 21.1606 21.4377 22.0844 20.5582 23.4701L9.8754 18.6604C9.91296 18.4171 9.93174 18.1675 9.93174 17.9149C9.93174 17.6746 9.91296 17.439 9.8801 17.2081L20.5786 12.3922C21.4611 13.7609 23.0071 14.6692 24.7644 14.6692C27.5028 14.6692 29.7311 12.462 29.7311 9.74947C29.7311 7.03697 27.5028 4.82977 24.7644 4.82977C22.026 4.82977 19.7978 7.03697 19.7978 9.74947C19.7978 10.2455 19.8729 10.7244 20.0121 11.177L9.49985 15.9092C8.72372 14.1933 6.98367 12.9952 4.96665 12.9952C2.22826 12.9952 0 15.2024 0 17.9149C0 20.6274 2.22826 22.8346 4.96665 22.8346C6.97115 22.8346 8.70024 21.6519 9.48421 19.9547L20.0012 24.6899C19.8697 25.1317 19.7978 25.5982 19.7978 26.0803C19.7978 28.7928 22.026 31 24.7644 31C27.5028 31 29.7311 28.7928 29.7311 26.0803C29.7311 23.3678 27.5028 21.1606 24.7644 21.1606ZM24.7644 6.16742C26.7579 6.16742 28.3791 7.77322 28.3791 9.74792C28.3791 11.7226 26.7579 13.3284 24.7644 13.3284C22.7709 13.3284 21.1497 11.7226 21.1497 9.74792C21.1497 7.77322 22.7709 6.16742 24.7644 6.16742ZM20.0763 11.3677C20.0669 11.3413 20.0591 11.3165 20.0497 11.2902C20.0591 11.3165 20.0669 11.3413 20.0763 11.3677ZM20.3345 11.966C20.3345 11.966 20.3282 11.9551 20.3251 11.9489C20.3282 11.9551 20.3313 11.9598 20.3345 11.966ZM20.2594 11.8125C20.2547 11.8017 20.25 11.7908 20.2437 11.7784C20.2484 11.7893 20.2531 11.8001 20.2594 11.8125ZM20.1404 11.5382C20.1342 11.5211 20.1264 11.5041 20.1201 11.4855C20.1264 11.5025 20.1342 11.5196 20.1404 11.5382ZM9.6845 16.3804C9.6845 16.3804 9.68137 16.3742 9.68137 16.3695C9.68137 16.3726 9.6845 16.3757 9.6845 16.3804ZM9.85976 17.0763C9.85506 17.0531 9.85193 17.0283 9.84724 17.005C9.85193 17.0283 9.85663 17.0531 9.85976 17.0763ZM9.82064 16.8733C9.81907 16.8624 9.81594 16.8531 9.81281 16.8423C9.81438 16.8531 9.81751 16.8624 9.82064 16.8733ZM9.7424 16.5633C9.73927 16.5524 9.73614 16.54 9.73301 16.5292C9.73614 16.54 9.73927 16.5524 9.7424 16.5633ZM4.96822 21.4954C2.97467 21.4954 1.35355 19.8896 1.35355 17.9149C1.35355 15.9402 2.97467 14.3344 4.96822 14.3344C6.96176 14.3344 8.58288 15.9402 8.58288 17.9149C8.58288 19.8896 6.96176 21.4954 4.96822 21.4954ZM9.68293 19.4571C9.67668 19.4757 9.67042 19.4943 9.66416 19.5129C9.67042 19.4943 9.67668 19.4757 9.68293 19.4571ZM9.8754 18.6744C9.86445 18.741 9.8535 18.8061 9.83941 18.8728C9.85193 18.8077 9.86445 18.741 9.8754 18.6744ZM9.82377 18.9441C9.81281 18.9906 9.80186 19.0371 9.7909 19.0836C9.80186 19.0371 9.81281 18.9906 9.82377 18.9441ZM9.77213 19.1611C9.75648 19.2184 9.74083 19.2758 9.72205 19.3331C9.73927 19.2758 9.75648 19.22 9.77213 19.1611ZM20.0591 24.5148C20.0591 24.5148 20.0544 24.5256 20.0528 24.5318C20.0544 24.5256 20.0575 24.521 20.0591 24.5148ZM20.4769 23.6049C20.4769 23.6049 20.4706 23.6158 20.4675 23.622C20.4706 23.6158 20.4737 23.6111 20.4769 23.6049ZM20.2468 24.0451C20.2468 24.0451 20.2406 24.0606 20.2359 24.0668C20.239 24.0591 20.2422 24.0513 20.2468 24.0451ZM24.7675 29.6592C22.774 29.6592 21.1529 28.0534 21.1529 26.0787C21.1529 24.104 22.774 22.4982 24.7675 22.4982C26.7611 22.4982 28.3822 24.104 28.3822 26.0787C28.3822 28.0534 26.7611 29.6592 24.7675 29.6592Z" fill="#1480A9"/>
<path d="M23.7068 2.325V0H17.5259V0.0775V2.325V15.035V17.36H19.8731H23.7068V15.035H19.8731V2.325H23.7068Z" fill="#E2801D"/>
<path d="M25.8188 2.325V0H31.9998V0.0775V2.325V15.035V17.36H29.6526H25.8188V15.035H29.6526V2.325H25.8188Z" fill="#E2801D"/>
</g>
<defs>
<clipPath id="clip0_281_29">
<rect width="32" height="31" fill="white"/>
</clipPath>
</defs>
</svg>
