<svg width="32" height="30" viewBox="0 0 32 30" fill="none" xmlns="http://www.w3.org/2000/svg">
<g clip-path="url(#clip0_281_11)">
<path d="M25.1441 9.74837C25.0736 9.74837 25.0031 9.73054 24.9379 9.6928C24.7627 9.5932 24.6889 9.39295 24.7595 9.20528L24.7637 9.19479L25.9572 6.37135H25.1056C24.9593 6.37135 24.8257 6.29796 24.7477 6.17529C24.674 6.05787 24.6654 5.91528 24.7242 5.79051L24.7317 5.77479L26.5106 2.34849C26.6132 2.13251 26.8355 1.99307 27.0769 1.99307H28.8538C29.0044 1.99412 29.1369 2.0738 29.2053 2.20066C29.2747 2.32962 29.2662 2.48374 29.1839 2.60431L28.0503 4.38351H29.0151C29.1786 4.38351 29.3217 4.47368 29.3912 4.61836C29.4606 4.76305 29.4382 4.92975 29.3335 5.05241L25.4529 9.60159C25.3717 9.69699 25.2584 9.74627 25.142 9.74627L25.1441 9.74837ZM25.3418 5.81987H26.8002L25.673 8.4871L28.6999 4.93813H27.0353L28.5578 2.54665H27.078C27.0491 2.54665 27.0288 2.56657 27.0214 2.58334L27.016 2.59488L25.3418 5.81882V5.81987Z" fill="#1580A7"/>
<path d="M7.47913 30L18.0268 18.8195L7.47913 7.63892V13.8394H0V23.7995H7.47913V30ZM15.8429 18.8195L9.0818 25.9866V22.2269H1.60267V15.412H9.0818V11.6523L15.8429 18.8195Z" fill="#E2801D"/>
<path d="M20.5145 30V23.7995H27.9936V13.8394H20.5145V7.63892L9.9668 18.8195L20.5145 30ZM26.391 22.2269H18.9118V25.9866L12.1507 18.8195L18.9118 11.6523V15.412H26.391V22.2269Z" fill="#1480A7"/>
<path d="M1.60267 18.8719V22.2269H9.0818V25.9866L15.7938 18.8719H17.9777L7.47913 30V23.7995H0V18.8719H1.60267Z" fill="#E2801D"/>
<path d="M26.3376 1.57266V0H22.1172V0.0524219V1.57266V10.1698V11.7425H23.7199H26.3376V10.1698H23.7199V1.57266H26.3376Z" fill="#E2801D"/>
<path d="M27.7793 1.57266V0H31.9997V0.0524219V1.57266V10.1698V11.7425H30.397H27.7793V10.1698H30.397V1.57266H27.7793Z" fill="#E2801D"/>
</g>
<defs>
<clipPath id="clip0_281_11">
<rect width="32" height="30" fill="white"/>
</clipPath>
</defs>
</svg>
