<svg width="23" height="32" viewBox="0 0 23 32" fill="none" xmlns="http://www.w3.org/2000/svg">
<g clip-path="url(#clip0_437_38)">
<path d="M23.0001 15.9995C23.0001 15.9865 23.0001 15.9735 23.0001 15.9605C22.9957 14.6658 22.4388 13.3806 21.3614 12.4883L7.56041 1.05827C5.6202 -0.549205 2.70074 -0.297066 1.07231 1.6189C-0.556116 3.53415 -0.300691 6.41605 1.64025 8.02353L11.2703 15.9995L1.64025 23.9762C-0.299959 25.5837 -0.555384 28.4656 1.07231 30.3808C2.70074 32.2961 5.6202 32.5482 7.56041 30.9415L21.3607 19.5107C22.438 18.6184 22.995 17.3339 22.9994 16.0392C22.9994 16.0262 22.9994 16.0125 22.9994 15.9995H23.0001Z" fill="#1580A5"/>
</g>
<defs>
<clipPath id="clip0_437_38">
<rect width="23" height="32" fill="white"/>
</clipPath>
</defs>
</svg>
