<svg width="18" height="32" viewBox="0 0 18 32" fill="none" xmlns="http://www.w3.org/2000/svg">
<g clip-path="url(#clip0_425_2)">
<path d="M17.4255 10.625H11.086L17.1147 0.84625C17.1234 0.83125 17.1332 0.8175 17.1431 0.8025C17.3663 0.4675 17.1406 0.0025 16.741 0C16.7373 0 16.7336 0 16.7311 0H9.08417C8.48598 0 7.96796 0.365 7.73608 0.88625L0.0644366 16.145C0.0644366 16.145 0.0619698 16.15 0.0607364 16.1537C-0.131671 16.5425 0.165574 17 0.594792 17H6.07225L0.24081 31.245C0.0274351 31.83 0.773632 32.275 1.16831 31.7987L17.8659 11.5813C18.1791 11.2025 17.9127 10.625 17.4255 10.625Z" fill="#0580BD"/>
</g>
<defs>
<clipPath id="clip0_425_2">
<rect width="18" height="32" fill="white"/>
</clipPath>
</defs>
</svg>
