<svg xmlns="http://www.w3.org/2000/svg" width="1em" height="1em" viewBox="0 0 24 24"><path fill="currentColor" d="M11.975 14.083q-.865 0-1.462-.596q-.596-.597-.596-1.462t.596-1.462q.597-.596 1.462-.596t1.462.596q.596.597.596 1.462t-.596 1.462q-.597.596-1.462.596Zm0 6.917l-3.712-3.73l.714-.714l3.004 3.004l2.998-2.998l.708.726L11.975 21Zm-5.27-5.244l-3.71-3.712l3.73-3.73l.713.713l-3.003 3.004l2.998 2.998l-.727.727Zm2.266-8.318l-.727-.707l3.712-3.712l3.73 3.712l-.713.713L11.97 4.44L8.971 7.438Zm8.292 8.299l-.713-.714l3.004-3.004l-2.998-2.998l.707-.708l3.712 3.712l-3.712 3.712Z"/></svg>