<svg width="32" height="29" viewBox="0 0 32 29" fill="none" xmlns="http://www.w3.org/2000/svg">
<path d="M30.6724 11.0628L28.2197 10.7967C28.2197 10.7967 28.2242 10.7934 28.2242 10.7923C28.2076 10.588 27.7967 9.51557 27.5554 9.10915L29.0967 7.19742C29.5662 6.57233 29.5352 5.76059 29.0181 5.24483L26.747 2.97969C26.2299 2.46393 25.416 2.43301 24.7893 2.90128L22.8604 4.44745C22.6987 4.30608 21.4807 3.75388 21.1895 3.73731L20.927 1.32529C20.8163 0.552204 20.2184 0 19.4875 0H16.2763C15.5455 0 14.9476 0.552204 14.8369 1.32529L14.5744 3.73731C14.2832 3.75498 13.0652 4.30719 12.9035 4.44745L10.9746 2.90128C10.3478 2.43301 9.53397 2.46393 9.01686 2.97969L6.74577 5.24483C6.22866 5.76059 6.19766 6.57233 6.66716 7.19742L8.20852 9.10915C7.96713 9.51557 7.55632 10.5891 7.53971 10.7923C7.53971 10.7945 7.54193 10.7956 7.54414 10.7967L5.09146 11.0628C4.31635 11.1733 3.7627 11.7697 3.7627 12.4986V15.7014C3.7627 16.4303 4.31635 17.0266 5.09146 17.1371L7.50981 17.3988C7.52753 17.6893 8.08118 18.9041 8.22181 19.0654L6.67159 20.9893C6.20209 21.6144 6.23309 22.4261 6.7502 22.9418L9.02129 25.207C9.5384 25.7227 10.3523 25.7537 10.979 25.2854L12.8537 23.7823C13.1139 23.9756 14.1404 24.3687 14.5268 24.467L14.797 26.9486C14.9077 27.7217 15.5057 28.2739 16.2365 28.2739H19.5263C20.2571 28.2739 20.8551 27.7217 20.9658 26.9486L21.236 24.467C21.6235 24.3687 22.6489 23.9756 22.9091 23.7823L24.7838 25.2854C25.4105 25.7537 26.2244 25.7227 26.7415 25.207L29.0126 22.9418C29.5297 22.4261 29.5607 21.6144 29.0912 20.9893L27.541 19.0654C27.6827 18.9041 28.2363 17.6893 28.253 17.3988L30.6713 17.1371C31.4464 17.0266 32.0001 16.4303 32.0001 15.7014V12.4986C32.0001 11.7697 31.4464 11.1733 30.6713 11.0628H30.6724ZM20.6856 20.9318C20.6447 20.9131 20.6037 20.8954 20.5616 20.8788C20.6181 20.8567 20.6735 20.8346 20.7288 20.8103C20.7133 20.8512 20.6989 20.891 20.6856 20.9318ZM17.883 20.1565C14.5501 20.1565 11.8482 17.4618 11.8482 14.1375C11.8482 10.8132 14.5501 8.1185 17.883 8.1185C21.216 8.1185 23.9179 10.8132 23.9179 14.1375C23.9179 17.4618 21.216 20.1565 17.883 20.1565Z" fill="#2D80AE"/>
<path d="M9.74428 14.1364L5.31506 8.77563V10.4068H0V17.866H5.31506V19.4972L9.74428 14.1364Z" fill="#E6831D"/>
</svg>
