<svg width="32" height="31" viewBox="0 0 32 31" fill="none" xmlns="http://www.w3.org/2000/svg">
<g clip-path="url(#clip0_275_96)">
<path d="M30.4334 11.2197L27.9998 10.9497C27.9998 10.9497 28.0042 10.9464 28.0042 10.9453C27.9877 10.7381 27.5801 9.65047 27.3406 9.23829L28.87 7.29945C29.3358 6.6655 29.3051 5.84225 28.792 5.31918L26.5386 3.02193C26.0255 2.49886 25.218 2.4675 24.5961 2.94241L22.6822 4.5105C22.5218 4.36713 21.3133 3.8071 21.0243 3.7903L20.764 1.34408C20.6541 0.560032 20.0608 0 19.3357 0H16.1495C15.4244 0 14.8311 0.560032 14.7212 1.34408L14.4609 3.7903C14.1719 3.80822 12.9634 4.36825 12.803 4.5105L10.8891 2.94241C10.2672 2.4675 9.45969 2.49886 8.94661 3.02193L6.69323 5.31918C6.18015 5.84225 6.14938 6.6655 6.61522 7.29945L8.14458 9.23829C7.90507 9.65047 7.49746 10.7392 7.48098 10.9453C7.48098 10.9475 7.48317 10.9486 7.48537 10.9497L5.05181 11.2197C4.28274 11.3317 3.7334 11.9365 3.7334 12.6758V15.9239C3.7334 16.6632 4.28274 17.268 5.05181 17.38L7.45131 17.6455C7.46889 17.9401 8.01823 19.1721 8.15776 19.3357L6.61962 21.2868C6.15378 21.9208 6.18454 22.744 6.69762 23.2671L8.951 25.5643C9.46409 26.0874 10.2716 26.1188 10.8935 25.6439L12.7535 24.1194C13.0117 24.3155 14.0302 24.7142 14.4136 24.8139L14.6817 27.3307C14.7916 28.1147 15.3848 28.6748 16.11 28.6748H19.3741C20.0993 28.6748 20.6925 28.1147 20.8024 27.3307L21.0705 24.8139C21.455 24.7142 22.4724 24.3155 22.7306 24.1194L24.5906 25.6439C25.2125 26.1188 26.02 26.0874 26.5331 25.5643L28.7865 23.2671C29.2996 22.744 29.3303 21.9208 28.8645 21.2868L27.3263 19.3357C27.467 19.1721 28.0163 17.9401 28.0328 17.6455L30.4323 17.38C31.2014 17.268 31.7507 16.6632 31.7507 15.9239V12.6758C31.7507 11.9365 31.2014 11.3317 30.4323 11.2197H30.4334ZM20.5244 21.2286C20.4838 21.2095 20.4431 21.1916 20.4014 21.1748C20.4574 21.1524 20.5124 21.13 20.5673 21.1054C20.5519 21.1468 20.5376 21.1871 20.5244 21.2286ZM17.7437 20.4423C14.4367 20.4423 11.7559 17.7093 11.7559 14.3379C11.7559 10.9665 14.4367 8.23359 17.7437 8.23359C21.0507 8.23359 23.7315 10.9665 23.7315 14.3379C23.7315 17.7093 21.0507 20.4423 17.7437 20.4423Z" fill="#2D80AE"/>
<path d="M9.66834 14.3369L5.27364 8.90015V10.5545H0V18.1194H5.27364V19.7737L9.66834 14.3369Z" fill="#E6831D"/>
<path d="M31.9996 31H29.8001L28.9541 28.4754H25.0626L24.2166 31H22.0479L25.7548 20.6506H28.2927L31.9996 31ZM25.5394 26.8759H28.4773L27.0007 22.3599L25.5394 26.8759Z" fill="#E5821D"/>
</g>
<defs>
<clipPath id="clip0_275_96">
<rect width="32" height="31" fill="white"/>
</clipPath>
</defs>
</svg>
