<svg xmlns="http://www.w3.org/2000/svg" width="1em" height="1em" viewBox="0 0 24 24"><path fill="currentColor" d="M5.615 19q-.69 0-1.152-.462Q4 18.075 4 17.385V4.615q0-.69.463-1.152Q4.925 3 5.615 3h12.77q.69 0 1.152.463q.463.462.463 1.152v5.227q-.244-.148-.485-.247q-.24-.099-.515-.174V4.615q0-.269-.173-.442T18.385 4H5.615q-.269 0-.442.173T5 4.615v9h3.57q.376 0 .563.119q.186.118.311.362q.293.556.756.91t1.021.504q.021.269.054.522t.088.522q-.88-.137-1.6-.643q-.72-.507-1.186-1.296H5v2.77q0 .269.173.442t.442.173h6.44q.157.28.314.521q.158.24.368.479H5.615Zm0-1H5h7.056h-6.44Zm11.072.365q-.55-.125-.928-.33q-.378-.204-.73-.597l-.517.21q-.137.05-.268.016t-.211-.164l-.139-.23q-.1-.132-.079-.287q.022-.156.147-.262l.42-.34q-.184-.512-.184-1.016q0-.503.185-1.034l-.421-.36q-.125-.106-.156-.252q-.031-.146.069-.277l.158-.25q.08-.13.211-.164t.268.016l.517.21q.333-.373.74-.588q.406-.214.918-.34l.07-.503q.031-.156.134-.259q.103-.102.265-.102h.277q.161 0 .264.102q.103.103.134.26l.07.503q.512.106.91.33q.397.224.749.597l.517-.21q.136-.05.267-.016t.212.164l.157.25q.1.131.07.277q-.031.146-.156.252l-.421.36q.204.55.194 1.044q-.01.494-.213 1.006l.42.34q.087.067.147.223t-.06.325l-.138.231q-.081.13-.212.164q-.13.034-.267-.016l-.517-.21q-.352.374-.73.588q-.378.214-.928.34l-.071.503q-.031.156-.134.259q-.103.103-.264.103h-.277q-.162 0-.265-.103q-.103-.103-.133-.259l-.071-.504Zm.607-.865q.883 0 1.519-.636q.635-.635.635-1.518t-.636-1.518q-.635-.636-1.518-.636q-.882 0-1.518.636q-.636.635-.636 1.518t.636 1.518q.636.636 1.518.636Z"/></svg>