<svg xmlns="http://www.w3.org/2000/svg" width="1em" height="1em" viewBox="0 0 24 24"><path fill="currentColor" d="M5 18h7.056q.156.28.313.521q.158.24.368.479H4V3h16v6.842q-.244-.148-.485-.247q-.24-.099-.515-.174V4H5v9.615h4.2q.225.695.77 1.195t1.251.7q.021.269.054.522t.088.522q-.88-.137-1.6-.643q-.72-.507-1.186-1.296H5V18Zm0 0h7.056H5Zm11.794 1.23l-.107-.865q-.55-.125-.928-.33q-.378-.204-.73-.597l-.816.335l-.538-.815l.708-.577q-.185-.512-.185-1.016q0-.503.185-1.034l-.708-.596l.538-.816l.816.335q.333-.373.74-.588q.406-.214.918-.34l.107-.864h1l.108.865q.511.106.909.33q.397.224.749.597l.815-.335l.538.816l-.707.596q.204.55.194 1.044q-.01.494-.213 1.006l.726.577l-.538.815l-.815-.335q-.352.374-.73.588q-.378.214-.928.34l-.108.865h-1Zm.5-1.73q.883 0 1.519-.636q.635-.635.635-1.518t-.636-1.518q-.635-.636-1.518-.636q-.882 0-1.518.636q-.636.635-.636 1.518t.636 1.518q.636.636 1.518.636Z"/></svg>