<svg width="24" height="32" viewBox="0 0 24 32" fill="none" xmlns="http://www.w3.org/2000/svg">
<path d="M23.1949 10.6249H16.721L22.8788 0.846242C22.8876 0.831242 22.8977 0.817492 22.9078 0.802492C23.1357 0.467496 22.9052 0.00249998 22.4972 0C22.4934 0 22.4896 0 22.4871 0H14.678C14.0672 0 13.5382 0.364997 13.3014 0.886242L5.46715 16.1448C5.46715 16.1448 5.46463 16.1498 5.46337 16.1536C5.26688 16.5423 5.57043 16.9998 6.00874 16.9998H11.6035L5.64852 31.2447C5.43062 31.8297 6.19263 32.2747 6.59568 31.7985L23.6446 11.5811C23.9645 11.2024 23.6924 10.6249 23.1949 10.6249Z" fill="#EB881D"/>
<path d="M14.0887 2.83498C12.6314 1.38875 10.2698 1.38875 8.81256 2.83498L7.59083 4.04747L6.36909 2.83498C4.91182 1.38875 2.55022 1.38875 1.09295 2.83498C-0.364317 4.28122 -0.364317 6.62495 1.09295 8.07118L7.58201 14.5111L7.59083 14.5024L7.59964 14.5111L14.0887 8.07118C15.546 6.62495 15.546 4.28122 14.0887 2.83498Z" fill="#0580BD"/>
</svg>
