<svg width="26" height="32" viewBox="0 0 26 32" fill="none" xmlns="http://www.w3.org/2000/svg">
<g clip-path="url(#clip0_190_152)">
<path d="M25.9883 7.30314C25.9857 7.28813 25.9792 7.27313 25.9752 7.25812C25.9687 7.23561 25.9622 7.2131 25.9531 7.19059C25.9466 7.17433 25.9375 7.15933 25.9296 7.14307C25.9192 7.12431 25.9101 7.1043 25.8971 7.08679C25.8866 7.07179 25.8762 7.05803 25.8645 7.04428C25.8554 7.03302 25.8489 7.02177 25.8397 7.01176L19.6818 0.215092C19.674 0.206339 19.6661 0.200086 19.6583 0.191332C19.6544 0.18633 19.6492 0.182578 19.6453 0.177576C19.6192 0.153816 19.5919 0.131306 19.5619 0.112548C19.5567 0.108797 19.5502 0.105045 19.545 0.101294C19.515 0.0825355 19.4837 0.0662785 19.4498 0.0525226C19.4446 0.0500215 19.4381 0.0475204 19.4316 0.0462699C19.3964 0.032514 19.3612 0.0212591 19.3247 0.0137559C19.3208 0.0137559 19.3169 0.0137559 19.313 0.0125054C19.2726 0.00500215 19.2322 0 19.1892 0H3.92854C1.76295 0 0 1.69198 0 3.77037V28.2296C0 30.3093 1.76295 32 3.92854 32H22.0715C24.2383 32 26 30.308 26 28.2296V7.42194C26 7.38192 25.9948 7.34191 25.987 7.30314H25.9883ZM19.842 2.29724L23.9191 6.79667H19.842V2.29724ZM22.0715 30.7495H3.92854C2.48091 30.7495 1.303 29.619 1.303 28.2296V3.77037C1.303 2.38102 2.48091 1.25054 3.92854 1.25054H18.5377V7.42194C18.5377 7.76709 18.8296 8.04721 19.1892 8.04721H24.697V28.2296C24.697 29.619 23.5191 30.7495 22.0715 30.7495Z" fill="#0886C7"/>
<path d="M20.625 14.071H8.63487C8.1697 14.071 7.79053 14.4362 7.79053 14.8814C7.79053 15.3266 8.171 15.6917 8.63487 15.6917H20.625C21.0902 15.6917 21.4694 15.3266 21.4694 14.8814C21.4694 14.4362 21.0889 14.071 20.625 14.071Z" fill="#0886C7"/>
<path d="M20.625 18.1903H8.63487C8.1697 18.1903 7.79053 18.5555 7.79053 19.0007C7.79053 19.4458 8.171 19.811 8.63487 19.811H20.625C21.0902 19.811 21.4694 19.4458 21.4694 19.0007C21.4694 18.5555 21.0889 18.1903 20.625 18.1903Z" fill="#0886C7"/>
<path d="M20.625 22.3096H8.63487C8.1697 22.3096 7.79053 22.6747 7.79053 23.1199C7.79053 23.5651 8.171 23.9303 8.63487 23.9303H20.625C21.0902 23.9303 21.4694 23.5651 21.4694 23.1199C21.4694 22.6747 21.0889 22.3096 20.625 22.3096Z" fill="#0886C7"/>
<path d="M5.37608 15.693C5.8424 15.693 6.22042 15.3302 6.22042 14.8826C6.22042 14.4351 5.8424 14.0723 5.37608 14.0723C4.90976 14.0723 4.53174 14.4351 4.53174 14.8826C4.53174 15.3302 4.90976 15.693 5.37608 15.693Z" fill="#0886C7"/>
<path d="M5.37608 19.8122C5.8424 19.8122 6.22042 19.4494 6.22042 19.0019C6.22042 18.5543 5.8424 18.1915 5.37608 18.1915C4.90976 18.1915 4.53174 18.5543 4.53174 19.0019C4.53174 19.4494 4.90976 19.8122 5.37608 19.8122Z" fill="#0886C7"/>
<path d="M5.37608 22.3096C4.90961 22.3096 4.53174 22.6722 4.53174 23.1199C4.53174 23.5676 4.90961 23.9303 5.37608 23.9303C5.84255 23.9303 6.22042 23.5676 6.22042 23.1199C6.22042 22.6722 5.84255 22.3096 5.37608 22.3096Z" fill="#0886C7"/>
</g>
<defs>
<clipPath id="clip0_190_152">
<rect width="26" height="32" fill="white"/>
</clipPath>
</defs>
</svg>
