<svg width="32" height="14" viewBox="0 0 32 14" fill="none" xmlns="http://www.w3.org/2000/svg">
<g clip-path="url(#clip0_467_35)">
<path d="M31.2828 1.32699C31.2616 1.27161 31.2429 1.21853 31.2267 1.17007C31.1219 0.865442 30.9798 0.447738 30.3227 0.207732L30.2466 0.184654C28.6967 -0.17651 26.4846 -0.00227394 24.1803 0.663514C21.9196 1.31661 19.8946 2.36664 18.5716 3.56436H13.4305C12.1075 2.36664 10.0825 1.31661 7.82179 0.663514C5.51497 -0.00227394 3.30416 -0.17651 1.75298 0.184654L1.67691 0.207732C1.02103 0.447738 0.87763 0.865442 0.772888 1.17007C0.756678 1.21853 0.737974 1.27161 0.718023 1.32353C0.241695 2.54203 -0.0201605 4.61208 -0.000209556 6.99484C-0.0214074 9.38683 0.240448 11.4569 0.716776 12.6754L0.769147 12.7942C0.92252 13.1369 1.13325 13.6066 1.68689 13.7958L1.75048 13.8143C2.28043 13.9377 2.88893 13.9989 3.55105 13.9989C4.82417 13.9989 6.30053 13.7739 7.8168 13.3354C9.97275 12.7123 11.913 11.7292 13.236 10.6007C13.2509 10.6007 13.2671 10.603 13.2833 10.603H18.6651C18.695 10.603 18.725 10.6007 18.7549 10.5972C20.0779 11.7269 22.0206 12.7123 24.1778 13.3354C25.6941 13.7739 27.1692 13.9989 28.4435 13.9989C29.1057 13.9989 29.7142 13.9377 30.2441 13.8143L30.3077 13.7958C30.8613 13.6066 31.0721 13.1369 31.2254 12.7942L31.2778 12.6754C31.7541 11.4569 32.016 9.38683 31.9948 7.00407C32.016 4.61208 31.7541 2.54203 31.2791 1.32699H31.2828ZM2.11708 12.71C2.05972 12.6592 1.97368 12.4688 1.92256 12.3523L1.88515 12.2704C1.46618 11.1892 1.22802 9.22298 1.24797 6.99484C1.22802 4.76786 1.46868 2.79473 1.89263 1.71239C1.91882 1.64316 1.94126 1.57854 1.96246 1.51738C1.9874 1.44584 2.02107 1.34776 2.03728 1.32699C2.03728 1.32699 2.05224 1.3143 2.10212 1.29353C4.71194 0.71313 9.9316 2.01124 12.5477 4.38131V5.14518C11.095 4.74709 8.35423 4.42631 7.3916 4.74593C7.13224 4.83247 6.99757 5.09671 7.09109 5.33672C7.18461 5.57673 7.47016 5.70134 7.72952 5.6148C8.43902 5.37941 11.3469 5.69327 12.5489 6.11443V7.76794C12.009 8.0091 9.5226 8.3968 9.03007 8.30565C8.75948 8.25488 8.49763 8.41757 8.44276 8.66797C8.38914 8.91836 8.56371 9.16067 8.8343 9.21144C8.91784 9.22644 9.0363 9.23452 9.18219 9.23452C9.98148 9.23452 11.5838 9.01644 12.5477 8.73835V9.62107C9.93659 11.9854 4.73439 13.2846 2.11833 12.7123L2.11708 12.71ZM18.1576 9.45029H13.7933V4.71824H18.1576V9.44914V9.45029ZM30.1132 12.2715L30.0758 12.3535C30.0234 12.47 29.9374 12.6627 29.8837 12.71C27.2527 13.2869 22.0019 11.9692 19.4045 9.57722V8.72335C20.3634 9.00836 22.0044 9.23336 22.8174 9.23336C22.9633 9.23336 23.0817 9.22644 23.1653 9.21029C23.4359 9.16067 23.6104 8.9172 23.5568 8.66681C23.5032 8.41642 23.2401 8.25372 22.9695 8.30449C22.462 8.39796 19.8272 7.98256 19.4045 7.74371V6.12943C20.5767 5.70019 23.5518 5.3748 24.2701 5.61365C24.5294 5.69904 24.815 5.57557 24.9085 5.33557C25.002 5.09556 24.8673 4.83132 24.608 4.74478C23.6341 4.42054 20.846 4.7517 19.4045 5.15671V4.42285C22.0056 2.02624 27.2702 0.707361 29.8975 1.29238C29.9461 1.31199 29.9611 1.32469 29.9611 1.32469C29.9798 1.34776 30.0122 1.44469 30.0371 1.51623C30.0583 1.57738 30.0808 1.642 30.1082 1.7147C30.5297 2.79242 30.7703 4.7667 30.7504 7.00292C30.7703 9.22067 30.5322 11.188 30.1132 12.2692V12.2715Z" fill="#00A9EC"/>
</g>
<defs>
<clipPath id="clip0_467_35">
<rect width="32" height="14" fill="white"/>
</clipPath>
</defs>
</svg>
