<svg width="25" height="32" viewBox="0 0 25 32" fill="none" xmlns="http://www.w3.org/2000/svg">
<g clip-path="url(#clip0_252_128)">
<path d="M24.8459 7.01051L18.9248 0.215092C18.8058 0.0787839 18.6329 0 18.4524 0H3.77744C1.69515 0 0 1.69198 0 3.77037V28.2296C0 30.3093 1.69515 32 3.77744 32H21.2226C23.3061 32 25 30.308 25 28.2296V7.42194C25 7.27062 24.9449 7.12556 24.8459 7.01176V7.01051ZM23.7471 28.2296C23.7471 29.619 22.6145 30.7495 21.2226 30.7495H3.77744C2.38549 30.7495 1.25288 29.619 1.25288 28.2296V3.77037C1.25288 2.38102 2.38549 1.25054 3.77744 1.25054H18.1655L18.173 1.25929V7.73958H23.7459V28.2296H23.7471Z" fill="#0580BD"/>
<path d="M13.8491 15.8205L17.7481 9.59159C17.7543 9.58284 17.7594 9.57284 17.7656 9.56408C17.9097 9.35024 17.7644 9.05511 17.5063 9.05261C17.5038 9.05261 17.5013 9.05261 17.5 9.05261H12.5536C12.1665 9.05261 11.832 9.28521 11.6816 9.6166L6.72021 19.3358C6.72021 19.337 6.71896 19.3395 6.71771 19.3408C6.59242 19.5884 6.78536 19.8798 7.0635 19.8798H10.6067L6.83548 28.9537C6.69766 29.3263 7.18002 29.6102 7.43561 29.3063L18.2355 16.4283C18.4384 16.1869 18.2655 15.8193 17.951 15.8193H13.8504L13.8491 15.8205Z" fill="#0580BD"/>
</g>
<defs>
<clipPath id="clip0_252_128">
<rect width="25" height="32" fill="white"/>
</clipPath>
</defs>
</svg>
