<svg width="32" height="30" viewBox="0 0 32 30" fill="none" xmlns="http://www.w3.org/2000/svg">
<g clip-path="url(#clip0_280_3)">
<path d="M7.47913 30L18.0268 18.8195L7.47913 7.63892V13.8394H0V23.7995H7.47913V30ZM15.8429 18.8195L9.0818 25.9866V22.2269H1.60267V15.412H9.0818V11.6523L15.8429 18.8195Z" fill="#E2801D"/>
<path d="M20.5145 30V23.7995H27.9936V13.8394H20.5145V7.63892L9.9668 18.8195L20.5145 30ZM26.391 22.2269H18.9118V25.9866L12.1507 18.8195L18.9118 11.6523V15.412H26.391V22.2269Z" fill="#1480A7"/>
<path d="M1.60267 18.8719V22.2269H9.0818V25.9866L15.7938 18.8719H17.9777L7.47913 30V23.7995H0V18.8719H1.60267Z" fill="#E2801D"/>
<path d="M26.3376 1.57266V0H22.1172V0.0524219V1.57266V10.1698V11.7425H23.7199H26.3376V10.1698H23.7199V1.57266H26.3376Z" fill="#E2801D"/>
<path d="M27.7793 1.57266V0H31.9997V0.0524219V1.57266V10.1698V11.7425H30.397H27.7793V10.1698H30.397V1.57266H27.7793Z" fill="#E2801D"/>
</g>
<defs>
<clipPath id="clip0_280_3">
<rect width="32" height="30" fill="white"/>
</clipPath>
</defs>
</svg>
