<svg width="32" height="32" viewBox="0 0 32 32" fill="none" xmlns="http://www.w3.org/2000/svg">
<g clip-path="url(#clip0_278_139)">
<path d="M24.6835 13.3343C24.5646 13.3343 24.4433 13.3034 24.3304 13.2393C24.0313 13.067 23.9052 12.7225 24.0265 12.4018L24.0337 12.384L26.0707 7.52899H24.6186C24.3688 7.52899 24.1406 7.40307 24.0085 7.19163C23.8824 6.98968 23.868 6.74378 23.9689 6.53115L23.9821 6.50382L27.0172 0.610587C27.1925 0.23877 27.5709 0 27.984 0H31.0167C31.2725 0.00237583 31.4995 0.138986 31.616 0.356374C31.7337 0.577326 31.7193 0.843418 31.5788 1.05012L29.6451 4.11018H31.2918C31.5704 4.11018 31.8154 4.26461 31.9331 4.51407C32.0508 4.76353 32.0124 5.04863 31.8346 5.26008L25.2144 13.0837C25.0762 13.2476 24.8829 13.3331 24.6847 13.3331L24.6835 13.3343ZM25.021 6.57866H27.5096L25.5855 11.1652L30.7501 5.0617H27.9108L30.5087 0.95033H27.984C27.9336 0.95033 27.8999 0.98478 27.8867 1.01448L27.8771 1.03467L25.021 6.57866Z" fill="#1580A7"/>
<path d="M23.06 32L11.2031 19.3321L23.06 6.66418V13.6895H31.4675V24.9747H23.06V32ZM13.6581 19.3321L21.2584 27.4527V23.1928H29.6659V15.4714H21.2584V11.2115L13.6581 19.3321Z" fill="#E2801D"/>
<path d="M8.40746 32V24.9747H0V13.6895H8.40746V6.66418L20.2644 19.3321L8.40746 32ZM1.8016 23.1928H10.2091V27.4527L17.8094 19.3321L10.2091 11.2115V15.4714H1.8016V23.1928Z" fill="#1480A7"/>
<path d="M29.6663 19.3915V23.1928H21.2589V27.4527L13.7138 19.3915H11.2588L23.0605 32V24.9747H31.4679V19.3915H29.6663Z" fill="#E2801D"/>
</g>
<defs>
<clipPath id="clip0_278_139">
<rect width="32" height="32" fill="white"/>
</clipPath>
</defs>
</svg>
