<svg xmlns="http://www.w3.org/2000/svg" width="1em" height="1em" viewBox="0 0 24 24"><path fill="currentColor" d="M18.002 21.5q-1.04 0-1.771-.73q-.731-.728-.731-1.77q0-.2.035-.413q.034-.214.103-.402l-7.742-4.562q-.367.414-.854.645Q6.556 14.5 6 14.5q-1.042 0-1.77-.728q-.73-.729-.73-1.77q0-1.04.73-1.771Q4.957 9.5 6 9.5q.556 0 1.042.232q.487.231.854.645l7.742-4.562q-.069-.188-.103-.402Q15.5 5.2 15.5 5q0-1.042.729-1.77q.728-.73 1.769-.73q1.04 0 1.771.729q.731.728.731 1.769q0 1.04-.73 1.771q-.728.731-1.77.731q-.556 0-1.042-.232q-.487-.231-.854-.645l-7.742 4.562q.069.188.103.4q.035.213.035.411q0 .198-.035.415q-.034.216-.103.404l7.742 4.562q.367-.414.854-.645q.486-.232 1.042-.232q1.042 0 1.77.729q.73.728.73 1.769q0 1.04-.728 1.771q-.729.731-1.77.731ZM18 6.5q.617 0 1.059-.441Q19.5 5.617 19.5 5t-.441-1.059Q18.617 3.5 18 3.5t-1.059.441Q16.5 4.383 16.5 5t.441 1.059Q17.383 6.5 18 6.5Zm-12 7q.617 0 1.059-.441Q7.5 12.617 7.5 12t-.441-1.059Q6.617 10.5 6 10.5t-1.059.441Q4.5 11.383 4.5 12t.441 1.059Q5.383 13.5 6 13.5Zm12 7q.617 0 1.059-.441q.441-.442.441-1.059t-.441-1.059Q18.617 17.5 18 17.5t-1.059.441Q16.5 18.383 16.5 19t.441 1.059q.442.441 1.059.441ZM18 5ZM6 12Zm12 7Z"/></svg>