<svg width="32" height="30" viewBox="0 0 32 30" fill="none" xmlns="http://www.w3.org/2000/svg">
<g clip-path="url(#clip0_297_28)">
<path d="M0 3.32268H12.2483V0L19.9393 5.52862L12.2483 11.0572V7.73559H0V3.32268Z" fill="#DE801D"/>
<path d="M26.9024 19.9147C25.085 19.9147 23.4883 20.8611 22.5853 22.2817L11.6224 17.3518C11.6605 17.1019 11.6812 16.8469 11.6812 16.5869C11.6812 16.3411 11.6626 16.0984 11.6276 15.8618L22.6069 10.9247C23.513 12.327 25.0995 13.2591 26.9034 13.2591C29.7134 13.2591 32.0009 10.9971 32.0009 8.21593C32.0009 5.43479 29.7145 3.17276 26.9034 3.17276C24.0923 3.17276 21.806 5.43479 21.806 8.21593C21.806 8.72484 21.8833 9.21539 22.0255 9.6784L11.2369 14.5298C10.44 12.7716 8.65465 11.5437 6.58475 11.5437C3.77471 11.5437 1.4873 13.8057 1.4873 16.5869C1.4873 19.368 3.77368 21.6301 6.58475 21.6301C8.64125 21.6301 10.4163 20.4175 11.2214 18.6786L22.0152 23.5321C21.8802 23.9849 21.806 24.4622 21.806 24.9578C21.806 27.738 24.0923 30.001 26.9034 30.001C29.7145 30.001 32.0009 27.739 32.0009 24.9578C32.0009 22.1767 29.7145 19.9147 26.9034 19.9147H26.9024ZM26.9024 4.5465C28.9486 4.5465 30.6123 6.19356 30.6123 8.21695C30.6123 10.2403 28.9475 11.8874 26.9024 11.8874C24.8572 11.8874 23.1924 10.2403 23.1924 8.21695C23.1924 6.19356 24.8572 4.5465 26.9024 4.5465ZM22.0905 9.87727C22.0812 9.85076 22.0719 9.82424 22.0637 9.79875C22.0729 9.82526 22.0812 9.85178 22.0905 9.87727ZM22.3554 10.4912C22.3523 10.4851 22.3492 10.48 22.3461 10.4739C22.3492 10.48 22.3523 10.4851 22.3554 10.4912ZM22.2781 10.3331C22.2729 10.3219 22.2678 10.3107 22.2626 10.2985C22.2678 10.3097 22.2729 10.3209 22.2781 10.3331ZM22.1564 10.0517C22.1492 10.0333 22.142 10.016 22.1348 9.99864C22.142 10.017 22.1492 10.0343 22.1564 10.0517ZM11.4255 15.0143C11.4255 15.0143 11.4235 15.0071 11.4214 15.0041C11.4224 15.0071 11.4235 15.0112 11.4255 15.0143ZM11.6049 15.7282C11.6008 15.7037 11.5966 15.6792 11.5915 15.6547C11.5966 15.6792 11.6008 15.7037 11.6049 15.7282ZM11.5647 15.5191C11.5626 15.5089 11.5595 15.4977 11.5575 15.4875C11.5595 15.4977 11.5626 15.5089 11.5647 15.5191ZM11.4843 15.2019C11.4812 15.1897 11.4771 15.1785 11.474 15.1662C11.4771 15.1785 11.4812 15.1897 11.4843 15.2019ZM6.58372 20.2573C4.53753 20.2573 2.87377 18.6103 2.87377 16.5869C2.87377 14.5635 4.53856 12.9164 6.58372 12.9164C8.62888 12.9164 10.2937 14.5635 10.2937 16.5869C10.2937 18.6103 8.62888 20.2573 6.58372 20.2573ZM11.4224 18.1687C11.4162 18.1881 11.409 18.2074 11.4028 18.2268C11.4101 18.2074 11.4162 18.1881 11.4224 18.1687ZM11.6193 17.3661C11.609 17.4344 11.5966 17.5017 11.5822 17.569C11.5956 17.5017 11.608 17.4344 11.6193 17.3661ZM11.5667 17.6435C11.5564 17.6914 11.5451 17.7393 11.5327 17.7873C11.5441 17.7393 11.5564 17.6914 11.5667 17.6435ZM11.5131 17.8668C11.4977 17.926 11.4802 17.9841 11.4626 18.0422C11.4802 17.9841 11.4977 17.926 11.5131 17.8668ZM22.0699 23.3546C22.0678 23.3608 22.0657 23.3669 22.0637 23.372C22.0657 23.3659 22.0678 23.3597 22.0699 23.3546ZM22.4987 22.4215C22.4956 22.4276 22.4915 22.4327 22.4884 22.4388C22.4915 22.4327 22.4956 22.4276 22.4987 22.4215ZM22.2626 22.8722C22.2595 22.8794 22.2554 22.8875 22.2523 22.8957C22.2554 22.8875 22.2595 22.8804 22.2626 22.8722ZM26.9013 28.6273C24.8552 28.6273 23.1914 26.9802 23.1914 24.9568C23.1914 22.9334 24.8562 21.2864 26.9013 21.2864C28.9465 21.2864 30.6113 22.9334 30.6113 24.9568C30.6113 26.9802 28.9465 28.6273 26.9013 28.6273Z" fill="#67CACA"/>
<path d="M28.7906 4.1865L24.7549 0.836281C24.022 0.227429 22.918 0.323295 22.3026 1.04841C21.6872 1.77353 21.7841 2.86579 22.517 3.47464L24.992 5.52965L22.517 7.58465C21.7841 8.1935 21.6872 9.28475 22.3026 10.0109C22.918 10.736 24.021 10.8319 24.7549 10.223L28.7906 6.87279C29.205 6.52808 29.4163 6.02937 29.4102 5.53067C29.4163 5.03094 29.205 4.53223 28.7906 4.18854V4.1865Z" fill="#1580A5"/>
</g>
<defs>
<clipPath id="clip0_297_28">
<rect width="32" height="30" fill="white"/>
</clipPath>
</defs>
</svg>
