<svg width="32" height="24" viewBox="0 0 32 24" fill="none" xmlns="http://www.w3.org/2000/svg">
<path d="M30.1042 2.66039C30.0325 2.52009 29.9131 2.42026 29.7743 2.38478C29.2482 2.25047 28.6798 2.22978 28.0866 2.29607C25.9775 2.53184 23.554 3.87899 21.5912 5.2284C23.4583 3.17021 25.6793 1.20352 27.2549 1.20352C27.3653 1.20352 27.4672 1.16306 27.5508 1.09497C27.6806 0.989149 27.7655 0.816018 27.7655 0.619933C27.7655 0.297638 27.537 0.0363464 27.2549 0.0363464C25.6669 0.0363464 23.575 1.44225 21.0372 4.2149C19.5266 5.86537 18.3238 7.49248 17.9077 8.07078H14.0915C13.6748 7.49171 12.4724 5.86537 10.9626 4.21568C8.42485 1.4431 6.333 0.0372025 4.74499 0.0372025C4.46291 0.0372025 4.23435 0.298494 4.23435 0.620789C4.23435 0.816796 4.31918 0.989849 4.44895 1.09567C4.53249 1.16384 4.63449 1.20438 4.74499 1.20438C6.32082 1.20438 8.54203 3.17145 10.4093 5.22988C8.44623 3.88024 6.02233 2.53285 3.91299 2.29701C3.31997 2.23071 2.75159 2.25141 2.22563 2.38555C2.08688 2.42096 1.96739 2.52079 1.89576 2.66116C1.81842 2.8129 0 6.43899 0 11.8914C0 17.3438 1.81842 20.9699 1.89583 21.1216C1.96746 21.2619 2.08694 21.3618 2.2257 21.3973C2.56306 21.4833 2.91704 21.5231 3.28456 21.5231C3.49045 21.5231 3.70036 21.5105 3.91346 21.4867C6.02274 21.2507 8.4465 19.9026 10.4093 18.5531C8.54203 20.6115 6.32082 22.5785 4.74506 22.5785C4.63455 22.5785 4.53256 22.619 4.44902 22.6871C4.31925 22.793 4.23442 22.966 4.23442 23.1621C4.23442 23.4844 4.46298 23.7457 4.74506 23.7457C6.333 23.7457 8.42492 22.3398 10.9627 19.5671C12.4726 17.9174 13.675 16.2911 14.0916 15.712H17.9089C18.3261 16.2918 19.5281 17.9174 21.0373 19.5663C23.5751 22.3391 25.667 23.745 27.2549 23.745C27.537 23.745 27.7656 23.4837 27.7656 23.1614C27.7656 22.9652 27.6806 22.7921 27.5507 22.6863C27.4672 22.6183 27.3653 22.5778 27.2549 22.5778C25.6792 22.5778 23.458 20.6109 21.5909 18.5525C23.5535 19.9019 25.9771 21.2499 28.0863 21.486C28.2995 21.5099 28.5095 21.5225 28.7154 21.5225C29.0827 21.5225 29.4372 21.4827 29.7743 21.3966C29.9131 21.3612 30.0325 21.2614 30.1042 21.121C30.1816 20.9693 32 17.3432 32 11.8908C32 6.43821 30.1816 2.81212 30.1042 2.66039ZM22.608 17.8791C20.7399 16.6448 19.1865 15.3087 18.662 14.8439V8.93729C19.1865 8.47252 20.7399 7.13642 22.608 5.90209C25.4358 4.03376 27.7515 3.19923 29.3283 3.47601C29.7089 4.32726 30.9787 7.49832 30.9787 11.8905C30.9787 16.2677 29.7076 19.4519 29.3278 20.3052C27.7503 20.5818 25.4354 19.7472 22.608 17.8791ZM2.67166 20.3059C2.29113 19.4546 1.02128 16.2836 1.02128 11.8914C1.02128 7.51427 2.29243 4.33007 2.6722 3.47671C4.2496 3.2004 6.56456 4.03485 9.392 5.90295C11.2601 7.1372 12.8135 8.47337 13.338 8.93814V14.8447C12.8135 15.3095 11.2601 16.6456 9.392 17.8799C6.56415 19.7482 4.24858 20.5826 2.67166 20.3059ZM17.6407 9.23811V14.5447H14.3594V9.23811H17.6407Z" fill="#00A9EC"/>
</svg>
