<svg xmlns="http://www.w3.org/2000/svg" width="1em" height="1em" viewBox="0 0 24 24"><path fill="currentColor" d="M6.385 19.615q-.592 0-1.17-.203q-.578-.204-1.023-.566q.496-.327.845-.878q.348-.55.348-1.353q0-.846.577-1.423q.576-.577 1.423-.577q.846 0 1.423.577q.577.577.577 1.423q0 1.238-.882 2.12q-.88.88-2.118.88Zm0-1q.825 0 1.412-.587t.588-1.413q0-.425-.288-.712t-.712-.288q-.425 0-.713.288t-.287.712q0 .575-.138 1.05t-.362.9q.125.05.25.05h.25ZM11.25 14.5l-1.712-1.712l8.181-8.18q.275-.275.688-.288t.712.288l.312.311q.3.3.3.7t-.3.7L11.25 14.5Zm-3.865 2.115Z"/></svg>