<svg width="32" height="30" viewBox="0 0 32 30" fill="none" xmlns="http://www.w3.org/2000/svg">
<path d="M11.6039 22.2707C11.3128 23.7014 11.1239 24.3931 10.0196 24.4817C9.74749 24.5035 9.52588 24.7089 9.48345 24.9786C9.44092 25.2481 9.58869 25.5118 9.84092 25.6162C9.9119 25.6456 11.6009 26.3357 13.5742 26.3358C13.5745 26.3358 13.5747 26.3358 13.5749 26.3358C14.95 26.3358 16.1297 26.0024 17.0809 25.3451C18.2081 24.5662 18.9853 23.3472 19.3985 21.7233L15.6011 17.8956C12.3919 18.415 11.9373 20.6313 11.6039 22.2707Z" fill="#00A9EC"/>
<path d="M31.774 5.46033C31.6719 5.35735 31.4898 5.23459 31.2024 5.23459C30.8654 5.23459 29.9702 5.23459 24.5335 9.86092C22.0221 11.9979 19.1266 14.6415 16.8235 16.8912L20.427 20.5234C22.7958 18.0613 25.5591 14.9753 27.7567 12.3267C29.1444 10.6544 30.2115 9.27456 30.9283 8.22558C31.8778 6.83616 32.2936 5.98399 31.774 5.46033Z" fill="#00A9EC"/>
<path d="M17.9764 26.641C16.7569 27.4837 15.276 27.9109 13.5741 27.9109C11.3341 27.9108 9.4472 27.1579 9.2378 27.0714C8.30991 26.6869 7.7711 25.7253 7.92744 24.7334C8.08053 23.7616 8.85907 23.023 9.83155 22.9174C9.91631 22.6642 10.01 22.2032 10.0602 21.9567C10.2451 21.048 10.4982 19.8033 11.2769 18.6955C12.1272 17.4858 13.4089 16.7102 15.0919 16.3852C16.0578 15.4266 17.1598 14.3726 18.3098 13.303C17.7285 13.1769 17.2087 12.7982 16.9298 12.2256C16.4499 11.2391 16.8685 10.0525 17.8635 9.57776C18.8611 9.10186 20.0577 9.51751 20.5369 10.5055C20.6315 10.7002 20.69 10.9025 20.7173 11.1056C21.6711 10.2514 22.6183 9.42221 23.5125 8.6613C23.5178 8.65677 23.5228 8.65244 23.5282 8.64791C22.5231 6.7246 21.0819 5.02054 19.3257 3.7158C16.804 1.84221 13.8013 0.851312 10.6425 0.850525C10.6415 0.850525 10.6408 0.850525 10.64 0.850525C8.50819 0.850525 5.91681 1.59539 3.87684 2.7948C1.37642 4.26485 -0.000492115 6.23088 1.31938e-07 8.33051C0.000787727 10.8654 1.43047 11.9257 2.57928 12.7776C3.51602 13.4723 4.25587 14.021 4.25626 15.2234C4.25656 16.4258 3.5171 16.974 2.58085 17.668C1.43244 18.5194 0.00305206 19.5791 0.00383966 22.1143C0.00443035 24.2136 1.38223 26.1802 3.88334 27.6515C5.92478 28.8524 8.51754 29.5988 10.6498 29.5994C10.6512 29.5994 10.6525 29.5994 10.6539 29.5994C14.5234 29.5994 18.1611 28.1058 20.897 25.3937C22.9484 23.3602 24.3088 20.824 24.8618 18.0649C23.4882 19.588 22.1055 21.0669 20.8684 22.3299C20.3437 24.2276 19.3722 25.6765 17.9764 26.641ZM10.9332 6.81567C11.1791 5.74543 12.2524 5.07735 13.3308 5.32249C14.4078 5.56645 15.0825 6.63009 14.8384 7.69886C14.5924 8.76644 13.5185 9.43462 12.44 9.19076C11.3621 8.94818 10.6871 7.88325 10.9332 6.81567ZM4.43554 10.4631C3.7459 9.60503 3.88767 8.3562 4.75215 7.67316C5.61654 6.9914 6.8758 7.1312 7.56672 7.98771C8.25488 8.84451 8.11262 10.0933 7.24883 10.7778C6.38631 11.461 5.12508 11.3197 4.43554 10.4631ZM5.48816 23.5585C4.62318 22.8748 4.48092 21.626 5.17056 20.7682C5.85971 19.9121 7.11946 19.7717 7.98434 20.4551C8.84853 21.1387 8.99089 22.3876 8.30184 23.2439C7.61279 24.1017 6.35294 24.242 5.48816 23.5585Z" fill="white"/>
</svg>
