<svg width="32" height="30" viewBox="0 0 32 30" fill="none" xmlns="http://www.w3.org/2000/svg">
<path d="M11.6039 22.2707C11.3128 23.7014 11.1239 24.3931 10.0196 24.4817C9.74749 24.5035 9.52588 24.7089 9.48345 24.9786C9.44092 25.2481 9.58869 25.5118 9.84092 25.6162C9.9119 25.6456 11.6009 26.3357 13.5742 26.3358C13.5745 26.3358 13.5747 26.3358 13.5749 26.3358C14.95 26.3358 16.1297 26.0024 17.0809 25.3451C18.2081 24.5662 18.9853 23.3472 19.3985 21.7233L15.6011 17.8956C12.3919 18.415 11.9373 20.6313 11.6039 22.2707Z" fill="#00A9EC"/>
<path d="M31.774 5.46033C31.6719 5.35735 31.4898 5.23459 31.2024 5.23459C30.8654 5.23459 29.9702 5.23459 24.5335 9.86092C22.0221 11.9979 19.1266 14.6415 16.8235 16.8912L20.427 20.5234C22.7958 18.0613 25.5591 14.9753 27.7567 12.3267C29.1444 10.6544 30.2115 9.27456 30.9283 8.22558C31.8778 6.83616 32.2936 5.98399 31.774 5.46033Z" fill="#00A9EC"/>
<path d="M20.9549 10.2238C20.3349 9.03206 18.87 8.54363 17.6483 9.12648L17.6482 9.12649C16.4049 9.71969 15.8777 11.2059 16.4802 12.4443L16.4803 12.4444C16.6931 12.8816 17.0177 13.2276 17.4021 13.4668C16.4958 14.3175 15.6288 15.1504 14.8462 15.9248C13.1298 16.2873 11.778 17.1131 10.8678 18.4079L10.8678 18.4079C10.0291 19.6012 9.7586 20.9312 9.57518 21.8329L9.5703 21.8569C9.53531 22.0287 9.4854 22.2721 9.43462 22.4801C9.34696 22.5014 9.26101 22.5269 9.17698 22.5565C9.38181 21.6556 9.07009 20.6764 8.29452 20.063L8.29434 20.0628C7.21513 19.21 5.64302 19.3839 4.78107 20.4547L4.78088 20.4549C3.91663 21.5299 4.09594 23.0954 5.17813 23.9507C5.85471 24.4855 6.72518 24.6167 7.49288 24.3758C7.46839 24.4671 7.44852 24.5604 7.43354 24.6555C7.24123 25.8757 7.90509 27.0604 9.04637 27.5333L9.04702 27.5336C9.2778 27.6289 11.2366 28.4108 13.5741 28.4109C14.3168 28.4109 15.0243 28.3333 15.6918 28.1774C14.1064 28.783 12.4051 29.0994 10.6539 29.0994H10.6539H10.6539H10.6538H10.6538H10.6538H10.6538H10.6538H10.6538H10.6538H10.6537H10.6537H10.6537H10.6537H10.6537H10.6537H10.6536H10.6536H10.6536H10.6536H10.6536H10.6536H10.6535H10.6535H10.6535H10.6535H10.6535H10.6535H10.6534H10.6534H10.6534H10.6534H10.6534H10.6534H10.6534H10.6533H10.6533H10.6533H10.6533H10.6533H10.6533H10.6532H10.6532H10.6532H10.6532H10.6532H10.6532H10.6531H10.6531H10.6531H10.6531H10.6531H10.6531H10.6531H10.653H10.653H10.653H10.653H10.653H10.653H10.6529H10.6529H10.6529H10.6529H10.6529H10.6529H10.6528H10.6528H10.6528H10.6528H10.6528H10.6528H10.6528H10.6527H10.6527H10.6527H10.6527H10.6527H10.6527H10.6526H10.6526H10.6526H10.6526H10.6526H10.6526H10.6525H10.6525H10.6525H10.6525H10.6525H10.6525H10.6524H10.6524H10.6524H10.6524H10.6524H10.6524H10.6524H10.6523H10.6523H10.6523H10.6523H10.6523H10.6523H10.6522H10.6522H10.6522H10.6522H10.6522H10.6522H10.6522H10.6521H10.6521H10.6521H10.6521H10.6521H10.6521H10.652H10.652H10.652H10.652H10.652H10.652H10.6519H10.6519H10.6519H10.6519H10.6519H10.6519H10.6518H10.6518H10.6518H10.6518H10.6518H10.6518H10.6518H10.6517H10.6517H10.6517H10.6517H10.6517H10.6517H10.6516H10.6516H10.6516H10.6516H10.6516H10.6516H10.6515H10.6515H10.6515H10.6515H10.6515H10.6515H10.6515H10.6514H10.6514H10.6514H10.6514H10.6514H10.6514H10.6513H10.6513H10.6513H10.6513H10.6513H10.6513H10.6512H10.6512H10.6512H10.6512H10.6512H10.6512H10.6511H10.6511H10.6511H10.6511H10.6511H10.6511H10.651H10.651H10.651H10.651H10.651H10.651H10.651H10.6509H10.6509H10.6509H10.6509H10.6509H10.6509H10.6508H10.6508H10.6508H10.6508H10.6508H10.6508H10.6507H10.6507H10.6507H10.6507H10.6507H10.6507H10.6506H10.6506H10.6506H10.6506H10.6506H10.6506H10.6505H10.6505H10.6505H10.6505H10.6505H10.6505H10.6504H10.6504H10.6504H10.6504H10.6504H10.6504H10.6503H10.6503H10.6503H10.6503H10.6503H10.6503H10.6502H10.6502H10.6502H10.6502H10.6502H10.6502H10.6501H10.6501H10.6501H10.6501H10.6501H10.6501H10.65H10.65H10.65H10.65H10.65H10.65H10.6499H10.6499H10.6499L20.9549 10.2238ZM20.9549 10.2238C21.6145 9.63848 22.2667 9.06909 22.8961 8.53006C21.9372 6.81546 20.6151 5.29665 19.0275 4.11715L19.3257 3.7158L19.0275 4.11714C16.5926 2.30799 13.6945 1.35131 10.6425 1.35052H10.6425H10.6424H10.6424H10.6424H10.6424H10.6424H10.6424H10.6424H10.6424L10.6424 1.35052L10.6423 1.35052H10.6423H10.6423H10.6423H10.6423H10.6423H10.6423H10.6423H10.6423H10.6422H10.6422H10.6422H10.6422H10.6422H10.6422H10.6422H10.6422H10.6422H10.6421H10.6421H10.6421H10.6421H10.6421H10.6421H10.6421H10.6421H10.6421H10.642H10.642H10.642H10.642H10.642H10.642H10.642H10.642H10.642H10.6419H10.6419H10.6419H10.6419H10.6419H10.6419H10.6419H10.6419H10.6419H10.6419H10.6418H10.6418H10.6418H10.6418H10.6418H10.6418H10.6418H10.6418H10.6418H10.6418H10.6417H10.6417H10.6417H10.6417H10.6417H10.6417H10.6417H10.6417H10.6417H10.6417H10.6416H10.6416H10.6416H10.6416H10.6416H10.6416H10.6416H10.6416H10.6416H10.6416H10.6415H10.6415H10.6415H10.6415H10.6415H10.6415H10.6415H10.6415H10.6415H10.6415H10.6415H10.6414H10.6414H10.6414H10.6414H10.6414H10.6414H10.6414H10.6414H10.6414H10.6414H10.6413H10.6413H10.6413H10.6413H10.6413H10.6413H10.6413H10.6413H10.6413H10.6413H10.6413H10.6412H10.6412H10.6412H10.6412H10.6412H10.6412H10.6412H10.6412H10.6412H10.6412H10.6412H10.6411H10.6411H10.6411H10.6411H10.6411H10.6411H10.6411H10.6411H10.6411H10.6411H10.6411H10.641H10.641H10.641H10.641H10.641H10.641H10.641H10.641H10.641H10.641H10.641H10.6409H10.6409H10.6409H10.6409H10.6409H10.6409H10.6409H10.6409H10.6409H10.6409H10.6409H10.6408H10.6408H10.6408H10.6408H10.6408H10.6408H10.6408H10.6408H10.6408H10.6408H10.6408H10.6407H10.6407H10.6407H10.6407H10.6407H10.6407H10.6407H10.6407H10.6407H10.6407H10.6407H10.6406H10.6406H10.6406H10.6406H10.6406H10.6406H10.6406H10.6406H10.6406H10.6406H10.6406H10.6405H10.6405H10.6405H10.6405H10.6405H10.6405H10.6405H10.6405H10.6405H10.6405H10.6405H10.6404H10.6404H10.6404H10.6404H10.6404H10.6404H10.6404H10.6404H10.6404H10.6404H10.6404H10.6404H10.6403H10.6403H10.6403H10.6403H10.6403H10.6403H10.6403H10.6403H10.6403H10.6403H10.6403H10.6402H10.6402H10.6402H10.6402H10.6402H10.6402H10.6402H10.6402H10.6402H10.6402H10.6402H10.6401H10.6401H10.6401H10.6401H10.6401H10.6401H10.6401H10.6401H10.6401H10.6401H10.6401H10.64H10.64H10.64H10.64C8.60683 1.35052 6.10207 2.06649 4.13026 3.22582L4.13025 3.22583C1.71736 4.64441 0.499565 6.47254 0.5 8.33039L20.9549 10.2238ZM15.3258 7.81021L15.3256 7.81114C15.0168 9.15111 13.6727 9.9821 12.3297 9.67845C10.9854 9.37562 10.137 8.04457 10.4459 6.70369C10.7543 5.36143 12.0977 4.52962 13.4413 4.83484L15.3258 7.81021ZM15.3258 7.81021C15.6323 6.46862 14.7846 5.13921 13.4414 4.83487L15.3258 7.81021ZM20.545 25.0386C20.198 25.3825 19.836 25.7062 19.4605 26.009C20.3042 25.0919 20.9228 23.9433 21.3149 22.5886C22.1048 21.7801 22.951 20.8872 23.8144 19.9536C23.1266 21.8426 22.0217 23.5747 20.545 25.0386L20.545 25.0386ZM4.04581 10.7763L4.04605 10.7766C4.90786 11.8473 6.48161 12.0234 7.55929 11.1697L7.55934 11.1697C8.63954 10.3138 8.81928 8.74876 7.95655 7.67461L7.95589 7.67378C7.09233 6.60326 5.52128 6.42972 4.44251 7.28058L4.44217 7.28084C3.36008 8.13582 3.1819 9.70142 4.04581 10.7763Z" stroke="#00A9EC"/>
</svg>
