<svg width="32" height="29" viewBox="0 0 32 29" fill="none" xmlns="http://www.w3.org/2000/svg">
<g clip-path="url(#clip0_272_73)">
<path d="M26.6545 18.0972C24.7484 18.0972 23.0735 19.1207 22.1273 20.656L10.6298 15.327C10.6705 15.057 10.6909 14.7811 10.6909 14.5C10.6909 14.2337 10.6713 13.9727 10.6349 13.716L22.1491 8.37885C23.0996 9.89486 24.7636 10.9028 26.6545 10.9028C29.6022 10.9028 32 8.45747 32 5.45141C32 2.44535 29.6022 0 26.6545 0C23.7069 0 21.3091 2.44535 21.3091 5.45141C21.3091 6.001 21.3898 6.53205 21.5389 7.03269L10.224 12.2772C9.38836 10.3762 7.51636 9.04859 5.34473 9.04859C2.39782 9.04859 0 11.4939 0 14.5C0 17.5061 2.39782 19.9514 5.34545 19.9514C7.50255 19.9514 9.36364 18.6408 10.208 16.7607L21.528 22.0074C21.3862 22.4961 21.3091 23.0131 21.3091 23.5486C21.3091 26.5547 23.7069 29 26.6545 29C29.6022 29 32 26.5547 32 23.5486C32 20.5425 29.6022 18.0972 26.6545 18.0972ZM26.6545 1.48338C28.8 1.48338 30.5455 3.26343 30.5455 5.45141C30.5455 7.63939 28.8 9.41944 26.6545 9.41944C24.5091 9.41944 22.7636 7.63939 22.7636 5.45141C22.7636 3.26343 24.5091 1.48338 26.6545 1.48338ZM21.608 7.24703C21.5985 7.21885 21.5891 7.18992 21.5796 7.16174C21.5891 7.19067 21.5985 7.21885 21.608 7.24703ZM21.8858 7.91084C21.8829 7.90491 21.8793 7.89824 21.8764 7.8923C21.8793 7.89824 21.8829 7.90491 21.8858 7.91084ZM21.8044 7.74026C21.7985 7.72765 21.7935 7.71578 21.7876 7.70317C21.7935 7.71578 21.7985 7.72765 21.8044 7.74026ZM21.6771 7.43542C21.6698 7.41614 21.6618 7.39685 21.6545 7.37757C21.6618 7.39685 21.6698 7.41614 21.6771 7.43542ZM10.4233 12.8008C10.4218 12.7971 10.4204 12.7934 10.4196 12.7897C10.4211 12.7934 10.4225 12.7971 10.4233 12.8008ZM10.6116 13.5721C10.6073 13.5454 10.6029 13.5187 10.5978 13.4928C10.6029 13.5195 10.6073 13.5454 10.6116 13.5721ZM10.5695 13.3467C10.5673 13.3348 10.5644 13.3237 10.5615 13.3118C10.5636 13.3237 10.5665 13.3348 10.5695 13.3467ZM10.4844 13.004C10.4807 12.9914 10.4771 12.9781 10.4735 12.9654C10.4771 12.9781 10.4807 12.9914 10.4844 13.004ZM5.34545 18.4688C3.2 18.4688 1.45455 16.6887 1.45455 14.5007C1.45455 12.3128 3.2 10.5327 5.34545 10.5327C7.49091 10.5327 9.23636 12.3128 9.23636 14.5007C9.23636 16.6887 7.49091 18.4688 5.34545 18.4688ZM10.4204 16.2103C10.4138 16.2311 10.4065 16.2519 10.3993 16.2726C10.4065 16.2519 10.4131 16.2311 10.4204 16.2103ZM10.6269 15.3433C10.616 15.4167 10.6029 15.4894 10.5884 15.5621C10.6022 15.4894 10.6153 15.4167 10.6269 15.3433ZM10.5724 15.6429C10.5615 15.6949 10.5498 15.7468 10.5375 15.7987C10.5498 15.7468 10.5615 15.6956 10.5724 15.6429ZM10.5164 15.884C10.4996 15.9478 10.4822 16.0108 10.4633 16.0739C10.4822 16.0108 10.4996 15.9478 10.5164 15.884ZM21.5876 21.8168C21.5855 21.8234 21.5833 21.8294 21.5811 21.836C21.5833 21.8294 21.5855 21.8234 21.5876 21.8168ZM22.0371 20.8081C22.0335 20.814 22.0298 20.8207 22.0262 20.8266C22.0298 20.8207 22.0335 20.814 22.0371 20.8081ZM21.7891 21.2961C21.7855 21.3042 21.7818 21.3124 21.7782 21.3206C21.7818 21.3124 21.7855 21.3042 21.7891 21.2961ZM26.6545 27.5181C24.5091 27.5181 22.7636 25.7381 22.7636 23.5501C22.7636 21.3621 24.5091 19.582 26.6545 19.582C28.8 19.582 30.5455 21.3621 30.5455 23.5501C30.5455 25.7381 28.8 27.5181 26.6545 27.5181Z" fill="#1480AC"/>
</g>
<defs>
<clipPath id="clip0_272_73">
<rect width="32" height="29" fill="white"/>
</clipPath>
</defs>
</svg>
