<svg width="32" height="30" viewBox="0 0 32 30" fill="none" xmlns="http://www.w3.org/2000/svg">
<g clip-path="url(#clip0_281_20)">
<path d="M29.6677 5.25477L29.1677 5.2013C29.1645 5.16041 29.08 4.94443 29.0309 4.8637L29.345 4.47998C29.4412 4.35416 29.4348 4.19166 29.329 4.08786L28.8653 3.63284C28.7595 3.52904 28.5939 3.52275 28.4657 3.61711L28.0725 3.92745C28.0394 3.89914 27.7915 3.78801 27.7317 3.78486L27.6782 3.30048C27.6558 3.14531 27.534 3.03418 27.3844 3.03418H26.7295C26.5799 3.03418 26.4581 3.14531 26.4356 3.30048L26.3822 3.78486C26.3224 3.78801 26.0745 3.89914 26.0414 3.92745L25.6482 3.61711C25.52 3.52275 25.3544 3.52904 25.2486 3.63284L24.7849 4.08786C24.6791 4.19166 24.6727 4.35416 24.7689 4.47998L25.083 4.8637C25.0338 4.94548 24.9494 5.16041 24.9462 5.2013L24.4462 5.25477C24.2881 5.27679 24.1748 5.39631 24.1748 5.54309V6.18578C24.1748 6.33256 24.2881 6.45209 24.4462 6.4741L24.9398 6.52653C24.943 6.58524 25.0563 6.82848 25.0851 6.86098L24.7689 7.2468C24.6727 7.37261 24.6791 7.53512 24.7849 7.63892L25.2486 8.09394C25.3544 8.19773 25.52 8.20403 25.6482 8.10967L26.0307 7.80772C26.0841 7.84651 26.2935 7.92514 26.3715 7.94506L26.4271 8.44307C26.4495 8.59824 26.5713 8.70937 26.7209 8.70937H27.3919C27.5415 8.70937 27.6633 8.59824 27.6857 8.44307L27.7413 7.94506C27.8203 7.92514 28.0298 7.84651 28.0821 7.80772L28.4646 8.10967C28.5928 8.20403 28.7584 8.19773 28.8642 8.09394L29.3279 7.63892C29.4337 7.53512 29.4401 7.37261 29.344 7.2468L29.0277 6.86098C29.0565 6.82848 29.1698 6.58524 29.173 6.52653L29.6666 6.4741C29.8248 6.45209 29.938 6.33256 29.938 6.18578V5.54309C29.938 5.39631 29.8248 5.27679 29.6666 5.25477H29.6677ZM27.6302 7.23527C27.6216 7.23108 27.6131 7.22793 27.6045 7.22479C27.6163 7.22059 27.627 7.2164 27.6387 7.21116C27.6355 7.21954 27.6323 7.22688 27.6302 7.23527ZM27.0585 7.07905C26.379 7.07905 25.8277 6.53806 25.8277 5.87125C25.8277 5.20445 26.379 4.66345 27.0585 4.66345C27.7381 4.66345 28.2894 5.20445 28.2894 5.87125C28.2894 6.53806 27.7381 7.07905 27.0585 7.07905Z" fill="#1480A7"/>
<path d="M7.47913 30L18.0268 18.8195L7.47913 7.63892V13.8394H0V23.7995H7.47913V30ZM15.8429 18.8195L9.0818 25.9866V22.2269H1.60267V15.412H9.0818V11.6523L15.8429 18.8195Z" fill="#E2801D"/>
<path d="M20.5145 30V23.7995H27.9936V13.8394H20.5145V7.63892L9.9668 18.8195L20.5145 30ZM26.391 22.2269H18.9118V25.9866L12.1507 18.8195L18.9118 11.6523V15.412H26.391V22.2269Z" fill="#1480A7"/>
<path d="M1.60267 18.8719V22.2269H9.0818V25.9866L15.7938 18.8719H17.9777L7.47913 30V23.7995H0V18.8719H1.60267Z" fill="#E2801D"/>
<path d="M26.3376 1.57266V0H22.1172V0.0524219V1.57266V10.1698V11.7425H23.7199H26.3376V10.1698H23.7199V1.57266H26.3376Z" fill="#E2801D"/>
<path d="M27.7793 1.57266V0H31.9997V0.0524219V1.57266V10.1698V11.7425H30.397H27.7793V10.1698H30.397V1.57266H27.7793Z" fill="#E2801D"/>
</g>
<defs>
<clipPath id="clip0_281_20">
<rect width="32" height="30" fill="white"/>
</clipPath>
</defs>
</svg>
