<svg xmlns="http://www.w3.org/2000/svg" width="1em" height="1em" viewBox="0 0 24 24"><path fill="currentColor" d="M20 9V6.615q0-.23-.192-.423Q19.615 6 19.385 6H17V5h2.385q.69 0 1.152.463q.463.462.463 1.152V9h-1ZM3 9V6.615q0-.69.463-1.152Q3.925 5 4.615 5H7v1H4.615q-.23 0-.423.192Q4 6.385 4 6.615V9H3Zm14 10v-1h2.385q.23 0 .423-.192q.192-.193.192-.423V15h1v2.385q0 .69-.462 1.152q-.463.463-1.153.463H17ZM4.615 19q-.69 0-1.152-.462Q3 18.075 3 17.385V15h1v2.385q0 .23.192.423q.193.192.423.192H7v1H4.615Zm2.231-3.846V8.846h10.308v6.308H6.846Zm1-1h8.308V9.846H7.846v4.308Zm0 0V9.846v4.308Z"/></svg>