<?xml version="1.0" encoding="UTF-8"?>
<svg xmlns="http://www.w3.org/2000/svg" id="Layer_1" data-name="Layer 1" viewBox="0 0 24 24">
  <path d="m24,4.5v2c0,2.481-2.019,4.5-4.5,4.5h-4c-.276,0-.5-.224-.5-.5s.224-.5.5-.5h4c1.93,0,3.5-1.57,3.5-3.5v-2c0-1.93-1.57-3.5-3.5-3.5H4.5c-1.93,0-3.5,1.57-3.5,3.5v2c0,1.93,1.57,3.5,3.5,3.5h1c.276,0,.5.224.5.5s-.224.5-.5.5h-1c-2.481,0-4.5-2.019-4.5-4.5v-2C0,2.019,2.019,0,4.5,0h15c2.481,0,4.5,2.019,4.5,4.5Zm-6.244,14.437l-4.756-1.783v-4.546c0-1.273-.896-2.379-2.084-2.573-.729-.116-1.475.085-2.035.562-.56.476-.881,1.17-.881,1.905v7.424l-.138.067-1.672-1.331c-1.007-.927-2.581-.871-3.516.132-.941,1.007-.894,2.588.106,3.524l1.64,1.548c.092.087.214.135.341.135.448,0,.667-.547.342-.856l-1.633-1.551c-.599-.562-.629-1.514-.064-2.118.558-.599,1.497-.634,2.104-.083.013.013,1.73,1.381,1.73,1.381.327.26.767.311,1.146.128.379-.182.614-.557.614-.978v-7.424c0-.44.192-.857.528-1.143.341-.29.776-.409,1.228-.336.709.115,1.244.797,1.244,1.586v4.893c0,.208.129.395.324.468l5.08,1.905c1.602.601,2.596,1.99,2.596,3.627,0,.276.224.5.5.5s.5-.224.5-.5c0-2.064-1.243-3.812-3.244-4.563Z"/>
</svg>
