<?xml version="1.0" encoding="UTF-8"?>
<svg xmlns="http://www.w3.org/2000/svg" id="Layer_1" data-name="Layer 1" viewBox="0 0 24 24">
  <path d="m22.002,23.5c0,.276-.224.5-.5.5s-.5-.224-.5-.5c0-1.637-.995-3.026-2.595-3.627l-5.081-1.905c-.195-.073-.324-.26-.324-.468v-4.893c0-.789-.535-1.471-1.245-1.587-.449-.072-.886.046-1.226.336-.336.286-.529.703-.529,1.144v7.424c0,.421-.235.796-.615.979-.38.181-.819.131-1.146-.13l-1.688-1.342c-.016-.013-.03-.026-.044-.04-.607-.55-1.544-.514-2.102.084-.565.604-.534,1.557.064,2.118l1.633,1.551c.325.309.107.856-.342.856-.127,0-.249-.048-.341-.135l-1.64-1.548c-1-.937-1.048-2.518-.106-3.524.934-1.001,2.504-1.058,3.511-.135l1.676,1.334.138-.066v-7.424c0-.734.321-1.429.881-1.905.56-.476,1.301-.68,2.035-.561,1.188.193,2.083,1.3,2.083,2.573v4.546l4.756,1.784c2.001.75,3.244,2.498,3.244,4.562ZM8.056,7.561l-1.362-4.055c-.286-.647-.685-.784-1.194-.784-.509,0-.909.137-1.202.804l-1.354,4.034c-.118.352.144.717.516.717.233,0,.439-.148.515-.368l.254-.743h2.544l.254.743c.075.22.282.368.514.368h0c.372,0,.634-.365.515-.717Zm-3.449-1.505l.725-2.121c.022-.047.112-.102.167-.102.057,0,.142.047.16.083l.732,2.139h-1.784Zm15.9-.849c.143-.254.223-.549.214-.863-.024-.911-.801-1.622-1.712-1.622h-.848c-1.088,0-1.883.796-1.883,1.778v2c0,.982.796,1.778,1.778,1.778h1.512c.875,0,1.635-.657,1.705-1.53.052-.645-.267-1.222-.765-1.541Zm-3.118-.818c0-.307.249-.556.556-.556h1.086c.29,0,.549.211.578.499.033.331-.228.612-.553.612h-1.667v-.556Zm2.198,2.778h-1.643c-.307,0-.555-.249-.555-.556v-.556h2.222c.325,0,.586.281.553.612-.029.288-.287.499-.577.499ZM5.5,0C2.467,0,0,2.468,0,5.5s2.467,5.5,5.5,5.5,5.5-2.468,5.5-5.5S8.533,0,5.5,0Zm0,10c-2.481,0-4.5-2.019-4.5-4.5S3.019,1,5.5,1s4.5,2.019,4.5,4.5-2.019,4.5-4.5,4.5ZM18.5,0c-3.033,0-5.5,2.468-5.5,5.5s2.467,5.5,5.5,5.5,5.5-2.468,5.5-5.5S21.533,0,18.5,0Zm0,10c-2.481,0-4.5-2.019-4.5-4.5s2.019-4.5,4.5-4.5,4.5,2.019,4.5,4.5-2.019,4.5-4.5,4.5Z"/>
</svg>
