<?xml version="1.0" encoding="UTF-8"?>
<svg xmlns="http://www.w3.org/2000/svg" id="Layer_1" data-name="Layer 1" viewBox="0 0 24 24">
  <path d="m21.07,3.707l-2.829-2.828c-.566-.566-1.32-.879-2.121-.879h-7.171c-1.654,0-3,1.346-3,3v17h16V5.828c0-.802-.312-1.555-.878-2.121Zm-1.122,14.293H7.949V3c0-.552.449-1,1-1h7.171c.263,0,.521.106.707.293l2.829,2.828c.188.188.292.439.292.707v12.172Zm-5.948-6h-4v-1.5c0-.828.672-1.5,1.5-1.5h2.5v3Zm4-1.5v1.5h-3v-3h1.5c.828,0,1.5.672,1.5,1.5Zm-8,2.5h3v3h-1.5c-.828,0-1.5-.672-1.5-1.5v-1.5Zm4,0h4v1.5c0,.828-.672,1.5-1.5,1.5h-2.5v-3ZM3.949,22h14v2H1.949v-14.172c0-.801.312-1.555.879-2.121l1.121-1.121v15.414Z"/>
</svg>
