<?xml version="1.0" encoding="UTF-8"?>
<svg xmlns="http://www.w3.org/2000/svg" id="Layer_1" data-name="Layer 1" viewBox="0 0 24 24">
  <path d="m22.75,9.693c.806.914,1.25,2.088,1.25,3.307v5c0,2.757-2.243,5-5,5H5c-2.757,0-5-2.243-5-5v-5c0-2.757,2.243-5,5-5h4c.553,0,1,.448,1,1s-.447,1-1,1h-4c-1.654,0-3,1.346-3,3v5c0,1.654,1.346,3,3,3h14c1.654,0,3-1.346,3-3v-5c0-.731-.267-1.436-.75-1.984-.365-.414-.326-1.046.089-1.412.413-.364,1.045-.326,1.411.088ZM5,15.5c0,.828.672,1.5,1.5,1.5s1.5-.672,1.5-1.5-.672-1.5-1.5-1.5-1.5.672-1.5,1.5Zm6.5,1.5c.828,0,1.5-.672,1.5-1.5s-.672-1.5-1.5-1.5-1.5.672-1.5,1.5.672,1.5,1.5,1.5Zm.5-6v-1.586c0-1.068.416-2.073,1.172-2.828L18.879.879c1.17-1.17,3.072-1.17,4.242,0,.566.566.879,1.32.879,2.121s-.313,1.555-.879,2.122l-5.707,5.707c-.755.755-1.76,1.172-2.828,1.172h-1.586c-.553,0-1-.448-1-1Zm2-1h.586c.534,0,1.036-.208,1.414-.586l5.707-5.707c.189-.189.293-.44.293-.707s-.104-.518-.293-.707c-.391-.391-1.023-.39-1.414,0l-5.707,5.707c-.372.373-.586.888-.586,1.414v.586Z"/>
</svg>
