<?xml version="1.0" encoding="UTF-8"?>
<svg xmlns="http://www.w3.org/2000/svg" id="Layer_1" data-name="Layer 1" viewBox="0 0 24 24" width="512" height="512"><path d="M20,8c-1.861,0-3.428,1.277-3.873,3H8c-1.654,0-3-1.346-3-3v-.127c1.724-.445,3-2.013,3-3.873C8,1.794,6.206,0,4,0S0,1.794,0,4c0,1.86,1.276,3.428,3,3.873v8.253c-1.724,.445-3,2.013-3,3.873,0,2.206,1.794,4,4,4s4-1.794,4-4c0-1.86-1.276-3.428-3-3.873v-4.129c.836,.629,1.875,1.002,3,1.002h8.127c.445,1.723,2.013,3,3.873,3,2.206,0,4-1.794,4-4s-1.794-4-4-4ZM2,4c0-1.103,.897-2,2-2s2,.897,2,2-.897,2-2,2-2-.897-2-2ZM6,20c0,1.103-.897,2-2,2s-2-.897-2-2,.897-2,2-2,2,.897,2,2Zm14-6c-1.103,0-2-.897-2-2s.897-2,2-2,2,.897,2,2-.897,2-2,2Z"/></svg>
