<?xml version="1.0" encoding="UTF-8"?>
<svg xmlns="http://www.w3.org/2000/svg" id="Layer_1" data-name="Layer 1" viewBox="0 0 24 24" width="512" height="512"><path d="M.293,1.707C-.098,1.316-.098,.684,.293,.293S1.316-.098,1.707,.293L9.707,8.293c.391,.391,.391,1.023,0,1.414-.195,.195-.451,.293-.707,.293s-.512-.098-.707-.293L.293,1.707ZM21,0h-5c-.553,0-1,.448-1,1s.447,1,1,1h4.586L.293,22.293c-.391,.391-.391,1.023,0,1.414,.195,.195,.451,.293,.707,.293s.512-.098,.707-.293L22,3.414v4.586c0,.552,.447,1,1,1s1-.448,1-1V3c0-1.654-1.346-3-3-3Zm2,15c-.553,0-1,.448-1,1v4.586l-6.293-6.293c-.391-.391-1.023-.391-1.414,0s-.391,1.023,0,1.414l6.293,6.293h-4.586c-.553,0-1,.448-1,1s.447,1,1,1h5c1.654,0,3-1.346,3-3v-5c0-.552-.447-1-1-1Z"/></svg>
