<?xml version="1.0" encoding="UTF-8"?>
<svg xmlns="http://www.w3.org/2000/svg" id="arrow-circle-down" viewBox="0 0 24 24" width="512" height="512"><g><path d="M23,16H2.681l.014-.015L4.939,13.7a1,1,0,1,0-1.426-1.4L1.274,14.577c-.163.163-.391.413-.624.676a2.588,2.588,0,0,0,0,3.429c.233.262.461.512.618.67l2.245,2.284a1,1,0,0,0,1.426-1.4L2.744,18H23a1,1,0,0,0,0-2Z"/><path d="M1,8H21.255l-2.194,2.233a1,1,0,1,0,1.426,1.4l2.239-2.279c.163-.163.391-.413.624-.675a2.588,2.588,0,0,0,0-3.429c-.233-.263-.461-.513-.618-.67L20.487,2.3a1,1,0,0,0-1.426,1.4l2.251,2.29L21.32,6H1A1,1,0,0,0,1,8Z"/></g></svg>
