<?xml version="1.0" encoding="UTF-8"?>
<svg xmlns="http://www.w3.org/2000/svg" id="Layer_1" data-name="Layer 1" viewBox="0 0 24 24" width="512" height="512"><path d="m19,0H5C2.243,0,0,2.243,0,5v14c0,2.757,2.243,5,5,5h14c2.757,0,5-2.243,5-5V5c0-2.757-2.243-5-5-5Zm3,19c0,1.654-1.346,3-3,3H5c-1.654,0-3-1.346-3-3V5c0-1.654,1.346-3,3-3h14c1.654,0,3,1.346,3,3v14Zm-3-11c0,.553-.447,1-1,1h-8v1c0,.553-.447,1-1,1s-1-.447-1-1v-1h-2c-.553,0-1-.447-1-1s.447-1,1-1h2v-1c0-.553.447-1,1-1s1,.447,1,1v1h8c.553,0,1,.447,1,1Zm0,8c0,.553-.447,1-1,1h-2v1c0,.553-.447,1-1,1s-1-.447-1-1v-1H6c-.553,0-1-.447-1-1s.447-1,1-1h8v-1c0-.553.447-1,1-1s1,.447,1,1v1h2c.553,0,1,.447,1,1Z"/></svg>
