<?xml version="1.0" encoding="UTF-8"?>
<svg xmlns="http://www.w3.org/2000/svg" id="Layer_1" data-name="Layer 1" viewBox="0 0 24 24" width="512" height="512"><path d="M20.73,14.32c-.38-.4-1.01-.42-1.41-.05-.4,.38-.42,1.01-.05,1.41l2.16,2.32h-6.59c-.88,0-1.71-.38-2.28-1.05l-4.25-4.95,4.25-4.95c.57-.67,1.4-1.05,2.28-1.05h6.59l-2.16,2.32c-.38,.4-.35,1.04,.05,1.41,.19,.18,.44,.27,.68,.27,.27,0,.53-.11,.73-.32l2.39-2.56c1.17-1.17,1.17-3.07,.02-4.22L20.73,.32c-.38-.4-1.01-.42-1.41-.05-.4,.38-.42,1.01-.05,1.41l2.16,2.32h-6.59c-1.46,0-2.85,.64-3.8,1.75l-4.5,5.25H1c-.55,0-1,.45-1,1s.45,1,1,1H6.54l4.5,5.25c.95,1.11,2.33,1.75,3.8,1.75h6.59l-2.16,2.32c-.38,.4-.35,1.04,.05,1.41,.19,.18,.44,.27,.68,.27,.27,0,.53-.11,.73-.32l2.39-2.56c1.17-1.17,1.17-3.07,.02-4.22l-2.41-2.59Z"/></svg>
