<?xml version="1.0" encoding="UTF-8"?>
<svg xmlns="http://www.w3.org/2000/svg" id="Layer_1" data-name="Layer 1" viewBox="0 0 24 24" width="512" height="512"><path d="m19.019-.077H5.019C2.262-.077.019,2.166.019,4.923v14c0,2.757,2.243,5,5,5h14c2.757,0,5-2.243,5-5V4.923C24.019,2.166,21.776-.077,19.019-.077Zm3,19c0,1.654-1.346,3-3,3H5.019c-1.654,0-3-1.346-3-3V4.923c0-1.654,1.346-3,3-3h14c1.654,0,3,1.346,3,3v14Zm-6.888-11.818c-.474-1.335-1.695-2.198-3.112-2.198s-2.638.863-3.109,2.19l-3.831,10.5c-.189.519.078,1.093.597,1.282.519.188,1.093-.078,1.282-.597l1.197-3.282h7.726l1.197,3.282c.148.406.531.658.939.658.114,0,.229-.02.343-.061.519-.189.786-.763.597-1.282l-3.827-10.492Zm-6.246,5.895l1.906-5.226c.286-.805,1.012-.867,1.227-.867s.942.062,1.23.875l1.903,5.218h-6.267Z"/></svg>
