<?xml version="1.0" encoding="UTF-8"?>
<svg xmlns="http://www.w3.org/2000/svg" id="Layer_1" data-name="Layer 1" viewBox="0 0 24 24" width="512" height="512"><path d="M7.707,9.256c.391,.391,.391,1.024,0,1.414-.391,.391-1.024,.391-1.414,0-.391-.391-.391-1.024,0-1.414,.391-.391,1.024-.391,1.414,0Zm13.852,6.085l-.565,.565c-.027,1.233-.505,2.457-1.435,3.399l-3.167,3.208c-.943,.955-2.201,1.483-3.543,1.487h-.017c-1.335,0-2.59-.52-3.534-1.464L1.882,15.183c-.65-.649-.964-1.542-.864-2.453l.765-6.916c.051-.456,.404-.819,.858-.881l6.889-.942c.932-.124,1.87,.193,2.528,.851l7.475,7.412c.387,.387,.697,.823,.931,1.288,.812-1.166,.698-2.795-.342-3.835L12.531,2.302c-.229-.229-.545-.335-.851-.292l-6.889,.942c-.549,.074-1.052-.309-1.127-.855-.074-.547,.309-1.051,.855-1.126L11.409,.028c.921-.131,1.869,.191,2.528,.852l7.589,7.405c1.946,1.945,1.957,5.107,.032,7.057Zm-3.438-1.67l-7.475-7.412c-.223-.223-.536-.326-.847-.287l-6.115,.837-.679,6.14c-.033,.303,.071,.601,.287,.816l7.416,7.353c.569,.57,1.322,.881,2.123,.881h.01c.806-.002,1.561-.319,2.126-.893l3.167-3.208c1.155-1.17,1.149-3.067-.014-4.229Z"/></svg>
