<svg xmlns="http://www.w3.org/2000/svg" width="1em" height="1em" viewBox="0 0 48 48"><circle cx="24" cy="24" r="21.5" fill="none" stroke="currentColor" stroke-linecap="round" stroke-linejoin="round"/><circle cx="24" cy="24" r="6" fill="none" stroke="currentColor" stroke-linecap="round" stroke-linejoin="round"/><path fill="none" stroke="currentColor" stroke-linecap="round" stroke-linejoin="round" d="M30 24.087h15.5m-15.363-12.67a14 14 0 0 1 4.46 3.435m.128 18.147a14 14 0 0 1-4.588 3.584M16.375 12.259a14 14 0 0 1 8.845-2.206M10.007 24.44a14 14 0 0 1 2.483-8.41m5.154 20.444a14 14 0 0 1-6.434-6.78m12.567 6.003V45.5m10.948-12.501l6.548 3.804M11.21 29.694l-6.27 4.254m7.55-17.918l-6.394-3.933m19.124-2.044l.08-7.514m9.298 12.313l6.459-3.94"/></svg>