<svg xmlns="http://www.w3.org/2000/svg" width="1em" height="1em" viewBox="0 0 24 24"><path fill="currentColor" d="M11.5 21v-3.712q0-1.361-.387-2.151q-.386-.79-1.163-1.46l.713-.714q.339.314.7.78q.362.467.637.99q.292-.61.77-1.165q.478-.555 1.007-1.02q1.258-1.106 1.994-2.736q.737-1.631.71-4.872l-2.075 2.075l-.714-.707L17 3l3.308 3.308l-.708.707l-2.12-2.113q.028 3.363-.782 5.222t-2.225 3.155q-.858.783-1.415 1.557q-.558.774-.558 2.452V21h-1ZM6.758 8.117q-.12-.519-.176-1.427q-.057-.907-.063-1.788L4.4 7.015l-.708-.707L7 3l3.308 3.308l-.714.707L7.52 4.946q-.019.833.04 1.632q.06.799.168 1.314l-.97.225Zm1.861 4.227q-.404-.486-.79-1.138q-.385-.652-.6-1.273l.963-.245q.173.483.47 1.006q.296.523.67.937l-.713.713Z"/></svg>