<svg xmlns="http://www.w3.org/2000/svg" width="1em" height="1em" viewBox="0 0 24 24"><path fill="currentColor" d="M4.654 19.346v-1H7.75l-1.054-1.042q-1.148-1.148-1.672-2.49q-.524-1.34-.524-2.726q0-2.41 1.374-4.36Q7.248 5.777 9.5 4.942v1.062q-1.82.765-2.91 2.424q-1.09 1.659-1.09 3.66q0 1.222.463 2.37q.464 1.15 1.44 2.127l1.02 1.019v-3.027h1v4.77h-4.77Zm9.846-.288v-1.062q1.82-.765 2.91-2.424q1.09-1.659 1.09-3.66q0-1.222-.463-2.37q-.464-1.15-1.44-2.127l-1.02-1.019v3.027h-1v-4.77h4.77v1H16.25l1.054 1.043q1.148 1.148 1.672 2.49q.524 1.34.524 2.726q0 2.41-1.374 4.36q-1.374 1.951-3.626 2.786Z"/></svg>