<svg xmlns="http://www.w3.org/2000/svg" width="1em" height="1em" viewBox="0 0 24 24"><path fill="currentColor" d="M8 19.385V9.61q0-.672.475-1.14Q8.95 8 9.621 8h9.764q.67 0 1.143.472q.472.472.472 1.143v6.962L16.577 21H9.615q-.67 0-1.143-.472Q8 20.056 8 19.385ZM3.025 6.596q-.13-.671.258-1.208q.388-.538 1.06-.669l9.619-1.694q.67-.13 1.208.258q.538.388.668 1.06l.212 1.272h-1.012l-.213-1.192q-.038-.211-.23-.336q-.193-.125-.424-.087L4.52 5.713q-.269.039-.404.25q-.134.212-.096.481l1.596 9.016v1.936q-.342-.167-.581-.475q-.24-.308-.315-.706L3.025 6.596ZM9 9.616v9.769q0 .269.173.442t.442.173H16v-4h4V9.615q0-.269-.173-.442T19.385 9h-9.77q-.269 0-.442.173T9 9.615Zm5.5 4.884Z"/></svg>