<svg xmlns="http://www.w3.org/2000/svg" width="1em" height="1em" viewBox="0 0 24 24"><path fill="currentColor" d="M9 21q-1.258 0-2.34-.473q-1.083-.473-1.898-1.289q-.816-.815-1.289-1.898Q3 16.258 3 15q0-1.775.944-3.267q.944-1.493 2.587-2.214q.461-1.032 1.218-1.79q.757-.756 1.77-1.198q.71-1.604 2.17-2.568Q13.148 3 15 3q1.258 0 2.34.473q1.083.473 1.898 1.289q.816.815 1.289 1.898Q21 7.742 21 9q0 1.856-.935 3.288q-.934 1.433-2.596 2.193q-.461 1.032-1.208 1.78q-.748.747-1.78 1.208q-.721 1.604-2.175 2.568Q10.852 21 9 21Zm.038-1q1.114 0 2.232-.538q1.118-.539 1.768-1.577q-1.526.269-2.888-.214q-1.362-.483-2.35-1.452q-.988-.988-1.471-2.34q-.483-1.352-.214-2.879q-1.019.67-1.567 1.759Q4 13.849 4 15q0 1.05.4 1.96q.4.91 1.075 1.584q.694.675 1.604 1.066q.91.39 1.96.39ZM12 17q1.44 0 2.478-.654q1.037-.654 1.572-1.461q-1.533.269-2.894-.217q-1.362-.485-2.35-1.455q-.989-.988-1.474-2.34q-.486-1.352-.217-2.885q-.865.593-1.47 1.64q-.607 1.047-.607 2.372q0 1.05.388 1.95t1.068 1.575q.675.7 1.566 1.087Q10.95 17 12 17Zm3.038-3q.45 0 .863-.075t.837-.225q.55-1.5.163-2.887t-1.338-2.338q-.95-.95-2.337-1.338t-2.888.163q-.15.425-.225.837T10.038 9q0 1.05.388 1.95t1.087 1.575q.675.7 1.575 1.087t1.95.388Zm2.885-.988q.962-.65 1.52-1.63Q20 10.402 20 9q0-1.05-.387-1.95t-1.088-1.575q-.675-.7-1.575-1.087T15 4q-1.279 0-2.291.567q-1.013.568-1.72 1.548q1.532-.269 2.894.217q1.361.485 2.35 1.455q.988.988 1.474 2.34q.485 1.352.216 2.885Z"/></svg>