<svg xmlns="http://www.w3.org/2000/svg" width="1em" height="1em" viewBox="0 0 48 48"><path fill="none" stroke="currentColor" stroke-linecap="round" stroke-linejoin="round" d="M10.907 27.597c.449-.177.739-.323.87-.39c1.553-.802 2.852-1.917 3.842-3.347c.935-1.35 1.55-2.847 1.749-4.502c.194-1.615-.01-3.183-.355-4.762c-.464-2.127.099-4.053 1.426-5.75c1.23-1.574 2.878-2.477 4.847-2.666c2.727-.261 4.946.753 6.589 2.953c1.074 1.44 1.442 3.093 1.308 4.86a5.77 5.77 0 0 1-.408 1.783c-.145.349-.654 1.397-.779 1.58c-1.025 1.505-2.43 2.471-4.172 2.964c-.495.14-1.83.624-2.02.717c-1.472.718-2.656 1.778-3.626 3.079c-1.367 1.831-2.021 3.903-2.023 6.186c0 .15-.005.37.004.536"/><path fill="none" stroke="currentColor" stroke-linecap="round" stroke-linejoin="round" d="M30.398 38.71c-2.266-1.779-4.583-2.183-6.969-2.02c-2.585.176-4.837 1.174-6.694 3.027c-1.483 1.479-3.304 2.251-5.387 2.13c-3.205-.184-5.86-2.236-6.633-5.412c-.989-4.062 1.539-7.916 5.467-8.727c.434-.09.879-.123 1.319-.183c2.147.043 3.995.775 5.474 2.366c.313.336.694.591 1.067.855c.176.134.342.286.53.399c2.682 1.597 5.527 2.024 8.537 1.146c.787-.23 1.926-.705 2.638-1.125"/><path fill="none" stroke="currentColor" stroke-linecap="round" stroke-linejoin="round" d="M24.4 20.892c2.955 1.695 4.723 4.218 5.29 7.58c.165.98.199 1.96.016 2.94c-.046.53-.18 1.043-.312 1.556c-.505 1.973-.1 3.803.879 5.541c.105.212.258.359.402.542a6.9 6.9 0 0 0 3.71 2.45h0c.402.169 2.471.315 3.083.213c1.697-.284 3.151-1.031 4.262-2.33c1.499-1.754 2.062-3.79 1.628-6.089c-.286-1.513-1.008-2.767-2.106-3.823a5.087 5.087 0 0 0-1.095-.848c-.7-.533-1.546-.7-2.358-.968c-3.043-1.001-5.205-2.997-6.536-5.903c-.288-.628-.538-1.284-.637-1.955c-.144-.974-.51-2.098-.135-3.404"/></svg>