<svg xmlns="http://www.w3.org/2000/svg" width="1em" height="1em" viewBox="0 0 24 24"><path fill="currentColor" d="M11.962 21q-1.839 0-3.472-.71q-1.632-.711-2.85-1.93q-1.219-1.218-1.93-2.86Q3 13.858 3 12q0-1.883.726-3.525t1.979-2.858q1.253-1.215 2.94-1.916Q10.33 3 12.237 3q1.75 0 3.333.591q1.583.592 2.786 1.64q1.203 1.05 1.923 2.5q.72 1.452.72 3.165q0 2.317-1.337 3.71Q18.327 16 16 16h-1.773q-.629 0-1.053.433q-.424.432-.424 1.044q0 .627.375 1.064q.375.438.375 1.009q0 .73-.409 1.09q-.408.36-1.13.36ZM12 12Zm-5.5.5q.42 0 .71-.29t.29-.71q0-.42-.29-.71t-.71-.29q-.42 0-.71.29t-.29.71q0 .42.29.71t.71.29Zm3-4q.42 0 .71-.29t.29-.71q0-.42-.29-.71T9.5 6.5q-.42 0-.71.29t-.29.71q0 .42.29.71t.71.29Zm5 0q.42 0 .71-.29t.29-.71q0-.42-.29-.71t-.71-.29q-.42 0-.71.29t-.29.71q0 .42.29.71t.71.29Zm3 4q.42 0 .71-.29t.29-.71q0-.42-.29-.71t-.71-.29q-.42 0-.71.29t-.29.71q0 .42.29.71t.71.29ZM11.962 20q.263 0 .4-.115q.138-.116.138-.335q0-.35-.375-.748t-.375-1.31q0-1.088.725-1.79T14.25 15H16q1.88 0 2.94-1.107Q20 12.787 20 10.896q0-3.044-2.341-4.97Q15.317 4 12.239 4Q8.78 4 6.39 6.325T4 12q0 3.325 2.338 5.663T11.962 20Z"/></svg>