<svg xmlns="http://www.w3.org/2000/svg" xmlns:xlink="http://www.w3.org/1999/xlink" style="margin:auto;background:#00c8f7;display:block;z-index:1;position:relative" preserveAspectRatio="xMidYMid" viewBox="0 0 1920 1080">
<g transform="translate(960,540) scale(1,1) translate(-960,-540)"><g transform="translate(-100 260.04632867720443) rotate(0)">
  <animateTransform attributeName="transform" type="translate" keyTimes="0;1" values="-100 260.04632867720443;1920 260.04632867720443" dur="66.66666666666667s" repeatCount="indefinite" begin="-59.098634997746146s"></animateTransform>
  <path d="M84.717,33.597c0.791-2.503,1.186-5.138,1.186-7.773C85.903,11.594,74.308,0,60.079,0 c-9.881,0-18.445,5.534-22.793,13.702c-1.581-0.527-3.426-0.791-5.138-0.791c-9.486,0-17.128,7.642-17.128,17.128 c0,1.186,0.132,2.372,0.395,3.426C6.719,34.783,0,42.424,0,51.515C0,61.66,8.169,69.829,18.314,69.829h63.373 C91.831,69.829,100,61.66,100,51.515C99.868,42.556,93.281,35.046,84.717,33.597z" fill="#29d7ff" transform="scale(1.445)"></path>
</g><g transform="translate(-100 211.0473488945966) rotate(0)">
  <animateTransform attributeName="transform" type="translate" keyTimes="0;1" values="-100 211.0473488945966;1920 211.0473488945966" dur="66.66666666666667s" repeatCount="indefinite" begin="-33.143360473226s"></animateTransform>
  <path d="M84.717,33.597c0.791-2.503,1.186-5.138,1.186-7.773C85.903,11.594,74.308,0,60.079,0 c-9.881,0-18.445,5.534-22.793,13.702c-1.581-0.527-3.426-0.791-5.138-0.791c-9.486,0-17.128,7.642-17.128,17.128 c0,1.186,0.132,2.372,0.395,3.426C6.719,34.783,0,42.424,0,51.515C0,61.66,8.169,69.829,18.314,69.829h63.373 C91.831,69.829,100,61.66,100,51.515C99.868,42.556,93.281,35.046,84.717,33.597z" fill="#29d7ff" transform="scale(1.445)"></path>
</g><g transform="translate(-100 357.09648586564555) rotate(0)">
  <animateTransform attributeName="transform" type="translate" keyTimes="0;1" values="-100 357.09648586564555;1920 357.09648586564555" dur="66.66666666666667s" repeatCount="indefinite" begin="-15.199006779892834s"></animateTransform>
  <path d="M84.717,33.597c0.791-2.503,1.186-5.138,1.186-7.773C85.903,11.594,74.308,0,60.079,0 c-9.881,0-18.445,5.534-22.793,13.702c-1.581-0.527-3.426-0.791-5.138-0.791c-9.486,0-17.128,7.642-17.128,17.128 c0,1.186,0.132,2.372,0.395,3.426C6.719,34.783,0,42.424,0,51.515C0,61.66,8.169,69.829,18.314,69.829h63.373 C91.831,69.829,100,61.66,100,51.515C99.868,42.556,93.281,35.046,84.717,33.597z" fill="#29d7ff" transform="scale(1.445)"></path>
</g><g transform="translate(-100 853.2926913460775) rotate(0)">
  <animateTransform attributeName="transform" type="translate" keyTimes="0;1" values="-100 853.2926913460775;1920 853.2926913460775" dur="66.66666666666667s" repeatCount="indefinite" begin="-54.18280728278231s"></animateTransform>
  <path d="M84.717,33.597c0.791-2.503,1.186-5.138,1.186-7.773C85.903,11.594,74.308,0,60.079,0 c-9.881,0-18.445,5.534-22.793,13.702c-1.581-0.527-3.426-0.791-5.138-0.791c-9.486,0-17.128,7.642-17.128,17.128 c0,1.186,0.132,2.372,0.395,3.426C6.719,34.783,0,42.424,0,51.515C0,61.66,8.169,69.829,18.314,69.829h63.373 C91.831,69.829,100,61.66,100,51.515C99.868,42.556,93.281,35.046,84.717,33.597z" fill="#29d7ff" transform="scale(1.445)"></path>
</g><g transform="translate(-100 345.1673364476404) rotate(0)">
  <animateTransform attributeName="transform" type="translate" keyTimes="0;1" values="-100 345.1673364476404;1920 345.1673364476404" dur="66.66666666666667s" repeatCount="indefinite" begin="-16.952772594814085s"></animateTransform>
  <path d="M84.717,33.597c0.791-2.503,1.186-5.138,1.186-7.773C85.903,11.594,74.308,0,60.079,0 c-9.881,0-18.445,5.534-22.793,13.702c-1.581-0.527-3.426-0.791-5.138-0.791c-9.486,0-17.128,7.642-17.128,17.128 c0,1.186,0.132,2.372,0.395,3.426C6.719,34.783,0,42.424,0,51.515C0,61.66,8.169,69.829,18.314,69.829h63.373 C91.831,69.829,100,61.66,100,51.515C99.868,42.556,93.281,35.046,84.717,33.597z" fill="#29d7ff" transform="scale(1.445)"></path>
</g><g transform="translate(-100 979.754498351877) rotate(0)">
  <animateTransform attributeName="transform" type="translate" keyTimes="0;1" values="-100 979.754498351877;1920 979.754498351877" dur="66.66666666666667s" repeatCount="indefinite" begin="-17.377487879821437s"></animateTransform>
  <path d="M84.717,33.597c0.791-2.503,1.186-5.138,1.186-7.773C85.903,11.594,74.308,0,60.079,0 c-9.881,0-18.445,5.534-22.793,13.702c-1.581-0.527-3.426-0.791-5.138-0.791c-9.486,0-17.128,7.642-17.128,17.128 c0,1.186,0.132,2.372,0.395,3.426C6.719,34.783,0,42.424,0,51.515C0,61.66,8.169,69.829,18.314,69.829h63.373 C91.831,69.829,100,61.66,100,51.515C99.868,42.556,93.281,35.046,84.717,33.597z" fill="#29d7ff" transform="scale(1.445)"></path>
</g><g transform="translate(-100 36.01811266805535) rotate(0)">
  <animateTransform attributeName="transform" type="translate" keyTimes="0;1" values="-100 36.01811266805535;1920 36.01811266805535" dur="66.66666666666667s" repeatCount="indefinite" begin="-10.647947756016718s"></animateTransform>
  <path d="M84.717,33.597c0.791-2.503,1.186-5.138,1.186-7.773C85.903,11.594,74.308,0,60.079,0 c-9.881,0-18.445,5.534-22.793,13.702c-1.581-0.527-3.426-0.791-5.138-0.791c-9.486,0-17.128,7.642-17.128,17.128 c0,1.186,0.132,2.372,0.395,3.426C6.719,34.783,0,42.424,0,51.515C0,61.66,8.169,69.829,18.314,69.829h63.373 C91.831,69.829,100,61.66,100,51.515C99.868,42.556,93.281,35.046,84.717,33.597z" fill="#29d7ff" transform="scale(1.445)"></path>
</g><g transform="translate(-100 655.8058721419447) rotate(0)">
  <animateTransform attributeName="transform" type="translate" keyTimes="0;1" values="-100 655.8058721419447;1920 655.8058721419447" dur="66.66666666666667s" repeatCount="indefinite" begin="-24.21491209976326s"></animateTransform>
  <path d="M84.717,33.597c0.791-2.503,1.186-5.138,1.186-7.773C85.903,11.594,74.308,0,60.079,0 c-9.881,0-18.445,5.534-22.793,13.702c-1.581-0.527-3.426-0.791-5.138-0.791c-9.486,0-17.128,7.642-17.128,17.128 c0,1.186,0.132,2.372,0.395,3.426C6.719,34.783,0,42.424,0,51.515C0,61.66,8.169,69.829,18.314,69.829h63.373 C91.831,69.829,100,61.66,100,51.515C99.868,42.556,93.281,35.046,84.717,33.597z" fill="#29d7ff" transform="scale(1.445)"></path>
</g><g transform="translate(-100 247.3264708241904) rotate(0)">
  <animateTransform attributeName="transform" type="translate" keyTimes="0;1" values="-100 247.3264708241904;1920 247.3264708241904" dur="66.66666666666667s" repeatCount="indefinite" begin="-55.95788649408587s"></animateTransform>
  <path d="M84.717,33.597c0.791-2.503,1.186-5.138,1.186-7.773C85.903,11.594,74.308,0,60.079,0 c-9.881,0-18.445,5.534-22.793,13.702c-1.581-0.527-3.426-0.791-5.138-0.791c-9.486,0-17.128,7.642-17.128,17.128 c0,1.186,0.132,2.372,0.395,3.426C6.719,34.783,0,42.424,0,51.515C0,61.66,8.169,69.829,18.314,69.829h63.373 C91.831,69.829,100,61.66,100,51.515C99.868,42.556,93.281,35.046,84.717,33.597z" fill="#29d7ff" transform="scale(1.445)"></path>
</g><g transform="translate(-100 865.7919444964489) rotate(0)">
  <animateTransform attributeName="transform" type="translate" keyTimes="0;1" values="-100 865.7919444964489;1920 865.7919444964489" dur="66.66666666666667s" repeatCount="indefinite" begin="-24.173584108492495s"></animateTransform>
  <path d="M84.717,33.597c0.791-2.503,1.186-5.138,1.186-7.773C85.903,11.594,74.308,0,60.079,0 c-9.881,0-18.445,5.534-22.793,13.702c-1.581-0.527-3.426-0.791-5.138-0.791c-9.486,0-17.128,7.642-17.128,17.128 c0,1.186,0.132,2.372,0.395,3.426C6.719,34.783,0,42.424,0,51.515C0,61.66,8.169,69.829,18.314,69.829h63.373 C91.831,69.829,100,61.66,100,51.515C99.868,42.556,93.281,35.046,84.717,33.597z" fill="#29d7ff" transform="scale(1.445)"></path>
</g><g transform="translate(-100 116.70123730179783) rotate(0)">
  <animateTransform attributeName="transform" type="translate" keyTimes="0;1" values="-100 116.70123730179783;1920 116.70123730179783" dur="66.66666666666667s" repeatCount="indefinite" begin="-12.705830465802686s"></animateTransform>
  <path d="M84.717,33.597c0.791-2.503,1.186-5.138,1.186-7.773C85.903,11.594,74.308,0,60.079,0 c-9.881,0-18.445,5.534-22.793,13.702c-1.581-0.527-3.426-0.791-5.138-0.791c-9.486,0-17.128,7.642-17.128,17.128 c0,1.186,0.132,2.372,0.395,3.426C6.719,34.783,0,42.424,0,51.515C0,61.66,8.169,69.829,18.314,69.829h63.373 C91.831,69.829,100,61.66,100,51.515C99.868,42.556,93.281,35.046,84.717,33.597z" fill="#29d7ff" transform="scale(1.445)"></path>
</g><g transform="translate(-100 163.57622105374531) rotate(0)">
  <animateTransform attributeName="transform" type="translate" keyTimes="0;1" values="-100 163.57622105374531;1920 163.57622105374531" dur="33.333333333333336s" repeatCount="indefinite" begin="-39.056107860955365s"></animateTransform>
  <path d="M84.717,33.597c0.791-2.503,1.186-5.138,1.186-7.773C85.903,11.594,74.308,0,60.079,0 c-9.881,0-18.445,5.534-22.793,13.702c-1.581-0.527-3.426-0.791-5.138-0.791c-9.486,0-17.128,7.642-17.128,17.128 c0,1.186,0.132,2.372,0.395,3.426C6.719,34.783,0,42.424,0,51.515C0,61.66,8.169,69.829,18.314,69.829h63.373 C91.831,69.829,100,61.66,100,51.515C99.868,42.556,93.281,35.046,84.717,33.597z" fill="#5de8ff" transform="scale(1.5300000000000002)"></path>
</g><g transform="translate(-100 45.109321540758096) rotate(0)">
  <animateTransform attributeName="transform" type="translate" keyTimes="0;1" values="-100 45.109321540758096;1920 45.109321540758096" dur="33.333333333333336s" repeatCount="indefinite" begin="-62.160613111047766s"></animateTransform>
  <path d="M84.717,33.597c0.791-2.503,1.186-5.138,1.186-7.773C85.903,11.594,74.308,0,60.079,0 c-9.881,0-18.445,5.534-22.793,13.702c-1.581-0.527-3.426-0.791-5.138-0.791c-9.486,0-17.128,7.642-17.128,17.128 c0,1.186,0.132,2.372,0.395,3.426C6.719,34.783,0,42.424,0,51.515C0,61.66,8.169,69.829,18.314,69.829h63.373 C91.831,69.829,100,61.66,100,51.515C99.868,42.556,93.281,35.046,84.717,33.597z" fill="#5de8ff" transform="scale(1.5300000000000002)"></path>
</g><g transform="translate(-100 427.2173449808072) rotate(0)">
  <animateTransform attributeName="transform" type="translate" keyTimes="0;1" values="-100 427.2173449808072;1920 427.2173449808072" dur="33.333333333333336s" repeatCount="indefinite" begin="-35.510288729250696s"></animateTransform>
  <path d="M84.717,33.597c0.791-2.503,1.186-5.138,1.186-7.773C85.903,11.594,74.308,0,60.079,0 c-9.881,0-18.445,5.534-22.793,13.702c-1.581-0.527-3.426-0.791-5.138-0.791c-9.486,0-17.128,7.642-17.128,17.128 c0,1.186,0.132,2.372,0.395,3.426C6.719,34.783,0,42.424,0,51.515C0,61.66,8.169,69.829,18.314,69.829h63.373 C91.831,69.829,100,61.66,100,51.515C99.868,42.556,93.281,35.046,84.717,33.597z" fill="#5de8ff" transform="scale(1.5300000000000002)"></path>
</g><g transform="translate(-100 271.9345644005577) rotate(0)">
  <animateTransform attributeName="transform" type="translate" keyTimes="0;1" values="-100 271.9345644005577;1920 271.9345644005577" dur="33.333333333333336s" repeatCount="indefinite" begin="-36.228880758183216s"></animateTransform>
  <path d="M84.717,33.597c0.791-2.503,1.186-5.138,1.186-7.773C85.903,11.594,74.308,0,60.079,0 c-9.881,0-18.445,5.534-22.793,13.702c-1.581-0.527-3.426-0.791-5.138-0.791c-9.486,0-17.128,7.642-17.128,17.128 c0,1.186,0.132,2.372,0.395,3.426C6.719,34.783,0,42.424,0,51.515C0,61.66,8.169,69.829,18.314,69.829h63.373 C91.831,69.829,100,61.66,100,51.515C99.868,42.556,93.281,35.046,84.717,33.597z" fill="#5de8ff" transform="scale(1.5300000000000002)"></path>
</g><g transform="translate(-100 353.0007810331918) rotate(0)">
  <animateTransform attributeName="transform" type="translate" keyTimes="0;1" values="-100 353.0007810331918;1920 353.0007810331918" dur="33.333333333333336s" repeatCount="indefinite" begin="-58.48668904859106s"></animateTransform>
  <path d="M84.717,33.597c0.791-2.503,1.186-5.138,1.186-7.773C85.903,11.594,74.308,0,60.079,0 c-9.881,0-18.445,5.534-22.793,13.702c-1.581-0.527-3.426-0.791-5.138-0.791c-9.486,0-17.128,7.642-17.128,17.128 c0,1.186,0.132,2.372,0.395,3.426C6.719,34.783,0,42.424,0,51.515C0,61.66,8.169,69.829,18.314,69.829h63.373 C91.831,69.829,100,61.66,100,51.515C99.868,42.556,93.281,35.046,84.717,33.597z" fill="#5de8ff" transform="scale(1.5300000000000002)"></path>
</g><g transform="translate(-100 417.61857345886176) rotate(0)">
  <animateTransform attributeName="transform" type="translate" keyTimes="0;1" values="-100 417.61857345886176;1920 417.61857345886176" dur="33.333333333333336s" repeatCount="indefinite" begin="-65.78281206589136s"></animateTransform>
  <path d="M84.717,33.597c0.791-2.503,1.186-5.138,1.186-7.773C85.903,11.594,74.308,0,60.079,0 c-9.881,0-18.445,5.534-22.793,13.702c-1.581-0.527-3.426-0.791-5.138-0.791c-9.486,0-17.128,7.642-17.128,17.128 c0,1.186,0.132,2.372,0.395,3.426C6.719,34.783,0,42.424,0,51.515C0,61.66,8.169,69.829,18.314,69.829h63.373 C91.831,69.829,100,61.66,100,51.515C99.868,42.556,93.281,35.046,84.717,33.597z" fill="#5de8ff" transform="scale(1.5300000000000002)"></path>
</g><g transform="translate(-100 269.1806474840674) rotate(0)">
  <animateTransform attributeName="transform" type="translate" keyTimes="0;1" values="-100 269.1806474840674;1920 269.1806474840674" dur="33.333333333333336s" repeatCount="indefinite" begin="-1.460755027535236s"></animateTransform>
  <path d="M84.717,33.597c0.791-2.503,1.186-5.138,1.186-7.773C85.903,11.594,74.308,0,60.079,0 c-9.881,0-18.445,5.534-22.793,13.702c-1.581-0.527-3.426-0.791-5.138-0.791c-9.486,0-17.128,7.642-17.128,17.128 c0,1.186,0.132,2.372,0.395,3.426C6.719,34.783,0,42.424,0,51.515C0,61.66,8.169,69.829,18.314,69.829h63.373 C91.831,69.829,100,61.66,100,51.515C99.868,42.556,93.281,35.046,84.717,33.597z" fill="#5de8ff" transform="scale(1.5300000000000002)"></path>
</g><g transform="translate(-100 632.1267378588713) rotate(0)">
  <animateTransform attributeName="transform" type="translate" keyTimes="0;1" values="-100 632.1267378588713;1920 632.1267378588713" dur="33.333333333333336s" repeatCount="indefinite" begin="-66.50499741260063s"></animateTransform>
  <path d="M84.717,33.597c0.791-2.503,1.186-5.138,1.186-7.773C85.903,11.594,74.308,0,60.079,0 c-9.881,0-18.445,5.534-22.793,13.702c-1.581-0.527-3.426-0.791-5.138-0.791c-9.486,0-17.128,7.642-17.128,17.128 c0,1.186,0.132,2.372,0.395,3.426C6.719,34.783,0,42.424,0,51.515C0,61.66,8.169,69.829,18.314,69.829h63.373 C91.831,69.829,100,61.66,100,51.515C99.868,42.556,93.281,35.046,84.717,33.597z" fill="#5de8ff" transform="scale(1.5300000000000002)"></path>
</g><g transform="translate(-100 819.5413359065282) rotate(0)">
  <animateTransform attributeName="transform" type="translate" keyTimes="0;1" values="-100 819.5413359065282;1920 819.5413359065282" dur="33.333333333333336s" repeatCount="indefinite" begin="-36.474554022083424s"></animateTransform>
  <path d="M84.717,33.597c0.791-2.503,1.186-5.138,1.186-7.773C85.903,11.594,74.308,0,60.079,0 c-9.881,0-18.445,5.534-22.793,13.702c-1.581-0.527-3.426-0.791-5.138-0.791c-9.486,0-17.128,7.642-17.128,17.128 c0,1.186,0.132,2.372,0.395,3.426C6.719,34.783,0,42.424,0,51.515C0,61.66,8.169,69.829,18.314,69.829h63.373 C91.831,69.829,100,61.66,100,51.515C99.868,42.556,93.281,35.046,84.717,33.597z" fill="#5de8ff" transform="scale(1.5300000000000002)"></path>
</g><g transform="translate(-100 762.2383281615598) rotate(0)">
  <animateTransform attributeName="transform" type="translate" keyTimes="0;1" values="-100 762.2383281615598;1920 762.2383281615598" dur="33.333333333333336s" repeatCount="indefinite" begin="-55.068451046918334s"></animateTransform>
  <path d="M84.717,33.597c0.791-2.503,1.186-5.138,1.186-7.773C85.903,11.594,74.308,0,60.079,0 c-9.881,0-18.445,5.534-22.793,13.702c-1.581-0.527-3.426-0.791-5.138-0.791c-9.486,0-17.128,7.642-17.128,17.128 c0,1.186,0.132,2.372,0.395,3.426C6.719,34.783,0,42.424,0,51.515C0,61.66,8.169,69.829,18.314,69.829h63.373 C91.831,69.829,100,61.66,100,51.515C99.868,42.556,93.281,35.046,84.717,33.597z" fill="#5de8ff" transform="scale(1.5300000000000002)"></path>
</g><g transform="translate(-100 1042.0601209568486) rotate(0)">
  <animateTransform attributeName="transform" type="translate" keyTimes="0;1" values="-100 1042.0601209568486;1920 1042.0601209568486" dur="33.333333333333336s" repeatCount="indefinite" begin="-1.8183112512169866s"></animateTransform>
  <path d="M84.717,33.597c0.791-2.503,1.186-5.138,1.186-7.773C85.903,11.594,74.308,0,60.079,0 c-9.881,0-18.445,5.534-22.793,13.702c-1.581-0.527-3.426-0.791-5.138-0.791c-9.486,0-17.128,7.642-17.128,17.128 c0,1.186,0.132,2.372,0.395,3.426C6.719,34.783,0,42.424,0,51.515C0,61.66,8.169,69.829,18.314,69.829h63.373 C91.831,69.829,100,61.66,100,51.515C99.868,42.556,93.281,35.046,84.717,33.597z" fill="#5de8ff" transform="scale(1.5300000000000002)"></path>
</g><g transform="translate(-100 268.53984246889826) rotate(0)">
  <animateTransform attributeName="transform" type="translate" keyTimes="0;1" values="-100 268.53984246889826;1920 268.53984246889826" dur="22.222222222222225s" repeatCount="indefinite" begin="-41.220404521174814s"></animateTransform>
  <path d="M84.717,33.597c0.791-2.503,1.186-5.138,1.186-7.773C85.903,11.594,74.308,0,60.079,0 c-9.881,0-18.445,5.534-22.793,13.702c-1.581-0.527-3.426-0.791-5.138-0.791c-9.486,0-17.128,7.642-17.128,17.128 c0,1.186,0.132,2.372,0.395,3.426C6.719,34.783,0,42.424,0,51.515C0,61.66,8.169,69.829,18.314,69.829h63.373 C91.831,69.829,100,61.66,100,51.515C99.868,42.556,93.281,35.046,84.717,33.597z" fill="#90efff" transform="scale(1.615)"></path>
</g><g transform="translate(-100 905.0663850731333) rotate(0)">
  <animateTransform attributeName="transform" type="translate" keyTimes="0;1" values="-100 905.0663850731333;1920 905.0663850731333" dur="22.222222222222225s" repeatCount="indefinite" begin="-35.734668165334256s"></animateTransform>
  <path d="M84.717,33.597c0.791-2.503,1.186-5.138,1.186-7.773C85.903,11.594,74.308,0,60.079,0 c-9.881,0-18.445,5.534-22.793,13.702c-1.581-0.527-3.426-0.791-5.138-0.791c-9.486,0-17.128,7.642-17.128,17.128 c0,1.186,0.132,2.372,0.395,3.426C6.719,34.783,0,42.424,0,51.515C0,61.66,8.169,69.829,18.314,69.829h63.373 C91.831,69.829,100,61.66,100,51.515C99.868,42.556,93.281,35.046,84.717,33.597z" fill="#90efff" transform="scale(1.615)"></path>
</g><g transform="translate(-100 797.0846347950895) rotate(0)">
  <animateTransform attributeName="transform" type="translate" keyTimes="0;1" values="-100 797.0846347950895;1920 797.0846347950895" dur="22.222222222222225s" repeatCount="indefinite" begin="-31.737085761171198s"></animateTransform>
  <path d="M84.717,33.597c0.791-2.503,1.186-5.138,1.186-7.773C85.903,11.594,74.308,0,60.079,0 c-9.881,0-18.445,5.534-22.793,13.702c-1.581-0.527-3.426-0.791-5.138-0.791c-9.486,0-17.128,7.642-17.128,17.128 c0,1.186,0.132,2.372,0.395,3.426C6.719,34.783,0,42.424,0,51.515C0,61.66,8.169,69.829,18.314,69.829h63.373 C91.831,69.829,100,61.66,100,51.515C99.868,42.556,93.281,35.046,84.717,33.597z" fill="#90efff" transform="scale(1.615)"></path>
</g><g transform="translate(-100 478.06730889161577) rotate(0)">
  <animateTransform attributeName="transform" type="translate" keyTimes="0;1" values="-100 478.06730889161577;1920 478.06730889161577" dur="22.222222222222225s" repeatCount="indefinite" begin="-58.559941411294474s"></animateTransform>
  <path d="M84.717,33.597c0.791-2.503,1.186-5.138,1.186-7.773C85.903,11.594,74.308,0,60.079,0 c-9.881,0-18.445,5.534-22.793,13.702c-1.581-0.527-3.426-0.791-5.138-0.791c-9.486,0-17.128,7.642-17.128,17.128 c0,1.186,0.132,2.372,0.395,3.426C6.719,34.783,0,42.424,0,51.515C0,61.66,8.169,69.829,18.314,69.829h63.373 C91.831,69.829,100,61.66,100,51.515C99.868,42.556,93.281,35.046,84.717,33.597z" fill="#90efff" transform="scale(1.615)"></path>
</g><g transform="translate(-100 387.31006388841865) rotate(0)">
  <animateTransform attributeName="transform" type="translate" keyTimes="0;1" values="-100 387.31006388841865;1920 387.31006388841865" dur="22.222222222222225s" repeatCount="indefinite" begin="-4.389310845099844s"></animateTransform>
  <path d="M84.717,33.597c0.791-2.503,1.186-5.138,1.186-7.773C85.903,11.594,74.308,0,60.079,0 c-9.881,0-18.445,5.534-22.793,13.702c-1.581-0.527-3.426-0.791-5.138-0.791c-9.486,0-17.128,7.642-17.128,17.128 c0,1.186,0.132,2.372,0.395,3.426C6.719,34.783,0,42.424,0,51.515C0,61.66,8.169,69.829,18.314,69.829h63.373 C91.831,69.829,100,61.66,100,51.515C99.868,42.556,93.281,35.046,84.717,33.597z" fill="#90efff" transform="scale(1.615)"></path>
</g><g transform="translate(-100 63.51910915572611) rotate(0)">
  <animateTransform attributeName="transform" type="translate" keyTimes="0;1" values="-100 63.51910915572611;1920 63.51910915572611" dur="22.222222222222225s" repeatCount="indefinite" begin="-30.807780027105057s"></animateTransform>
  <path d="M84.717,33.597c0.791-2.503,1.186-5.138,1.186-7.773C85.903,11.594,74.308,0,60.079,0 c-9.881,0-18.445,5.534-22.793,13.702c-1.581-0.527-3.426-0.791-5.138-0.791c-9.486,0-17.128,7.642-17.128,17.128 c0,1.186,0.132,2.372,0.395,3.426C6.719,34.783,0,42.424,0,51.515C0,61.66,8.169,69.829,18.314,69.829h63.373 C91.831,69.829,100,61.66,100,51.515C99.868,42.556,93.281,35.046,84.717,33.597z" fill="#90efff" transform="scale(1.615)"></path>
</g><g transform="translate(-100 160.03958081327133) rotate(0)">
  <animateTransform attributeName="transform" type="translate" keyTimes="0;1" values="-100 160.03958081327133;1920 160.03958081327133" dur="22.222222222222225s" repeatCount="indefinite" begin="-31.215443820437493s"></animateTransform>
  <path d="M84.717,33.597c0.791-2.503,1.186-5.138,1.186-7.773C85.903,11.594,74.308,0,60.079,0 c-9.881,0-18.445,5.534-22.793,13.702c-1.581-0.527-3.426-0.791-5.138-0.791c-9.486,0-17.128,7.642-17.128,17.128 c0,1.186,0.132,2.372,0.395,3.426C6.719,34.783,0,42.424,0,51.515C0,61.66,8.169,69.829,18.314,69.829h63.373 C91.831,69.829,100,61.66,100,51.515C99.868,42.556,93.281,35.046,84.717,33.597z" fill="#90efff" transform="scale(1.615)"></path>
</g><g transform="translate(-100 103.11545525672926) rotate(0)">
  <animateTransform attributeName="transform" type="translate" keyTimes="0;1" values="-100 103.11545525672926;1920 103.11545525672926" dur="22.222222222222225s" repeatCount="indefinite" begin="-51.42367904992673s"></animateTransform>
  <path d="M84.717,33.597c0.791-2.503,1.186-5.138,1.186-7.773C85.903,11.594,74.308,0,60.079,0 c-9.881,0-18.445,5.534-22.793,13.702c-1.581-0.527-3.426-0.791-5.138-0.791c-9.486,0-17.128,7.642-17.128,17.128 c0,1.186,0.132,2.372,0.395,3.426C6.719,34.783,0,42.424,0,51.515C0,61.66,8.169,69.829,18.314,69.829h63.373 C91.831,69.829,100,61.66,100,51.515C99.868,42.556,93.281,35.046,84.717,33.597z" fill="#90efff" transform="scale(1.615)"></path>
</g><g transform="translate(-100 62.87782398456427) rotate(0)">
  <animateTransform attributeName="transform" type="translate" keyTimes="0;1" values="-100 62.87782398456427;1920 62.87782398456427" dur="22.222222222222225s" repeatCount="indefinite" begin="-10.502540888504486s"></animateTransform>
  <path d="M84.717,33.597c0.791-2.503,1.186-5.138,1.186-7.773C85.903,11.594,74.308,0,60.079,0 c-9.881,0-18.445,5.534-22.793,13.702c-1.581-0.527-3.426-0.791-5.138-0.791c-9.486,0-17.128,7.642-17.128,17.128 c0,1.186,0.132,2.372,0.395,3.426C6.719,34.783,0,42.424,0,51.515C0,61.66,8.169,69.829,18.314,69.829h63.373 C91.831,69.829,100,61.66,100,51.515C99.868,42.556,93.281,35.046,84.717,33.597z" fill="#90efff" transform="scale(1.615)"></path>
</g><g transform="translate(-100 225.1039551800698) rotate(0)">
  <animateTransform attributeName="transform" type="translate" keyTimes="0;1" values="-100 225.1039551800698;1920 225.1039551800698" dur="22.222222222222225s" repeatCount="indefinite" begin="-12.608975412910011s"></animateTransform>
  <path d="M84.717,33.597c0.791-2.503,1.186-5.138,1.186-7.773C85.903,11.594,74.308,0,60.079,0 c-9.881,0-18.445,5.534-22.793,13.702c-1.581-0.527-3.426-0.791-5.138-0.791c-9.486,0-17.128,7.642-17.128,17.128 c0,1.186,0.132,2.372,0.395,3.426C6.719,34.783,0,42.424,0,51.515C0,61.66,8.169,69.829,18.314,69.829h63.373 C91.831,69.829,100,61.66,100,51.515C99.868,42.556,93.281,35.046,84.717,33.597z" fill="#90efff" transform="scale(1.615)"></path>
</g><g transform="translate(-100 101.5260659581159) rotate(0)">
  <animateTransform attributeName="transform" type="translate" keyTimes="0;1" values="-100 101.5260659581159;1920 101.5260659581159" dur="22.222222222222225s" repeatCount="indefinite" begin="-52.50087413845791s"></animateTransform>
  <path d="M84.717,33.597c0.791-2.503,1.186-5.138,1.186-7.773C85.903,11.594,74.308,0,60.079,0 c-9.881,0-18.445,5.534-22.793,13.702c-1.581-0.527-3.426-0.791-5.138-0.791c-9.486,0-17.128,7.642-17.128,17.128 c0,1.186,0.132,2.372,0.395,3.426C6.719,34.783,0,42.424,0,51.515C0,61.66,8.169,69.829,18.314,69.829h63.373 C91.831,69.829,100,61.66,100,51.515C99.868,42.556,93.281,35.046,84.717,33.597z" fill="#90efff" transform="scale(1.615)"></path>
</g><g color="white">
  <text color="white" x="50%" y="50%" alignment-baseline="middle" text-anchor="middle">404</text>
</g><g transform="translate(-100 274.3224516128098) rotate(0)">
  <animateTransform attributeName="transform" type="translate" keyTimes="0;1" values="-100 274.3224516128098;1920 274.3224516128098" dur="16.666666666666668s" repeatCount="indefinite" begin="-32.08264265135804s"></animateTransform>
  <path d="M84.717,33.597c0.791-2.503,1.186-5.138,1.186-7.773C85.903,11.594,74.308,0,60.079,0 c-9.881,0-18.445,5.534-22.793,13.702c-1.581-0.527-3.426-0.791-5.138-0.791c-9.486,0-17.128,7.642-17.128,17.128 c0,1.186,0.132,2.372,0.395,3.426C6.719,34.783,0,42.424,0,51.515C0,61.66,8.169,69.829,18.314,69.829h63.373 C91.831,69.829,100,61.66,100,51.515C99.868,42.556,93.281,35.046,84.717,33.597z" fill="#c4f7ff" transform="scale(1.7000000000000002)"></path>
</g><g transform="translate(-100 168.62184680903852) rotate(0)">
  <animateTransform attributeName="transform" type="translate" keyTimes="0;1" values="-100 168.62184680903852;1920 168.62184680903852" dur="16.666666666666668s" repeatCount="indefinite" begin="-65.00730237559314s"></animateTransform>
  <path d="M84.717,33.597c0.791-2.503,1.186-5.138,1.186-7.773C85.903,11.594,74.308,0,60.079,0 c-9.881,0-18.445,5.534-22.793,13.702c-1.581-0.527-3.426-0.791-5.138-0.791c-9.486,0-17.128,7.642-17.128,17.128 c0,1.186,0.132,2.372,0.395,3.426C6.719,34.783,0,42.424,0,51.515C0,61.66,8.169,69.829,18.314,69.829h63.373 C91.831,69.829,100,61.66,100,51.515C99.868,42.556,93.281,35.046,84.717,33.597z" fill="#c4f7ff" transform="scale(1.7000000000000002)"></path>
</g><g transform="translate(-100 1045.1002405067698) rotate(0)">
  <animateTransform attributeName="transform" type="translate" keyTimes="0;1" values="-100 1045.1002405067698;1920 1045.1002405067698" dur="16.666666666666668s" repeatCount="indefinite" begin="-57.9589271934936s"></animateTransform>
  <path d="M84.717,33.597c0.791-2.503,1.186-5.138,1.186-7.773C85.903,11.594,74.308,0,60.079,0 c-9.881,0-18.445,5.534-22.793,13.702c-1.581-0.527-3.426-0.791-5.138-0.791c-9.486,0-17.128,7.642-17.128,17.128 c0,1.186,0.132,2.372,0.395,3.426C6.719,34.783,0,42.424,0,51.515C0,61.66,8.169,69.829,18.314,69.829h63.373 C91.831,69.829,100,61.66,100,51.515C99.868,42.556,93.281,35.046,84.717,33.597z" fill="#c4f7ff" transform="scale(1.7000000000000002)"></path>
</g><g transform="translate(-100 648.7069651740808) rotate(0)">
  <animateTransform attributeName="transform" type="translate" keyTimes="0;1" values="-100 648.7069651740808;1920 648.7069651740808" dur="16.666666666666668s" repeatCount="indefinite" begin="-31.692069155273607s"></animateTransform>
  <path d="M84.717,33.597c0.791-2.503,1.186-5.138,1.186-7.773C85.903,11.594,74.308,0,60.079,0 c-9.881,0-18.445,5.534-22.793,13.702c-1.581-0.527-3.426-0.791-5.138-0.791c-9.486,0-17.128,7.642-17.128,17.128 c0,1.186,0.132,2.372,0.395,3.426C6.719,34.783,0,42.424,0,51.515C0,61.66,8.169,69.829,18.314,69.829h63.373 C91.831,69.829,100,61.66,100,51.515C99.868,42.556,93.281,35.046,84.717,33.597z" fill="#c4f7ff" transform="scale(1.7000000000000002)"></path>
</g><g transform="translate(-100 914.1936574930643) rotate(0)">
  <animateTransform attributeName="transform" type="translate" keyTimes="0;1" values="-100 914.1936574930643;1920 914.1936574930643" dur="16.666666666666668s" repeatCount="indefinite" begin="-11.84475024286013s"></animateTransform>
  <path d="M84.717,33.597c0.791-2.503,1.186-5.138,1.186-7.773C85.903,11.594,74.308,0,60.079,0 c-9.881,0-18.445,5.534-22.793,13.702c-1.581-0.527-3.426-0.791-5.138-0.791c-9.486,0-17.128,7.642-17.128,17.128 c0,1.186,0.132,2.372,0.395,3.426C6.719,34.783,0,42.424,0,51.515C0,61.66,8.169,69.829,18.314,69.829h63.373 C91.831,69.829,100,61.66,100,51.515C99.868,42.556,93.281,35.046,84.717,33.597z" fill="#c4f7ff" transform="scale(1.7000000000000002)"></path>
</g><g transform="translate(-100 199.32054194865685) rotate(0)">
  <animateTransform attributeName="transform" type="translate" keyTimes="0;1" values="-100 199.32054194865685;1920 199.32054194865685" dur="16.666666666666668s" repeatCount="indefinite" begin="-55.51277227858666s"></animateTransform>
  <path d="M84.717,33.597c0.791-2.503,1.186-5.138,1.186-7.773C85.903,11.594,74.308,0,60.079,0 c-9.881,0-18.445,5.534-22.793,13.702c-1.581-0.527-3.426-0.791-5.138-0.791c-9.486,0-17.128,7.642-17.128,17.128 c0,1.186,0.132,2.372,0.395,3.426C6.719,34.783,0,42.424,0,51.515C0,61.66,8.169,69.829,18.314,69.829h63.373 C91.831,69.829,100,61.66,100,51.515C99.868,42.556,93.281,35.046,84.717,33.597z" fill="#c4f7ff" transform="scale(1.7000000000000002)"></path>
</g><g transform="translate(-100 605.0034408938508) rotate(0)">
  <animateTransform attributeName="transform" type="translate" keyTimes="0;1" values="-100 605.0034408938508;1920 605.0034408938508" dur="16.666666666666668s" repeatCount="indefinite" begin="-21.94526302111757s"></animateTransform>
  <path d="M84.717,33.597c0.791-2.503,1.186-5.138,1.186-7.773C85.903,11.594,74.308,0,60.079,0 c-9.881,0-18.445,5.534-22.793,13.702c-1.581-0.527-3.426-0.791-5.138-0.791c-9.486,0-17.128,7.642-17.128,17.128 c0,1.186,0.132,2.372,0.395,3.426C6.719,34.783,0,42.424,0,51.515C0,61.66,8.169,69.829,18.314,69.829h63.373 C91.831,69.829,100,61.66,100,51.515C99.868,42.556,93.281,35.046,84.717,33.597z" fill="#c4f7ff" transform="scale(1.7000000000000002)"></path>
</g><g transform="translate(-100 179.16884943640687) rotate(0)">
  <animateTransform attributeName="transform" type="translate" keyTimes="0;1" values="-100 179.16884943640687;1920 179.16884943640687" dur="16.666666666666668s" repeatCount="indefinite" begin="-54.02370403122701s"></animateTransform>
  <path d="M84.717,33.597c0.791-2.503,1.186-5.138,1.186-7.773C85.903,11.594,74.308,0,60.079,0 c-9.881,0-18.445,5.534-22.793,13.702c-1.581-0.527-3.426-0.791-5.138-0.791c-9.486,0-17.128,7.642-17.128,17.128 c0,1.186,0.132,2.372,0.395,3.426C6.719,34.783,0,42.424,0,51.515C0,61.66,8.169,69.829,18.314,69.829h63.373 C91.831,69.829,100,61.66,100,51.515C99.868,42.556,93.281,35.046,84.717,33.597z" fill="#c4f7ff" transform="scale(1.7000000000000002)"></path>
</g><g transform="translate(-100 9.65513451537558) rotate(0)">
  <animateTransform attributeName="transform" type="translate" keyTimes="0;1" values="-100 9.65513451537558;1920 9.65513451537558" dur="16.666666666666668s" repeatCount="indefinite" begin="-37.025405334672406s"></animateTransform>
  <path d="M84.717,33.597c0.791-2.503,1.186-5.138,1.186-7.773C85.903,11.594,74.308,0,60.079,0 c-9.881,0-18.445,5.534-22.793,13.702c-1.581-0.527-3.426-0.791-5.138-0.791c-9.486,0-17.128,7.642-17.128,17.128 c0,1.186,0.132,2.372,0.395,3.426C6.719,34.783,0,42.424,0,51.515C0,61.66,8.169,69.829,18.314,69.829h63.373 C91.831,69.829,100,61.66,100,51.515C99.868,42.556,93.281,35.046,84.717,33.597z" fill="#c4f7ff" transform="scale(1.7000000000000002)"></path>
</g><g transform="translate(-100 270.2240056095559) rotate(0)">
  <animateTransform attributeName="transform" type="translate" keyTimes="0;1" values="-100 270.2240056095559;1920 270.2240056095559" dur="16.666666666666668s" repeatCount="indefinite" begin="-11.621767327187154s"></animateTransform>
  <path d="M84.717,33.597c0.791-2.503,1.186-5.138,1.186-7.773C85.903,11.594,74.308,0,60.079,0 c-9.881,0-18.445,5.534-22.793,13.702c-1.581-0.527-3.426-0.791-5.138-0.791c-9.486,0-17.128,7.642-17.128,17.128 c0,1.186,0.132,2.372,0.395,3.426C6.719,34.783,0,42.424,0,51.515C0,61.66,8.169,69.829,18.314,69.829h63.373 C91.831,69.829,100,61.66,100,51.515C99.868,42.556,93.281,35.046,84.717,33.597z" fill="#c4f7ff" transform="scale(1.7000000000000002)"></path>
</g><g transform="translate(-100 1004.7024569796965) rotate(0)">
  <animateTransform attributeName="transform" type="translate" keyTimes="0;1" values="-100 1004.7024569796965;1920 1004.7024569796965" dur="16.666666666666668s" repeatCount="indefinite" begin="-20.69659990556511s"></animateTransform>
  <path d="M84.717,33.597c0.791-2.503,1.186-5.138,1.186-7.773C85.903,11.594,74.308,0,60.079,0 c-9.881,0-18.445,5.534-22.793,13.702c-1.581-0.527-3.426-0.791-5.138-0.791c-9.486,0-17.128,7.642-17.128,17.128 c0,1.186,0.132,2.372,0.395,3.426C6.719,34.783,0,42.424,0,51.515C0,61.66,8.169,69.829,18.314,69.829h63.373 C91.831,69.829,100,61.66,100,51.515C99.868,42.556,93.281,35.046,84.717,33.597z" fill="#c4f7ff" transform="scale(1.7000000000000002)"></path>
</g><g transform="translate(-100 776.6628137292487) rotate(0)">
  <animateTransform attributeName="transform" type="translate" keyTimes="0;1" values="-100 776.6628137292487;1920 776.6628137292487" dur="16.666666666666668s" repeatCount="indefinite" begin="-13.184429397544275s"></animateTransform>
  <path d="M84.717,33.597c0.791-2.503,1.186-5.138,1.186-7.773C85.903,11.594,74.308,0,60.079,0 c-9.881,0-18.445,5.534-22.793,13.702c-1.581-0.527-3.426-0.791-5.138-0.791c-9.486,0-17.128,7.642-17.128,17.128 c0,1.186,0.132,2.372,0.395,3.426C6.719,34.783,0,42.424,0,51.515C0,61.66,8.169,69.829,18.314,69.829h63.373 C91.831,69.829,100,61.66,100,51.515C99.868,42.556,93.281,35.046,84.717,33.597z" fill="#c4f7ff" transform="scale(1.7000000000000002)"></path>
</g></g>
  <style>
      text {
    font-family: cursive;
    font-size: 404px;
    fill: white;
    fill-opacity: 90%;
      }
  </style>
</svg>