<svg xmlns="http://www.w3.org/2000/svg" width="1em" height="1em" viewBox="0 0 24 24"><path fill="currentColor" d="M13.654 21v-2.21l5.333-5.307q.148-.13.305-.19q.158-.062.315-.062q.172 0 .338.064q.165.065.301.193l.925.945q.123.148.188.307q.064.16.064.32t-.061.322q-.062.162-.19.31L15.862 21h-2.21Zm6.884-5.94l-.925-.945l.925.945Zm-6 5.055h.95l3.468-3.473l-.45-.494l-.475-.47l-3.493 3.487v.95ZM6.615 21q-.69 0-1.152-.462Q5 20.075 5 19.385V4.615q0-.69.463-1.152Q5.925 3 6.615 3H14.5L19 7.5v2.596h-1V8h-4V4H6.615q-.23 0-.423.192Q6 4.385 6 4.615v14.77q0 .23.192.423q.193.192.423.192h4.654v1H6.615Zm5.885-9Zm6.006 4.148l-.475-.47l.925.964l-.45-.494Z"/></svg>