<svg xmlns="http://www.w3.org/2000/svg" width="0.9em" height="1em" viewBox="0 0 458 512"><path fill="currentColor" d="M201.502 7.462L28.046 107.61C10.858 117.54 0 136.026 0 155.864v200.283c0 19.839 10.858 38.326 28.04 48.25l173.457 100.145c17.196 9.755 37.627 10.13 55.712.003l173.456-100.142c14.653-8.467 24.73-23.16 27.335-39.602v-217.59c-2.608-16.44-12.682-31.136-27.33-39.595L257.215 7.466c-17.53-9.723-37.75-10.182-55.712-.004zm38.693 29.482l173.45 100.144a21.68 21.68 0 0 1 10.84 18.776v200.283a21.686 21.686 0 0 1-10.84 18.777l-173.45 100.139c-6.695 3.856-14.858 3.997-21.684 0l-173.45-100.14a21.686 21.686 0 0 1-10.84-18.776V155.864a21.686 21.686 0 0 1 10.84-18.776L218.51 36.944c7.083-4.041 14.862-3.813 21.684 0zm-10.842 43.81l130.09 75.11l-54.205 31.296l-43.367-25.038l10.847-6.256l-43.365-25.038l-10.84 6.26l-43.362-25.033l54.202-31.3m-.003 150.217l-54.202-31.295l43.363-25.033l10.84 6.256l10.838-6.259l43.363 25.036l-54.202 31.295zm-32.52-68.85l-43.362 25.038l-54.202-31.296l54.2-31.295l43.364 25.035l-10.848 6.262l10.848 6.256zm-32.528 143.95V293.56l-10.837-6.259V237.23l54.204 31.293v62.59l-43.367-25.04zm-32.52 18.788v50.662L77.58 343.63V193.42l54.203 31.29v50.075l-10.84-6.259l.009 50.077l10.829 6.257zm75.887 93.878l-54.204-31.296V337.37l10.84 6.255V331.11l43.364 25.035v62.593zm97.577-131.44l-10.842 6.261v12.519l-43.373 25.033v-62.58l54.215-31.307v50.074zm32.512-6.255V268.53l-10.842 6.252v-50.07l54.207-31.294v62.587l-43.365 25.038zm-43.362 50.07v12.517l43.36-25.036v-12.516l43.364-25.037l.002 62.587l-130.09 75.11v-62.592l43.364-25.034z"/></svg>