<svg xmlns="http://www.w3.org/2000/svg" width="1em" height="1em" viewBox="0 0 48 48"><path fill="none" stroke="currentColor" stroke-linecap="round" stroke-linejoin="round" d="M40.5 5.5h-33a2 2 0 0 0-2 2v33a2 2 0 0 0 2 2h33a2 2 0 0 0 2-2v-33a2 2 0 0 0-2-2Z"/><path fill="none" stroke="currentColor" stroke-linecap="round" stroke-linejoin="round" d="M18.857 22.208v3.671a2.232 2.232 0 0 0 2.225 2.225h0a2.232 2.232 0 0 0 2.226-2.225v-3.672m0 3.784v2.225m8.747-9.013v9.013m0-3.783a2.232 2.232 0 0 1 2.225-2.225h0a2.232 2.232 0 0 1 2.225 2.225v3.672m-9.091-7.678v6.676c0 .668.445 1.113 1.112 1.113h.334m-2.67-6.009h2.448M15.945 25.99a2.232 2.232 0 0 1-2.225 2.226h0a2.232 2.232 0 0 1-2.225-2.225v-1.447a2.232 2.232 0 0 1 2.225-2.225h0a2.232 2.232 0 0 1 2.225 2.225m0 3.672v-6.009"/></svg>