<svg xmlns="http://www.w3.org/2000/svg" width="1em" height="1em" viewBox="0 0 32 32"><path fill="currentColor" d="M28 13V8a2.002 2.002 0 0 0-2-2h-3v2h3v5a3.976 3.976 0 0 0 1.382 3A3.976 3.976 0 0 0 26 19v5h-3v2h3a2.002 2.002 0 0 0 2-2v-5a2.002 2.002 0 0 1 2-2v-2a2.002 2.002 0 0 1-2-2Z"/><path fill="currentColor" fill-rule="evenodd" d="m17 9l-.857 3h2L19 9h2l-.857 3H22v2h-2.428l-1.143 4H21v2h-3.143L17 23h-2l.857-3h-2L13 23h-2l.857-3H10v-2h2.429l1.143-4H11v-2h3.143L15 9Zm.572 5h-2l-1.143 4h2Z"/><path fill="currentColor" d="M6 13V8h3V6H6a2.002 2.002 0 0 0-2 2v5a2.002 2.002 0 0 1-2 2v2a2.002 2.002 0 0 1 2 2v5a2.002 2.002 0 0 0 2 2h3v-2H6v-5a3.976 3.976 0 0 0-1.382-3A3.976 3.976 0 0 0 6 13Z"/></svg>