<svg xmlns="http://www.w3.org/2000/svg" width="1em" height="1em" viewBox="0 0 48 48"><circle cx="24" cy="24" r="13" fill="none" stroke="currentColor" stroke-linecap="round" stroke-linejoin="round"/><path fill="none" stroke="currentColor" stroke-linecap="round" stroke-linejoin="round" d="m44.345 20.827l-3.55-1.02v.079a17.177 17.177 0 0 0-2.017-4.86l.063.062l1.789-3.23a1.595 1.595 0 0 0-.268-1.9l-2.32-2.32a1.595 1.595 0 0 0-1.9-.268l-3.231 1.79l.06.06a17.175 17.175 0 0 0-4.86-2.015h.082l-1.02-3.55A1.595 1.595 0 0 0 25.64 2.5h-3.28c-.711 0-1.337.471-1.533 1.155l-1.02 3.55h.079a17.177 17.177 0 0 0-4.86 2.017l.063-.063l-3.231-1.789a1.595 1.595 0 0 0-1.9.268l-2.32 2.32a1.595 1.595 0 0 0-.268 1.9l1.79 3.231l.06-.06a17.172 17.172 0 0 0-2.015 4.86v-.082l-3.55 1.02A1.595 1.595 0 0 0 2.5 22.36v3.28c0 .711.471 1.337 1.155 1.533l3.55 1.02v-.079a17.177 17.177 0 0 0 2.017 4.86l-.063-.062l-1.789 3.23a1.595 1.595 0 0 0 .268 1.9l2.32 2.32a1.595 1.595 0 0 0 1.9.268l3.231-1.79l-.06-.06a17.175 17.175 0 0 0 4.86 2.016h-.082l1.02 3.55A1.595 1.595 0 0 0 22.36 45.5h3.28c.711 0 1.337-.471 1.533-1.155l1.02-3.55h-.079a17.18 17.18 0 0 0 4.86-2.017l-.063.063l3.232 1.789a1.595 1.595 0 0 0 1.9-.267l2.32-2.32a1.595 1.595 0 0 0 .267-1.9l-1.79-3.233l-.06.06a17.172 17.172 0 0 0 2.015-4.86v.082l3.55-1.02A1.595 1.595 0 0 0 45.5 25.64v-3.28c0-.711-.471-1.337-1.155-1.533ZM24.35 29.375h5.75"/><path fill="none" stroke="currentColor" stroke-linecap="round" stroke-linejoin="round" d="M19.75 20.304L23.322 24l-2.656 2.567m-1.136 1.098l-1.77 1.71m.885-10.212l-.885-.918"/></svg>