<svg xmlns="http://www.w3.org/2000/svg" width="1em" height="1em" viewBox="0 0 256 256"><path fill="currentColor" d="M234.83 21.17a4 4 0 0 0-5.66 0L173.94 76.4l-8.2-8.2a28 28 0 0 0-39.6 0L100 94.34l-9.17-9.17a4 4 0 0 0-5.66 5.66l9.17 9.17l-26.14 26.14a28 28 0 0 0 0 39.6l8.2 8.2l-55.23 55.23a4 4 0 0 0 5.66 5.66l55.23-55.23l8.2 8.2a28 28 0 0 0 39.6 0L156 161.66l9.17 9.17a4 4 0 0 0 5.66-5.66l-9.17-9.17l26.14-26.14a28 28 0 0 0 0-39.6l-8.2-8.2l55.23-55.23a4 4 0 0 0 0-5.66Zm-110.63 161a20 20 0 0 1-28.28 0l-22.06-22.09a20 20 0 0 1 0-28.28L100 105.66L150.34 156Zm57.94-57.94L156 150.34L105.66 100l26.14-26.14a20 20 0 0 1 28.28 0l22.06 22.06a20 20 0 0 1 0 28.28ZM92.21 33.26a4 4 0 1 1 7.58-2.53l8 24a4 4 0 0 1-2.53 5.06A3.92 3.92 0 0 1 104 60a4 4 0 0 1-3.79-2.74Zm-64 61.47a4 4 0 0 1 5-2.53l24 8A4 4 0 0 1 56 108a3.92 3.92 0 0 1-1.26-.21l-24-8a4 4 0 0 1-2.53-5.06Zm199.58 66.54A4 4 0 0 1 224 164a3.92 3.92 0 0 1-1.26-.21l-24-8a4 4 0 0 1 2.52-7.59l24 8a4 4 0 0 1 2.53 5.07Zm-64 61.46a4 4 0 0 1-2.53 5.06a3.92 3.92 0 0 1-1.26.21a4 4 0 0 1-3.79-2.73l-8-24a4 4 0 0 1 7.58-2.54Z"/></svg>