<svg xmlns="http://www.w3.org/2000/svg" width="1em" height="1em" viewBox="0 0 24 24"><path fill="currentColor" d="M12 20q-3.506 0-5.753-.893Q4 18.213 4 16.807V7q0-1.246 2.34-2.123Q8.678 4 12 4t5.66.877Q20 5.754 20 7v9.808q0 1.405-2.247 2.299Q15.506 20 12 20Zm0-11.11q2.148 0 4.33-.599q2.183-.599 2.612-1.304q-.41-.745-2.57-1.366T12 5q-2.179 0-4.366.599q-2.188.6-2.615 1.31q.408.75 2.576 1.366Q9.763 8.89 12 8.89Zm0 5.033q1.03 0 2.025-.1t1.901-.297q.907-.197 1.685-.491q.777-.295 1.389-.664V8.275q-.612.37-1.39.663q-.777.295-1.684.492q-.907.197-1.901.297t-2.025.1q-1.07 0-2.079-.11q-1.01-.11-1.907-.306q-.897-.198-1.662-.482Q5.587 8.644 5 8.275v4.096q.587.37 1.352.654t1.662.482q.898.197 1.907.306q1.01.11 2.079.11ZM12 19q1.285 0 2.443-.146t2.082-.415q.923-.268 1.57-.64q.645-.372.905-.805v-3.623q-.612.37-1.39.664q-.777.294-1.684.491q-.907.197-1.901.297t-2.025.1q-1.07 0-2.079-.11q-1.01-.11-1.907-.306q-.897-.197-1.662-.482q-.765-.285-1.352-.654V17q.26.452.903.812q.643.36 1.566.627q.923.269 2.085.415Q10.715 19 12 19Z"/></svg>