<?xml version="1.0" encoding="UTF-8"?>
<svg id="Calque_2" data-name="Calque 2" xmlns="http://www.w3.org/2000/svg" viewBox="0 0 8.36 11.53">
  <defs>
    <style>
      .cls-1 {
        fill: none;
      }

      .cls-1, .cls-2, .cls-3 {
        stroke-width: 0px;
      }

      .cls-3 {
        fill: #e6e6e6;
      }
    </style>
  </defs>
  <g id="Calque_1-2" data-name="Calque 1">
    <path class="cls-2" d="M0,9.27v-.37h7.56v.37H0ZM1.05,8.53c-.17,0-.31-.06-.43-.17-.11-.11-.17-.26-.17-.43v-3.61c0-.17.06-.31.17-.43.11-.11.26-.17.43-.17h5.46c.17,0,.31.06.43.17.11.11.17.26.17.43v3.61c0,.17-.06.31-.17.43-.11.11-.26.17-.43.17H1.05ZM1.05,8.16h5.46c.06,0,.11-.02.16-.07.05-.05.07-.1.07-.16v-3.61c0-.06-.02-.11-.07-.16-.05-.05-.1-.07-.16-.07H1.05c-.06,0-.11.02-.16.07-.05.05-.07.1-.07.16v3.61c0,.06.02.11.07.16.05.05.1.07.16.07ZM.82,8.16v-4.07,4.07Z"/>
    <rect class="cls-3" x="5.13" y="2.41" width="2.99" height="4.47"/>
    <path class="cls-2" d="M6.12,6.62h1c.07,0,.12-.06.12-.12s-.06-.12-.12-.12h-1c-.07,0-.12.06-.12.12s.06.12.12.12Z"/>
    <path class="cls-2" d="M7.8,7.13h-2.36c-.33-.02-.58-.3-.56-.63v-3.72c-.02-.33.23-.61.56-.62h2.36c.33.02.58.3.56.62v3.72c.02.33-.23.61-.56.63ZM5.44,2.41c-.19.02-.33.19-.31.37v3.72c-.02.19.12.36.31.38h2.36c.19-.02.33-.19.31-.38v-3.72c.02-.19-.12-.36-.31-.38h-2.36Z"/>
    <rect class="cls-1" x=".45" width="7.91" height="1.93"/>
    <rect class="cls-1" y="9.6" width="7.91" height="1.93"/>
  </g>
</svg>