<svg xmlns="http://www.w3.org/2000/svg" width="1em" height="1em" viewBox="0 0 24 24"><path fill="currentColor" d="M10.23 19.654h3.54v-.77h-3.54v.77ZM7.616 22q-.69 0-1.152-.462Q6 21.075 6 20.385V3.615q0-.69.463-1.152Q6.925 2 7.615 2h8.77q.69 0 1.152.463q.463.462.463 1.152v16.77q0 .69-.462 1.152q-.463.463-1.153.463h-8.77ZM7 17.538v2.847q0 .23.192.423q.193.192.423.192h8.77q.23 0 .423-.192q.192-.193.192-.423v-2.847H7Zm0-1h10V5.5H7v11.038ZM7 4.5h10v-.885q0-.23-.192-.423Q16.615 3 16.385 3h-8.77q-.23 0-.423.192Q7 3.385 7 3.615V4.5Zm0 13.038V21v-3.462ZM7 4.5V3v1.5Z"/></svg>