<svg xmlns="http://www.w3.org/2000/svg" width="1em" height="1em" viewBox="0 0 24 24"><path fill="currentColor" d="M6.5 19q-1.871 0-3.186-1.306Q2 16.388 2 14.517q0-1.719 1.175-3.052q1.175-1.332 2.921-1.43q.337-2.185 2.01-3.61Q9.779 5 12 5q2.502 0 4.251 1.749Q18 8.499 18 11v1h.615q1.437.046 2.411 1.055Q22 14.063 22 15.5q0 1.471-1.014 2.486Q19.97 19 18.5 19h-12Zm0-1h12q1.05 0 1.775-.725T21 15.5q0-1.05-.725-1.775T18.5 13H17v-2q0-2.075-1.463-3.538T12 6Q9.925 6 8.463 7.463T7 11h-.5q-1.45 0-2.475 1.025T3 14.5q0 1.45 1.025 2.475T6.5 18Zm5.5-6Z"/></svg>