<svg xmlns="http://www.w3.org/2000/svg" width="1em" height="1em" viewBox="0 0 24 24"><path fill="currentColor" d="m7.154 17.177l4.77 2.477q.307.115.576-.058q.27-.173.27-.5V6.804q0-.192-.107-.346q-.105-.154-.278-.231L6.769 4v13.177h.385Zm-.368 1.498q-.457-.18-.737-.586t-.28-.912V4.038q0-.44.3-.739Q6.366 3 6.807 3l5.93 2.313q.456.182.744.594q.287.413.287.916v12.273q0 .873-.711 1.35q-.712.477-1.506.156l-4.766-1.927ZM12.769 18v-1h3.846q.27 0 .443-.173t.173-.442V4.615q0-.269-.173-.442T16.615 4H6.808V3h9.804q.675 0 1.147.475q.472.474.472 1.14v11.77q0 .666-.475 1.14q-.474.475-1.14.475h-3.847Zm-6-.823V4v13.177Z"/></svg>