<svg xmlns="http://www.w3.org/2000/svg" width="1em" height="1em" viewBox="0 0 24 24"><path fill="currentColor" d="M5.4 10q.86 0 1.658.321q.798.321 1.446.92L17.669 20H19q.425 0 .713-.288T20 19q0-.2-.038-.425t-.262-.45l-4.575-4.575L13.35 8.2l-3.062.758Q9.8 9.092 9.4 8.77T9 7.956V4.625l-.7-.35l-3.83 5.13q-.103.141-.18.288T4.17 10H5.4Zm0 1H4.096q.056.31.188.575t.378.487l8.138 7.413q.275.275.625.4t.725.125h2.062l-8.39-8.04q-.484-.483-1.117-.722Q6.07 11 5.4 11Zm8.75 10q-.558 0-1.07-.198q-.51-.198-.932-.583l-8.125-7.375q-.861-.8-.97-1.94q-.109-1.14.585-2.083l3.87-5.15q.213-.286.56-.378q.347-.091.67.086l.72.35q.275.14.408.375q.134.234.134.521v3.388l3.1-.801q.385-.104.72.09q.334.196.468.575l1.702 5.111l4.423 4.424q.347.346.467.748q.12.402.12.84q0 .827-.577 1.413Q19.846 21 19 21h-4.85Z"/></svg>