<svg xmlns="http://www.w3.org/2000/svg" width="1em" height="1em" viewBox="0 0 20 20"><g fill="currentColor"><g opacity=".2"><path d="M12.739 17.213a2 2 0 1 1-4 0a2 2 0 0 1 4 0Z"/><path fill-rule="evenodd" d="M10.71 5.765c-.67 0-1.245.2-1.65.486c-.39.276-.583.597-.639.874a1.45 1.45 0 0 1-2.842-.574c.227-1.126.925-2.045 1.809-2.67c.92-.65 2.086-1.016 3.322-1.016c2.557 0 5.208 1.71 5.208 4.456c0 1.59-.945 2.876-2.169 3.626a1.45 1.45 0 1 1-1.514-2.474c.57-.349.783-.794.783-1.152c0-.574-.715-1.556-2.308-1.556Z" clip-rule="evenodd"/><path fill-rule="evenodd" d="M10.71 9.63c.8 0 1.45.648 1.45 1.45v1.502a1.45 1.45 0 1 1-2.9 0V11.08c0-.8.649-1.45 1.45-1.45Z" clip-rule="evenodd"/><path fill-rule="evenodd" d="M14.239 8.966a1.45 1.45 0 0 1-.5 1.99l-2.284 1.367a1.45 1.45 0 0 1-1.49-2.488l2.285-1.368a1.45 1.45 0 0 1 1.989.5Z" clip-rule="evenodd"/></g><path d="M11 16.25a1.25 1.25 0 1 1-2.5 0a1.25 1.25 0 0 1 2.5 0Z"/><path fill-rule="evenodd" d="M9.71 4.065c-.807 0-1.524.24-2.053.614c-.51.36-.825.826-.922 1.308a.75.75 0 1 1-1.47-.297c.186-.922.762-1.696 1.526-2.236c.796-.562 1.82-.89 2.919-.89c2.325 0 4.508 1.535 4.508 3.757c0 1.292-.768 2.376-1.834 3.029a.75.75 0 0 1-.784-1.28c.729-.446 1.118-1.093 1.118-1.749c0-1.099-1.182-2.256-3.008-2.256Zm0 5.265a.75.75 0 0 1 .75.75v1.502a.75.75 0 1 1-1.5 0V10.08a.75.75 0 0 1 .75-.75Z" clip-rule="evenodd"/><path fill-rule="evenodd" d="M12.638 8.326a.75.75 0 0 1-.258 1.029l-2.285 1.368a.75.75 0 1 1-.77-1.287l2.285-1.368a.75.75 0 0 1 1.028.258Z" clip-rule="evenodd"/></g></svg>