<svg xmlns="http://www.w3.org/2000/svg" width="1em" height="1em" viewBox="0 0 32 32"><path fill="currentColor" d="M26 22a3.955 3.955 0 0 0-2.02.567l-3.813-3.814a4.965 4.965 0 0 0 0-5.506l2.547-2.547A3.028 3.028 0 1 0 21.3 9.286l-2.547 2.547a4.965 4.965 0 0 0-5.506 0L9.433 8.019A3.955 3.955 0 0 0 10 6a4 4 0 1 0-4 4a3.955 3.955 0 0 0 2.02-.567l3.813 3.814a4.965 4.965 0 0 0 0 5.506l-3.814 3.814A3.956 3.956 0 0 0 6 22a4 4 0 1 0 4 4a3.955 3.955 0 0 0-.567-2.02l3.814-3.813a4.969 4.969 0 0 0 1.753.732v3.285a3 3 0 1 0 2 0v-3.285a4.969 4.969 0 0 0 1.753-.732l3.814 3.814A3.955 3.955 0 0 0 22 26a4 4 0 1 0 4-4Zm-10-9a3 3 0 1 1-3 3a3.003 3.003 0 0 1 3-3ZM4 6a2 2 0 1 1 2 2a2.002 2.002 0 0 1-2-2Zm2 22a2 2 0 1 1 2-2a2.002 2.002 0 0 1-2 2Zm20 0a2 2 0 1 1 2-2a2.003 2.003 0 0 1-2 2Z"/></svg>